*
*
G04 PADS Layout (Build Number 2005.266.2) generated Gerber (RS-274-X) file*
G04 PC Version=2.1*
*
%IN "OemBS2sx_C1.pcb"*%
*
%MOIN*%
*
%FSLAX24Y24*%
*
*
*
*
G04 PC Standard Apertures*
*
*
G04 Thermal Relief Aperture macro.*
%AMTER*
1,1,$1,0,0*
1,0,$1-$2,0,0*
21,0,$3,$4,0,0,45*
21,0,$3,$4,0,0,135*
%
*
*
G04 Annular Aperture macro.*
%AMANN*
1,1,$1,0,0*
1,0,$2,0,0*
%
*
*
G04 Odd Aperture macro.*
%AMODD*
1,1,$1,0,0*
1,0,$1-0.005,0,0*
%
*
*
G04 PC Custom Aperture Macros*
*
*
*
*
*
*
G04 PC Aperture Table*
*
%ADD010C,0.01*%
%ADD012C,0.07*%
%ADD037C,0.008*%
%ADD041C,0.062*%
%ADD042C,0.075*%
%ADD043R,0.062X0.062*%
%ADD044C,0.18*%
%ADD045C,0.05*%
%ADD046C,0.045*%
%ADD047C,0.01*%
%ADD048C,0.03*%
%ADD049C,0.02*%
*
*
*
*
G04 PC Custom Flashes*
G04 Layer Name OemBS2sx_C1.pcb - flashes*
%LPD*%
*
*
G04 PC Circuitry*
G04 Layer Name OemBS2sx_C1.pcb - circuitry*
%LPD*%
*
G54D10*
G01X006900Y003400D02*
X008400Y004900D01*
X011400*
X013150Y006650*
Y008150*
X015150Y010150*
X007900Y003400D02*
X008900Y004400D01*
X011400*
X013650Y006650*
Y007650*
X015150Y009150*
X008900Y003400D02*
X009400Y003900D01*
X011650*
X014150Y006400*
Y007150*
X015150Y008150*
G54D12*
X012150Y013900D03*
Y012900D03*
Y009900D03*
Y007900D03*
Y010900D03*
Y011900D03*
Y008900D03*
X008400Y013900D03*
Y012900D03*
Y009900D03*
Y008900D03*
Y007900D03*
Y011900D03*
Y010900D03*
X020900Y003400D03*
X019900D03*
X018900D03*
X017900D03*
X016900D03*
X015900D03*
X014900D03*
X013900D03*
X012900D03*
X011900D03*
X010900D03*
X009900D03*
X008900D03*
X007900D03*
X006900D03*
X005900D03*
X004900D03*
X003900D03*
X021900D03*
G54D37*
X021650Y015650D02*
G75*
G03X021650I-000500J0D01*
G01Y019650D02*
G03X021650I-000500J0D01*
G01X007240Y006800D02*
G03X007240I-001090J0D01*
G01X006150Y010100D02*
G03X006150I-000500J0D01*
G01X007150Y010640D02*
G03X007150I-000500J0D01*
G01X006150Y011190D02*
G03X006150I-000500J0D01*
G01X007150Y011730D02*
G03X007150I-000500J0D01*
G01X006150Y012280D02*
G03X006150I-000500J0D01*
G01X007150Y012820D02*
G03X007150I-000500J0D01*
G01X006150Y013370D02*
G03X006150I-000500J0D01*
G01X007150Y013910D02*
G03X007150I-000500J0D01*
G01X007240Y016660D02*
G03X007240I-001090J0D01*
G01X022110Y002690D02*
Y002902D01*
X021400Y003196D02*
G03X022110Y002902I000500J000204D01*
G01X020400Y003196D02*
G03X021400I000500J000204D01*
G01X019400D02*
G03X020400I000500J000204D01*
G01X018400D02*
G03X019400I000500J000204D01*
G01X017400D02*
G03X018400I000500J000204D01*
G01X016400D02*
G03X017400I000500J000204D01*
G01X015400D02*
G03X016400I000500J000204D01*
G01X014400D02*
G03X015400I000500J000204D01*
G01X013400D02*
G03X014400I000500J000204D01*
G01X012400D02*
G03X013400I000500J000204D01*
G01X011400D02*
G03X012400I000500J000204D01*
G01X010400D02*
G03X011400I000500J000204D01*
G01X009400D02*
G03X010400I000500J000204D01*
G01X008400D02*
G03X009400I000500J000204D01*
G01X007400D02*
G03X008400I000500J000204D01*
G01X006400D02*
G03X007400I000500J000204D01*
G01X005400D02*
G03X006400I000500J000204D01*
G01X004400D02*
G03X005400I000500J000204D01*
G01X003400D02*
G03X004400I000500J000204D01*
G01X003400D02*
Y003090D01*
X003210Y002900D02*
G03X003400Y003090I000000J000190D01*
G01X003210Y002900D02*
X002690D01*
Y002690*
X022110*
Y003897D02*
Y022110D01*
X002690*
Y004850*
X002694Y004855D02*
G03X002690Y004850I000206J-000205D01*
G01X002694Y004855D02*
X003610Y005770D01*
Y018715*
Y019684D02*
G03Y018715I000290J-000484D01*
G01Y019684D02*
Y020950D01*
X003694Y021155D02*
G03X003610Y020950I000206J-000205D01*
G01X003694Y021155D02*
X004144Y021605D01*
X004350Y021690D02*
G03X004144Y021605I000000J-000290D01*
G01X004350Y021690D02*
X004603D01*
X004904Y021815D02*
G03X004603Y021690I-000004J-000415D01*
G01X004904Y021815D02*
X004994Y021905D01*
X005200Y021990D02*
G03X004994Y021905I000000J-000290D01*
G01X005200Y021990D02*
X010650D01*
X010855Y021905D02*
G03X010650Y021990I-000205J-000205D01*
G01X010855Y021905D02*
X011255Y021505D01*
X011340Y021300D02*
G03X011255Y021505I-000290J000000D01*
G01X011340Y021300D02*
Y021190D01*
X011442*
X012343Y020817D02*
G03X011442Y021190I-000493J000083D01*
G01X012343Y020817D02*
X014720Y018440D01*
X014742*
X015148Y018650D02*
G03X014742Y018440I000002J-000500D01*
G01X015148Y018650D02*
X014840D01*
X014650Y018840D02*
G03X014840Y018650I000190J-000000D01*
G01X014650Y018840D02*
Y019460D01*
X014840Y019650D02*
G03X014650Y019460I000000J-000190D01*
G01X014840Y019650D02*
X015460D01*
X015650Y019460D02*
G03X015460Y019650I-000190J-000000D01*
G01X015650Y019460D02*
Y018840D01*
X015460Y018650D02*
G03X015650Y018840I000000J000190D01*
G01X015460Y018650D02*
X015152D01*
X015151Y017650D02*
G03X015152Y018650I-000001J000500D01*
G01X015151Y016650D02*
G03Y017650I-000001J000500D01*
G01Y015650D02*
G03Y016650I-000001J000500D01*
G01Y014650D02*
G03Y015650I-000001J000500D01*
G01X015148Y014650D02*
G03X015151I000002J-000500D01*
G01X015148Y015650D02*
G03Y014650I000002J-000500D01*
G01Y016650D02*
G03Y015650I000002J-000500D01*
G01Y017650D02*
G03Y016650I000002J-000500D01*
G01X014742Y017860D02*
G03X015148Y017650I000408J000290D01*
G01X014742Y017860D02*
X014600D01*
X014394Y017944D02*
G03X014600Y017860I000206J000206D01*
G01X014394Y017944D02*
X012339Y020000D01*
X011851Y019400D02*
G03X012339Y020000I-000001J000500D01*
G01X011851Y018400D02*
G03Y019400I-000001J000500D01*
G01X011848Y018400D02*
G03X011851I000002J-000500D01*
G01X011848Y019400D02*
G03Y018400I000002J-000500D01*
G01Y020400D02*
G03Y019400I000002J-000500D01*
G01X011442Y020610D02*
G03X011848Y020400I000408J000290D01*
G01X011442Y020610D02*
X011340D01*
Y016900*
Y013850*
Y012190*
X011694*
X011946Y012400D02*
G03X011694Y012190I000204J-000500D01*
G01X011946Y013400D02*
G03Y012400I000204J-000500D01*
G01Y014400D02*
G03Y013400I000204J-000500D01*
G01Y014400D02*
X011840D01*
X011650Y014590D02*
G03X011840Y014400I000190J000000D01*
G01X011650Y014590D02*
Y015210D01*
X011840Y015400D02*
G03X011650Y015210I000000J-000190D01*
G01X011840Y015400D02*
X012348D01*
Y016400D02*
G03Y015400I000002J-000500D01*
G01X012351Y016400D02*
G03X012348I-000001J000500D01*
G01X012352Y015400D02*
G03X012351Y016400I-000002J000500D01*
G01X012352Y015400D02*
X012460D01*
X012650Y015210D02*
G03X012460Y015400I-000190J000000D01*
G01X012650Y015210D02*
Y014590D01*
X012460Y014400D02*
G03X012650Y014590I000000J000190D01*
G01X012460Y014400D02*
X012354D01*
Y013400D02*
G03Y014400I-000204J000500D01*
G01Y012400D02*
G03Y013400I-000204J000500D01*
G01Y011400D02*
G03Y012400I-000204J000500D01*
G01Y010400D02*
G03Y011400I-000204J000500D01*
G01Y009400D02*
G03Y010400I-000204J000500D01*
G01Y008400D02*
G03Y009400I-000204J000500D01*
G01X011946Y008400D02*
G03X012354I000204J-000500D01*
G01X011622Y009017D02*
G03X011946Y008400I000528J-000117D01*
G01X011622Y009017D02*
X010844Y009794D01*
X010760Y010000D02*
G03X010844Y009794I000290J000000D01*
G01X010760Y010000D02*
Y010110D01*
X010405*
X009614Y009914D02*
G03X010405Y010110I000436J-000064D01*
G01X009614Y010785D02*
G03Y009914I-000064J-000435D01*
G01X010405Y010590D02*
G03X009614Y010785I-000355J000260D01*
G01X010405Y010590D02*
X010760D01*
Y010900*
Y011900*
Y013560*
X010380*
X009646Y014024D02*
G03X010380Y013560I000404J-000174D01*
G01X009646Y014675D02*
G03Y014024I-000296J-000325D01*
G01X009753Y014524D02*
G03X009646Y014675I000297J000326D01*
G01X009753Y014175D02*
G03Y014524I-000403J000175D01*
G01X010380Y014140D02*
G03X009753Y014175I-000330J-000290D01*
G01X010380Y014140D02*
X010760D01*
Y016610*
X008757*
X008351Y016400D02*
G03X008757Y016610I-000001J000500D01*
G01X008352Y015400D02*
G03X008351Y016400I-000002J000500D01*
G01X008352Y015400D02*
X008710D01*
X008900Y015210D02*
G03X008710Y015400I-000190J000000D01*
G01X008900Y015210D02*
Y014590D01*
X008710Y014400D02*
G03X008900Y014590I000000J000190D01*
G01X008710Y014400D02*
X008604D01*
Y013400D02*
G03Y014400I-000204J000500D01*
G01Y012400D02*
G03Y013400I-000204J000500D01*
G01Y011400D02*
G03Y012400I-000204J000500D01*
G01Y010400D02*
G03Y011400I-000204J000500D01*
G01Y009400D02*
G03Y010400I-000204J000500D01*
G01Y008400D02*
G03Y009400I-000204J000500D01*
G01X008196Y008400D02*
G03X008604I000204J-000500D01*
G01X008196Y009400D02*
G03Y008400I000204J-000500D01*
G01Y010400D02*
G03Y009400I000204J-000500D01*
G01Y011400D02*
G03Y010400I000204J-000500D01*
G01Y012400D02*
G03Y011400I000204J-000500D01*
G01Y013400D02*
G03Y012400I000204J-000500D01*
G01Y014400D02*
G03Y013400I000204J-000500D01*
G01Y014400D02*
X008090D01*
X007900Y014590D02*
G03X008090Y014400I000190J000000D01*
G01X007900Y014590D02*
Y015210D01*
X008090Y015400D02*
G03X007900Y015210I000000J-000190D01*
G01X008090Y015400D02*
X008348D01*
Y016400D02*
G03Y015400I000002J-000500D01*
G01X008757Y017190D02*
G03X008348Y016400I-000407J-000290D01*
G01X008757Y017190D02*
X010760D01*
Y020900*
Y021179*
X010760D02*
X010529Y021410D01*
X010529D02*
X005320D01*
X005315Y021404*
X005186Y021100D02*
G03X005315Y021404I-000286J000300D01*
G01X004613Y021100D02*
G03X005186I000287J-000300D01*
G01X004603Y021110D02*
G03X004613Y021100I000297J000290D01*
G01X004603Y021110D02*
X004470D01*
X004190Y020829*
X004190D02*
Y019684D01*
X004400Y019463D02*
G03X004190Y019684I-000500J-000263D01*
G01X005400Y019463D02*
G03X004400I-000500J-000263D01*
G01X006190Y018715D02*
G03X005400Y019463I-000290J000485D01*
G01X006190Y018715D02*
Y018700D01*
X006105Y018494D02*
G03X006190Y018700I-000205J000206D01*
G01X006105Y018494D02*
X005040Y017429D01*
X005040D02*
Y003921D01*
X005400Y003604D02*
G03X005040Y003921I-000500J-000204D01*
G01X006400Y003604D02*
G03X005400I-000500J-000204D01*
G01X007123Y003891D02*
G03X006400Y003604I-000223J-000491D01*
G01X007123Y003891D02*
X008265Y005034D01*
X008400Y005090D02*
G03X008265Y005034I000000J-000190D01*
G01X008400Y005090D02*
X011321D01*
X012960Y006728*
X012960D02*
Y008150D01*
X013015Y008284D02*
G03X012960Y008150I000135J-000134D01*
G01X013015Y008284D02*
X014688Y009957D01*
X015148Y010650D02*
G03X014688Y009957I000002J-000500D01*
G01X015148Y011650D02*
G03Y010650I000002J-000500D01*
G01X015147Y012650D02*
G03X015148Y011650I000003J-000500D01*
G01X015152Y012650D02*
G03X015147I-000002J000500D01*
G01X015151Y011650D02*
G03X015152Y012650I-000001J000500D01*
G01X015151Y010650D02*
G03Y011650I-000001J000500D01*
G01Y009650D02*
G03Y010650I-000001J000500D01*
G01Y008650D02*
G03Y009650I-000001J000500D01*
G01Y007650D02*
G03Y008650I-000001J000500D01*
G01Y006650D02*
G03Y007650I-000001J000500D01*
G01X015148Y006650D02*
G03X015151I000002J-000500D01*
G01X015148Y007650D02*
G03Y006650I000002J-000500D01*
G01X014957Y007688D02*
G03X015148Y007650I000193J000462D01*
G01X014957Y007688D02*
X014340Y007071D01*
Y006400*
X014284Y006265D02*
G03X014340Y006400I-000134J000135D01*
G01X014284Y006265D02*
X011955Y003937D01*
X012400Y003604D02*
G03X011955Y003937I-000500J-000204D01*
G01X013400Y003604D02*
G03X012400I-000500J-000204D01*
G01X014400D02*
G03X013400I-000500J-000204D01*
G01X015400D02*
G03X014400I-000500J-000204D01*
G01X016400D02*
G03X015400I-000500J-000204D01*
G01X017400D02*
G03X016400I-000500J-000204D01*
G01X018400D02*
G03X017400I-000500J-000204D01*
G01X019400D02*
G03X018400I-000500J-000204D01*
G01X020400D02*
G03X019400I-000500J-000204D01*
G01X021400D02*
G03X020400I-000500J-000204D01*
G01X022110Y003897D02*
G03X021400Y003604I-000210J-000497D01*
G01X004544Y017755D02*
X005548Y018758D01*
X005400Y018936D02*
G03X005548Y018758I000500J000264D01*
G01X004400Y018936D02*
G03X005400I000500J000264D01*
G01X004190Y018715D02*
G03X004400Y018936I-000290J000485D01*
G01X004190Y018715D02*
Y005650D01*
X004105Y005444D02*
G03X004190Y005650I-000205J000206D01*
G01X004105Y005444D02*
X003190Y004529D01*
X003190D02*
Y003900D01*
X003210*
X003400Y003710D02*
G03X003210Y003900I-000190J000000D01*
G01X003400Y003710D02*
Y003604D01*
X004400D02*
G03X003400I-000500J-000204D01*
G01X004460Y003713D02*
G03X004400Y003604I000440J-000313D01*
G01X004460Y003713D02*
Y017550D01*
X004544Y017755D02*
G03X004460Y017550I000206J-000205D01*
G01X011950Y020389D02*
G03X011851Y020400I-000100J-000489D01*
G01X011950Y020389D02*
X011932Y020406D01*
X011851Y020400D02*
G03X011932Y020406I-000001J000500D01*
G01X015148Y008650D02*
G03X014688Y007957I000002J-000500D01*
G01X014957Y008688D02*
G03X015148Y008650I000193J000462D01*
G01X014957Y008688D02*
X013840Y007571D01*
Y006650*
X013784Y006515D02*
G03X013840Y006650I-000134J000135D01*
G01X013784Y006515D02*
X011534Y004265D01*
X011400Y004210D02*
G03X011534Y004265I000000J000190D01*
G01X011400Y004210D02*
X008978D01*
X008978D02*
X008644Y003875D01*
X009123Y003891D02*
G03X008644Y003875I-000223J-000491D01*
G01X009123Y003891D02*
X009265Y004034D01*
X009400Y004090D02*
G03X009265Y004034I000000J-000190D01*
G01X009400Y004090D02*
X011571D01*
X013960Y006478*
X013960D02*
Y007150D01*
X014015Y007284D02*
G03X013960Y007150I000135J-000134D01*
G01X014015Y007284D02*
X014688Y007957D01*
X015148Y009650D02*
G03X014688Y008957I000002J-000500D01*
G01X014957Y009688D02*
G03X015148Y009650I000193J000462D01*
G01X014957Y009688D02*
X013340Y008071D01*
Y006650*
X013334Y006602D02*
G03X013340Y006650I-000184J000048D01*
G01X013334Y006602D02*
X013460Y006728D01*
X013460D02*
Y007650D01*
X013515Y007784D02*
G03X013460Y007650I000135J-000134D01*
G01X013515Y007784D02*
X014688Y008957D01*
X021650Y015650D02*
G03X021650I-000500J0D01*
G01Y019650D02*
G03X021650I-000500J0D01*
G01X019651Y018150D02*
G03X019648I-000001J000500D01*
G01X019651Y017150D02*
G03Y018150I-000001J000500D01*
G01X019648Y017150D02*
G03X019651I000002J-000500D01*
G01X019648Y018150D02*
G03Y017150I000002J-000500D01*
G01X018151Y007650D02*
G03Y008650I-000001J000500D01*
G01Y006650D02*
G03Y007650I-000001J000500D01*
G01X018148Y006650D02*
G03X018151I000002J-000500D01*
G01X018148Y007650D02*
G03Y006650I000002J-000500D01*
G01Y008650D02*
G03Y007650I000002J-000500D01*
G01Y009650D02*
G03Y008650I000002J-000500D01*
G01Y010650D02*
G03Y009650I000002J-000500D01*
G01Y011650D02*
G03Y010650I000002J-000500D01*
G01Y012650D02*
G03Y011650I000002J-000500D01*
G01Y013650D02*
G03Y012650I000002J-000500D01*
G01Y014650D02*
G03Y013650I000002J-000500D01*
G01Y015650D02*
G03Y014650I000002J-000500D01*
G01Y016650D02*
G03Y015650I000002J-000500D01*
G01X018151Y016650D02*
G03X018148I-000001J000500D01*
G01X018151Y015650D02*
G03Y016650I-000001J000500D01*
G01Y014650D02*
G03Y015650I-000001J000500D01*
G01Y013650D02*
G03Y014650I-000001J000500D01*
G01Y012650D02*
G03Y013650I-000001J000500D01*
G01Y011650D02*
G03Y012650I-000001J000500D01*
G01Y010650D02*
G03Y011650I-000001J000500D01*
G01Y009650D02*
G03Y010650I-000001J000500D01*
G01Y008650D02*
G03Y009650I-000001J000500D01*
G01X018152Y018650D02*
G03X018147I-000002J000500D01*
X018152I000003J-000500*
G01X010901Y006150D02*
G03X010898I-000001J000500D01*
G01X010898D02*
G03X010901I000002J-000500D01*
G01X009350Y021210D02*
Y020590D01*
X009160Y020400D02*
G03X009350Y020590I000000J000190D01*
G01X009160Y020400D02*
X008852D01*
X008851Y019400D02*
G03X008852Y020400I-000001J000500D01*
G01X008851Y018400D02*
G03Y019400I-000001J000500D01*
G01X008848Y018400D02*
G03X008851I000002J-000500D01*
G01X008848Y019400D02*
G03Y018400I000002J-000500D01*
G01Y020400D02*
G03Y019400I000002J-000500D01*
G01Y020400D02*
X008540D01*
X008350Y020590D02*
G03X008540Y020400I000190J000000D01*
G01X008350Y020590D02*
Y021210D01*
X008540Y021400D02*
G03X008350Y021210I000000J-000190D01*
G01X008540Y021400D02*
X009160D01*
X009350Y021210D02*
G03X009160Y021400I-000190J000000D01*
G01X007240Y006800D02*
G03X007240I-001090J0D01*
G01X007150Y009860D02*
Y009240D01*
X006960Y009050D02*
G03X007150Y009240I000000J000190D01*
G01X006960Y009050D02*
X006340D01*
X006150Y009240D02*
G03X006340Y009050I000190J000000D01*
G01X006150Y009240D02*
Y009860D01*
X006340Y010050D02*
G03X006150Y009860I000000J-000190D01*
G01X006340Y010050D02*
X006960D01*
X007150Y009860D02*
G03X006960Y010050I-000190J000000D01*
G01X006150Y010100D02*
G03X006150I-000500J0D01*
G01X007150Y010640D02*
G03X007150I-000500J0D01*
G01X006150Y011190D02*
G03X006150I-000500J0D01*
G01X007150Y011730D02*
G03X007150I-000500J0D01*
G01X006150Y012280D02*
G03X006150I-000500J0D01*
G01X007150Y012820D02*
G03X007150I-000500J0D01*
G01X006150Y013370D02*
G03X006150I-000500J0D01*
G01X007150Y013910D02*
G03X007150I-000500J0D01*
G01X007240Y016660D02*
G03X007240I-001090J0D01*
G01X009651Y006150D02*
G03X009648I-000001J000500D01*
G01X009648D02*
G03X009651I000002J-000500D01*
G01X009903Y007924D02*
G03Y008575I000297J000326D01*
G01X009796Y008075D02*
G03X009903Y007924I-000296J-000325D01*
G01X009796Y008424D02*
G03Y008075I000404J-000174D01*
G01X009903Y008575D02*
G03X009796Y008424I-000403J000175D01*
G01X009753Y012524D02*
G03X009646Y012675I000297J000326D01*
G01X009753Y012175D02*
G03Y012524I-000403J000175D01*
G01X009646Y012024D02*
G03X009753Y012175I000404J-000174D01*
G01X009646Y012675D02*
G03Y012024I-000296J-000325D01*
G01X014942Y009673D02*
X014997D01*
X014870Y009601D02*
X014936D01*
X014798Y009529D02*
X014824D01*
X014726Y009457D02*
X014756D01*
X014654Y009385D02*
X014709D01*
X014222Y008953D02*
X014685D01*
X014582Y009313D02*
X014677D01*
X014294Y009025D02*
X014665D01*
X014510Y009241D02*
X014658D01*
X014366Y009097D02*
X014652D01*
X014438Y009169D02*
X014650D01*
X014150Y008881D02*
X014613D01*
X014078Y008809D02*
X014541D01*
X014006Y008737D02*
X014469D01*
X013934Y008665D02*
X014397D01*
X013862Y008593D02*
X014325D01*
X013790Y008521D02*
X014253D01*
X013718Y008449D02*
X014181D01*
X013646Y008377D02*
X014109D01*
X013574Y008305D02*
X014037D01*
X013502Y008233D02*
X013965D01*
X013430Y008161D02*
X013893D01*
X013358Y008089D02*
X013821D01*
X013340Y008017D02*
X013749D01*
X013340Y007945D02*
X013677D01*
X013340Y007873D02*
X013605D01*
X013340Y007801D02*
X013533D01*
X013340Y007729D02*
X013477D01*
X013340Y007657D02*
X013460D01*
X013340Y007585D02*
X013460D01*
X013340Y007513D02*
X013460D01*
X013340Y007441D02*
X013460D01*
X013340Y007369D02*
X013460D01*
X013340Y007297D02*
X013460D01*
X013340Y007225D02*
X013460D01*
X013340Y007153D02*
X013460D01*
X013340Y007081D02*
X013460D01*
X013340Y007009D02*
X013460D01*
X013340Y006937D02*
X013460D01*
X013340Y006865D02*
X013460D01*
X013340Y006793D02*
X013460D01*
X013340Y006721D02*
X013453D01*
X013340Y006649D02*
X013381D01*
X014934Y008665D02*
X015025D01*
X014862Y008593D02*
X014919D01*
X014790Y008521D02*
X014815D01*
X014718Y008449D02*
X014749D01*
X014646Y008377D02*
X014704D01*
X014214Y007945D02*
X014677D01*
X014574Y008305D02*
X014674D01*
X014286Y008017D02*
X014667D01*
X014502Y008233D02*
X014657D01*
X014358Y008089D02*
X014653D01*
X014430Y008161D02*
X014650D01*
X014142Y007873D02*
X014605D01*
X014070Y007801D02*
X014533D01*
X013998Y007729D02*
X014461D01*
X013926Y007657D02*
X014389D01*
X013854Y007585D02*
X014317D01*
X013840Y007513D02*
X014245D01*
X013840Y007441D02*
X014173D01*
X013840Y007369D02*
X014101D01*
X013840Y007297D02*
X014029D01*
X013840Y007225D02*
X013975D01*
X013840Y007153D02*
X013960D01*
X013840Y007081D02*
X013960D01*
X013840Y007009D02*
X013960D01*
X013840Y006937D02*
X013960D01*
X013840Y006865D02*
X013960D01*
X013840Y006793D02*
X013960D01*
X013840Y006721D02*
X013960D01*
X013840Y006649D02*
X013960D01*
X013825Y006577D02*
X013960D01*
X013774Y006505D02*
X013960D01*
X013702Y006433D02*
X013915D01*
X013630Y006361D02*
X013843D01*
X013558Y006289D02*
X013771D01*
X013486Y006217D02*
X013699D01*
X013414Y006145D02*
X013627D01*
X013342Y006073D02*
X013555D01*
X013270Y006001D02*
X013483D01*
X013198Y005929D02*
X013411D01*
X013126Y005857D02*
X013339D01*
X013054Y005785D02*
X013267D01*
X012982Y005713D02*
X013195D01*
X012910Y005641D02*
X013123D01*
X012838Y005569D02*
X013051D01*
X012766Y005497D02*
X012979D01*
X012694Y005425D02*
X012907D01*
X012622Y005353D02*
X012835D01*
X012550Y005281D02*
X012763D01*
X012478Y005209D02*
X012691D01*
X012406Y005137D02*
X012619D01*
X012334Y005065D02*
X012547D01*
X012262Y004993D02*
X012475D01*
X012190Y004921D02*
X012403D01*
X012118Y004849D02*
X012331D01*
X012046Y004777D02*
X012259D01*
X011974Y004705D02*
X012187D01*
X011902Y004633D02*
X012115D01*
X011830Y004561D02*
X012043D01*
X011758Y004489D02*
X011971D01*
X011686Y004417D02*
X011899D01*
X011614Y004345D02*
X011827D01*
X011542Y004273D02*
X011755D01*
X008970Y004201D02*
X011683D01*
X008898Y004129D02*
X011611D01*
X008826Y004057D02*
X009294D01*
X008754Y003985D02*
X009217D01*
X009066Y003913D02*
X009145D01*
X008682D02*
X008734D01*
X011893Y020401D02*
X011938D01*
X005236Y018745D02*
X005535D01*
X005316Y018817D02*
X005483D01*
X005105Y018673D02*
X005463D01*
X005372Y018889D02*
X005427D01*
X004190Y018601D02*
X005391D01*
X004190Y018529D02*
X005319D01*
X004190Y018457D02*
X005247D01*
X004190Y018385D02*
X005175D01*
X004190Y018313D02*
X005103D01*
X004190Y018241D02*
X005031D01*
X004190Y018169D02*
X004959D01*
X004190Y018097D02*
X004887D01*
X004190Y018025D02*
X004815D01*
X004190Y017953D02*
X004743D01*
X004190Y018673D02*
X004694D01*
X004190Y017881D02*
X004671D01*
X004190Y017809D02*
X004599D01*
X004236Y018745D02*
X004563D01*
X004190Y017737D02*
X004529D01*
X004190Y017665D02*
X004484D01*
X004316Y018817D02*
X004483D01*
X004190Y017593D02*
X004463D01*
X004190Y017521D02*
X004460D01*
X004190Y017449D02*
X004460D01*
X004190Y017377D02*
X004460D01*
X004190Y017305D02*
X004460D01*
X004190Y017233D02*
X004460D01*
X004190Y017161D02*
X004460D01*
X004190Y017089D02*
X004460D01*
X004190Y017017D02*
X004460D01*
X004190Y016945D02*
X004460D01*
X004190Y016873D02*
X004460D01*
X004190Y016801D02*
X004460D01*
X004190Y016729D02*
X004460D01*
X004190Y016657D02*
X004460D01*
X004190Y016585D02*
X004460D01*
X004190Y016513D02*
X004460D01*
X004190Y016441D02*
X004460D01*
X004190Y016369D02*
X004460D01*
X004190Y016297D02*
X004460D01*
X004190Y016225D02*
X004460D01*
X004190Y016153D02*
X004460D01*
X004190Y016081D02*
X004460D01*
X004190Y016009D02*
X004460D01*
X004190Y015937D02*
X004460D01*
X004190Y015865D02*
X004460D01*
X004190Y015793D02*
X004460D01*
X004190Y015721D02*
X004460D01*
X004190Y015649D02*
X004460D01*
X004190Y015577D02*
X004460D01*
X004190Y015505D02*
X004460D01*
X004190Y015433D02*
X004460D01*
X004190Y015361D02*
X004460D01*
X004190Y015289D02*
X004460D01*
X004190Y015217D02*
X004460D01*
X004190Y015145D02*
X004460D01*
X004190Y015073D02*
X004460D01*
X004190Y015001D02*
X004460D01*
X004190Y014929D02*
X004460D01*
X004190Y014857D02*
X004460D01*
X004190Y014785D02*
X004460D01*
X004190Y014713D02*
X004460D01*
X004190Y014641D02*
X004460D01*
X004190Y014569D02*
X004460D01*
X004190Y014497D02*
X004460D01*
X004190Y014425D02*
X004460D01*
X004190Y014353D02*
X004460D01*
X004190Y014281D02*
X004460D01*
X004190Y014209D02*
X004460D01*
X004190Y014137D02*
X004460D01*
X004190Y014065D02*
X004460D01*
X004190Y013993D02*
X004460D01*
X004190Y013921D02*
X004460D01*
X004190Y013849D02*
X004460D01*
X004190Y013777D02*
X004460D01*
X004190Y013705D02*
X004460D01*
X004190Y013633D02*
X004460D01*
X004190Y013561D02*
X004460D01*
X004190Y013489D02*
X004460D01*
X004190Y013417D02*
X004460D01*
X004190Y013345D02*
X004460D01*
X004190Y013273D02*
X004460D01*
X004190Y013201D02*
X004460D01*
X004190Y013129D02*
X004460D01*
X004190Y013057D02*
X004460D01*
X004190Y012985D02*
X004460D01*
X004190Y012913D02*
X004460D01*
X004190Y012841D02*
X004460D01*
X004190Y012769D02*
X004460D01*
X004190Y012697D02*
X004460D01*
X004190Y012625D02*
X004460D01*
X004190Y012553D02*
X004460D01*
X004190Y012481D02*
X004460D01*
X004190Y012409D02*
X004460D01*
X004190Y012337D02*
X004460D01*
X004190Y012265D02*
X004460D01*
X004190Y012193D02*
X004460D01*
X004190Y012121D02*
X004460D01*
X004190Y012049D02*
X004460D01*
X004190Y011977D02*
X004460D01*
X004190Y011905D02*
X004460D01*
X004190Y011833D02*
X004460D01*
X004190Y011761D02*
X004460D01*
X004190Y011689D02*
X004460D01*
X004190Y011617D02*
X004460D01*
X004190Y011545D02*
X004460D01*
X004190Y011473D02*
X004460D01*
X004190Y011401D02*
X004460D01*
X004190Y011329D02*
X004460D01*
X004190Y011257D02*
X004460D01*
X004190Y011185D02*
X004460D01*
X004190Y011113D02*
X004460D01*
X004190Y011041D02*
X004460D01*
X004190Y010969D02*
X004460D01*
X004190Y010897D02*
X004460D01*
X004190Y010825D02*
X004460D01*
X004190Y010753D02*
X004460D01*
X004190Y010681D02*
X004460D01*
X004190Y010609D02*
X004460D01*
X004190Y010537D02*
X004460D01*
X004190Y010465D02*
X004460D01*
X004190Y010393D02*
X004460D01*
X004190Y010321D02*
X004460D01*
X004190Y010249D02*
X004460D01*
X004190Y010177D02*
X004460D01*
X004190Y010105D02*
X004460D01*
X004190Y010033D02*
X004460D01*
X004190Y009961D02*
X004460D01*
X004190Y009889D02*
X004460D01*
X004190Y009817D02*
X004460D01*
X004190Y009745D02*
X004460D01*
X004190Y009673D02*
X004460D01*
X004190Y009601D02*
X004460D01*
X004190Y009529D02*
X004460D01*
X004190Y009457D02*
X004460D01*
X004190Y009385D02*
X004460D01*
X004190Y009313D02*
X004460D01*
X004190Y009241D02*
X004460D01*
X004190Y009169D02*
X004460D01*
X004190Y009097D02*
X004460D01*
X004190Y009025D02*
X004460D01*
X004190Y008953D02*
X004460D01*
X004190Y008881D02*
X004460D01*
X004190Y008809D02*
X004460D01*
X004190Y008737D02*
X004460D01*
X004190Y008665D02*
X004460D01*
X004190Y008593D02*
X004460D01*
X004190Y008521D02*
X004460D01*
X004190Y008449D02*
X004460D01*
X004190Y008377D02*
X004460D01*
X004190Y008305D02*
X004460D01*
X004190Y008233D02*
X004460D01*
X004190Y008161D02*
X004460D01*
X004190Y008089D02*
X004460D01*
X004190Y008017D02*
X004460D01*
X004190Y007945D02*
X004460D01*
X004190Y007873D02*
X004460D01*
X004190Y007801D02*
X004460D01*
X004190Y007729D02*
X004460D01*
X004190Y007657D02*
X004460D01*
X004190Y007585D02*
X004460D01*
X004190Y007513D02*
X004460D01*
X004190Y007441D02*
X004460D01*
X004190Y007369D02*
X004460D01*
X004190Y007297D02*
X004460D01*
X004190Y007225D02*
X004460D01*
X004190Y007153D02*
X004460D01*
X004190Y007081D02*
X004460D01*
X004190Y007009D02*
X004460D01*
X004190Y006937D02*
X004460D01*
X004190Y006865D02*
X004460D01*
X004190Y006793D02*
X004460D01*
X004190Y006721D02*
X004460D01*
X004190Y006649D02*
X004460D01*
X004190Y006577D02*
X004460D01*
X004190Y006505D02*
X004460D01*
X004190Y006433D02*
X004460D01*
X004190Y006361D02*
X004460D01*
X004190Y006289D02*
X004460D01*
X004190Y006217D02*
X004460D01*
X004190Y006145D02*
X004460D01*
X004190Y006073D02*
X004460D01*
X004190Y006001D02*
X004460D01*
X004190Y005929D02*
X004460D01*
X004190Y005857D02*
X004460D01*
X004190Y005785D02*
X004460D01*
X004190Y005713D02*
X004460D01*
X004189Y005641D02*
X004460D01*
X004178Y005569D02*
X004460D01*
X004146Y005497D02*
X004460D01*
X004086Y005425D02*
X004460D01*
X004014Y005353D02*
X004460D01*
X003942Y005281D02*
X004460D01*
X003870Y005209D02*
X004460D01*
X003798Y005137D02*
X004460D01*
X003726Y005065D02*
X004460D01*
X003654Y004993D02*
X004460D01*
X003582Y004921D02*
X004460D01*
X003510Y004849D02*
X004460D01*
X003438Y004777D02*
X004460D01*
X003366Y004705D02*
X004460D01*
X003294Y004633D02*
X004460D01*
X003222Y004561D02*
X004460D01*
X003190Y004489D02*
X004460D01*
X003190Y004417D02*
X004460D01*
X003190Y004345D02*
X004460D01*
X003190Y004273D02*
X004460D01*
X003190Y004201D02*
X004460D01*
X003190Y004129D02*
X004460D01*
X003190Y004057D02*
X004460D01*
X003190Y003985D02*
X004460D01*
X004066Y003913D02*
X004460D01*
X004210Y003841D02*
X004460D01*
X004293Y003769D02*
X004460D01*
X004350Y003697D02*
X004449D01*
X004372Y018889D02*
X004427D01*
X004390Y003625D02*
X004409D01*
X003190Y003913D02*
X003734D01*
X003346Y003841D02*
X003589D01*
X003390Y003769D02*
X003506D01*
X003400Y003697D02*
X003449D01*
X003400Y003625D02*
X003409D01*
X002690Y022057D02*
X022110D01*
X010698Y021985D02*
X022110D01*
X010845Y021913D02*
X022110D01*
X010918Y021841D02*
X022110D01*
X010990Y021769D02*
X022110D01*
X011062Y021697D02*
X022110D01*
X011134Y021625D02*
X022110D01*
X011206Y021553D02*
X022110D01*
X011275Y021481D02*
X022110D01*
X011318Y021409D02*
X022110D01*
X012091Y021337D02*
X022110D01*
X012190Y021265D02*
X022110D01*
X012254Y021193D02*
X022110D01*
X012298Y021121D02*
X022110D01*
X012327Y021049D02*
X022110D01*
X012343Y020977D02*
X022110D01*
X012350Y020905D02*
X022110D01*
X012345Y020833D02*
X022110D01*
X012398Y020761D02*
X022110D01*
X012470Y020689D02*
X022110D01*
X012542Y020617D02*
X022110D01*
X012614Y020545D02*
X022110D01*
X012686Y020473D02*
X022110D01*
X012758Y020401D02*
X022110D01*
X012830Y020329D02*
X022110D01*
X012902Y020257D02*
X022110D01*
X012974Y020185D02*
X022110D01*
X021336Y020113D02*
X022110D01*
X021460Y020041D02*
X022110D01*
X021534Y019969D02*
X022110D01*
X021584Y019897D02*
X022110D01*
X021618Y019825D02*
X022110D01*
X021639Y019753D02*
X022110D01*
X021649Y019681D02*
X022110D01*
X021648Y019609D02*
X022110D01*
X021637Y019537D02*
X022110D01*
X021614Y019465D02*
X022110D01*
X021579Y019393D02*
X022110D01*
X021527Y019321D02*
X022110D01*
X021449Y019249D02*
X022110D01*
X021314Y019177D02*
X022110D01*
X019855Y019105D02*
X022110D01*
X019970Y019033D02*
X022110D01*
X020040Y018961D02*
X022110D01*
X020088Y018889D02*
X022110D01*
X020121Y018817D02*
X022110D01*
X020140Y018745D02*
X022110D01*
X020149Y018673D02*
X022110D01*
X020147Y018601D02*
X022110D01*
X020135Y018529D02*
X022110D01*
X020111Y018457D02*
X022110D01*
X020074Y018385D02*
X022110D01*
X020020Y018313D02*
X022110D01*
X019938Y018241D02*
X022110D01*
X019789Y018169D02*
X022110D01*
X019872Y018097D02*
X022110D01*
X019979Y018025D02*
X022110D01*
X020047Y017953D02*
X022110D01*
X020093Y017881D02*
X022110D01*
X020123Y017809D02*
X022110D01*
X020142Y017737D02*
X022110D01*
X020149Y017665D02*
X022110D01*
X020146Y017593D02*
X022110D01*
X020133Y017521D02*
X022110D01*
X020108Y017449D02*
X022110D01*
X020069Y017377D02*
X022110D01*
X020012Y017305D02*
X022110D01*
X019927Y017233D02*
X022110D01*
X019758Y017161D02*
X022110D01*
X019887Y017089D02*
X022110D01*
X019988Y017017D02*
X022110D01*
X020053Y016945D02*
X022110D01*
X020097Y016873D02*
X022110D01*
X020126Y016801D02*
X022110D01*
X020143Y016729D02*
X022110D01*
X020149Y016657D02*
X022110D01*
X020145Y016585D02*
X022110D01*
X020131Y016513D02*
X022110D01*
X020104Y016441D02*
X022110D01*
X020064Y016369D02*
X022110D01*
X020005Y016297D02*
X022110D01*
X019914Y016225D02*
X022110D01*
X019712Y016153D02*
X022110D01*
X021402Y016081D02*
X022110D01*
X021497Y016009D02*
X022110D01*
X021558Y015937D02*
X022110D01*
X021601Y015865D02*
X022110D01*
X021628Y015793D02*
X022110D01*
X021644Y015721D02*
X022110D01*
X021650Y015649D02*
X022110D01*
X021644Y015577D02*
X022110D01*
X021628Y015505D02*
X022110D01*
X021600Y015433D02*
X022110D01*
X021558Y015361D02*
X022110D01*
X021496Y015289D02*
X022110D01*
X021401Y015217D02*
X022110D01*
X018650Y015145D02*
X022110D01*
X018644Y015073D02*
X022110D01*
X018627Y015001D02*
X022110D01*
X018598Y014929D02*
X022110D01*
X018555Y014857D02*
X022110D01*
X018492Y014785D02*
X022110D01*
X018394Y014713D02*
X022110D01*
X018239Y014641D02*
X022110D01*
X018421Y014569D02*
X022110D01*
X018509Y014497D02*
X022110D01*
X018567Y014425D02*
X022110D01*
X018606Y014353D02*
X022110D01*
X018632Y014281D02*
X022110D01*
X018646Y014209D02*
X022110D01*
X018649Y014137D02*
X022110D01*
X018642Y014065D02*
X022110D01*
X018625Y013993D02*
X022110D01*
X018594Y013921D02*
X022110D01*
X018549Y013849D02*
X022110D01*
X018483Y013777D02*
X022110D01*
X018379Y013705D02*
X022110D01*
X018276Y013633D02*
X022110D01*
X018433Y013561D02*
X022110D01*
X018516Y013489D02*
X022110D01*
X018572Y013417D02*
X022110D01*
X018610Y013345D02*
X022110D01*
X018634Y013273D02*
X022110D01*
X018647Y013201D02*
X022110D01*
X018649Y013129D02*
X022110D01*
X018641Y013057D02*
X022110D01*
X018622Y012985D02*
X022110D01*
X018590Y012913D02*
X022110D01*
X018543Y012841D02*
X022110D01*
X018474Y012769D02*
X022110D01*
X018363Y012697D02*
X022110D01*
X018303Y012625D02*
X022110D01*
X018444Y012553D02*
X022110D01*
X018524Y012481D02*
X022110D01*
X018577Y012409D02*
X022110D01*
X018613Y012337D02*
X022110D01*
X018636Y012265D02*
X022110D01*
X018648Y012193D02*
X022110D01*
X018649Y012121D02*
X022110D01*
X018639Y012049D02*
X022110D01*
X018619Y011977D02*
X022110D01*
X018586Y011905D02*
X022110D01*
X018537Y011833D02*
X022110D01*
X018465Y011761D02*
X022110D01*
X018345Y011689D02*
X022110D01*
X018326Y011617D02*
X022110D01*
X018455Y011545D02*
X022110D01*
X018530Y011473D02*
X022110D01*
X018581Y011401D02*
X022110D01*
X018616Y011329D02*
X022110D01*
X018638Y011257D02*
X022110D01*
X018648Y011185D02*
X022110D01*
X018648Y011113D02*
X022110D01*
X018638Y011041D02*
X022110D01*
X018616Y010969D02*
X022110D01*
X018581Y010897D02*
X022110D01*
X018530Y010825D02*
X022110D01*
X018455Y010753D02*
X022110D01*
X018325Y010681D02*
X022110D01*
X018346Y010609D02*
X022110D01*
X018465Y010537D02*
X022110D01*
X018537Y010465D02*
X022110D01*
X018586Y010393D02*
X022110D01*
X018619Y010321D02*
X022110D01*
X018639Y010249D02*
X022110D01*
X018649Y010177D02*
X022110D01*
X018648Y010105D02*
X022110D01*
X018636Y010033D02*
X022110D01*
X018613Y009961D02*
X022110D01*
X018577Y009889D02*
X022110D01*
X018523Y009817D02*
X022110D01*
X018444Y009745D02*
X022110D01*
X018302Y009673D02*
X022110D01*
X018364Y009601D02*
X022110D01*
X018475Y009529D02*
X022110D01*
X018544Y009457D02*
X022110D01*
X018590Y009385D02*
X022110D01*
X018622Y009313D02*
X022110D01*
X018641Y009241D02*
X022110D01*
X018649Y009169D02*
X022110D01*
X018647Y009097D02*
X022110D01*
X018634Y009025D02*
X022110D01*
X018609Y008953D02*
X022110D01*
X018572Y008881D02*
X022110D01*
X018516Y008809D02*
X022110D01*
X018433Y008737D02*
X022110D01*
X018275Y008665D02*
X022110D01*
X018380Y008593D02*
X022110D01*
X018484Y008521D02*
X022110D01*
X018550Y008449D02*
X022110D01*
X018595Y008377D02*
X022110D01*
X018625Y008305D02*
X022110D01*
X018642Y008233D02*
X022110D01*
X018649Y008161D02*
X022110D01*
X018646Y008089D02*
X022110D01*
X018632Y008017D02*
X022110D01*
X018606Y007945D02*
X022110D01*
X018566Y007873D02*
X022110D01*
X018508Y007801D02*
X022110D01*
X018421Y007729D02*
X022110D01*
X018238Y007657D02*
X022110D01*
X018395Y007585D02*
X022110D01*
X018492Y007513D02*
X022110D01*
X018556Y007441D02*
X022110D01*
X018599Y007369D02*
X022110D01*
X018627Y007297D02*
X022110D01*
X018644Y007225D02*
X022110D01*
X018650Y007153D02*
X022110D01*
X018645Y007081D02*
X022110D01*
X018630Y007009D02*
X022110D01*
X018602Y006937D02*
X022110D01*
X018561Y006865D02*
X022110D01*
X018501Y006793D02*
X022110D01*
X018408Y006721D02*
X022110D01*
X018161Y006649D02*
X022110D01*
X018408Y006577D02*
X022110D01*
X018501Y006505D02*
X022110D01*
X018561Y006433D02*
X022110D01*
X018602Y006361D02*
X022110D01*
X018630Y006289D02*
X022110D01*
X018645Y006217D02*
X022110D01*
X018650Y006145D02*
X022110D01*
X018644Y006073D02*
X022110D01*
X018627Y006001D02*
X022110D01*
X018598Y005929D02*
X022110D01*
X018555Y005857D02*
X022110D01*
X018492Y005785D02*
X022110D01*
X018394Y005713D02*
X022110D01*
X013660Y005641D02*
X022110D01*
X013588Y005569D02*
X022110D01*
X013516Y005497D02*
X022110D01*
X013444Y005425D02*
X022110D01*
X013372Y005353D02*
X022110D01*
X013300Y005281D02*
X022110D01*
X013228Y005209D02*
X022110D01*
X013156Y005137D02*
X022110D01*
X013084Y005065D02*
X022110D01*
X013012Y004993D02*
X022110D01*
X012940Y004921D02*
X022110D01*
X012868Y004849D02*
X022110D01*
X012796Y004777D02*
X022110D01*
X012724Y004705D02*
X022110D01*
X012652Y004633D02*
X022110D01*
X012580Y004561D02*
X022110D01*
X012508Y004489D02*
X022110D01*
X012436Y004417D02*
X022110D01*
X012364Y004345D02*
X022110D01*
X012292Y004273D02*
X022110D01*
X012220Y004201D02*
X022110D01*
X012148Y004129D02*
X022110D01*
X012076Y004057D02*
X022110D01*
X012004Y003985D02*
X022110D01*
X022066Y003913D02*
X022110D01*
X021066D02*
X021734D01*
X021210Y003841D02*
X021589D01*
X021293Y003769D02*
X021506D01*
X021350Y003697D02*
X021449D01*
X021390Y003625D02*
X021409D01*
X018649Y019177D02*
X020985D01*
X013046Y020113D02*
X020963D01*
X018645Y015217D02*
X020898D01*
X018645Y016081D02*
X020898D01*
X018639Y019249D02*
X020850D01*
X013118Y020041D02*
X020839D01*
X018630Y015289D02*
X020803D01*
X018630Y016009D02*
X020802D01*
X018619Y019321D02*
X020772D01*
X013190Y019969D02*
X020765D01*
X018602Y015361D02*
X020741D01*
X018602Y015937D02*
X020741D01*
X020066Y003913D02*
X020734D01*
X018586Y019393D02*
X020720D01*
X013262Y019897D02*
X020715D01*
X018561Y015433D02*
X020699D01*
X018561Y015865D02*
X020699D01*
X018537Y019465D02*
X020685D01*
X013334Y019825D02*
X020681D01*
X018501Y015505D02*
X020671D01*
X018501Y015793D02*
X020671D01*
X018465Y019537D02*
X020662D01*
X013406Y019753D02*
X020660D01*
X018408Y015577D02*
X020655D01*
X018408Y015721D02*
X020655D01*
X018346Y019609D02*
X020651D01*
X013478Y019681D02*
X020651D01*
X018161Y015649D02*
X020650D01*
X020210Y003841D02*
X020589D01*
X020293Y003769D02*
X020506D01*
X020350Y003697D02*
X020449D01*
X020390Y003625D02*
X020409D01*
X019066Y003913D02*
X019734D01*
X019210Y003841D02*
X019589D01*
X018650Y016153D02*
X019587D01*
X018649Y017161D02*
X019541D01*
X018649Y018169D02*
X019510D01*
X019293Y003769D02*
X019506D01*
X019350Y003697D02*
X019449D01*
X018648Y019105D02*
X019444D01*
X018647Y018097D02*
X019427D01*
X018646Y017089D02*
X019412D01*
X019390Y003625D02*
X019409D01*
X018644Y016225D02*
X019385D01*
X018642Y017233D02*
X019372D01*
X018641Y018241D02*
X019361D01*
X018636Y019033D02*
X019329D01*
X018634Y018025D02*
X019320D01*
X018632Y017017D02*
X019311D01*
X018627Y016297D02*
X019295D01*
X018625Y017305D02*
X019287D01*
X018622Y018313D02*
X019279D01*
X018613Y018961D02*
X019259D01*
X018609Y017953D02*
X019252D01*
X018606Y016945D02*
X019246D01*
X018599Y016369D02*
X019235D01*
X018595Y017377D02*
X019230D01*
X018590Y018385D02*
X019225D01*
X018577Y018889D02*
X019211D01*
X018572Y017881D02*
X019207D01*
X018566Y016873D02*
X019202D01*
X018556Y016441D02*
X019195D01*
X018550Y017449D02*
X019191D01*
X018544Y018457D02*
X019188D01*
X018523Y018817D02*
X019179D01*
X018516Y017809D02*
X019176D01*
X018508Y016801D02*
X019173D01*
X018492Y016513D02*
X019168D01*
X018484Y017521D02*
X019166D01*
X018475Y018529D02*
X019164D01*
X018444Y018745D02*
X019159D01*
X018433Y017737D02*
X019157D01*
X018421Y016729D02*
X019156D01*
X018395Y016585D02*
X019154D01*
X018380Y017593D02*
X019153D01*
X018364Y018601D02*
X019152D01*
X018302Y018673D02*
X019150D01*
X018274Y017665D02*
X019150D01*
X018238Y016657D02*
X019150D01*
X018066Y003913D02*
X018734D01*
X018210Y003841D02*
X018589D01*
X018293Y003769D02*
X018506D01*
X018350Y003697D02*
X018449D01*
X018390Y003625D02*
X018409D01*
X015161Y015649D02*
X018138D01*
X015161Y006649D02*
X018138D01*
X015238Y007657D02*
X018061D01*
X015238Y016657D02*
X018061D01*
X015239Y014641D02*
X018060D01*
X015275Y017665D02*
X018025D01*
X015275Y008665D02*
X018025D01*
X015276Y013633D02*
X018024D01*
X015302Y009673D02*
X017997D01*
X015552Y018673D02*
X017997D01*
X015303Y012625D02*
X017996D01*
X015325Y010681D02*
X017974D01*
X015326Y011617D02*
X017973D01*
X015345Y011689D02*
X017954D01*
X015576Y019609D02*
X017953D01*
X015346Y010609D02*
X017953D01*
X015363Y012697D02*
X017936D01*
X015364Y009601D02*
X017936D01*
X015364Y018601D02*
X017935D01*
X015379Y013705D02*
X017920D01*
X015380Y008593D02*
X017919D01*
X015380Y017593D02*
X017919D01*
X015394Y005713D02*
X017905D01*
X015394Y014713D02*
X017905D01*
X015395Y007585D02*
X017905D01*
X015395Y016585D02*
X017905D01*
X015408Y006721D02*
X017891D01*
X015408Y015721D02*
X017891D01*
X015408Y015577D02*
X017891D01*
X015408Y006577D02*
X017891D01*
X015421Y007729D02*
X017878D01*
X015421Y016729D02*
X017878D01*
X015421Y014569D02*
X017878D01*
X015433Y017737D02*
X017866D01*
X015433Y008737D02*
X017866D01*
X015433Y013561D02*
X017866D01*
X015444Y009745D02*
X017855D01*
X015625Y018745D02*
X017855D01*
X015444Y012553D02*
X017855D01*
X015455Y010753D02*
X017844D01*
X015455Y011545D02*
X017844D01*
X015465Y011761D02*
X017834D01*
X015633Y019537D02*
X017834D01*
X015465Y010537D02*
X017834D01*
X015474Y012769D02*
X017825D01*
X015475Y009529D02*
X017824D01*
X015475Y018529D02*
X017824D01*
X015483Y013777D02*
X017816D01*
X015484Y008521D02*
X017815D01*
X015484Y017521D02*
X017815D01*
X015492Y005785D02*
X017807D01*
X015492Y014785D02*
X017807D01*
X015492Y007513D02*
X017807D01*
X015492Y016513D02*
X017807D01*
X015501Y006793D02*
X017799D01*
X015501Y015793D02*
X017799D01*
X015501Y015505D02*
X017798D01*
X015501Y006505D02*
X017798D01*
X015508Y007801D02*
X017791D01*
X015508Y016801D02*
X017791D01*
X015509Y014497D02*
X017790D01*
X015516Y017809D02*
X017783D01*
X015516Y008809D02*
X017783D01*
X015516Y013489D02*
X017783D01*
X015523Y009817D02*
X017776D01*
X015648Y018817D02*
X017776D01*
X015524Y012481D02*
X017776D01*
X015530Y010825D02*
X017769D01*
X015530Y011473D02*
X017769D01*
X015537Y011833D02*
X017762D01*
X015649Y019465D02*
X017762D01*
X015537Y010465D02*
X017762D01*
X015543Y012841D02*
X017756D01*
X015544Y009457D02*
X017756D01*
X015544Y018457D02*
X017756D01*
X015549Y013849D02*
X017750D01*
X015550Y008449D02*
X017749D01*
X015550Y017449D02*
X017749D01*
X015555Y014857D02*
X017744D01*
X015555Y005857D02*
X017744D01*
X015556Y007441D02*
X017744D01*
X015556Y016441D02*
X017744D01*
X015561Y006865D02*
X017738D01*
X015561Y015865D02*
X017738D01*
X015561Y015433D02*
X017738D01*
X015561Y006433D02*
X017738D01*
X017066Y003913D02*
X017734D01*
X015566Y007873D02*
X017733D01*
X015566Y016873D02*
X017733D01*
X015567Y014425D02*
X017733D01*
X015572Y017881D02*
X017728D01*
X015572Y008881D02*
X017728D01*
X015572Y013417D02*
X017727D01*
X015650Y018889D02*
X017723D01*
X015577Y009889D02*
X017723D01*
X015577Y012409D02*
X017722D01*
X015581Y010897D02*
X017718D01*
X015581Y011401D02*
X017718D01*
X015586Y011905D02*
X017713D01*
X015650Y019393D02*
X017713D01*
X015586Y010393D02*
X017713D01*
X015590Y012913D02*
X017709D01*
X015590Y009385D02*
X017709D01*
X015590Y018385D02*
X017709D01*
X015594Y013921D02*
X017705D01*
X015595Y008377D02*
X017705D01*
X015595Y017377D02*
X017704D01*
X015598Y014929D02*
X017701D01*
X015598Y005929D02*
X017701D01*
X015599Y007369D02*
X017700D01*
X015599Y016369D02*
X017700D01*
X015602Y006937D02*
X017697D01*
X015602Y015937D02*
X017697D01*
X015602Y015361D02*
X017697D01*
X015602Y006361D02*
X017697D01*
X015606Y007945D02*
X017693D01*
X015606Y016945D02*
X017693D01*
X015606Y014353D02*
X017693D01*
X015609Y017953D02*
X017690D01*
X015609Y008953D02*
X017690D01*
X015610Y013345D02*
X017690D01*
X015613Y009961D02*
X017686D01*
X015650Y018961D02*
X017686D01*
X015613Y012337D02*
X017686D01*
X015616Y010969D02*
X017683D01*
X015616Y011329D02*
X017683D01*
X015619Y011977D02*
X017680D01*
X015650Y019321D02*
X017680D01*
X015619Y010321D02*
X017680D01*
X015622Y012985D02*
X017677D01*
X015622Y009313D02*
X017677D01*
X015622Y018313D02*
X017677D01*
X015625Y013993D02*
X017675D01*
X015625Y008305D02*
X017674D01*
X015625Y017305D02*
X017674D01*
X015627Y006001D02*
X017672D01*
X015627Y015001D02*
X017672D01*
X015627Y007297D02*
X017672D01*
X015627Y016297D02*
X017672D01*
X015630Y007009D02*
X017670D01*
X015630Y016009D02*
X017670D01*
X015630Y015289D02*
X017670D01*
X015630Y006289D02*
X017670D01*
X015632Y008017D02*
X017667D01*
X015632Y017017D02*
X017667D01*
X015632Y014281D02*
X017667D01*
X015634Y018025D02*
X017665D01*
X015634Y009025D02*
X017665D01*
X015634Y013273D02*
X017665D01*
X015636Y010033D02*
X017663D01*
X015650Y019033D02*
X017663D01*
X015636Y012265D02*
X017663D01*
X015638Y011041D02*
X017661D01*
X015638Y011257D02*
X017661D01*
X015639Y012049D02*
X017660D01*
X015650Y019249D02*
X017660D01*
X015639Y010249D02*
X017660D01*
X015641Y013057D02*
X017658D01*
X015641Y009241D02*
X017658D01*
X015641Y018241D02*
X017658D01*
X015642Y014065D02*
X017657D01*
X015642Y008233D02*
X017657D01*
X015642Y017233D02*
X017657D01*
X015644Y015073D02*
X017655D01*
X015644Y006073D02*
X017655D01*
X015644Y007225D02*
X017655D01*
X015644Y016225D02*
X017655D01*
X015645Y007081D02*
X017654D01*
X015645Y016081D02*
X017654D01*
X015645Y015217D02*
X017654D01*
X015645Y006217D02*
X017654D01*
X015646Y008089D02*
X017653D01*
X015646Y017089D02*
X017653D01*
X015646Y014209D02*
X017653D01*
X015647Y018097D02*
X017652D01*
X015647Y009097D02*
X017652D01*
X015647Y013201D02*
X017652D01*
X015650Y019105D02*
X017651D01*
X015648Y010105D02*
X017651D01*
X015648Y012193D02*
X017651D01*
X015648Y011113D02*
X017651D01*
X015648Y011185D02*
X017651D01*
X015649Y012121D02*
X017650D01*
X015650Y019177D02*
X017650D01*
X015649Y010177D02*
X017650D01*
X015649Y013129D02*
X017650D01*
X015649Y009169D02*
X017650D01*
X015649Y018169D02*
X017650D01*
X015649Y008161D02*
X017650D01*
X015649Y014137D02*
X017650D01*
X015649Y017161D02*
X017650D01*
X015650Y007153D02*
X017650D01*
X015650Y015145D02*
X017650D01*
X015650Y006145D02*
X017650D01*
X015650Y016153D02*
X017650D01*
X017210Y003841D02*
X017589D01*
X017293Y003769D02*
X017506D01*
X017350Y003697D02*
X017449D01*
X017390Y003625D02*
X017409D01*
X016066Y003913D02*
X016734D01*
X016210Y003841D02*
X016589D01*
X016293Y003769D02*
X016506D01*
X016350Y003697D02*
X016449D01*
X016390Y003625D02*
X016409D01*
X015066Y003913D02*
X015734D01*
X015210Y003841D02*
X015589D01*
X015293Y003769D02*
X015506D01*
X015350Y003697D02*
X015449D01*
X015390Y003625D02*
X015409D01*
X014340Y006649D02*
X015138D01*
X012782Y015649D02*
X015138D01*
X014926Y007657D02*
X015061D01*
X012787Y016657D02*
X015061D01*
X012650Y014641D02*
X015060D01*
X012291Y017665D02*
X015025D01*
X012619Y013633D02*
X015024D01*
X012615Y012625D02*
X014996D01*
X012644Y010681D02*
X014974D01*
X012610Y011617D02*
X014973D01*
X012647Y011689D02*
X014954D01*
X012605Y010609D02*
X014953D01*
X012650Y012697D02*
X014936D01*
X014558Y018601D02*
X014936D01*
X012653Y013705D02*
X014920D01*
X012245Y017593D02*
X014919D01*
X012650Y014713D02*
X014905D01*
X013732Y005713D02*
X014905D01*
X012739Y016585D02*
X014905D01*
X014854Y007585D02*
X014905D01*
X014340Y006721D02*
X014891D01*
X012817Y015721D02*
X014891D01*
X014340Y006577D02*
X014891D01*
X012732Y015577D02*
X014891D01*
X012820Y016729D02*
X014878D01*
X012648Y014569D02*
X014878D01*
X012323Y017737D02*
X014866D01*
X012571Y013561D02*
X014866D01*
X012564Y012553D02*
X014855D01*
X012669Y010753D02*
X014844D01*
X012557Y011545D02*
X014844D01*
X012672Y011761D02*
X014834D01*
X012550Y010537D02*
X014834D01*
X012674Y012769D02*
X014825D01*
X014630Y018529D02*
X014824D01*
X012676Y013777D02*
X014816D01*
X012177Y017521D02*
X014815D01*
X013804Y005785D02*
X014807D01*
X012650Y014785D02*
X014807D01*
X012667Y016513D02*
X014807D01*
X014782Y007513D02*
X014807D01*
X014340Y006793D02*
X014799D01*
X012838Y015793D02*
X014799D01*
X014340Y006505D02*
X014798D01*
X012657Y015505D02*
X014798D01*
X012840Y016801D02*
X014791D01*
X012626Y014497D02*
X014790D01*
X012341Y017809D02*
X014783D01*
X012501Y013489D02*
X014783D01*
X012491Y012481D02*
X014776D01*
X012684Y010825D02*
X014769D01*
X012481Y011473D02*
X014769D01*
X012685Y011833D02*
X014762D01*
X012471Y010465D02*
X014762D01*
X012686Y012841D02*
X014756D01*
X014702Y018457D02*
X014756D01*
X012687Y013849D02*
X014750D01*
X012067Y017449D02*
X014749D01*
X014486Y018673D02*
X014747D01*
X013876Y005857D02*
X014744D01*
X012650Y014857D02*
X014744D01*
X012550Y016441D02*
X014744D01*
X014710Y007441D02*
X014744D01*
X014340Y006865D02*
X014738D01*
X012848Y015865D02*
X014738D01*
X014340Y006433D02*
X014738D01*
X012530Y015433D02*
X014738D01*
X014066Y003913D02*
X014734D01*
X012849Y016873D02*
X014733D01*
X012555Y014425D02*
X014733D01*
X012393Y013417D02*
X014727D01*
X013550Y019609D02*
X014723D01*
X012376Y012409D02*
X014722D01*
X012690Y010897D02*
X014718D01*
X012358Y011401D02*
X014718D01*
X012690Y011905D02*
X014713D01*
X012368Y010393D02*
X014713D01*
X012689Y012913D02*
X014709D01*
X012689Y013921D02*
X014705D01*
X012497Y017377D02*
X014704D01*
X013948Y005929D02*
X014701D01*
X012650Y014929D02*
X014701D01*
X012521Y016369D02*
X014700D01*
X014638Y007369D02*
X014700D01*
X014340Y006937D02*
X014697D01*
X012848Y015937D02*
X014697D01*
X014336Y006361D02*
X014697D01*
X012574Y015361D02*
X014697D01*
X012847Y016945D02*
X014693D01*
X012442Y014353D02*
X014693D01*
X012454Y013345D02*
X014690D01*
X012686Y009961D02*
X014686D01*
X012466Y012337D02*
X014686D01*
X012685Y010969D02*
X014683D01*
X012476Y011329D02*
X014683D01*
X012684Y011977D02*
X014680D01*
X012487Y010321D02*
X014680D01*
X012683Y012985D02*
X014677D01*
X012681Y013993D02*
X014675D01*
X014414Y018745D02*
X014675D01*
X012642Y017305D02*
X014674D01*
X014020Y006001D02*
X014672D01*
X012650Y015001D02*
X014672D01*
X012652Y016297D02*
X014672D01*
X014566Y007297D02*
X014672D01*
X014340Y007009D02*
X014670D01*
X012837Y016009D02*
X014670D01*
X014304Y006289D02*
X014670D01*
X012632Y015289D02*
X014670D01*
X012835Y017017D02*
X014667D01*
X012531Y014281D02*
X014667D01*
X013622Y019537D02*
X014666D01*
X012539Y013273D02*
X014665D01*
X012673Y010033D02*
X014663D01*
X012547Y012265D02*
X014663D01*
X012671Y011041D02*
X014661D01*
X012554Y011257D02*
X014661D01*
X012668Y012049D02*
X014660D01*
X012561Y010249D02*
X014660D01*
X012666Y013057D02*
X014658D01*
X012663Y014065D02*
X014657D01*
X012722Y017233D02*
X014657D01*
X014092Y006073D02*
X014655D01*
X012650Y015073D02*
X014655D01*
X012729Y016225D02*
X014655D01*
X014494Y007225D02*
X014655D01*
X012815Y016081D02*
X014654D01*
X014350Y007081D02*
X014654D01*
X014236Y006217D02*
X014654D01*
X012649Y015217D02*
X014654D01*
X012812Y017089D02*
X014653D01*
X012592Y014209D02*
X014653D01*
X012597Y013201D02*
X014652D01*
X012649Y010105D02*
X014651D01*
X012603Y012193D02*
X014651D01*
X012645Y011113D02*
X014651D01*
X014342Y018817D02*
X014651D01*
X012608Y011185D02*
X014651D01*
X012642Y012121D02*
X014650D01*
X012613Y010177D02*
X014650D01*
X012638Y013129D02*
X014650D01*
X012634Y014137D02*
X014650D01*
X012775Y017161D02*
X014650D01*
X013694Y019465D02*
X014650D01*
X014164Y006145D02*
X014650D01*
X012650Y015145D02*
X014650D01*
X012780Y016153D02*
X014650D01*
X014422Y007153D02*
X014650D01*
X013766Y019393D02*
X014650D01*
X013838Y019321D02*
X014650D01*
X013910Y019249D02*
X014650D01*
X013982Y019177D02*
X014650D01*
X014054Y019105D02*
X014650D01*
X014126Y019033D02*
X014650D01*
X014198Y018961D02*
X014650D01*
X014270Y018889D02*
X014650D01*
X012689Y009889D02*
X014621D01*
X014210Y003841D02*
X014589D01*
X012683Y009817D02*
X014549D01*
X014293Y003769D02*
X014506D01*
X012349Y017881D02*
X014489D01*
X012667Y009745D02*
X014477D01*
X014350Y003697D02*
X014449D01*
X014390Y003625D02*
X014409D01*
X012640Y009673D02*
X014405D01*
X012347Y017953D02*
X014386D01*
X012600Y009601D02*
X014333D01*
X012333Y018025D02*
X014314D01*
X012543Y009529D02*
X014261D01*
X012309Y018097D02*
X014242D01*
X012460Y009457D02*
X014189D01*
X012270Y018169D02*
X014170D01*
X012385Y009385D02*
X014117D01*
X012214Y018241D02*
X014098D01*
X012496Y009313D02*
X014045D01*
X012130Y018313D02*
X014026D01*
X012568Y009241D02*
X013973D01*
X011968Y018385D02*
X013954D01*
X012617Y009169D02*
X013901D01*
X012083Y018457D02*
X013882D01*
X012652Y009097D02*
X013829D01*
X012186Y018529D02*
X013810D01*
X012675Y009025D02*
X013757D01*
X012251Y018601D02*
X013738D01*
X013066Y003913D02*
X013734D01*
X012687Y008953D02*
X013685D01*
X012295Y018673D02*
X013666D01*
X012689Y008881D02*
X013613D01*
X012325Y018745D02*
X013594D01*
X013210Y003841D02*
X013589D01*
X012682Y008809D02*
X013541D01*
X012343Y018817D02*
X013522D01*
X013293Y003769D02*
X013506D01*
X012665Y008737D02*
X013469D01*
X012349Y018889D02*
X013450D01*
X013350Y003697D02*
X013449D01*
X013390Y003625D02*
X013409D01*
X012636Y008665D02*
X013397D01*
X012346Y018961D02*
X013378D01*
X012594Y008593D02*
X013325D01*
X012331Y019033D02*
X013306D01*
X012535Y008521D02*
X013253D01*
X012305Y019105D02*
X013234D01*
X012448Y008449D02*
X013181D01*
X012265Y019177D02*
X013162D01*
X012401Y008377D02*
X013109D01*
X012207Y019249D02*
X013090D01*
X012506Y008305D02*
X013037D01*
X012118Y019321D02*
X013018D01*
X012574Y008233D02*
X012979D01*
X012622Y008161D02*
X012960D01*
X012655Y008089D02*
X012960D01*
X012677Y008017D02*
X012960D01*
X012688Y007945D02*
X012960D01*
X012689Y007873D02*
X012960D01*
X012681Y007801D02*
X012960D01*
X012662Y007729D02*
X012960D01*
X012632Y007657D02*
X012960D01*
X012589Y007585D02*
X012960D01*
X012527Y007513D02*
X012960D01*
X012435Y007441D02*
X012960D01*
X012252Y007369D02*
X012960D01*
X007119Y007297D02*
X012960D01*
X007153Y007225D02*
X012960D01*
X007181Y007153D02*
X012960D01*
X011152Y007081D02*
X012960D01*
X011247Y007009D02*
X012960D01*
X011308Y006937D02*
X012960D01*
X011351Y006865D02*
X012960D01*
X011378Y006793D02*
X012960D01*
X011394Y006721D02*
X012953D01*
X011928Y019393D02*
X012946D01*
X011400Y006649D02*
X012881D01*
X012098Y019465D02*
X012874D01*
X011394Y006577D02*
X012809D01*
X012194Y019537D02*
X012802D01*
X011378Y006505D02*
X012737D01*
X012066Y003913D02*
X012734D01*
X012257Y019609D02*
X012730D01*
X011350Y006433D02*
X012665D01*
X012299Y019681D02*
X012658D01*
X011308Y006361D02*
X012593D01*
X012210Y003841D02*
X012589D01*
X012328Y019753D02*
X012586D01*
X011246Y006289D02*
X012521D01*
X012344Y019825D02*
X012514D01*
X012293Y003769D02*
X012506D01*
X012350Y003697D02*
X012449D01*
X011151Y006217D02*
X012449D01*
X012350Y019897D02*
X012442D01*
X012390Y003625D02*
X012409D01*
X010964Y006145D02*
X012377D01*
X012345Y019969D02*
X012370D01*
X011165Y006073D02*
X012305D01*
X011255Y006001D02*
X012233D01*
X011340Y017377D02*
X012202D01*
X011340Y016369D02*
X012179D01*
X011340Y015433D02*
X012169D01*
X011314Y005929D02*
X012161D01*
X011340Y016441D02*
X012149D01*
X011354Y005857D02*
X012089D01*
X011340Y017305D02*
X012058D01*
X009721Y007369D02*
X012047D01*
X011340Y016297D02*
X012047D01*
X011340Y015505D02*
X012042D01*
X011340Y016513D02*
X012032D01*
X011381Y005785D02*
X012017D01*
X011340Y017233D02*
X011977D01*
X011340Y016225D02*
X011970D01*
X011340Y015577D02*
X011967D01*
X011340Y016585D02*
X011961D01*
X011395Y005713D02*
X011945D01*
X011340Y017161D02*
X011924D01*
X011340Y012409D02*
X011923D01*
X011340Y016153D02*
X011919D01*
X011340Y015649D02*
X011917D01*
X011340Y016657D02*
X011912D01*
X011340Y013417D02*
X011906D01*
X010621Y008377D02*
X011898D01*
X011340Y017089D02*
X011887D01*
X011340Y016081D02*
X011884D01*
X011340Y015721D02*
X011882D01*
X011340Y016729D02*
X011879D01*
X011399Y005641D02*
X011873D01*
X009814Y007441D02*
X011864D01*
X011340Y017017D02*
X011864D01*
X011340Y016009D02*
X011862D01*
X011340Y015793D02*
X011861D01*
X011340Y016801D02*
X011859D01*
X011340Y014353D02*
X011857D01*
X011340Y016945D02*
X011852D01*
X010592Y008449D02*
X011851D01*
X011340Y015937D02*
X011851D01*
X011340Y015865D02*
X011851D01*
X011340Y016873D02*
X011850D01*
X011340Y013345D02*
X011845D01*
X011340Y012337D02*
X011834D01*
X011340Y012481D02*
X011808D01*
X011340Y020401D02*
X011806D01*
X011393Y005569D02*
X011801D01*
X011340Y013489D02*
X011798D01*
X010636Y008305D02*
X011793D01*
X009871Y007513D02*
X011772D01*
X011340Y019393D02*
X011771D01*
X011340Y014281D02*
X011768D01*
X010546Y008521D02*
X011764D01*
X011340Y013273D02*
X011760D01*
X011340Y012265D02*
X011752D01*
X011340Y014425D02*
X011744D01*
X011340Y012553D02*
X011735D01*
X011340Y018385D02*
X011732D01*
X011376Y005497D02*
X011729D01*
X011340Y013561D02*
X011729D01*
X011340Y015361D02*
X011725D01*
X010639Y008233D02*
X011725D01*
X009908Y007585D02*
X011710D01*
X011340Y014209D02*
X011707D01*
X010474Y008593D02*
X011705D01*
X011340Y013201D02*
X011702D01*
X011340Y012193D02*
X011697D01*
X011340Y012625D02*
X011684D01*
X011340Y013633D02*
X011680D01*
X010631Y008161D02*
X011677D01*
X011340Y014497D02*
X011673D01*
X011340Y015289D02*
X011667D01*
X009930Y007657D02*
X011667D01*
X011340Y014137D02*
X011665D01*
X010343Y008665D02*
X011663D01*
X011340Y013129D02*
X011661D01*
X011347Y005425D02*
X011657D01*
X011340Y014569D02*
X011651D01*
X011340Y015217D02*
X011650D01*
X011340Y015145D02*
X011650D01*
X011340Y015073D02*
X011650D01*
X011340Y015001D02*
X011650D01*
X011340Y014929D02*
X011650D01*
X011340Y014857D02*
X011650D01*
X011340Y014785D02*
X011650D01*
X011340Y014713D02*
X011650D01*
X011340Y014641D02*
X011650D01*
X011340Y012697D02*
X011649D01*
X011340Y013705D02*
X011646D01*
X010609Y008089D02*
X011644D01*
X009939Y007729D02*
X011637D01*
X011340Y014065D02*
X011636D01*
X009939Y008737D02*
X011634D01*
X011340Y013057D02*
X011633D01*
X011340Y017449D02*
X011632D01*
X011340Y012769D02*
X011625D01*
X011340Y013777D02*
X011624D01*
X010573Y008017D02*
X011623D01*
X009936Y007801D02*
X011619D01*
X011340Y013993D02*
X011618D01*
X009935Y008809D02*
X011617D01*
X011340Y012985D02*
X011616D01*
X011340Y018457D02*
X011616D01*
X009842Y009025D02*
X011614D01*
X011340Y012841D02*
X011613D01*
X009889Y008953D02*
X011612D01*
X011340Y013849D02*
X011612D01*
X010518Y007945D02*
X011611D01*
X010428Y007873D02*
X011610D01*
X011340Y013921D02*
X011610D01*
X009919Y008881D02*
X011610D01*
X011340Y012913D02*
X011610D01*
X011337Y021337D02*
X011608D01*
X011340Y019465D02*
X011601D01*
X011340Y020329D02*
X011594D01*
X011340Y020473D02*
X011588D01*
X011302Y005353D02*
X011585D01*
X011340Y019321D02*
X011581D01*
X011340Y018313D02*
X011569D01*
X009769Y009097D02*
X011542D01*
X011340Y017521D02*
X011522D01*
X011340Y018529D02*
X011513D01*
X011238Y005281D02*
X011513D01*
X011340Y021265D02*
X011509D01*
X011340Y019537D02*
X011505D01*
X011340Y020257D02*
X011500D01*
X011340Y020545D02*
X011497D01*
X011340Y019249D02*
X011492D01*
X011340Y018241D02*
X011485D01*
X009631Y009169D02*
X011470D01*
X011340Y017593D02*
X011454D01*
X011340Y018601D02*
X011448D01*
X011340Y021193D02*
X011445D01*
X011340Y019609D02*
X011442D01*
X011137Y005209D02*
X011441D01*
X011340Y020185D02*
X011439D01*
X011340Y019177D02*
X011434D01*
X011340Y018169D02*
X011429D01*
X011340Y017665D02*
X011408D01*
X011340Y018673D02*
X011404D01*
X011340Y019681D02*
X011400D01*
X011340Y020113D02*
X011398D01*
X008818Y009241D02*
X011398D01*
X011340Y019105D02*
X011394D01*
X011340Y018097D02*
X011390D01*
X011340Y017737D02*
X011377D01*
X011340Y018745D02*
X011374D01*
X011340Y019753D02*
X011371D01*
X011340Y020041D02*
X011370D01*
X005040Y005137D02*
X011369D01*
X011340Y019033D02*
X011368D01*
X011340Y018025D02*
X011366D01*
X011340Y017809D02*
X011358D01*
X011340Y018817D02*
X011356D01*
X011340Y019825D02*
X011355D01*
X011340Y019969D02*
X011354D01*
X011340Y018961D02*
X011353D01*
X011340Y017953D02*
X011352D01*
X011340Y017881D02*
X011350D01*
X011340Y018889D02*
X011350D01*
X011340Y019897D02*
X011350D01*
X008746Y009313D02*
X011326D01*
X008635Y009385D02*
X011254D01*
X010249Y009457D02*
X011182D01*
X010351Y009529D02*
X011110D01*
X010413Y009601D02*
X011038D01*
X010453Y009673D02*
X010966D01*
X010477Y009745D02*
X010894D01*
X009714Y006145D02*
X010835D01*
X010488Y009817D02*
X010824D01*
X010488Y009889D02*
X010781D01*
X010475Y009961D02*
X010762D01*
X009350Y021121D02*
X010760D01*
X009350Y021049D02*
X010760D01*
X009350Y020977D02*
X010760D01*
X009350Y020905D02*
X010760D01*
X009350Y020833D02*
X010760D01*
X009350Y020761D02*
X010760D01*
X009350Y020689D02*
X010760D01*
X009350Y020617D02*
X010760D01*
X009344Y020545D02*
X010760D01*
X009310Y020473D02*
X010760D01*
X009186Y020401D02*
X010760D01*
X009105Y020329D02*
X010760D01*
X009199Y020257D02*
X010760D01*
X009260Y020185D02*
X010760D01*
X009302Y020113D02*
X010760D01*
X009329Y020041D02*
X010760D01*
X009345Y019969D02*
X010760D01*
X009350Y019897D02*
X010760D01*
X009344Y019825D02*
X010760D01*
X009328Y019753D02*
X010760D01*
X009299Y019681D02*
X010760D01*
X009257Y019609D02*
X010760D01*
X009194Y019537D02*
X010760D01*
X009098Y019465D02*
X010760D01*
X008928Y019393D02*
X010760D01*
X009118Y019321D02*
X010760D01*
X009207Y019249D02*
X010760D01*
X009265Y019177D02*
X010760D01*
X009305Y019105D02*
X010760D01*
X009331Y019033D02*
X010760D01*
X009346Y018961D02*
X010760D01*
X009349Y018889D02*
X010760D01*
X009343Y018817D02*
X010760D01*
X009325Y018745D02*
X010760D01*
X009295Y018673D02*
X010760D01*
X009251Y018601D02*
X010760D01*
X009186Y018529D02*
X010760D01*
X009083Y018457D02*
X010760D01*
X008968Y018385D02*
X010760D01*
X009130Y018313D02*
X010760D01*
X009214Y018241D02*
X010760D01*
X009270Y018169D02*
X010760D01*
X009309Y018097D02*
X010760D01*
X009333Y018025D02*
X010760D01*
X009347Y017953D02*
X010760D01*
X009349Y017881D02*
X010760D01*
X009341Y017809D02*
X010760D01*
X009323Y017737D02*
X010760D01*
X009291Y017665D02*
X010760D01*
X009245Y017593D02*
X010760D01*
X009177Y017521D02*
X010760D01*
X009067Y017449D02*
X010760D01*
X008497Y017377D02*
X010760D01*
X008642Y017305D02*
X010760D01*
X008722Y017233D02*
X010760D01*
X008739Y016585D02*
X010760D01*
X008667Y016513D02*
X010760D01*
X008550Y016441D02*
X010760D01*
X008521Y016369D02*
X010760D01*
X008652Y016297D02*
X010760D01*
X008729Y016225D02*
X010760D01*
X008780Y016153D02*
X010760D01*
X008815Y016081D02*
X010760D01*
X008837Y016009D02*
X010760D01*
X008848Y015937D02*
X010760D01*
X008848Y015865D02*
X010760D01*
X008838Y015793D02*
X010760D01*
X008817Y015721D02*
X010760D01*
X008782Y015649D02*
X010760D01*
X008732Y015577D02*
X010760D01*
X008657Y015505D02*
X010760D01*
X008530Y015433D02*
X010760D01*
X008824Y015361D02*
X010760D01*
X010060Y015289D02*
X010760D01*
X010291Y015217D02*
X010760D01*
X010375Y015145D02*
X010760D01*
X010428Y015073D02*
X010760D01*
X010463Y015001D02*
X010760D01*
X010482Y014929D02*
X010760D01*
X010489Y014857D02*
X010760D01*
X010485Y014785D02*
X010760D01*
X010468Y014713D02*
X010760D01*
X010437Y014641D02*
X010760D01*
X010389Y014569D02*
X010760D01*
X010313Y014497D02*
X010760D01*
X010167Y014425D02*
X010760D01*
X009790Y014353D02*
X010760D01*
X010134Y014281D02*
X010760D01*
X010303Y014209D02*
X010760D01*
X010302Y013489D02*
X010760D01*
X010132Y013417D02*
X010760D01*
X008704Y013345D02*
X010760D01*
X010168Y013273D02*
X010760D01*
X010314Y013201D02*
X010760D01*
X010389Y013129D02*
X010760D01*
X010437Y013057D02*
X010760D01*
X010468Y012985D02*
X010760D01*
X010485Y012913D02*
X010760D01*
X010489Y012841D02*
X010760D01*
X010482Y012769D02*
X010760D01*
X010462Y012697D02*
X010760D01*
X010428Y012625D02*
X010760D01*
X010375Y012553D02*
X010760D01*
X010291Y012481D02*
X010760D01*
X009785Y012409D02*
X010760D01*
X009789Y012337D02*
X010760D01*
X010193Y012265D02*
X010760D01*
X010324Y012193D02*
X010760D01*
X010396Y012121D02*
X010760D01*
X010442Y012049D02*
X010760D01*
X010471Y011977D02*
X010760D01*
X010486Y011905D02*
X010760D01*
X010489Y011833D02*
X010760D01*
X010481Y011761D02*
X010760D01*
X010459Y011689D02*
X010760D01*
X010423Y011617D02*
X010760D01*
X010368Y011545D02*
X010760D01*
X010278Y011473D02*
X010760D01*
X008608Y011401D02*
X010760D01*
X008726Y011329D02*
X010760D01*
X010215Y011257D02*
X010760D01*
X010334Y011185D02*
X010760D01*
X010402Y011113D02*
X010760D01*
X010446Y011041D02*
X010760D01*
X010473Y010969D02*
X010760D01*
X010487Y010897D02*
X010760D01*
X010489Y010825D02*
X010760D01*
X010479Y010753D02*
X010760D01*
X010456Y010681D02*
X010760D01*
X010418Y010609D02*
X010760D01*
X010408Y010105D02*
X010760D01*
X010449Y010033D02*
X010760D01*
X009350Y021193D02*
X010746D01*
X009341Y021265D02*
X010674D01*
X009887Y005209D02*
X010662D01*
X009901Y006217D02*
X010648D01*
X009902Y007081D02*
X010648D01*
X009915Y006073D02*
X010634D01*
X009300Y021337D02*
X010602D01*
X009988Y005281D02*
X010561D01*
X009996Y006289D02*
X010553D01*
X009997Y007009D02*
X010552D01*
X010005Y006001D02*
X010544D01*
X005320Y021409D02*
X010530D01*
X010052Y005353D02*
X010497D01*
X010058Y006361D02*
X010491D01*
X010058Y006937D02*
X010491D01*
X010064Y005929D02*
X010485D01*
X010097Y005425D02*
X010453D01*
X010100Y006433D02*
X010449D01*
X010101Y006865D02*
X010449D01*
X010104Y005857D02*
X010445D01*
X010126Y005497D02*
X010423D01*
X010128Y006505D02*
X010421D01*
X010128Y006793D02*
X010421D01*
X010131Y005785D02*
X010418D01*
X010143Y005569D02*
X010406D01*
X010144Y006577D02*
X010405D01*
X010144Y006721D02*
X010405D01*
X010145Y005713D02*
X010404D01*
X010149Y005641D02*
X010400D01*
X010150Y006649D02*
X010400D01*
X009931Y008665D02*
X010056D01*
X008882Y015289D02*
X010039D01*
X009922Y007873D02*
X009971D01*
X008643Y013417D02*
X009967D01*
X009784Y014281D02*
X009965D01*
X009783Y014425D02*
X009932D01*
X008789Y013273D02*
X009931D01*
X009911Y008593D02*
X009925D01*
X009781Y012265D02*
X009906D01*
X008804Y011257D02*
X009884D01*
X008710Y009457D02*
X009850D01*
X008731Y011473D02*
X009821D01*
X009769Y012481D02*
X009809D01*
X008899Y015217D02*
X009808D01*
X008751Y013489D02*
X009797D01*
X009767Y014209D02*
X009796D01*
X009779Y008089D02*
X009790D01*
X009764Y014497D02*
X009786D01*
X008847Y013201D02*
X009785D01*
X009734Y008377D02*
X009779D01*
X009761Y012193D02*
X009775D01*
X009654Y008161D02*
X009768D01*
X008858Y011185D02*
X009765D01*
X008756Y008305D02*
X009763D01*
X008824Y008233D02*
X009760D01*
X008793Y009529D02*
X009748D01*
X008807Y011545D02*
X009732D01*
X008900Y015145D02*
X009724D01*
X008821Y013561D02*
X009717D01*
X008888Y013129D02*
X009710D01*
X008895Y011113D02*
X009697D01*
X008850Y009601D02*
X009686D01*
X008860Y011617D02*
X009676D01*
X008900Y015073D02*
X009671D01*
X008869Y013633D02*
X009666D01*
X008916Y013057D02*
X009662D01*
X008921Y011041D02*
X009654D01*
X008890Y009673D02*
X009646D01*
X008897Y011689D02*
X009640D01*
X009619Y012697D02*
X009637D01*
X008900Y015001D02*
X009637D01*
X008903Y013705D02*
X009634D01*
X009608Y013993D02*
X009634D01*
X009597Y014713D02*
X009631D01*
X008933Y012985D02*
X009631D01*
X009584Y011977D02*
X009629D01*
X008935Y010969D02*
X009626D01*
X008917Y009745D02*
X009622D01*
X008922Y011761D02*
X009618D01*
X009481Y012769D02*
X009617D01*
X008900Y014929D02*
X009617D01*
X008926Y013777D02*
X009616D01*
X009451Y013921D02*
X009615D01*
X009410Y014785D02*
X009614D01*
X008939Y012913D02*
X009614D01*
X008940Y011905D02*
X009613D01*
X008940Y010897D02*
X009612D01*
X008939Y009889D02*
X009611D01*
X008933Y009817D02*
X009611D01*
X008934Y010825D02*
X009610D01*
X008935Y011833D02*
X009610D01*
X008936Y012841D02*
X009610D01*
X008900Y014857D02*
X009610D01*
X008937Y013849D02*
X009610D01*
X007021Y006145D02*
X009585D01*
X005040Y005209D02*
X009412D01*
X007071Y006217D02*
X009398D01*
X007202Y007081D02*
X009398D01*
X006962Y006073D02*
X009384D01*
X008919Y010753D02*
X009375D01*
X008867Y009169D02*
X009368D01*
X008872Y008161D02*
X009345D01*
X008936Y009961D02*
X009342D01*
X005040Y005281D02*
X009311D01*
X007113Y006289D02*
X009303D01*
X007219Y007009D02*
X009302D01*
X006892Y006001D02*
X009294D01*
X008900Y014785D02*
X009289D01*
X008502Y007369D02*
X009278D01*
X008651Y008377D02*
X009265D01*
X008894Y010681D02*
X009261D01*
X008939Y013921D02*
X009248D01*
X005040Y005353D02*
X009247D01*
X008923Y010033D02*
X009244D01*
X007148Y006361D02*
X009241D01*
X007231Y006937D02*
X009241D01*
X006806Y005929D02*
X009235D01*
X008902Y009097D02*
X009230D01*
X008905Y008089D02*
X009220D01*
X008924Y012769D02*
X009218D01*
X005040Y005425D02*
X009203D01*
X007176Y006433D02*
X009199D01*
X007238Y006865D02*
X009199D01*
X006698Y005857D02*
X009195D01*
X008855Y010609D02*
X009194D01*
X008685Y007441D02*
X009185D01*
X008899Y010105D02*
X009183D01*
X008698Y008449D02*
X009178D01*
X005040Y005497D02*
X009173D01*
X007199Y006505D02*
X009171D01*
X007240Y006793D02*
X009171D01*
X006549Y005785D02*
X009168D01*
X008925Y009025D02*
X009157D01*
X005040Y005569D02*
X009156D01*
X007217Y006577D02*
X009155D01*
X007237Y006721D02*
X009155D01*
X006241Y005713D02*
X009154D01*
X008800Y010537D02*
X009152D01*
X008927Y008017D02*
X009150D01*
X005040Y005641D02*
X009150D01*
X007229Y006649D02*
X009150D01*
X008863Y010177D02*
X009145D01*
X008777Y007513D02*
X009128D01*
X008721Y010465D02*
X009125D01*
X008785Y008521D02*
X009123D01*
X008811Y010249D02*
X009121D01*
X008934Y011977D02*
X009115D01*
X008618Y010393D02*
X009112D01*
X008737Y010321D02*
X009110D01*
X008937Y008953D02*
X009110D01*
X008938Y007945D02*
X009106D01*
X008900Y014713D02*
X009102D01*
X008839Y007585D02*
X009091D01*
X008931Y013993D02*
X009091D01*
X008844Y008593D02*
X009088D01*
X008900Y012697D02*
X009080D01*
X008939Y008881D02*
X009080D01*
X008939Y007873D02*
X009077D01*
X008882Y007657D02*
X009069D01*
X008886Y008665D02*
X009068D01*
X008932Y008809D02*
X009064D01*
X008931Y007801D02*
X009063D01*
X008912Y007729D02*
X009060D01*
X008915Y008737D02*
X009060D01*
X008918Y012049D02*
X009028D01*
X008900Y014641D02*
X009020D01*
X008913Y014065D02*
X009014D01*
X008865Y012625D02*
X009007D01*
X008892Y012121D02*
X008973D01*
X008898Y014569D02*
X008968D01*
X008884Y014137D02*
X008964D01*
X008814Y012553D02*
X008960D01*
X008853Y012193D02*
X008938D01*
X008876Y014497D02*
X008935D01*
X008842Y014209D02*
X008932D01*
X008741Y012481D02*
X008930D01*
X008797Y012265D02*
X008918D01*
X008805Y014425D02*
X008916D01*
X008781Y014281D02*
X008915D01*
X008626Y012409D02*
X008914D01*
X008716Y012337D02*
X008910D01*
X008692Y014353D02*
X008910D01*
X006430Y019393D02*
X008771D01*
X005996Y018385D02*
X008732D01*
X006901Y017449D02*
X008632D01*
X006068Y018457D02*
X008616D01*
X006398Y019465D02*
X008601D01*
X004190Y020329D02*
X008594D01*
X006451Y019321D02*
X008581D01*
X005924Y018313D02*
X008569D01*
X006817Y017521D02*
X008522D01*
X006134Y018529D02*
X008513D01*
X005017Y020401D02*
X008513D01*
X006352Y019537D02*
X008505D01*
X004190Y020257D02*
X008500D01*
X006462Y019249D02*
X008492D01*
X005852Y018241D02*
X008485D01*
X006712Y017593D02*
X008454D01*
X006172Y018601D02*
X008448D01*
X006288Y019609D02*
X008442D01*
X004190Y020185D02*
X008439D01*
X006464Y019177D02*
X008434D01*
X005780Y018169D02*
X008429D01*
X006569Y017665D02*
X008408D01*
X006188Y018673D02*
X008404D01*
X006195Y019681D02*
X008400D01*
X005310Y021337D02*
X008399D01*
X004190Y020113D02*
X008398D01*
X006457Y019105D02*
X008394D01*
X005708Y018097D02*
X008390D01*
X005156Y020473D02*
X008389D01*
X006312Y017737D02*
X008377D01*
X006236Y018745D02*
X008374D01*
X006011Y019753D02*
X008371D01*
X004190Y020041D02*
X008370D01*
X006440Y019033D02*
X008368D01*
X005636Y018025D02*
X008366D01*
X005292Y021265D02*
X008358D01*
X005420Y017809D02*
X008358D01*
X006316Y018817D02*
X008356D01*
X004190Y019825D02*
X008355D01*
X005228Y020545D02*
X008355D01*
X004190Y019969D02*
X008354D01*
X006412Y018961D02*
X008353D01*
X005564Y017953D02*
X008352D01*
X005492Y017881D02*
X008350D01*
X006372Y018889D02*
X008350D01*
X004190Y019897D02*
X008350D01*
X005260Y021193D02*
X008350D01*
X005208Y021121D02*
X008350D01*
X005231Y021049D02*
X008350D01*
X005275Y020977D02*
X008350D01*
X005301Y020905D02*
X008350D01*
X005313Y020833D02*
X008350D01*
X005313Y020761D02*
X008350D01*
X005300Y020689D02*
X008350D01*
X005272Y020617D02*
X008350D01*
X005040Y005065D02*
X008307D01*
X007079Y007369D02*
X008297D01*
X005040Y004993D02*
X008225D01*
X006970Y017377D02*
X008202D01*
X007027Y011401D02*
X008191D01*
X007085Y010393D02*
X008181D01*
X007200Y016369D02*
X008179D01*
X006936Y012409D02*
X008173D01*
X005040Y015433D02*
X008169D01*
X007150Y009385D02*
X008164D01*
X006738Y013417D02*
X008156D01*
X005040Y004921D02*
X008153D01*
X007218Y016441D02*
X008149D01*
X005040Y008377D02*
X008148D01*
X007031Y007441D02*
X008114D01*
X006880Y014353D02*
X008107D01*
X005040Y008449D02*
X008101D01*
X006149Y013345D02*
X008095D01*
X007150Y009457D02*
X008090D01*
X006782Y012337D02*
X008084D01*
X005040Y004849D02*
X008081D01*
X007118Y010465D02*
X008078D01*
X006949Y011329D02*
X008073D01*
X007079Y011473D02*
X008068D01*
X007035Y010321D02*
X008062D01*
X007018Y012481D02*
X008058D01*
X007028Y017305D02*
X008058D01*
X007150Y009313D02*
X008053D01*
X006921Y013489D02*
X008048D01*
X007178Y016297D02*
X008047D01*
X005040Y008305D02*
X008043D01*
X005040Y015505D02*
X008042D01*
X007230Y016513D02*
X008032D01*
X006973Y007513D02*
X008022D01*
X006984Y014281D02*
X008018D01*
X005040Y008521D02*
X008014D01*
X006859Y013273D02*
X008010D01*
X005040Y004777D02*
X008009D01*
X007150Y009529D02*
X008006D01*
X006149Y012265D02*
X008002D01*
X007139Y010537D02*
X007999D01*
X006814Y011257D02*
X007995D01*
X005040Y014425D02*
X007994D01*
X007114Y011545D02*
X007992D01*
X006962Y010249D02*
X007988D01*
X007073Y012553D02*
X007985D01*
X007150Y009241D02*
X007982D01*
X007008Y013561D02*
X007979D01*
X007076Y017233D02*
X007977D01*
X005040Y015361D02*
X007975D01*
X005040Y008233D02*
X007975D01*
X007149Y016225D02*
X007970D01*
X006280Y015577D02*
X007967D01*
X007237Y016585D02*
X007961D01*
X006905Y007585D02*
X007960D01*
X007050Y014209D02*
X007957D01*
X005040Y008593D02*
X007955D01*
X006972Y013201D02*
X007952D01*
X007150Y009601D02*
X007949D01*
X006836Y012193D02*
X007947D01*
X007149Y010609D02*
X007944D01*
X006150Y011185D02*
X007941D01*
X007137Y011617D02*
X007939D01*
X005040Y004705D02*
X007937D01*
X006840Y010177D02*
X007937D01*
X007110Y012625D02*
X007934D01*
X007136Y009169D02*
X007932D01*
X007066Y013633D02*
X007930D01*
X005040Y008161D02*
X007927D01*
X007117Y017161D02*
X007924D01*
X005040Y014497D02*
X007923D01*
X007115Y016153D02*
X007919D01*
X005040Y015289D02*
X007917D01*
X006822Y007657D02*
X007917D01*
X006559Y015649D02*
X007917D01*
X007095Y014137D02*
X007915D01*
X005040Y008665D02*
X007913D01*
X007240Y016657D02*
X007912D01*
X007042Y013129D02*
X007911D01*
X007150Y009673D02*
X007909D01*
X006960Y012121D02*
X007907D01*
X007148Y010681D02*
X007906D01*
X006809Y011113D02*
X007904D01*
X007148Y011689D02*
X007902D01*
X005040Y014569D02*
X007901D01*
X006150Y010105D02*
X007900D01*
X005040Y015217D02*
X007900D01*
X005040Y015145D02*
X007900D01*
X005040Y015073D02*
X007900D01*
X005040Y015001D02*
X007900D01*
X005040Y014929D02*
X007900D01*
X005040Y014857D02*
X007900D01*
X005040Y014785D02*
X007900D01*
X005040Y014713D02*
X007900D01*
X005040Y014641D02*
X007900D01*
X007134Y012697D02*
X007899D01*
X007086Y009097D02*
X007897D01*
X007106Y013705D02*
X007896D01*
X005040Y008089D02*
X007894D01*
X006718Y007729D02*
X007887D01*
X007151Y017089D02*
X007887D01*
X007125Y014065D02*
X007886D01*
X005040Y008737D02*
X007884D01*
X007074Y016081D02*
X007884D01*
X007089Y013057D02*
X007883D01*
X006705Y015721D02*
X007882D01*
X007150Y009745D02*
X007882D01*
X007034Y012049D02*
X007881D01*
X007136Y010753D02*
X007880D01*
X007237Y016729D02*
X007879D01*
X006947Y011041D02*
X007879D01*
X007149Y011761D02*
X007878D01*
X007036Y010033D02*
X007876D01*
X007147Y012769D02*
X007875D01*
X005040Y009025D02*
X007874D01*
X007132Y013777D02*
X007874D01*
X005040Y008017D02*
X007873D01*
X006579Y007801D02*
X007869D01*
X007142Y013993D02*
X007868D01*
X005040Y008809D02*
X007867D01*
X007121Y012985D02*
X007866D01*
X007150Y009817D02*
X007866D01*
X007084Y011977D02*
X007865D01*
X005040Y004633D02*
X007865D01*
X007114Y010825D02*
X007865D01*
X007025Y010969D02*
X007864D01*
X007179Y017017D02*
X007864D01*
X007139Y011833D02*
X007864D01*
X007120Y009961D02*
X007863D01*
X007149Y012841D02*
X007863D01*
X005040Y008953D02*
X007862D01*
X007146Y013849D02*
X007862D01*
X007024Y016009D02*
X007862D01*
X005040Y007945D02*
X007861D01*
X006811Y015793D02*
X007861D01*
X006336Y007873D02*
X007860D01*
X007149Y013921D02*
X007860D01*
X005040Y008881D02*
X007860D01*
X007141Y012913D02*
X007860D01*
X007147Y009889D02*
X007860D01*
X007118Y011905D02*
X007860D01*
X007078Y010897D02*
X007860D01*
X007230Y016801D02*
X007859D01*
X007201Y016945D02*
X007852D01*
X006966Y015937D02*
X007851D01*
X006896Y015865D02*
X007851D01*
X007218Y016873D02*
X007850D01*
X005040Y004561D02*
X007793D01*
X005040Y004489D02*
X007721D01*
X005040Y004417D02*
X007649D01*
X005040Y004345D02*
X007577D01*
X005040Y004273D02*
X007505D01*
X005040Y004201D02*
X007433D01*
X005040Y004129D02*
X007361D01*
X005040Y004057D02*
X007289D01*
X005040Y003985D02*
X007217D01*
X007066Y003913D02*
X007145D01*
X006066D02*
X006734D01*
X006210Y003841D02*
X006589D01*
X006147Y013417D02*
X006561D01*
X006146Y012337D02*
X006517D01*
X006293Y003769D02*
X006506D01*
X006144Y011113D02*
X006490D01*
X006145Y011257D02*
X006485D01*
X006142Y012193D02*
X006463D01*
X006143Y010177D02*
X006459D01*
X006350Y003697D02*
X006449D01*
X006140Y013273D02*
X006440D01*
X005040Y014353D02*
X006419D01*
X006390Y003625D02*
X006409D01*
X006135Y013489D02*
X006378D01*
X006132Y012409D02*
X006364D01*
X006127Y011041D02*
X006352D01*
X006130Y011329D02*
X006350D01*
X006124Y012121D02*
X006339D01*
X006127Y010249D02*
X006337D01*
X006120Y013201D02*
X006327D01*
X005040Y014281D02*
X006315D01*
X006111Y013561D02*
X006291D01*
X006107Y012481D02*
X006281D01*
X006098Y010969D02*
X006274D01*
X006102Y011401D02*
X006272D01*
X006093Y012049D02*
X006265D01*
X006098Y010321D02*
X006264D01*
X006145Y010033D02*
X006263D01*
X006088Y013129D02*
X006257D01*
X005040Y014209D02*
X006249D01*
X006074Y013633D02*
X006233D01*
X006068Y012553D02*
X006226D01*
X006055Y010897D02*
X006221D01*
X006061Y011473D02*
X006220D01*
X006048Y011977D02*
X006215D01*
X006054Y010393D02*
X006214D01*
X005040Y009097D02*
X006213D01*
X006040Y013057D02*
X006210D01*
X005040Y014137D02*
X006204D01*
X006020Y013705D02*
X006193D01*
X006011Y012625D02*
X006189D01*
X005992Y010825D02*
X006185D01*
X006001Y011545D02*
X006185D01*
X005981Y011905D02*
X006181D01*
X005990Y010465D02*
X006181D01*
X006130Y009961D02*
X006179D01*
X005970Y012985D02*
X006178D01*
X005040Y014065D02*
X006174D01*
X005939Y013777D02*
X006167D01*
X005924Y012697D02*
X006165D01*
X005040Y009169D02*
X006163D01*
X005894Y010753D02*
X006163D01*
X005908Y011617D02*
X006162D01*
X005875Y011833D02*
X006160D01*
X005891Y010537D02*
X006160D01*
X005854Y012913D02*
X006158D01*
X005040Y013993D02*
X006157D01*
X005790Y013849D02*
X006153D01*
X005750Y012769D02*
X006152D01*
X006103Y009889D02*
X006152D01*
X005040Y010681D02*
X006151D01*
X005661Y011689D02*
X006151D01*
X005040Y011761D02*
X006151D01*
X005040Y010609D02*
X006150D01*
X005040Y012841D02*
X006150D01*
X005040Y013921D02*
X006150D01*
X006062Y009817D02*
X006150D01*
X006003Y009745D02*
X006150D01*
X005911Y009673D02*
X006150D01*
X005693Y009601D02*
X006150D01*
X005040Y009529D02*
X006150D01*
X005040Y009457D02*
X006150D01*
X005040Y009385D02*
X006150D01*
X005040Y009313D02*
X006150D01*
X005040Y009241D02*
X006150D01*
X005040Y005713D02*
X006058D01*
X005040Y015577D02*
X006019D01*
X005348Y017737D02*
X005987D01*
X005040Y007873D02*
X005963D01*
X005011Y019753D02*
X005788D01*
X005040Y005785D02*
X005750D01*
X005040Y015649D02*
X005740D01*
X005066Y003913D02*
X005734D01*
X005276Y017665D02*
X005730D01*
X005040Y007801D02*
X005720D01*
X005040Y011689D02*
X005638D01*
X005040Y009601D02*
X005606D01*
X005195Y019681D02*
X005605D01*
X005040Y005857D02*
X005601D01*
X005040Y015721D02*
X005595D01*
X005210Y003841D02*
X005589D01*
X005204Y017593D02*
X005587D01*
X005040Y007729D02*
X005581D01*
X005040Y012769D02*
X005549D01*
X005288Y019609D02*
X005511D01*
X005040Y013849D02*
X005509D01*
X005293Y003769D02*
X005506D01*
X005040Y005929D02*
X005493D01*
X005040Y015793D02*
X005488D01*
X005132Y017521D02*
X005482D01*
X005040Y007657D02*
X005477D01*
X005350Y003697D02*
X005449D01*
X005352Y019537D02*
X005447D01*
X005040Y012913D02*
X005445D01*
X005040Y011833D02*
X005424D01*
X005390Y003625D02*
X005409D01*
X005040Y010537D02*
X005408D01*
X005040Y006001D02*
X005407D01*
X005040Y010753D02*
X005405D01*
X005040Y015865D02*
X005403D01*
X005398Y019465D02*
X005401D01*
X005060Y017449D02*
X005398D01*
X005040Y007585D02*
X005394D01*
X005040Y011617D02*
X005391D01*
X005040Y009673D02*
X005388D01*
X005040Y012697D02*
X005375D01*
X005040Y013777D02*
X005360D01*
X005040Y006073D02*
X005337D01*
X005040Y015937D02*
X005333D01*
X005040Y012985D02*
X005329D01*
X005040Y017377D02*
X005329D01*
X005040Y007513D02*
X005326D01*
X005040Y011905D02*
X005318D01*
X005040Y010465D02*
X005309D01*
X005040Y010825D02*
X005307D01*
X005040Y011545D02*
X005298D01*
X005040Y009745D02*
X005297D01*
X005040Y012625D02*
X005288D01*
X005040Y013705D02*
X005279D01*
X005040Y006145D02*
X005278D01*
X005040Y016009D02*
X005275D01*
X005040Y017305D02*
X005272D01*
X005040Y007441D02*
X005269D01*
X005040Y013057D02*
X005259D01*
X005040Y011977D02*
X005251D01*
X005040Y010393D02*
X005245D01*
X005040Y010897D02*
X005244D01*
X005040Y011473D02*
X005238D01*
X005040Y009817D02*
X005237D01*
X005040Y012553D02*
X005231D01*
X005040Y006217D02*
X005228D01*
X005040Y016081D02*
X005225D01*
X005040Y013633D02*
X005225D01*
X005040Y017233D02*
X005223D01*
X005040Y007369D02*
X005220D01*
X005040Y013129D02*
X005211D01*
X005040Y012049D02*
X005206D01*
X005040Y010321D02*
X005201D01*
X005040Y010969D02*
X005201D01*
X005040Y011401D02*
X005197D01*
X005040Y009889D02*
X005196D01*
X005040Y012481D02*
X005192D01*
X005040Y013561D02*
X005188D01*
X005040Y006289D02*
X005186D01*
X005040Y016153D02*
X005184D01*
X005040Y017161D02*
X005182D01*
X005040Y007297D02*
X005180D01*
X005040Y013201D02*
X005179D01*
X005040Y012121D02*
X005175D01*
X005040Y010249D02*
X005173D01*
X005040Y011041D02*
X005172D01*
X005040Y011329D02*
X005170D01*
X005040Y009961D02*
X005169D01*
X005040Y012409D02*
X005167D01*
X005040Y013489D02*
X005164D01*
X005040Y013273D02*
X005159D01*
X005040Y012193D02*
X005157D01*
X005040Y010177D02*
X005156D01*
X005040Y011113D02*
X005155D01*
X005040Y011257D02*
X005154D01*
X005040Y010033D02*
X005154D01*
X005040Y012337D02*
X005153D01*
X005040Y013417D02*
X005152D01*
X005040Y006361D02*
X005151D01*
X002690Y021985D02*
X005151D01*
X005040Y013345D02*
X005150D01*
X005040Y012265D02*
X005150D01*
X005040Y016225D02*
X005150D01*
X005040Y010105D02*
X005150D01*
X005040Y011185D02*
X005150D01*
X005040Y017089D02*
X005148D01*
X005040Y007225D02*
X005146D01*
X005040Y006433D02*
X005123D01*
X005040Y016297D02*
X005121D01*
X005040Y017017D02*
X005120D01*
X005040Y007153D02*
X005119D01*
X005040Y006505D02*
X005100D01*
X005040Y016369D02*
X005099D01*
X005040Y016945D02*
X005098D01*
X005040Y007081D02*
X005097D01*
X005040Y006577D02*
X005082D01*
X005040Y016441D02*
X005082D01*
X005040Y016873D02*
X005081D01*
X005040Y007009D02*
X005080D01*
X005040Y006649D02*
X005070D01*
X005040Y016513D02*
X005069D01*
X005040Y016801D02*
X005069D01*
X005040Y006937D02*
X005068D01*
X005040Y006721D02*
X005062D01*
X005040Y016585D02*
X005062D01*
X005040Y016729D02*
X005062D01*
X005040Y006865D02*
X005062D01*
X005040Y006793D02*
X005060D01*
X005040Y016657D02*
X005060D01*
X002690Y021913D02*
X005004D01*
X002690Y021841D02*
X004931D01*
X004190Y019753D02*
X004788D01*
X004190Y020401D02*
X004782D01*
X002690Y021769D02*
X004711D01*
X004190Y020473D02*
X004643D01*
X002690Y021697D02*
X004611D01*
X004195Y019681D02*
X004605D01*
X004190Y020545D02*
X004571D01*
X004410Y021049D02*
X004568D01*
X004190Y020617D02*
X004527D01*
X004338Y020977D02*
X004525D01*
X004288Y019609D02*
X004511D01*
X004190Y020689D02*
X004499D01*
X004266Y020905D02*
X004498D01*
X004190Y020761D02*
X004486D01*
X004194Y020833D02*
X004486D01*
X004352Y019537D02*
X004447D01*
X004398Y019465D02*
X004401D01*
X002690Y021625D02*
X004168D01*
X002690Y021553D02*
X004093D01*
X002690Y021481D02*
X004021D01*
X002690Y021409D02*
X003949D01*
X002690Y021337D02*
X003877D01*
X002690Y021265D02*
X003805D01*
X002690Y021193D02*
X003733D01*
X002690Y021121D02*
X003666D01*
X002690Y021049D02*
X003627D01*
X002690Y020977D02*
X003611D01*
X002690Y020905D02*
X003610D01*
X002690Y020833D02*
X003610D01*
X002690Y020761D02*
X003610D01*
X002690Y020689D02*
X003610D01*
X002690Y020617D02*
X003610D01*
X002690Y020545D02*
X003610D01*
X002690Y020473D02*
X003610D01*
X002690Y020401D02*
X003610D01*
X002690Y020329D02*
X003610D01*
X002690Y020257D02*
X003610D01*
X002690Y020185D02*
X003610D01*
X002690Y020113D02*
X003610D01*
X002690Y020041D02*
X003610D01*
X002690Y019969D02*
X003610D01*
X002690Y019897D02*
X003610D01*
X002690Y019825D02*
X003610D01*
X002690Y019753D02*
X003610D01*
X002690Y018673D02*
X003610D01*
X002690Y018601D02*
X003610D01*
X002690Y018529D02*
X003610D01*
X002690Y018457D02*
X003610D01*
X002690Y018385D02*
X003610D01*
X002690Y018313D02*
X003610D01*
X002690Y018241D02*
X003610D01*
X002690Y018169D02*
X003610D01*
X002690Y018097D02*
X003610D01*
X002690Y018025D02*
X003610D01*
X002690Y017953D02*
X003610D01*
X002690Y017881D02*
X003610D01*
X002690Y017809D02*
X003610D01*
X002690Y017737D02*
X003610D01*
X002690Y017665D02*
X003610D01*
X002690Y017593D02*
X003610D01*
X002690Y017521D02*
X003610D01*
X002690Y017449D02*
X003610D01*
X002690Y017377D02*
X003610D01*
X002690Y017305D02*
X003610D01*
X002690Y017233D02*
X003610D01*
X002690Y017161D02*
X003610D01*
X002690Y017089D02*
X003610D01*
X002690Y017017D02*
X003610D01*
X002690Y016945D02*
X003610D01*
X002690Y016873D02*
X003610D01*
X002690Y016801D02*
X003610D01*
X002690Y016729D02*
X003610D01*
X002690Y016657D02*
X003610D01*
X002690Y016585D02*
X003610D01*
X002690Y016513D02*
X003610D01*
X002690Y016441D02*
X003610D01*
X002690Y016369D02*
X003610D01*
X002690Y016297D02*
X003610D01*
X002690Y016225D02*
X003610D01*
X002690Y016153D02*
X003610D01*
X002690Y016081D02*
X003610D01*
X002690Y016009D02*
X003610D01*
X002690Y015937D02*
X003610D01*
X002690Y015865D02*
X003610D01*
X002690Y015793D02*
X003610D01*
X002690Y015721D02*
X003610D01*
X002690Y015649D02*
X003610D01*
X002690Y015577D02*
X003610D01*
X002690Y015505D02*
X003610D01*
X002690Y015433D02*
X003610D01*
X002690Y015361D02*
X003610D01*
X002690Y015289D02*
X003610D01*
X002690Y015217D02*
X003610D01*
X002690Y015145D02*
X003610D01*
X002690Y015073D02*
X003610D01*
X002690Y015001D02*
X003610D01*
X002690Y014929D02*
X003610D01*
X002690Y014857D02*
X003610D01*
X002690Y014785D02*
X003610D01*
X002690Y014713D02*
X003610D01*
X002690Y014641D02*
X003610D01*
X002690Y014569D02*
X003610D01*
X002690Y014497D02*
X003610D01*
X002690Y014425D02*
X003610D01*
X002690Y014353D02*
X003610D01*
X002690Y014281D02*
X003610D01*
X002690Y014209D02*
X003610D01*
X002690Y014137D02*
X003610D01*
X002690Y014065D02*
X003610D01*
X002690Y013993D02*
X003610D01*
X002690Y013921D02*
X003610D01*
X002690Y013849D02*
X003610D01*
X002690Y013777D02*
X003610D01*
X002690Y013705D02*
X003610D01*
X002690Y013633D02*
X003610D01*
X002690Y013561D02*
X003610D01*
X002690Y013489D02*
X003610D01*
X002690Y013417D02*
X003610D01*
X002690Y013345D02*
X003610D01*
X002690Y013273D02*
X003610D01*
X002690Y013201D02*
X003610D01*
X002690Y013129D02*
X003610D01*
X002690Y013057D02*
X003610D01*
X002690Y012985D02*
X003610D01*
X002690Y012913D02*
X003610D01*
X002690Y012841D02*
X003610D01*
X002690Y012769D02*
X003610D01*
X002690Y012697D02*
X003610D01*
X002690Y012625D02*
X003610D01*
X002690Y012553D02*
X003610D01*
X002690Y012481D02*
X003610D01*
X002690Y012409D02*
X003610D01*
X002690Y012337D02*
X003610D01*
X002690Y012265D02*
X003610D01*
X002690Y012193D02*
X003610D01*
X002690Y012121D02*
X003610D01*
X002690Y012049D02*
X003610D01*
X002690Y011977D02*
X003610D01*
X002690Y011905D02*
X003610D01*
X002690Y011833D02*
X003610D01*
X002690Y011761D02*
X003610D01*
X002690Y011689D02*
X003610D01*
X002690Y011617D02*
X003610D01*
X002690Y011545D02*
X003610D01*
X002690Y011473D02*
X003610D01*
X002690Y011401D02*
X003610D01*
X002690Y011329D02*
X003610D01*
X002690Y011257D02*
X003610D01*
X002690Y011185D02*
X003610D01*
X002690Y011113D02*
X003610D01*
X002690Y011041D02*
X003610D01*
X002690Y010969D02*
X003610D01*
X002690Y010897D02*
X003610D01*
X002690Y010825D02*
X003610D01*
X002690Y010753D02*
X003610D01*
X002690Y010681D02*
X003610D01*
X002690Y010609D02*
X003610D01*
X002690Y010537D02*
X003610D01*
X002690Y010465D02*
X003610D01*
X002690Y010393D02*
X003610D01*
X002690Y010321D02*
X003610D01*
X002690Y010249D02*
X003610D01*
X002690Y010177D02*
X003610D01*
X002690Y010105D02*
X003610D01*
X002690Y010033D02*
X003610D01*
X002690Y009961D02*
X003610D01*
X002690Y009889D02*
X003610D01*
X002690Y009817D02*
X003610D01*
X002690Y009745D02*
X003610D01*
X002690Y009673D02*
X003610D01*
X002690Y009601D02*
X003610D01*
X002690Y009529D02*
X003610D01*
X002690Y009457D02*
X003610D01*
X002690Y009385D02*
X003610D01*
X002690Y009313D02*
X003610D01*
X002690Y009241D02*
X003610D01*
X002690Y009169D02*
X003610D01*
X002690Y009097D02*
X003610D01*
X002690Y009025D02*
X003610D01*
X002690Y008953D02*
X003610D01*
X002690Y008881D02*
X003610D01*
X002690Y008809D02*
X003610D01*
X002690Y008737D02*
X003610D01*
X002690Y008665D02*
X003610D01*
X002690Y008593D02*
X003610D01*
X002690Y008521D02*
X003610D01*
X002690Y008449D02*
X003610D01*
X002690Y008377D02*
X003610D01*
X002690Y008305D02*
X003610D01*
X002690Y008233D02*
X003610D01*
X002690Y008161D02*
X003610D01*
X002690Y008089D02*
X003610D01*
X002690Y008017D02*
X003610D01*
X002690Y007945D02*
X003610D01*
X002690Y007873D02*
X003610D01*
X002690Y007801D02*
X003610D01*
X002690Y007729D02*
X003610D01*
X002690Y007657D02*
X003610D01*
X002690Y007585D02*
X003610D01*
X002690Y007513D02*
X003610D01*
X002690Y007441D02*
X003610D01*
X002690Y007369D02*
X003610D01*
X002690Y007297D02*
X003610D01*
X002690Y007225D02*
X003610D01*
X002690Y007153D02*
X003610D01*
X002690Y007081D02*
X003610D01*
X002690Y007009D02*
X003610D01*
X002690Y006937D02*
X003610D01*
X002690Y006865D02*
X003610D01*
X002690Y006793D02*
X003610D01*
X002690Y006721D02*
X003610D01*
X002690Y006649D02*
X003610D01*
X002690Y006577D02*
X003610D01*
X002690Y006505D02*
X003610D01*
X002690Y006433D02*
X003610D01*
X002690Y006361D02*
X003610D01*
X002690Y006289D02*
X003610D01*
X002690Y006217D02*
X003610D01*
X002690Y006145D02*
X003610D01*
X002690Y006073D02*
X003610D01*
X002690Y006001D02*
X003610D01*
X002690Y005929D02*
X003610D01*
X002690Y005857D02*
X003610D01*
X002690Y005785D02*
X003610D01*
X002690Y019681D02*
X003605D01*
X002690Y018745D02*
X003563D01*
X002690Y005713D02*
X003553D01*
X002690Y019609D02*
X003511D01*
X002690Y018817D02*
X003483D01*
X002690Y005641D02*
X003481D01*
X002690Y019537D02*
X003447D01*
X002690Y018889D02*
X003427D01*
X002690Y005569D02*
X003409D01*
X002690Y019465D02*
X003401D01*
X002690Y018961D02*
X003387D01*
X002690Y019393D02*
X003369D01*
X002690Y019033D02*
X003360D01*
X002690Y019321D02*
X003348D01*
X002690Y019105D02*
X003342D01*
X002690Y005497D02*
X003337D01*
X002690Y019249D02*
X003337D01*
X002690Y019177D02*
X003335D01*
X002690Y005425D02*
X003265D01*
X002690Y005353D02*
X003193D01*
X002690Y005281D02*
X003121D01*
X002690Y005209D02*
X003049D01*
X002690Y005137D02*
X002977D01*
X002690Y005065D02*
X002905D01*
X002690Y004993D02*
X002833D01*
X002690Y004921D02*
X002761D01*
X002690Y002833D02*
X022110D01*
X002690Y002761D02*
X022110D01*
X021117Y002905D02*
X021682D01*
X021236Y002977D02*
X021563D01*
X021311Y003049D02*
X021488D01*
X021362Y003121D02*
X021437D01*
X021399Y003193D02*
X021400D01*
X020117Y002905D02*
X020682D01*
X020236Y002977D02*
X020563D01*
X020311Y003049D02*
X020488D01*
X020362Y003121D02*
X020437D01*
X020399Y003193D02*
X020400D01*
X019117Y002905D02*
X019682D01*
X019236Y002977D02*
X019563D01*
X019311Y003049D02*
X019488D01*
X019362Y003121D02*
X019437D01*
X019399Y003193D02*
X019400D01*
X018117Y002905D02*
X018682D01*
X018236Y002977D02*
X018563D01*
X018311Y003049D02*
X018488D01*
X018362Y003121D02*
X018437D01*
X018399Y003193D02*
X018400D01*
X017117Y002905D02*
X017682D01*
X017236Y002977D02*
X017563D01*
X017311Y003049D02*
X017488D01*
X017362Y003121D02*
X017437D01*
X017399Y003193D02*
X017400D01*
X016117Y002905D02*
X016682D01*
X016236Y002977D02*
X016563D01*
X016311Y003049D02*
X016488D01*
X016362Y003121D02*
X016437D01*
X016399Y003193D02*
X016400D01*
X015117Y002905D02*
X015682D01*
X015236Y002977D02*
X015563D01*
X015311Y003049D02*
X015488D01*
X015362Y003121D02*
X015437D01*
X015399Y003193D02*
X015400D01*
X014117Y002905D02*
X014682D01*
X014236Y002977D02*
X014563D01*
X014311Y003049D02*
X014488D01*
X014362Y003121D02*
X014437D01*
X014399Y003193D02*
X014400D01*
X013117Y002905D02*
X013682D01*
X013236Y002977D02*
X013563D01*
X013311Y003049D02*
X013488D01*
X013362Y003121D02*
X013437D01*
X013399Y003193D02*
X013400D01*
X012117Y002905D02*
X012682D01*
X012236Y002977D02*
X012563D01*
X012311Y003049D02*
X012488D01*
X012362Y003121D02*
X012437D01*
X012399Y003193D02*
X012400D01*
X011117Y002905D02*
X011682D01*
X011236Y002977D02*
X011563D01*
X011311Y003049D02*
X011488D01*
X011362Y003121D02*
X011437D01*
X011399Y003193D02*
X011400D01*
X010117Y002905D02*
X010682D01*
X010236Y002977D02*
X010563D01*
X010311Y003049D02*
X010488D01*
X010362Y003121D02*
X010437D01*
X010399Y003193D02*
X010400D01*
X009117Y002905D02*
X009682D01*
X009236Y002977D02*
X009563D01*
X009311Y003049D02*
X009488D01*
X009362Y003121D02*
X009437D01*
X009399Y003193D02*
X009400D01*
X008117Y002905D02*
X008682D01*
X008236Y002977D02*
X008563D01*
X008311Y003049D02*
X008488D01*
X008362Y003121D02*
X008437D01*
X008399Y003193D02*
X008400D01*
X007117Y002905D02*
X007682D01*
X007236Y002977D02*
X007563D01*
X007311Y003049D02*
X007488D01*
X007362Y003121D02*
X007437D01*
X007399Y003193D02*
X007400D01*
X006117Y002905D02*
X006682D01*
X006236Y002977D02*
X006563D01*
X006311Y003049D02*
X006488D01*
X006362Y003121D02*
X006437D01*
X006399Y003193D02*
X006400D01*
X005117Y002905D02*
X005682D01*
X005236Y002977D02*
X005563D01*
X005311Y003049D02*
X005488D01*
X005362Y003121D02*
X005437D01*
X005399Y003193D02*
X005400D01*
X004117Y002905D02*
X004682D01*
X004236Y002977D02*
X004563D01*
X004311Y003049D02*
X004488D01*
X004362Y003121D02*
X004437D01*
X004399Y003193D02*
X004400D01*
X003256Y002905D02*
X003682D01*
X003363Y002977D02*
X003563D01*
X003395Y003049D02*
X003488D01*
X003400Y003121D02*
X003437D01*
X003400Y003193D02*
X003400D01*
G54D41*
X010900Y005650D03*
Y006650D03*
X009650D03*
Y005650D03*
X012350Y016900D03*
X008350D03*
X008850Y019900D03*
Y018900D03*
X011850Y017900D03*
Y018900D03*
Y019900D03*
Y020900D03*
X008850Y017900D03*
X006650Y010640D03*
Y011730D03*
Y012820D03*
Y013910D03*
X005650Y010100D03*
Y011190D03*
Y012280D03*
Y013370D03*
X019650Y018650D03*
Y016650D03*
Y017650D03*
X008350Y015900D03*
X012350D03*
X018150Y006150D03*
Y007150D03*
Y008150D03*
Y009150D03*
Y010150D03*
Y011150D03*
Y012150D03*
Y013150D03*
Y014150D03*
Y015150D03*
Y016150D03*
Y017150D03*
Y018150D03*
Y019150D03*
X015150Y006150D03*
Y007150D03*
Y008150D03*
Y009150D03*
Y010150D03*
Y011150D03*
Y012150D03*
Y013150D03*
Y014150D03*
Y015150D03*
Y016150D03*
Y017150D03*
Y018150D03*
X021150Y015650D03*
Y019650D03*
G54D42*
X005900Y019200D03*
X003900D03*
X004900D03*
G54D43*
X008850Y020900D03*
X006650Y009550D03*
X012150Y014900D03*
X008400D03*
X002900Y003400D03*
X015150Y019150D03*
G54D44*
X006150Y006800D03*
Y016660D03*
G54D45*
X010050Y012850D03*
X009350Y012350D03*
X010050Y011850D03*
Y014850D03*
X009350Y014350D03*
X010050Y013850D03*
X009500Y007750D03*
X010200Y008250D03*
X009500Y008750D03*
X010050Y010850D03*
X009550Y010350D03*
X010050Y009850D03*
G54D46*
X004900Y021400D03*
Y020800D03*
G54D47*
X008781Y010518D02*
X008647Y010652D01*
X008781Y011281D02*
X008647Y011147D01*
X008018Y011281D02*
X008152Y011147D01*
X008018Y010518D02*
X008152Y010652D01*
X010361Y011161D02*
X010226Y011026D01*
X009738Y011161D02*
X009873Y011026D01*
X008781Y011518D02*
X008647Y011652D01*
X008781Y012281D02*
X008647Y012147D01*
X008018Y012281D02*
X008152Y012147D01*
X008018Y011518D02*
X008152Y011652D01*
X010361Y011538D02*
X010226Y011673D01*
X010361Y012161D02*
X010226Y012026D01*
X009738Y011538D02*
X009873Y011673D01*
X014705Y018705D02*
X014930Y018930D01*
X014705Y019594D02*
X014930Y019369D01*
X015594Y019594D02*
X015369Y019369D01*
X015594Y018705D02*
X015369Y018930D01*
X020003Y017296D02*
X019869Y017430D01*
X020003Y018003D02*
X019869Y017869D01*
X019296Y018003D02*
X019430Y017869D01*
X019296Y017296D02*
X019430Y017430D01*
X005193Y020506D02*
X005059Y020640D01*
X005193Y021093D02*
X005059Y020959D01*
X004606Y021093D02*
X004740Y020959D01*
X004606Y020506D02*
X004740Y020640D01*
X009294Y021344D02*
X009069Y021119D01*
X009294Y020455D02*
X009069Y020680D01*
X008405Y020455D02*
X008630Y020680D01*
X008405Y021344D02*
X008630Y021119D01*
X006296Y014263D02*
X006430Y014129D01*
X006296Y013556D02*
X006430Y013690D01*
X007003Y013556D02*
X006869Y013690D01*
X007003Y014263D02*
X006869Y014129D01*
X009203Y018253D02*
X009069Y018119D01*
X008496Y018253D02*
X008630Y018119D01*
X008496Y017546D02*
X008630Y017680D01*
X009203Y017546D02*
X009069Y017680D01*
X011496Y020253D02*
X011630Y020119D01*
X011496Y019546D02*
X011630Y019680D01*
X012203Y019546D02*
X012069Y019680D01*
X011253Y005296D02*
X011119Y005430D01*
X011253Y006003D02*
X011119Y005869D01*
X010546Y006003D02*
X010680Y005869D01*
X010546Y005296D02*
X010680Y005430D01*
X004281Y003781D02*
X004147Y003647D01*
X003518Y003781D02*
X003652Y003647D01*
X003518Y003018D02*
X003652Y003152D01*
X004281Y003018D02*
X004147Y003152D01*
X004500Y018800D02*
X004634Y018934D01*
X005299Y018800D02*
X005165Y018934D01*
X005299Y019599D02*
X005165Y019465D01*
X004500Y019599D02*
X004634Y019465D01*
X009203Y019253D02*
X009069Y019119D01*
X008496Y019253D02*
X008630Y019119D01*
X008496Y018546D02*
X008630Y018680D01*
X009203Y018546D02*
X009069Y018680D01*
X009203Y020253D02*
X009069Y020119D01*
X008496Y020253D02*
X008630Y020119D01*
X008496Y019546D02*
X008630Y019680D01*
X009203Y019546D02*
X009069Y019680D01*
X009188Y009061D02*
X009323Y008926D01*
X009188Y008438D02*
X009323Y008573D01*
X009811Y009061D02*
X009676Y008926D01*
X014796Y015796D02*
X014930Y015930D01*
X015503Y015796D02*
X015369Y015930D01*
X015503Y016503D02*
X015369Y016369D01*
X014796Y016503D02*
X014930Y016369D01*
G54D48*
X002900Y003400D02*
Y004650D01*
X003900Y005650*
Y019200*
X004900Y003400D02*
X004800Y003500D01*
X004750*
Y017550*
X005900Y018700*
Y019200*
X011050Y010350D02*
Y010900D01*
X012150Y011900D02*
X011050D01*
Y013850*
X012150Y010900D02*
X011050D01*
Y011900*
X012150Y008900D02*
X011050Y010000D01*
Y010350*
X010050Y013850D02*
X011050D01*
Y016900*
X003900Y019200D02*
Y020950D01*
X004350Y021400*
X004900*
X008350Y016900D02*
X011050D01*
Y020900*
X015150Y018150D02*
X014600D01*
X011850Y020900*
X004900Y021400D02*
X005200Y021700D01*
X010650*
X011850Y020900D02*
X011050D01*
Y021300*
X010650Y021700*
G54D49*
X011050Y010350D02*
X009550D01*
G74*
X000000Y000000D02*
M02*
