*
*
G04 PADS Layout (Build Number 2005.266.2) generated Gerber (RS-274-X) file*
G04 PC Version=2.1*
*
%IN "OemBS2sx_C1.pcb"*%
*
%MOIN*%
*
%FSLAX24Y24*%
*
*
*
*
G04 PC Standard Apertures*
*
*
G04 Thermal Relief Aperture macro.*
%AMTER*
1,1,$1,0,0*
1,0,$1-$2,0,0*
21,0,$3,$4,0,0,45*
21,0,$3,$4,0,0,135*
%
*
*
G04 Annular Aperture macro.*
%AMANN*
1,1,$1,0,0*
1,0,$2,0,0*
%
*
*
G04 Odd Aperture macro.*
%AMODD*
1,1,$1,0,0*
1,0,$1-0.005,0,0*
%
*
*
G04 PC Custom Aperture Macros*
*
*
*
*
*
*
G04 PC Aperture Table*
*
%ADD010C,0.01*%
*
*
*
*
G04 PC Custom Flashes*
G04 Layer Name OemBS2sx_C1.pcb - flashes*
%LPD*%
*
*
G04 PC Circuitry*
G04 Layer Name OemBS2sx_C1.pcb - circuitry*
%LPD*%
*
G54D10*
G01X017150Y005900D02*
Y006172D01*
X017150D02*
X017212D01*
X017212D02*
X017275Y006150D01*
X017306Y006127*
X017337Y006081*
X017337D02*
Y006013D01*
X017337D02*
X017306Y005968D01*
X017243Y005922*
X017243D02*
X017150Y005900D01*
X017087*
X017087D02*
X016993Y005922D01*
X016993D02*
X016931Y005968D01*
X016900Y006013*
X016900D02*
Y006081D01*
X016900D02*
X016931Y006127D01*
X016993Y006172*
X017337Y006377D02*
X016900D01*
X017212D02*
X017306Y006445D01*
X017337Y006490*
X017337D02*
Y006559D01*
X017337D02*
X017306Y006604D01*
X017306D02*
X017212Y006627D01*
X017212D02*
X016900D01*
X017212D02*
X017306Y006695D01*
X017337Y006740*
X017337D02*
Y006809D01*
X017337D02*
X017306Y006854D01*
X017306D02*
X017212Y006877D01*
X017212D02*
X016900D01*
X017337Y007354D02*
X016900D01*
X017243D02*
X017306Y007309D01*
X017337Y007263*
X017337D02*
Y007195D01*
X017337D02*
X017306Y007150D01*
X017243Y007104*
X017243D02*
X017150Y007081D01*
X017150D02*
X017087D01*
X017087D02*
X016993Y007104D01*
X016993D02*
X016931Y007150D01*
X016900Y007195*
Y007263*
X016900D02*
X016931Y007309D01*
X016993Y007354*
X017556Y007559D02*
X017525Y007581D01*
X017525D02*
X017556Y007604D01*
X017556D02*
X017587Y007581D01*
X017587D02*
X017556Y007559D01*
X017337Y007581D02*
X016900D01*
X017556Y007809D02*
X016900D01*
X017337Y008036D02*
X017306Y008013D01*
X017306D02*
X017275Y008036D01*
X017306Y008059*
X017337Y008036*
X016962D02*
X016931Y008013D01*
X016931D02*
X016900Y008036D01*
X016931Y008059*
X016962Y008036*
X017243Y009036D02*
X017306Y009013D01*
X017306D02*
X017337Y008945D01*
X017337D02*
Y008877D01*
X017337D02*
X017306Y008809D01*
X017243Y008786*
X017243D02*
X017181Y008809D01*
X017150Y008854*
X017150D02*
X017118Y008968D01*
X017118D02*
X017087Y009013D01*
X017087D02*
X017025Y009036D01*
X016993*
X016993D02*
X016931Y009013D01*
X016931D02*
X016900Y008945D01*
Y008877*
X016931Y008809*
X016993Y008786*
X017337Y009240D02*
X017025D01*
X017025D02*
X016931Y009263D01*
X016931D02*
X016900Y009309D01*
Y009377*
X016931Y009422*
X016931D02*
X017025Y009490D01*
X017337D02*
X016900D01*
X017337Y009695D02*
X016681D01*
X017243D02*
X017306Y009740D01*
X017306D02*
X017337Y009786D01*
X017337D02*
Y009854D01*
X017337D02*
X017306Y009900D01*
X017243Y009945*
X017243D02*
X017150Y009968D01*
X017087*
X017087D02*
X016993Y009945D01*
X016993D02*
X016931Y009900D01*
X016900Y009854*
X016900D02*
Y009786D01*
X016931Y009740*
X016931D02*
X016993Y009695D01*
X017337Y010172D02*
X016681D01*
X017243D02*
X017306Y010218D01*
X017337Y010263*
X017337D02*
Y010331D01*
X017337D02*
X017306Y010377D01*
X017243Y010422*
X017243D02*
X017150Y010445D01*
X017087*
X017087D02*
X016993Y010422D01*
X016993D02*
X016931Y010377D01*
X016900Y010331*
X016900D02*
Y010263D01*
X016900D02*
X016931Y010218D01*
X016993Y010172*
X017337Y010763D02*
X017306Y010718D01*
X017243Y010672*
X017243D02*
X017150Y010650D01*
X017087*
X017087D02*
X016993Y010672D01*
X016993D02*
X016931Y010718D01*
X016900Y010763*
X016900D02*
Y010831D01*
X016900D02*
X016931Y010877D01*
X016993Y010922*
X016993D02*
X017087Y010945D01*
X017087D02*
X017150D01*
X017243Y010922*
X017243D02*
X017306Y010877D01*
X017337Y010831*
X017337D02*
Y010763D01*
Y011150D02*
X016900D01*
X017150D02*
X017243Y011172D01*
X017243D02*
X017306Y011218D01*
X017337Y011263*
X017337D02*
Y011331D01*
X017556Y011604D02*
X017025D01*
X017025D02*
X016931Y011627D01*
X016900Y011672*
X016900D02*
Y011718D01*
X017337Y011536D02*
Y011695D01*
X016931Y012218D02*
Y012127D01*
X016962Y012013*
X016962D02*
X017025Y011968D01*
X017150Y011922*
X017150D02*
X017306D01*
X017306D02*
X017462Y011968D01*
X017462D02*
X017525Y012013D01*
X017525D02*
Y012218D01*
X017462Y012286*
X017462D02*
X017368Y012331D01*
X017368D02*
X017212Y012354D01*
X017212D02*
X017087Y012331D01*
X017087D02*
X017056Y012309D01*
X017025Y012218D02*
X017056Y012195D01*
X017368*
X017306D02*
X017337Y012150D01*
X017337D02*
Y012104D01*
X017337D02*
X017306Y012059D01*
X017243Y012036*
X017243D02*
X017181D01*
X017118Y012059*
X017118D02*
X017087Y012104D01*
X017087D02*
Y012150D01*
X017087D02*
X017118Y012195D01*
X017025Y012218D02*
Y012286D01*
X017056Y012309*
X017337Y012559D02*
X016681D01*
X017243D02*
X017306Y012604D01*
X017306D02*
X017337Y012650D01*
X017337D02*
Y012718D01*
X017337D02*
X017306Y012763D01*
X017306D02*
X017243Y012809D01*
X017243D02*
X017150Y012831D01*
X017150D02*
X017087D01*
X017087D02*
X016993Y012809D01*
X016993D02*
X016931Y012763D01*
X016931D02*
X016900Y012718D01*
Y012650*
X016931Y012604*
X016931D02*
X016993Y012559D01*
X017337Y013309D02*
X016900D01*
X017243D02*
X017306Y013263D01*
X017306D02*
X017337Y013218D01*
X017337D02*
Y013150D01*
X017337D02*
X017306Y013104D01*
X017306D02*
X017243Y013059D01*
X017243D02*
X017150Y013036D01*
X017087*
X017087D02*
X016993Y013059D01*
X016993D02*
X016931Y013104D01*
X016931D02*
X016900Y013150D01*
Y013218*
X016931Y013263*
X016931D02*
X016993Y013309D01*
X017337Y013513D02*
X016900D01*
X017150D02*
X017243Y013536D01*
X017243D02*
X017306Y013581D01*
X017306D02*
X017337Y013627D01*
X017337D02*
Y013695D01*
Y014172D02*
X016900D01*
X017243D02*
X017306Y014127D01*
X017337Y014081*
X017337D02*
Y014013D01*
X017337D02*
X017306Y013968D01*
X017243Y013922*
X017243D02*
X017150Y013900D01*
X017087*
X017087D02*
X016993Y013922D01*
X016993D02*
X016931Y013968D01*
X016900Y014013*
X016900D02*
Y014081D01*
X016900D02*
X016931Y014127D01*
X016993Y014172*
X017556Y014377D02*
X016900D01*
X017556Y014581D02*
X016900D01*
X017337Y015059D02*
X016900D01*
X017243D02*
X017306Y015013D01*
X017306D02*
X017337Y014968D01*
X017337D02*
Y014900D01*
X017337D02*
X017306Y014854D01*
X017306D02*
X017243Y014809D01*
X017243D02*
X017150Y014786D01*
X017087*
X017087D02*
X016993Y014809D01*
X016993D02*
X016931Y014854D01*
X016931D02*
X016900Y014900D01*
Y014968*
X016931Y015013*
X016931D02*
X016993Y015059D01*
X017337Y015263D02*
X016900Y015513D01*
X017337D02*
X016900Y015263D01*
X016962Y015740D02*
X016931Y015718D01*
X016900Y015740*
X016900D02*
X016931Y015763D01*
X016931D02*
X016962Y015740D01*
X017243Y016240D02*
X017306Y016195D01*
X017337Y016150*
X017337D02*
Y016081D01*
X017337D02*
X017306Y016036D01*
X017243Y015990*
X017243D02*
X017150Y015968D01*
X017087*
X017087D02*
X016993Y015990D01*
X016993D02*
X016931Y016036D01*
X016900Y016081*
X016900D02*
Y016150D01*
X016931Y016195*
X016993Y016240*
X017337Y016559D02*
X017306Y016513D01*
X017306D02*
X017243Y016468D01*
X017243D02*
X017150Y016445D01*
X017087*
X017087D02*
X016993Y016468D01*
X016993D02*
X016931Y016513D01*
X016931D02*
X016900Y016559D01*
Y016627*
X016931Y016672*
X016931D02*
X016993Y016718D01*
X016993D02*
X017087Y016740D01*
X017087D02*
X017150D01*
X017150D02*
X017243Y016718D01*
X017243D02*
X017306Y016672D01*
X017306D02*
X017337Y016627D01*
X017337D02*
Y016559D01*
Y016945D02*
X016900D01*
X017212D02*
X017306Y017013D01*
X017306D02*
X017337Y017059D01*
X017337D02*
Y017127D01*
X017337D02*
X017306Y017172D01*
X017306D02*
X017212Y017195D01*
X017212D02*
X016900D01*
X017212D02*
X017306Y017263D01*
X017306D02*
X017337Y017309D01*
X017337D02*
Y017377D01*
X017337D02*
X017306Y017422D01*
X017306D02*
X017212Y017445D01*
X017212D02*
X016900D01*
X019556Y005900D02*
X018900D01*
X019556D02*
X018900Y006218D01*
X019556D02*
X018900D01*
X019150Y006422D02*
Y006695D01*
X019212*
X019212D02*
X019275Y006672D01*
X019275D02*
X019306Y006650D01*
X019337Y006604*
X019337D02*
Y006536D01*
X019337D02*
X019306Y006490D01*
X019306D02*
X019243Y006445D01*
X019243D02*
X019150Y006422D01*
X019150D02*
X019087D01*
X019087D02*
X018993Y006445D01*
X018993D02*
X018931Y006490D01*
X018931D02*
X018900Y006536D01*
Y006604*
X018900D02*
X018931Y006650D01*
X018993Y006695*
X019150Y006900D02*
Y007172D01*
X019150D02*
X019212D01*
X019212D02*
X019275Y007150D01*
X019306Y007127*
X019337Y007081*
X019337D02*
Y007013D01*
X019337D02*
X019306Y006968D01*
X019243Y006922*
X019243D02*
X019150Y006900D01*
X019087*
X019087D02*
X018993Y006922D01*
X018993D02*
X018931Y006968D01*
X018900Y007013*
X018900D02*
Y007081D01*
X018900D02*
X018931Y007127D01*
X018993Y007172*
X019556Y007650D02*
X018900D01*
X019243D02*
X019306Y007604D01*
X019306D02*
X019337Y007559D01*
X019337D02*
Y007490D01*
X019337D02*
X019306Y007445D01*
X019243Y007400*
X019243D02*
X019150Y007377D01*
X019087*
X019087D02*
X018993Y007400D01*
X018993D02*
X018931Y007445D01*
X018900Y007490*
X018900D02*
Y007559D01*
X018931Y007604*
X018931D02*
X018993Y007650D01*
X019556Y008536D02*
X018900D01*
X019556Y008377D02*
Y008695D01*
X019150Y008900D02*
Y009172D01*
X019150D02*
X019212D01*
X019212D02*
X019275Y009150D01*
X019306Y009127*
X019337Y009081*
X019337D02*
Y009013D01*
X019337D02*
X019306Y008968D01*
X019243Y008922*
X019243D02*
X019150Y008900D01*
X019087*
X019087D02*
X018993Y008922D01*
X018993D02*
X018931Y008968D01*
X018900Y009013*
X018900D02*
Y009081D01*
X018900D02*
X018931Y009127D01*
X018993Y009172*
X019243Y009650D02*
X019306Y009604D01*
X019306D02*
X019337Y009559D01*
X019337D02*
Y009490D01*
X019337D02*
X019306Y009445D01*
X019243Y009400*
X019243D02*
X019150Y009377D01*
X019087*
X019087D02*
X018993Y009400D01*
X018993D02*
X018931Y009445D01*
X018900Y009490*
X018900D02*
Y009559D01*
X018931Y009604*
X018931D02*
X018993Y009650D01*
X019556Y009854D02*
X018900D01*
X019212D02*
X019306Y009922D01*
X019306D02*
X019337Y009968D01*
X019337D02*
Y010036D01*
X019337D02*
X019306Y010081D01*
X019306D02*
X019212Y010104D01*
X019212D02*
X018900D01*
X019462Y011150D02*
X019525Y011104D01*
X019525D02*
X019556Y011036D01*
Y010945*
X019525Y010877*
X019462Y010831*
X019462D02*
X019400D01*
X019400D02*
X019337Y010854D01*
X019337D02*
X019306Y010877D01*
X019275Y010922*
X019275D02*
X019212Y011059D01*
X019212D02*
X019181Y011104D01*
X019181D02*
X019150Y011127D01*
X019087Y011150*
X019087D02*
X018993D01*
X018993D02*
X018931Y011104D01*
X018931D02*
X018900Y011036D01*
Y010945*
X018931Y010877*
X018993Y010831*
X019337Y011354D02*
X019025D01*
X019025D02*
X018931Y011377D01*
X018900Y011422*
X018900D02*
Y011490D01*
X018900D02*
X018931Y011536D01*
X019025Y011604*
X019337D02*
X018900D01*
X019337Y011809D02*
X018681D01*
X019243D02*
X019306Y011854D01*
X019306D02*
X019337Y011900D01*
X019337D02*
Y011968D01*
X019337D02*
X019306Y012013D01*
X019306D02*
X019243Y012059D01*
X019243D02*
X019150Y012081D01*
X019150D02*
X019087D01*
X019087D02*
X018993Y012059D01*
X018993D02*
X018931Y012013D01*
X018931D02*
X018900Y011968D01*
Y011900*
X018931Y011854*
X018931D02*
X018993Y011809D01*
X019337Y012286D02*
X018681D01*
X019243D02*
X019306Y012331D01*
X019306D02*
X019337Y012377D01*
X019337D02*
Y012445D01*
X019337D02*
X019306Y012490D01*
X019306D02*
X019243Y012536D01*
X019243D02*
X019150Y012559D01*
X019087*
X019087D02*
X018993Y012536D01*
X018993D02*
X018931Y012490D01*
X018931D02*
X018900Y012445D01*
Y012377*
X018931Y012331*
X018931D02*
X018993Y012286D01*
X019337Y012877D02*
X019306Y012831D01*
X019306D02*
X019243Y012786D01*
X019243D02*
X019150Y012763D01*
X019150D02*
X019087D01*
X019087D02*
X018993Y012786D01*
X018993D02*
X018931Y012831D01*
X018931D02*
X018900Y012877D01*
Y012945*
X018931Y012990*
X018931D02*
X018993Y013036D01*
X018993D02*
X019087Y013059D01*
X019087D02*
X019150D01*
X019243Y013036*
X019243D02*
X019306Y012990D01*
X019306D02*
X019337Y012945D01*
X019337D02*
Y012877D01*
Y013263D02*
X018900D01*
X019150D02*
X019243Y013286D01*
X019243D02*
X019306Y013331D01*
X019306D02*
X019337Y013377D01*
X019337D02*
Y013445D01*
X019556Y013718D02*
X019025D01*
X018931Y013740*
X018931D02*
X018900Y013786D01*
Y013831*
X019337Y013650D02*
Y013809D01*
X019400Y014036D02*
X019431D01*
X019493Y014059*
X019493D02*
X019525Y014081D01*
X019525D02*
X019556Y014127D01*
Y014218*
X019525Y014263*
X019525D02*
X019493Y014286D01*
X019493D02*
X019431Y014309D01*
X019368*
X019368D02*
X019306Y014286D01*
X019275Y014263*
X019275D02*
X019212Y014172D01*
X019212D02*
X019118D01*
X018962D02*
X018931Y014150D01*
X018900Y014172*
X018900D02*
X018931Y014195D01*
X018962Y014172*
X004806Y005900D02*
X004150D01*
X004806D02*
Y006104D01*
X004806D02*
X004775Y006172D01*
X004775D02*
X004743Y006195D01*
X004743D02*
X004681Y006218D01*
X004618*
X004618D02*
X004556Y006195D01*
X004525Y006172*
X004525D02*
X004493Y006104D01*
X004493D02*
Y005900D01*
Y006059D02*
X004150Y006218D01*
X004587Y006536D02*
X004556Y006490D01*
X004556D02*
X004493Y006445D01*
X004493D02*
X004400Y006422D01*
X004400D02*
X004337D01*
X004337D02*
X004243Y006445D01*
X004243D02*
X004181Y006490D01*
X004181D02*
X004150Y006536D01*
Y006604*
X004150D02*
X004181Y006650D01*
X004243Y006695*
X004243D02*
X004337Y006718D01*
X004337D02*
X004400D01*
X004493Y006695*
X004493D02*
X004556Y006650D01*
X004587Y006604*
X004587D02*
Y006536D01*
X004493Y007195D02*
X004556Y007150D01*
X004587Y007104*
X004587D02*
Y007036D01*
X004587D02*
X004556Y006990D01*
X004556D02*
X004493Y006945D01*
X004493D02*
X004400Y006922D01*
X004400D02*
X004337D01*
X004337D02*
X004243Y006945D01*
X004243D02*
X004181Y006990D01*
X004181D02*
X004150Y007036D01*
Y007104*
X004150D02*
X004181Y007150D01*
X004243Y007195*
X004806Y007400D02*
X004150D01*
X004587Y007627D02*
X004275Y007400D01*
X004400Y007490D02*
X004150Y007650D01*
X004806Y007854D02*
X004150D01*
X004806Y008059D02*
X004775Y008081D01*
X004775D02*
X004806Y008104D01*
X004806D02*
X004837Y008081D01*
X004837D02*
X004806Y008059D01*
X004587Y008081D02*
X004150D01*
X004587Y008309D02*
X004150D01*
X004462D02*
X004556Y008377D01*
X004587Y008422*
X004587D02*
Y008490D01*
X004587D02*
X004556Y008536D01*
X004462Y008559*
X004462D02*
X004150D01*
X004181Y008809D02*
X004150Y008786D01*
X004181Y008763*
X004181D02*
X004212Y008786D01*
X004212D02*
X004181Y008809D01*
X004118*
X004118D02*
X004056Y008786D01*
X004025Y008763*
X004650Y009877D02*
X004712Y009854D01*
X004712D02*
X004775Y009809D01*
X004806Y009763*
X004806D02*
Y009672D01*
X004806D02*
X004775Y009627D01*
X004712Y009581*
X004712D02*
X004650Y009559D01*
X004556Y009536*
X004400*
X004306Y009559*
X004243Y009581*
X004243D02*
X004181Y009627D01*
X004150Y009672*
X004150D02*
Y009763D01*
X004150D02*
X004181Y009809D01*
X004243Y009854*
X004243D02*
X004306Y009877D01*
X004806Y010263D02*
X004150Y010081D01*
X004806Y010263D02*
X004150Y010445D01*
X004368Y010150D02*
Y010377D01*
X004431Y011172D02*
Y011581D01*
X004806Y012309D02*
X004337D01*
X004337D02*
X004243Y012331D01*
X004243D02*
X004181Y012377D01*
X004150Y012445*
Y012490*
X004150D02*
X004181Y012559D01*
X004243Y012604*
X004243D02*
X004337Y012627D01*
X004337D02*
X004806D01*
X004712Y013150D02*
X004775Y013104D01*
X004775D02*
X004806Y013036D01*
Y012945*
X004775Y012877*
X004712Y012831*
X004712D02*
X004650D01*
X004650D02*
X004587Y012854D01*
X004587D02*
X004556Y012877D01*
X004525Y012922*
X004525D02*
X004462Y013059D01*
X004462D02*
X004431Y013104D01*
X004431D02*
X004400Y013127D01*
X004337Y013150*
X004337D02*
X004243D01*
X004243D02*
X004181Y013104D01*
X004181D02*
X004150Y013036D01*
Y012945*
X004181Y012877*
X004243Y012831*
X004806Y013536D02*
X004150Y013354D01*
X004806Y013536D02*
X004150Y013718D01*
X004368Y013422D02*
Y013650D01*
X013587Y005900D02*
X013150Y005990D01*
X013587Y006081D02*
X013150Y005990D01*
X013587Y006081D02*
X013150Y006172D01*
X013587Y006263D02*
X013150Y006172D01*
X013587Y006468D02*
X013150Y006559D01*
X013587Y006650D02*
X013150Y006559D01*
X013587Y006650D02*
X013150Y006740D01*
X013587Y006831D02*
X013150Y006740D01*
X013587Y007036D02*
X013150Y007127D01*
X013587Y007218D02*
X013150Y007127D01*
X013587Y007218D02*
X013150Y007309D01*
X013587Y007400D02*
X013150Y007309D01*
X013212Y007627D02*
X013181Y007604D01*
X013181D02*
X013150Y007627D01*
X013181Y007650*
X013212Y007627*
X013587Y007854D02*
X012931D01*
X013493D02*
X013556Y007900D01*
X013587Y007945*
X013587D02*
Y008013D01*
X013587D02*
X013556Y008059D01*
X013493Y008104*
X013493D02*
X013400Y008127D01*
X013337*
X013337D02*
X013243Y008104D01*
X013243D02*
X013181Y008059D01*
X013150Y008013*
X013150D02*
Y007945D01*
X013181Y007900*
X013243Y007854*
X013587Y008604D02*
X013150D01*
X013493D02*
X013556Y008559D01*
X013587Y008513*
X013587D02*
Y008445D01*
X013587D02*
X013556Y008400D01*
X013493Y008354*
X013493D02*
X013400Y008331D01*
X013400D02*
X013337D01*
X013337D02*
X013243Y008354D01*
X013243D02*
X013181Y008400D01*
X013150Y008445*
Y008513*
X013150D02*
X013181Y008559D01*
X013243Y008604*
X013587Y008809D02*
X013150D01*
X013400D02*
X013493Y008831D01*
X013493D02*
X013556Y008877D01*
X013587Y008922*
X013587D02*
Y008990D01*
Y009468D02*
X013150D01*
X013493D02*
X013556Y009422D01*
X013556D02*
X013587Y009377D01*
X013587D02*
Y009309D01*
X013587D02*
X013556Y009263D01*
X013556D02*
X013493Y009218D01*
X013493D02*
X013400Y009195D01*
X013337*
X013337D02*
X013243Y009218D01*
X013243D02*
X013181Y009263D01*
X013181D02*
X013150Y009309D01*
Y009377*
X013181Y009422*
X013181D02*
X013243Y009468D01*
X013806Y009672D02*
X013150D01*
X013806Y009877D02*
X013150D01*
X013587Y010354D02*
X013150D01*
X013493D02*
X013556Y010309D01*
X013587Y010263*
X013587D02*
Y010195D01*
X013587D02*
X013556Y010150D01*
X013493Y010104*
X013493D02*
X013400Y010081D01*
X013400D02*
X013337D01*
X013337D02*
X013243Y010104D01*
X013243D02*
X013181Y010150D01*
X013150Y010195*
Y010263*
X013150D02*
X013181Y010309D01*
X013243Y010354*
X013587Y010559D02*
X013150Y010809D01*
X013587D02*
X013150Y010559D01*
X013212Y011036D02*
X013181Y011013D01*
X013181D02*
X013150Y011036D01*
X013181Y011059*
X013212Y011036*
X013493Y011536D02*
X013556Y011490D01*
X013556D02*
X013587Y011445D01*
X013587D02*
Y011377D01*
X013587D02*
X013556Y011331D01*
X013556D02*
X013493Y011286D01*
X013493D02*
X013400Y011263D01*
X013400D02*
X013337D01*
X013337D02*
X013243Y011286D01*
X013243D02*
X013181Y011331D01*
X013181D02*
X013150Y011377D01*
Y011445*
X013181Y011490*
X013181D02*
X013243Y011536D01*
X013587Y011854D02*
X013556Y011809D01*
X013493Y011763*
X013493D02*
X013400Y011740D01*
X013400D02*
X013337D01*
X013337D02*
X013243Y011763D01*
X013243D02*
X013181Y011809D01*
X013150Y011854*
X013150D02*
Y011922D01*
X013150D02*
X013181Y011968D01*
X013243Y012013*
X013243D02*
X013337Y012036D01*
X013337D02*
X013400D01*
X013493Y012013*
X013493D02*
X013556Y011968D01*
X013587Y011922*
X013587D02*
Y011854D01*
Y012240D02*
X013150D01*
X013462D02*
X013556Y012309D01*
X013587Y012354*
X013587D02*
Y012422D01*
X013587D02*
X013556Y012468D01*
X013462Y012490*
X013462D02*
X013150D01*
X013462D02*
X013556Y012559D01*
X013587Y012604*
X013587D02*
Y012672D01*
X013587D02*
X013556Y012718D01*
X013462Y012740*
X013462D02*
X013150D01*
X014556Y005900D02*
X013900D01*
X014556D02*
Y006059D01*
X014525Y006127*
X014462Y006172*
X014462D02*
X014400Y006195D01*
X014306Y006218*
X014150*
X014056Y006195*
X013993Y006172*
X013993D02*
X013931Y006127D01*
X013900Y006059*
Y005900*
X014337Y006536D02*
X014306Y006490D01*
X014306D02*
X014243Y006445D01*
X014243D02*
X014150Y006422D01*
X014150D02*
X014087D01*
X014087D02*
X013993Y006445D01*
X013993D02*
X013931Y006490D01*
X013931D02*
X013900Y006536D01*
Y006604*
X013900D02*
X013931Y006650D01*
X013993Y006695*
X013993D02*
X014087Y006718D01*
X014087D02*
X014150D01*
X014243Y006695*
X014243D02*
X014306Y006650D01*
X014337Y006604*
X014337D02*
Y006536D01*
Y006922D02*
X013900Y007013D01*
X014337Y007104D02*
X013900Y007013D01*
X014337Y007104D02*
X013900Y007195D01*
X014337Y007286D02*
X013900Y007195D01*
X014337Y007490D02*
X013900D01*
X014212D02*
X014306Y007559D01*
X014337Y007604*
X014337D02*
Y007672D01*
X014337D02*
X014306Y007718D01*
X014212Y007740*
X014212D02*
X013900D01*
X014556Y007945D02*
X013900D01*
X014337Y008263D02*
X014306Y008218D01*
X014243Y008172*
X014243D02*
X014150Y008150D01*
X014087*
X014087D02*
X013993Y008172D01*
X013993D02*
X013931Y008218D01*
X013900Y008263*
X013900D02*
Y008331D01*
X013900D02*
X013931Y008377D01*
X013993Y008422*
X013993D02*
X014087Y008445D01*
X014087D02*
X014150D01*
X014243Y008422*
X014243D02*
X014306Y008377D01*
X014337Y008331*
X014337D02*
Y008263D01*
Y008922D02*
X013900D01*
X014243D02*
X014306Y008877D01*
X014337Y008831*
X014337D02*
Y008763D01*
X014337D02*
X014306Y008718D01*
X014243Y008672*
X014243D02*
X014150Y008650D01*
X014087*
X014087D02*
X013993Y008672D01*
X013993D02*
X013931Y008718D01*
X013900Y008763*
X013900D02*
Y008831D01*
X013900D02*
X013931Y008877D01*
X013993Y008922*
X014556Y009400D02*
X013900D01*
X014243D02*
X014306Y009354D01*
X014306D02*
X014337Y009309D01*
X014337D02*
Y009240D01*
X014337D02*
X014306Y009195D01*
X014243Y009150*
X014243D02*
X014150Y009127D01*
X014087*
X014087D02*
X013993Y009150D01*
X013993D02*
X013931Y009195D01*
X013900Y009240*
X013900D02*
Y009309D01*
X013931Y009354*
X013931D02*
X013993Y009400D01*
X014556Y010309D02*
Y010263D01*
X014556D02*
X014525Y010218D01*
X014431Y010195*
X013900*
X014337Y010127D02*
Y010286D01*
Y010513D02*
X013900D01*
X014150D02*
X014243Y010536D01*
X014243D02*
X014306Y010581D01*
X014306D02*
X014337Y010627D01*
X014337D02*
Y010695D01*
X014150Y010900D02*
Y011172D01*
X014150D02*
X014212D01*
X014212D02*
X014275Y011150D01*
X014306Y011127*
X014337Y011081*
X014337D02*
Y011013D01*
X014337D02*
X014306Y010968D01*
X014243Y010922*
X014243D02*
X014150Y010900D01*
X014087*
X014087D02*
X013993Y010922D01*
X013993D02*
X013931Y010968D01*
X013900Y011013*
X013900D02*
Y011081D01*
X013900D02*
X013931Y011127D01*
X013993Y011172*
X014150Y011377D02*
Y011650D01*
X014212*
X014212D02*
X014275Y011627D01*
X014306Y011604*
X014306D02*
X014337Y011559D01*
X014337D02*
Y011490D01*
X014337D02*
X014306Y011445D01*
X014243Y011400*
X014243D02*
X014150Y011377D01*
X014087*
X014087D02*
X013993Y011400D01*
X013993D02*
X013931Y011445D01*
X013900Y011490*
X013900D02*
Y011559D01*
X013931Y011604*
X013931D02*
X013993Y011650D01*
X014337Y012377D02*
X013900D01*
X014150D02*
X014243Y012400D01*
X014243D02*
X014306Y012445D01*
X014337Y012490*
X014337D02*
Y012559D01*
X014150Y012763D02*
Y013036D01*
X014212*
X014212D02*
X014275Y013013D01*
X014275D02*
X014306Y012990D01*
X014306D02*
X014337Y012945D01*
X014337D02*
Y012877D01*
X014337D02*
X014306Y012831D01*
X014306D02*
X014243Y012786D01*
X014243D02*
X014150Y012763D01*
X014150D02*
X014087D01*
X014087D02*
X013993Y012786D01*
X013993D02*
X013931Y012831D01*
X013931D02*
X013900Y012877D01*
Y012945*
X013931Y012990*
X013931D02*
X013993Y013036D01*
X014243Y013490D02*
X014306Y013468D01*
X014337Y013400*
X014337D02*
Y013331D01*
X014337D02*
X014306Y013263D01*
X014306D02*
X014243Y013240D01*
X014243D02*
X014181Y013263D01*
X014181D02*
X014150Y013309D01*
X014118Y013422*
X014118D02*
X014087Y013468D01*
X014087D02*
X014025Y013490D01*
X014025D02*
X013993D01*
X013993D02*
X013931Y013468D01*
X013900Y013400*
Y013331*
X013900D02*
X013931Y013263D01*
X013931D02*
X013993Y013240D01*
X014337Y013809D02*
X014306Y013763D01*
X014306D02*
X014243Y013718D01*
X014243D02*
X014150Y013695D01*
X014087*
X014087D02*
X013993Y013718D01*
X013993D02*
X013931Y013763D01*
X013931D02*
X013900Y013809D01*
Y013877*
X013931Y013922*
X013931D02*
X013993Y013968D01*
X013993D02*
X014087Y013990D01*
X014087D02*
X014150D01*
X014150D02*
X014243Y013968D01*
X014243D02*
X014306Y013922D01*
X014306D02*
X014337Y013877D01*
X014337D02*
Y013809D01*
Y014195D02*
X014025D01*
X013931Y014218*
X013900Y014263*
X013900D02*
Y014331D01*
X013900D02*
X013931Y014377D01*
X014025Y014445*
X014337D02*
X013900D01*
X014337Y014650D02*
X013900D01*
X014150D02*
X014243Y014672D01*
X014243D02*
X014306Y014718D01*
X014337Y014763*
X014337D02*
Y014831D01*
X014243Y015309D02*
X014306Y015263D01*
X014306D02*
X014337Y015218D01*
X014337D02*
Y015150D01*
X014337D02*
X014306Y015104D01*
X014306D02*
X014243Y015059D01*
X014243D02*
X014150Y015036D01*
X014087*
X014087D02*
X013993Y015059D01*
X013993D02*
X013931Y015104D01*
X013931D02*
X013900Y015150D01*
Y015218*
X013931Y015263*
X013931D02*
X013993Y015309D01*
X014150Y015513D02*
Y015786D01*
X014212*
X014212D02*
X014275Y015763D01*
X014275D02*
X014306Y015740D01*
X014306D02*
X014337Y015695D01*
X014337D02*
Y015627D01*
X014337D02*
X014306Y015581D01*
X014306D02*
X014243Y015536D01*
X014243D02*
X014150Y015513D01*
X014150D02*
X014087D01*
X014087D02*
X013993Y015536D01*
X013993D02*
X013931Y015581D01*
X013931D02*
X013900Y015627D01*
Y015695*
X013931Y015740*
X013931D02*
X013993Y015786D01*
X014243Y016240D02*
X014306Y016218D01*
X014337Y016150*
X014337D02*
Y016081D01*
X014337D02*
X014306Y016013D01*
X014306D02*
X014243Y015990D01*
X014243D02*
X014181Y016013D01*
X014181D02*
X014150Y016059D01*
X014118Y016172*
X014118D02*
X014087Y016218D01*
X014087D02*
X014025Y016240D01*
X014025D02*
X013993D01*
X013993D02*
X013931Y016218D01*
X013900Y016150*
Y016081*
X013900D02*
X013931Y016013D01*
X013931D02*
X013993Y015990D01*
X014337Y017240D02*
X013900D01*
X014243D02*
X014306Y017195D01*
X014337Y017150*
X014337D02*
Y017081D01*
X014337D02*
X014306Y017036D01*
X014243Y016990*
X014243D02*
X014150Y016968D01*
X014087*
X014087D02*
X013993Y016990D01*
X013993D02*
X013931Y017036D01*
X013900Y017081*
X013900D02*
Y017150D01*
X013931Y017195*
X013993Y017240*
X014556Y017513D02*
X014025D01*
X014025D02*
X013931Y017536D01*
X013900Y017581*
X013900D02*
Y017627D01*
X014337Y017445D02*
Y017604D01*
Y017854D02*
X014306Y017831D01*
X014306D02*
X014275Y017854D01*
X014275D02*
X014306Y017877D01*
X014337Y017854*
X013962D02*
X013931Y017831D01*
X013931D02*
X013900Y017854D01*
X013900D02*
X013931Y017877D01*
X013962Y017854*
X003931Y006059D02*
X003868Y006013D01*
X003868D02*
X003775Y005968D01*
X003650Y005922*
X003650D02*
X003493Y005900D01*
X003493D02*
X003368D01*
X003368D02*
X003212Y005922D01*
X003212D02*
X003087Y005968D01*
X003087D02*
X002993Y006013D01*
X002993D02*
X002931Y006059D01*
X003587Y006559D02*
X003493Y006536D01*
X003493D02*
X003431Y006490D01*
X003431D02*
X003400Y006422D01*
X003400D02*
Y006400D01*
X003431Y006331*
X003431D02*
X003493Y006286D01*
X003493D02*
X003587Y006263D01*
X003587D02*
X003618D01*
X003618D02*
X003712Y006286D01*
X003712D02*
X003775Y006331D01*
X003775D02*
X003806Y006400D01*
Y006422*
X003806D02*
X003775Y006490D01*
X003775D02*
X003712Y006536D01*
X003712D02*
X003587Y006559D01*
X003587D02*
X003431D01*
X003275Y006536*
X003181Y006490*
X003181D02*
X003150Y006422D01*
X003150D02*
Y006377D01*
X003181Y006309*
X003243Y006286*
X003681Y006763D02*
X003712Y006809D01*
X003712D02*
X003806Y006877D01*
X003150*
X003712Y007354D02*
X003775Y007331D01*
X003775D02*
X003806Y007263D01*
X003806D02*
Y007218D01*
X003775Y007150*
X003681Y007104*
X003681D02*
X003525Y007081D01*
X003525D02*
X003368D01*
X003368D02*
X003243Y007104D01*
X003243D02*
X003181Y007150D01*
X003150Y007218*
Y007240*
X003150D02*
X003181Y007309D01*
X003243Y007354*
X003243D02*
X003337Y007377D01*
X003337D02*
X003368D01*
X003368D02*
X003462Y007354D01*
X003462D02*
X003525Y007309D01*
X003556Y007240*
X003556D02*
Y007218D01*
X003525Y007150*
X003462Y007104*
X003462D02*
X003368Y007081D01*
X003931Y007581D02*
X003868Y007627D01*
X003868D02*
X003775Y007672D01*
X003775D02*
X003650Y007718D01*
X003493Y007740*
X003493D02*
X003368D01*
X003368D02*
X003212Y007718D01*
X003212D02*
X003087Y007672D01*
X003087D02*
X002993Y007627D01*
X002993D02*
X002931Y007581D01*
X003712Y008740D02*
X003775Y008718D01*
X003806Y008650*
Y008604*
X003806D02*
X003775Y008536D01*
X003681Y008490*
X003681D02*
X003525Y008468D01*
X003368*
X003368D02*
X003243Y008490D01*
X003243D02*
X003181Y008536D01*
X003150Y008604*
X003150D02*
Y008627D01*
X003181Y008695*
X003243Y008740*
X003243D02*
X003337Y008763D01*
X003337D02*
X003368D01*
X003368D02*
X003462Y008740D01*
X003462D02*
X003525Y008695D01*
X003556Y008627*
Y008604*
X003556D02*
X003525Y008536D01*
X003462Y008490*
X003462D02*
X003368Y008468D01*
X003650Y008990D02*
X003681D01*
X003681D02*
X003743Y009013D01*
X003743D02*
X003775Y009036D01*
X003806Y009081*
X003806D02*
Y009172D01*
X003806D02*
X003775Y009218D01*
X003743Y009240*
X003743D02*
X003681Y009263D01*
X003681D02*
X003618D01*
X003618D02*
X003556Y009240D01*
X003556D02*
X003462Y009195D01*
X003462D02*
X003150Y008968D01*
Y009286*
X003806Y009718D02*
X003368Y009490D01*
X003368D02*
Y009831D01*
X003806Y009718D02*
X003150D01*
X003431Y010036D02*
Y010445D01*
X003806Y010763D02*
X003775Y010695D01*
X003712Y010672*
X003712D02*
X003650D01*
X003650D02*
X003587Y010695D01*
X003587D02*
X003556Y010740D01*
X003556D02*
X003525Y010831D01*
X003525D02*
X003493Y010900D01*
X003493D02*
X003431Y010945D01*
X003368Y010968*
X003368D02*
X003275D01*
X003212Y010945*
X003212D02*
X003181Y010922D01*
X003181D02*
X003150Y010854D01*
X003150D02*
Y010763D01*
X003150D02*
X003181Y010695D01*
X003212Y010672*
X003212D02*
X003275Y010650D01*
X003368*
X003368D02*
X003431Y010672D01*
X003431D02*
X003493Y010718D01*
X003493D02*
X003525Y010786D01*
X003556Y010877*
X003587Y010922*
X003587D02*
X003650Y010945D01*
X003712*
X003712D02*
X003775Y010922D01*
X003775D02*
X003806Y010854D01*
X003806D02*
Y010763D01*
Y011218D02*
Y011468D01*
X003556Y011331*
X003556D02*
Y011400D01*
X003525Y011445*
X003493Y011468*
X003493D02*
X003400Y011490D01*
X003400D02*
X003337D01*
X003337D02*
X003243Y011468D01*
X003243D02*
X003181Y011422D01*
X003181D02*
X003150Y011354D01*
X003150D02*
Y011286D01*
X003181Y011218*
X003212Y011195*
X003212D02*
X003275Y011172D01*
X003806Y011740D02*
Y011990D01*
X003806D02*
X003556Y011854D01*
X003556D02*
Y011922D01*
X003556D02*
X003525Y011968D01*
X003493Y011990*
X003493D02*
X003400Y012013D01*
X003400D02*
X003337D01*
X003337D02*
X003243Y011990D01*
X003243D02*
X003181Y011945D01*
X003150Y011877*
Y011809*
X003181Y011740*
X003181D02*
X003212Y011718D01*
X003212D02*
X003275Y011695D01*
X003806Y012263D02*
Y012513D01*
X003806D02*
X003556Y012377D01*
Y012445*
X003525Y012490*
X003525D02*
X003493Y012513D01*
X003493D02*
X003400Y012536D01*
X003337*
X003337D02*
X003243Y012513D01*
X003243D02*
X003181Y012468D01*
X003150Y012400*
Y012331*
X003150D02*
X003181Y012263D01*
X003181D02*
X003212Y012240D01*
X003212D02*
X003275Y012218D01*
X016556Y009081D02*
Y009036D01*
X016525Y008990*
X016525D02*
X016431Y008968D01*
X015900*
X016337Y008900D02*
Y009059D01*
Y009400D02*
X016306Y009354D01*
X016306D02*
X016243Y009309D01*
X016243D02*
X016150Y009286D01*
X016087*
X016087D02*
X015993Y009309D01*
X015993D02*
X015931Y009354D01*
X015931D02*
X015900Y009400D01*
Y009468*
X015931Y009513*
X015931D02*
X015993Y009559D01*
X015993D02*
X016087Y009581D01*
X016087D02*
X016150D01*
X016150D02*
X016243Y009559D01*
X016243D02*
X016306Y009513D01*
X016306D02*
X016337Y009468D01*
X016337D02*
Y009400D01*
Y009786D02*
X015900D01*
X016150D02*
X016243Y009809D01*
X016243D02*
X016306Y009854D01*
X016306D02*
X016337Y009900D01*
X016337D02*
Y009968D01*
Y010172D02*
X016025D01*
X016025D02*
X015931Y010195D01*
X015900Y010240*
X015900D02*
Y010309D01*
X015931Y010354*
X015931D02*
X016025Y010422D01*
X016337D02*
X015900D01*
X016337Y010627D02*
X015900D01*
X016212D02*
X016306Y010695D01*
X016337Y010740*
X016337D02*
Y010809D01*
X016337D02*
X016306Y010854D01*
X016306D02*
X016212Y010877D01*
X016212D02*
X015900D01*
X016212D02*
X016306Y010945D01*
X016337Y010990*
X016337D02*
Y011059D01*
X016337D02*
X016306Y011104D01*
X016306D02*
X016212Y011127D01*
X016212D02*
X015900D01*
X016243Y011581D02*
X016306Y011559D01*
X016337Y011490*
X016337D02*
Y011422D01*
X016337D02*
X016306Y011354D01*
X016306D02*
X016243Y011331D01*
X016243D02*
X016181Y011354D01*
X016181D02*
X016150Y011400D01*
X016118Y011513*
X016118D02*
X016087Y011559D01*
X016087D02*
X016025Y011581D01*
X016025D02*
X015993D01*
X015993D02*
X015931Y011559D01*
X015900Y011490*
X015900D02*
Y011422D01*
X015900D02*
X015931Y011354D01*
X015931D02*
X015993Y011331D01*
X015962Y011809D02*
X015931Y011786D01*
X015900Y011809*
X015931Y011831*
X015931D02*
X015962Y011809D01*
X016337Y012036D02*
X015681D01*
X016243D02*
X016306Y012081D01*
X016306D02*
X016337Y012127D01*
X016337D02*
Y012195D01*
X016337D02*
X016306Y012240D01*
X016306D02*
X016243Y012286D01*
X016243D02*
X016150Y012309D01*
X016087*
X016087D02*
X015993Y012286D01*
X015993D02*
X015931Y012240D01*
X015931D02*
X015900Y012195D01*
Y012127*
X015931Y012081*
X015931D02*
X015993Y012036D01*
X016337Y012786D02*
X015900D01*
X016243D02*
X016306Y012740D01*
X016306D02*
X016337Y012695D01*
X016337D02*
Y012627D01*
X016337D02*
X016306Y012581D01*
X016306D02*
X016243Y012536D01*
X016243D02*
X016150Y012513D01*
X016150D02*
X016087D01*
X016087D02*
X015993Y012536D01*
X015993D02*
X015931Y012581D01*
X015931D02*
X015900Y012627D01*
Y012695*
X015931Y012740*
X015931D02*
X015993Y012786D01*
X016337Y012990D02*
X015900D01*
X016150D02*
X016243Y013013D01*
X016243D02*
X016306Y013059D01*
X016337Y013104*
X016337D02*
Y013172D01*
Y013650D02*
X015900D01*
X016243D02*
X016306Y013604D01*
X016306D02*
X016337Y013559D01*
X016337D02*
Y013490D01*
X016337D02*
X016306Y013445D01*
X016243Y013400*
X016243D02*
X016150Y013377D01*
X016087*
X016087D02*
X015993Y013400D01*
X015993D02*
X015931Y013445D01*
X015900Y013490*
X015900D02*
Y013559D01*
X015931Y013604*
X015931D02*
X015993Y013650D01*
X016556Y013854D02*
X015900D01*
X016556Y014059D02*
X015900D01*
X016337Y014536D02*
X015900D01*
X016243D02*
X016306Y014490D01*
X016306D02*
X016337Y014445D01*
X016337D02*
Y014377D01*
X016337D02*
X016306Y014331D01*
X016306D02*
X016243Y014286D01*
X016243D02*
X016150Y014263D01*
X016150D02*
X016087D01*
X016087D02*
X015993Y014286D01*
X015993D02*
X015931Y014331D01*
X015931D02*
X015900Y014377D01*
Y014445*
X015931Y014490*
X015931D02*
X015993Y014536D01*
X016337Y014740D02*
X015900Y014990D01*
X016337D02*
X015900Y014740D01*
X015962Y015218D02*
X015931Y015195D01*
X015900Y015218*
X015931Y015240*
X015931D02*
X015962Y015218D01*
X016243Y015718D02*
X016306Y015672D01*
X016306D02*
X016337Y015627D01*
X016337D02*
Y015559D01*
X016337D02*
X016306Y015513D01*
X016306D02*
X016243Y015468D01*
X016243D02*
X016150Y015445D01*
X016087*
X016087D02*
X015993Y015468D01*
X015993D02*
X015931Y015513D01*
X015931D02*
X015900Y015559D01*
Y015627*
X015931Y015672*
X015931D02*
X015993Y015718D01*
X016337Y016036D02*
X016306Y015990D01*
X016306D02*
X016243Y015945D01*
X016243D02*
X016150Y015922D01*
X016150D02*
X016087D01*
X016087D02*
X015993Y015945D01*
X015993D02*
X015931Y015990D01*
X015931D02*
X015900Y016036D01*
Y016104*
X015900D02*
X015931Y016150D01*
X015993Y016195*
X015993D02*
X016087Y016218D01*
X016087D02*
X016150D01*
X016243Y016195*
X016243D02*
X016306Y016150D01*
X016337Y016104*
X016337D02*
Y016036D01*
Y016422D02*
X015900D01*
X016212D02*
X016306Y016490D01*
X016306D02*
X016337Y016536D01*
X016337D02*
Y016604D01*
X016337D02*
X016306Y016650D01*
X016212Y016672*
X016212D02*
X015900D01*
X016212D02*
X016306Y016740D01*
X016306D02*
X016337Y016786D01*
X016337D02*
Y016854D01*
X016337D02*
X016306Y016900D01*
X016212Y016922*
X016212D02*
X015900D01*
X003400Y019672D02*
X003431D01*
X003431D02*
X003493Y019695D01*
X003493D02*
X003525Y019718D01*
X003556Y019763*
X003556D02*
Y019854D01*
X003556D02*
X003525Y019900D01*
X003493Y019922*
X003493D02*
X003431Y019945D01*
X003368*
X003368D02*
X003306Y019922D01*
X003306D02*
X003212Y019877D01*
X003212D02*
X002900Y019650D01*
Y019968*
X003556Y020490D02*
X002900Y020263D01*
X003556Y020172D02*
Y020490D01*
X003400Y020718D02*
X003431D01*
X003493Y020740*
X003493D02*
X003525Y020763D01*
X003525D02*
X003556Y020809D01*
Y020900*
X003525Y020945*
X003493Y020968*
X003493D02*
X003431Y020990D01*
X003431D02*
X003368D01*
X003368D02*
X003306Y020968D01*
X003212Y020922*
X003212D02*
X002900Y020695D01*
Y021013*
X003337Y021513D02*
X003243Y021490D01*
X003243D02*
X003181Y021445D01*
X003150Y021377*
Y021354*
X003150D02*
X003181Y021286D01*
X003243Y021240*
X003243D02*
X003337Y021218D01*
X003337D02*
X003368D01*
X003368D02*
X003462Y021240D01*
X003462D02*
X003525Y021286D01*
X003556Y021354*
X003556D02*
Y021377D01*
X003525Y021445*
X003462Y021490*
X003462D02*
X003337Y021513D01*
X003337D02*
X003181D01*
X003181D02*
X003025Y021490D01*
X003025D02*
X002931Y021445D01*
X002900Y021377*
Y021331*
X002900D02*
X002931Y021263D01*
X002931D02*
X002993Y021240D01*
X003556Y021945D02*
X003118Y021718D01*
X003118D02*
Y022059D01*
X003556Y021945D02*
X002900D01*
X000000Y000000D02*
M02*
