%
T1C.026F197S550
X009500Y007750
X009500Y008750
X009550Y010350
X010050Y010850
X010050Y009850
X010200Y008250
X010050Y012850
X010050Y011850
X010050Y014850
X010050Y013850
X009350Y014350
X009350Y012350
X004900Y020800
X004900Y021400
T2C.035F197S550
X009650Y005650
X009650Y006650
X010900Y005650
X010900Y006650
X021150Y015650
X019650Y016650
X019650Y017650
X012350Y015900
X012350Y016900
X011850Y017900
X008850Y017900
X008350Y015900
X008350Y016900
X008850Y019900
X008850Y018900
X008850Y020900
X011850Y018900
X011850Y019900
X011850Y020900
X019650Y018650
X021150Y019650
T3C.038F197S550
X002900Y003400
X003900Y003400
X004900Y003400
X005900Y003400
X006900Y003400
X007900Y003400
X008900Y003400
X009900Y003400
X010900Y003400
X011900Y003400
X012900Y003400
X013900Y003400
X014900Y003400
X015900Y003400
X016900Y003400
X017900Y003400
X018900Y003400
X019900Y003400
X020900Y003400
X021900Y003400
X018150Y007150
X018150Y008150
X018150Y006150
X015150Y006150
X015150Y007150
X015150Y008150
X012150Y007900
X008400Y007900
X005650Y010100
X006650Y009550
X006650Y010640
X008400Y009900
X008400Y008900
X012150Y009900
X012150Y008900
X015150Y009150
X015150Y010150
X018150Y009150
X018150Y010150
X018150Y011150
X018150Y012150
X018150Y013150
X015150Y011150
X015150Y013150
X015150Y012150
X012150Y010900
X012150Y011900
X012150Y012900
X008400Y010900
X008400Y012900
X008400Y011900
X006650Y011730
X006650Y012820
X005650Y011190
X005650Y013370
X005650Y012280
X006650Y013910
X008400Y013900
X008400Y014900
X012150Y013900
X012150Y014900
X015150Y015150
X015150Y014150
X018150Y015150
X018150Y014150
X018150Y017150
X018150Y016150
X018150Y018150
X018150Y019150
X015150Y018150
X015150Y016150
X015150Y019150
X015150Y017150
T4C.055F107S550
X003900Y019200
X004900Y019200
X005900Y019200
T5C.14F035S900
X006150Y006800
X006150Y016660
M01
M02
M08
M30
