*
*
G04 PADS Layout (Build Number 2005.266.2) generated Gerber (RS-274-X) file*
G04 PC Version=2.1*
*
%IN "OemBS2sx_C1.pcb"*%
*
%MOIN*%
*
%FSLAX24Y24*%
*
*
*
*
G04 PC Standard Apertures*
*
*
G04 Thermal Relief Aperture macro.*
%AMTER*
1,1,$1,0,0*
1,0,$1-$2,0,0*
21,0,$3,$4,0,0,45*
21,0,$3,$4,0,0,135*
%
*
*
G04 Annular Aperture macro.*
%AMANN*
1,1,$1,0,0*
1,0,$2,0,0*
%
*
*
G04 Odd Aperture macro.*
%AMODD*
1,1,$1,0,0*
1,0,$1-0.005,0,0*
%
*
*
G04 PC Custom Aperture Macros*
*
*
*
*
*
*
G04 PC Aperture Table*
*
%ADD010C,0.01*%
%ADD012C,0.07*%
%ADD027C,0.001*%
%ADD037C,0.008*%
%ADD041C,0.062*%
%ADD042C,0.075*%
%ADD043R,0.062X0.062*%
%ADD044C,0.18*%
%ADD045C,0.05*%
%ADD046C,0.045*%
%ADD047C,0.01*%
*
*
*
*
G04 PC Custom Flashes*
G04 Layer Name OemBS2sx_C1.pcb - flashes*
%LPD*%
*
*
G04 PC Circuitry*
G04 Layer Name OemBS2sx_C1.pcb - circuitry*
%LPD*%
*
G54D10*
G01X019150Y020906D02*
Y020250D01*
Y020906D02*
X019354D01*
X019354D02*
X019422Y020875D01*
X019422D02*
X019445Y020843D01*
X019445D02*
X019468Y020781D01*
Y020718*
X019468D02*
X019445Y020656D01*
X019422Y020625*
X019422D02*
X019354Y020593D01*
X019354D02*
X019150D01*
X019309D02*
X019468Y020250D01*
X019672Y020500D02*
X019945D01*
Y020562*
X019945D02*
X019922Y020625D01*
X019922D02*
X019900Y020656D01*
X019854Y020687*
X019854D02*
X019786D01*
X019786D02*
X019740Y020656D01*
X019740D02*
X019695Y020593D01*
X019695D02*
X019672Y020500D01*
X019672D02*
Y020437D01*
X019672D02*
X019695Y020343D01*
X019695D02*
X019740Y020281D01*
X019740D02*
X019786Y020250D01*
X019854*
X019854D02*
X019900Y020281D01*
X019945Y020343*
X020150Y020687D02*
X020286Y020250D01*
X020422Y020687D02*
X020286Y020250D01*
X021490Y020750D02*
X021468Y020812D01*
X021468D02*
X021422Y020875D01*
X021422D02*
X021377Y020906D01*
X021286*
X021240Y020875*
X021240D02*
X021195Y020812D01*
X021195D02*
X021172Y020750D01*
X021172D02*
X021150Y020656D01*
Y020500*
X021172Y020406*
X021172D02*
X021195Y020343D01*
X021195D02*
X021240Y020281D01*
X021240D02*
X021286Y020250D01*
X021377*
X021422Y020281*
X021422D02*
X021468Y020343D01*
X021468D02*
X021490Y020406D01*
X005900Y003400D02*
X007150Y004650D01*
X010650*
X012150Y006150*
X009900Y003400D02*
X013650Y007150D01*
X015150*
X010900Y003400D02*
X013650Y006150D01*
X015150*
X011900Y003400D02*
X014050Y005550D01*
X017550*
X018150Y006150*
X012900Y003400D02*
X014800Y005300D01*
X018050*
X018650Y005900*
Y006650*
X013900Y003400D02*
X015550Y005050D01*
X018150*
X018900Y005800*
Y007400*
X014900Y003400D02*
X016300Y004800D01*
X018250*
X019150Y005700*
Y008150*
X015900Y003400D02*
X017050Y004550D01*
X018350*
X019400Y005600*
Y008900*
X016900Y003400D02*
X017800Y004300D01*
X018450*
X019650Y005500*
Y009650*
X017900Y003400D02*
X019900Y005400D01*
X018900Y003400D02*
X020150Y004650D01*
Y011150*
X019900Y003400D02*
Y003900D01*
X020400Y004400*
Y011900*
X012150Y007900D02*
X012097D01*
X012150Y007847*
Y006150*
X011126Y007800D02*
X011947D01*
X012097Y007900*
X008400D02*
X009650Y006650D01*
X012150Y007900D02*
X012900Y008650D01*
X015650*
X016700Y009700*
Y017700*
X018150Y019150*
X009500Y007750D02*
X009550Y007800D01*
X011126*
X009650Y006650D02*
X010900D01*
X018150Y008150D02*
X018900Y007400D01*
X018900*
X018150Y007150D02*
X018650Y006650D01*
X018650*
X006150Y008600D02*
X009100Y005650D01*
X009650*
X006150Y008600D02*
Y012320D01*
X006650Y012820*
X005650Y011190D02*
Y010100D01*
X006650Y011730D02*
X007200Y012280D01*
Y014200*
X007900Y014900*
X008400*
X006650Y010640D02*
X007650Y011600D01*
Y013985*
X008090Y014425*
X008800*
X009225Y014850*
X010050*
Y009850D02*
X011126Y008773D01*
X011126D02*
Y007800D01*
X008400Y008900D02*
X009050Y008250D01*
X010200*
X008400Y008900D02*
Y009900D01*
X012150D02*
X012750Y010500D01*
Y012150*
X015150*
Y011150D02*
X015800Y011800D01*
Y012350*
X018150Y012150D02*
X019900Y010400D01*
Y005400*
X018150Y011150D02*
X019650Y009650D01*
X018150Y010150D02*
X019400Y008900D01*
X018150Y009150D02*
X019150Y008150D01*
X008350Y015900D02*
X008400Y015850D01*
Y014900*
Y013900D02*
Y012900D01*
X008950Y012350*
X009350*
X012150Y014900D02*
X014400Y012650D01*
X015500*
X015800Y012350*
X009350Y014350D02*
X011700D01*
X012150Y013900*
X010050Y014850D02*
X011100Y015900D01*
X012350*
X010050Y012850D02*
X011200D01*
X011650Y012400*
X012650*
X012750Y012300*
Y012150*
X015150Y013150D02*
X015800Y013800D01*
X018150Y016150D02*
X020900Y013400D01*
Y004400*
X021900Y003400*
X018150Y015150D02*
X020650Y012650D01*
Y004150*
X020900Y003900*
Y003400*
X018150Y014150D02*
X020400Y011900D01*
X018150Y013150D02*
X020150Y011150D01*
X011850Y018900D02*
Y018700D01*
X014900Y015650*
X015450*
X015800Y015300*
Y013800*
X011850Y017900D02*
Y017400D01*
X012350Y016900*
X015100Y014150*
X015150*
X018150Y018150D02*
X018650Y018650D01*
X019650*
X018150Y017150D02*
X018650Y016650D01*
X019650*
X020150*
X021150Y015650*
X019650Y018650D02*
X020150D01*
X021150Y019650*
X006150Y012320D02*
X006650Y012820D01*
G54D12*
X012150Y013900D03*
Y012900D03*
Y009900D03*
Y007900D03*
Y010900D03*
Y011900D03*
Y008900D03*
X008400Y013900D03*
Y012900D03*
Y009900D03*
Y008900D03*
Y007900D03*
Y011900D03*
Y010900D03*
X020900Y003400D03*
X019900D03*
X018900D03*
X017900D03*
X016900D03*
X015900D03*
X014900D03*
X013900D03*
X012900D03*
X011900D03*
X010900D03*
X009900D03*
X008900D03*
X007900D03*
X006900D03*
X005900D03*
X004900D03*
X003900D03*
X021900D03*
G54D27*
X002400Y002599D02*
X002400D01*
X022400Y002619D02*
X022400D01*
X002545Y002400D02*
X002545D01*
X002475Y022400D02*
X002475D01*
G54D37*
X007240Y016660D02*
G75*
G03X007240I-001090J0D01*
G01X006150Y013370D02*
G03X006150I-000500J0D01*
G01X022110Y002690D02*
Y002902D01*
X021400Y003196D02*
G03X022110Y002902I000500J000204D01*
G01X020400Y003196D02*
G03X021400I000500J000204D01*
G01X019400D02*
G03X020400I000500J000204D01*
G01X018400D02*
G03X019400I000500J000204D01*
G01X017400D02*
G03X018400I000500J000204D01*
G01X016400D02*
G03X017400I000500J000204D01*
G01X015400D02*
G03X016400I000500J000204D01*
G01X014400D02*
G03X015400I000500J000204D01*
G01X013400D02*
G03X014400I000500J000204D01*
G01X012400D02*
G03X013400I000500J000204D01*
G01X011400D02*
G03X012400I000500J000204D01*
G01X010400D02*
G03X011400I000500J000204D01*
G01X009400D02*
G03X010400I000500J000204D01*
G01X008400D02*
G03X009400I000500J000204D01*
G01X007400D02*
G03X008400I000500J000204D01*
G01X006400D02*
G03X007400I000500J000204D01*
G01X005400D02*
G03X006400I000500J000204D01*
G01X004400D02*
G03X005400I000500J000204D01*
G01X003400D02*
G03X004400I000500J000204D01*
G01X003400D02*
Y003090D01*
X003210Y002900D02*
G03X003400Y003090I000000J000190D01*
G01X003210Y002900D02*
X002690D01*
Y002690*
X022110*
Y003897D02*
Y022110D01*
X002690*
Y003900*
X003210*
X003400Y003710D02*
G03X003210Y003900I-000190J000000D01*
G01X003400Y003710D02*
Y003604D01*
X004400D02*
G03X003400I-000500J-000204D01*
G01X005400D02*
G03X004400I-000500J-000204D01*
G01X006123Y003891D02*
G03X005400Y003604I-000223J-000491D01*
G01X006123Y003891D02*
X007015Y004784D01*
X007150Y004840D02*
G03X007015Y004784I000000J-000190D01*
G01X007150Y004840D02*
X010571D01*
X010881Y005150*
X010898Y006150D02*
G03X010881Y005150I000002J-000500D01*
G01X010437Y006460D02*
G03X010898Y006150I000463J000190D01*
G01X010437Y006460D02*
X010112D01*
X009651Y006150D02*
G03X010112Y006460I-000001J000500D01*
G01X009187Y005460D02*
G03X009651Y006150I000463J000190D01*
G01X009187Y005460D02*
X009100D01*
X008965Y005515D02*
G03X009100Y005460I000135J000135D01*
G01X008965Y005515D02*
X007004Y007477D01*
X006827Y007654D02*
G03X007004Y007477I-000677J-000854D01*
G01X006827Y007654D02*
X006015Y008465D01*
X005960Y008600D02*
G03X006015Y008465I000190J000000D01*
G01X005960Y008600D02*
Y009707D01*
X005460Y010562D02*
G03X005960Y009707I000190J-000462D01*
G01X005460Y010562D02*
Y010727D01*
X005960Y011582D02*
G03X005460Y010727I-000310J-000392D01*
G01X005960Y011582D02*
Y011887D01*
X006086Y012524D02*
G03X005960Y011887I-000436J-000244D01*
G01X006086Y012524D02*
X006188Y012627D01*
X007010Y013167D02*
G03X006188Y012627I-000360J-000347D01*
G01X007010Y013167D02*
Y013563D01*
X007016Y014249D02*
G03X007010Y013563I-000366J-000339D01*
G01X007065Y014334D02*
G03X007016Y014249I000135J-000134D01*
G01X007065Y014334D02*
X007765Y015034D01*
X007900Y015090D02*
G03X007765Y015034I000000J-000190D01*
G01X007900Y015090D02*
Y015210D01*
X008090Y015400D02*
G03X007900Y015210I000000J-000190D01*
G01X008090Y015400D02*
X008210D01*
Y015420*
X008348Y016400D02*
G03X008210Y015420I000002J-000500D01*
G01X008351Y016400D02*
G03X008348I-000001J000500D01*
G01X008590Y015461D02*
G03X008351Y016400I-000240J000439D01*
G01X008590Y015461D02*
Y015400D01*
X008710*
X008900Y015210D02*
G03X008710Y015400I-000190J000000D01*
G01X008900Y015210D02*
Y014793D01*
X008900D02*
X009090Y014984D01*
X009225Y015040D02*
G03X009090Y014984I000000J-000190D01*
G01X009225Y015040D02*
X009653D01*
X010196Y015265D02*
G03X009653Y015040I-000146J-000415D01*
G01X010196Y015265D02*
X010965Y016034D01*
X011100Y016090D02*
G03X010965Y016034I000000J-000190D01*
G01X011100Y016090D02*
X011887D01*
X012348Y016400D02*
G03X011887Y016090I000002J-000500D01*
G01X011888Y017092D02*
G03X012348Y016400I000462J-000192D01*
G01X011888Y017092D02*
X011715Y017265D01*
X011660Y017400D02*
G03X011715Y017265I000190J000000D01*
G01X011660Y017400D02*
Y017437D01*
X011848Y018400D02*
G03X011660Y017437I000002J-000500D01*
G01X011848Y019400D02*
G03Y018400I000002J-000500D01*
G01Y020400D02*
G03Y019400I000002J-000500D01*
G01X011851Y020400D02*
G03X011848I-000001J000500D01*
G01X011851Y019400D02*
G03Y020400I-000001J000500D01*
G01X012236Y018582D02*
G03X011851Y019400I-000386J000318D01*
G01X012236Y018582D02*
X014650Y016168D01*
X015148Y016650D02*
G03X014650Y016168I000002J-000500D01*
G01X015148Y017650D02*
G03Y016650I000002J-000500D01*
G01Y018650D02*
G03Y017650I000002J-000500D01*
G01Y018650D02*
X014840D01*
X014650Y018840D02*
G03X014840Y018650I000190J-000000D01*
G01X014650Y018840D02*
Y019460D01*
X014840Y019650D02*
G03X014650Y019460I000000J-000190D01*
G01X014840Y019650D02*
X015460D01*
X015650Y019460D02*
G03X015460Y019650I-000190J-000000D01*
G01X015650Y019460D02*
Y018840D01*
X015460Y018650D02*
G03X015650Y018840I000000J000190D01*
G01X015460Y018650D02*
X015152D01*
X015151Y017650D02*
G03X015152Y018650I-000001J000500D01*
G01X015151Y016650D02*
G03Y017650I-000001J000500D01*
G01X015528Y015823D02*
G03X015151Y016650I-000378J000327D01*
G01X015584Y015784D02*
G03X015528Y015823I-000134J-000134D01*
G01X015584Y015784D02*
X015934Y015434D01*
X015990Y015300D02*
G03X015934Y015434I-000190J000000D01*
G01X015990Y015300D02*
Y013800D01*
X015934Y013665D02*
G03X015990Y013800I-000134J000135D01*
G01X015934Y013665D02*
X015611Y013342D01*
X015539Y012835D02*
G03X015611Y013342I-000389J000315D01*
G01X015634Y012784D02*
G03X015539Y012835I-000134J-000134D01*
G01X015634Y012784D02*
X015934Y012484D01*
X015990Y012350D02*
G03X015934Y012484I-000190J000000D01*
G01X015990Y012350D02*
Y011800D01*
X015934Y011665D02*
G03X015990Y011800I-000134J000135D01*
G01X015934Y011665D02*
X015611Y011342D01*
X015151Y010650D02*
G03X015611Y011342I-000001J000500D01*
G01X015151Y009650D02*
G03Y010650I-000001J000500D01*
G01X015542Y008840D02*
G03X015151Y009650I-000392J000310D01*
G01X015542Y008840D02*
X015571D01*
X016510Y009778*
X016510D02*
Y017700D01*
X016565Y017834D02*
G03X016510Y017700I000135J-000134D01*
G01X016565Y017834D02*
X017688Y018957D01*
X018152Y018650D02*
G03X017688Y018957I-000002J000500D01*
G01X018342Y018611D02*
G03X018152Y018650I-000192J-000461D01*
G01X018342Y018611D02*
X018515Y018784D01*
X018650Y018840D02*
G03X018515Y018784I-000000J-000190D01*
G01X018650Y018840D02*
X019187D01*
X020099Y018868D02*
G03X019187Y018840I-000449J-000218D01*
G01X020099Y018868D02*
X020688Y019457D01*
Y019841D02*
G03Y019457I000462J-000191D01*
G01Y019841D02*
X019100D01*
X018960Y019981D02*
G03X019100Y019841I000140J000000D01*
G01X018960Y019981D02*
Y021081D01*
X019100Y021221D02*
G03X018960Y021081I000000J-000139D01*
G01X019100Y021221D02*
X021631D01*
X021771Y021081D02*
G03X021631Y021221I-000139J000000D01*
G01X021771Y021081D02*
Y019981D01*
X021631Y019841D02*
G03X021771Y019981I000000J000140D01*
G01X021631Y019841D02*
X021612D01*
X020957Y019188D02*
G03X021612Y019841I000193J000462D01*
G01X020957Y019188D02*
X020284Y018515D01*
X020150Y018460D02*
G03X020284Y018515I000000J000190D01*
G01X020150Y018460D02*
X020112D01*
X019651Y018150D02*
G03X020112Y018460I-000001J000500D01*
G01X019651Y017150D02*
G03Y018150I-000001J000500D01*
G01X020112Y016840D02*
G03X019651Y017150I-000462J-000190D01*
G01X020112Y016840D02*
X020150D01*
X020284Y016784D02*
G03X020150Y016840I-000134J-000134D01*
G01X020284Y016784D02*
X020957Y016111D01*
X020688Y015842D02*
G03X020957Y016111I000462J-000192D01*
G01X020688Y015842D02*
X020099Y016431D01*
X019187Y016460D02*
G03X020099Y016431I000463J000190D01*
G01X019187Y016460D02*
X018650D01*
X018515Y016515D02*
G03X018650Y016460I000135J000135D01*
G01X018515Y016515D02*
X018342Y016688D01*
X018151Y016650D02*
G03X018342Y016688I-000001J000500D01*
G01X018611Y015957D02*
G03X018151Y016650I-000461J000193D01*
G01X018611Y015957D02*
X021034Y013534D01*
X021090Y013400D02*
G03X021034Y013534I-000190J-000000D01*
G01X021090Y013400D02*
Y004478D01*
X021090D02*
X021676Y003891D01*
X022110Y003897D02*
G03X021676Y003891I-000210J-000497D01*
G01X009648Y006150D02*
G03X009187Y005840I000002J-000500D01*
G01X009188Y006842D02*
G03X009648Y006150I000462J-000192D01*
G01X009188Y006842D02*
X008623Y007408D01*
X008196Y008400D02*
G03X008623Y007408I000204J-000500D01*
G01X008196Y009400D02*
G03Y008400I000204J-000500D01*
G01Y010400D02*
G03Y009400I000204J-000500D01*
G01Y011400D02*
G03Y010400I000204J-000500D01*
G01Y012400D02*
G03Y011400I000204J-000500D01*
G01Y013400D02*
G03Y012400I000204J-000500D01*
G01X007860Y013927D02*
G03X008196Y013400I000540J-000027D01*
G01X007860Y013927D02*
X007840Y013906D01*
Y011600*
X007781Y011462D02*
G03X007840Y011600I-000131J000138D01*
G01X007781Y011462D02*
X007115Y010823D01*
X006340Y010247D02*
G03X007115Y010823I000310J000393D01*
G01X006340Y010247D02*
Y010050D01*
X006960*
X007150Y009860D02*
G03X006960Y010050I-000190J000000D01*
G01X007150Y009860D02*
Y009240D01*
X006960Y009050D02*
G03X007150Y009240I000000J000190D01*
G01X006960Y009050D02*
X006340D01*
Y008678*
X006340D02*
X009178Y005840D01*
X009178D02*
X009187D01*
X011882Y018399D02*
G03X011851Y018400I-000032J-000499D01*
G01X011882Y018399D02*
X011880Y018400D01*
X011851D02*
G03X011880I-000001J000500D01*
G01X011960Y006228D02*
Y007394D01*
X011694Y007610D02*
G03X011960Y007394I000456J000290D01*
G01X011694Y007610D02*
X011126D01*
X011126D02*
X009917D01*
X009187Y008060D02*
G03X009917Y007610I000313J-000310D01*
G01X009187Y008060D02*
X009050D01*
X008915Y008115D02*
G03X009050Y008060I000135J000135D01*
G01X008915Y008115D02*
X008875Y008155D01*
X008891Y007676D02*
G03X008875Y008155I-000491J000224D01*
G01X008891Y007676D02*
X009457Y007111D01*
X010112Y006840D02*
G03X009457Y007111I-000462J-000190D01*
G01X010112Y006840D02*
X010437D01*
X010901Y006150D02*
G03X010437Y006840I-000001J000500D01*
G01X011399Y005668D02*
G03X010901Y006150I-000499J-000018D01*
G01X011399Y005668D02*
X011960Y006228D01*
X011946Y011400D02*
G03Y010400I000204J-000500D01*
G01X011707Y012210D02*
G03X011946Y011400I000443J-000310D01*
G01X011707Y012210D02*
X011650D01*
X011515Y012265D02*
G03X011650Y012210I000135J000135D01*
G01X011515Y012265D02*
X011121Y012660D01*
X010446*
X009753Y012524D02*
G03X010446Y012660I000297J000326D01*
G01X009753Y012175D02*
G03Y012524I-000403J000175D01*
G01X009646Y012024D02*
G03X009753Y012175I000404J-000174D01*
G01X008953Y012160D02*
G03X009646Y012024I000397J000190D01*
G01X008953Y012160D02*
X008950D01*
X008860Y012182D02*
G03X008950Y012160I000090J000168D01*
G01X008604Y011400D02*
G03X008860Y012182I-000204J000500D01*
G01X008604Y010400D02*
G03Y011400I-000204J000500D01*
G01Y009400D02*
G03Y010400I-000204J000500D01*
G01X008891Y008676D02*
G03X008604Y009400I-000491J000224D01*
G01X008891Y008676D02*
X009128Y008440D01*
X009128D02*
X009187D01*
X009903Y008575D02*
G03X009187Y008440I-000403J000175D01*
G01X010555Y007990D02*
G03X009903Y008575I-000355J000260D01*
G01X010555Y007990D02*
X010936D01*
X010936D02*
Y008694D01*
X010936D02*
X010196Y009435D01*
X009614Y009914D02*
G03X010196Y009435I000436J-000064D01*
G01X009614Y010785D02*
G03Y009914I-000064J-000435D01*
G01X009985Y010414D02*
G03X009614Y010785I000065J000436D01*
G01X009985Y010285D02*
G03Y010414I-000435J000065D01*
G01X010465Y009703D02*
G03X009985Y010285I-000415J000147D01*
G01X010465Y009703D02*
X011260Y008907D01*
X011316Y008773D02*
G03X011260Y008907I-000189J000000D01*
G01X011316Y008773D02*
Y007990D01*
X011316D02*
X011617D01*
X011946Y008400D02*
G03X011617Y007990I000204J-000500D01*
G01X011946Y009400D02*
G03Y008400I000204J-000500D01*
G01Y010400D02*
G03Y009400I000204J-000500D01*
G01X011840Y015400D02*
X012348D01*
X011887Y015710D02*
G03X012348Y015400I000463J000190D01*
G01X011887Y015710D02*
X011178D01*
X011178D02*
X010465Y014996D01*
X010362Y014540D02*
G03X010465Y014996I-000312J000310D01*
G01X010362Y014540D02*
X011656D01*
X011650Y014590D02*
G03X011656Y014540I000190J000000D01*
G01X011650Y014590D02*
Y015210D01*
X011840Y015400D02*
G03X011650Y015210I000000J-000190D01*
G01X015610Y011878D02*
Y011954D01*
X015151Y011650D02*
G03X015610Y011954I-000001J000500D01*
G01X015342Y011611D02*
G03X015151Y011650I-000192J-000461D01*
G01X015342Y011611D02*
X015610Y011878D01*
X015148Y006650D02*
G03X014687Y006340I000002J-000500D01*
G01Y006960D02*
G03X015148Y006650I000463J000190D01*
G01X014687Y006960D02*
X013728D01*
X013728D02*
X010644Y003875D01*
X011123Y003891D02*
G03X010644Y003875I-000223J-000491D01*
G01X011123Y003891D02*
X013515Y006284D01*
X013650Y006340D02*
G03X013515Y006284I000000J-000190D01*
G01X013650Y006340D02*
X014687D01*
X015148Y007650D02*
G03X014687Y007340I000002J-000500D01*
G01X014757Y008460D02*
G03X015148Y007650I000393J-000310D01*
G01X014757Y008460D02*
X012978D01*
X012978D02*
X012641Y008123D01*
X012340Y007394D02*
G03X012641Y008123I-000190J000506D01*
G01X012340Y007394D02*
Y006150D01*
X012334Y006102D02*
G03X012340Y006150I-000184J000048D01*
G01X012334Y006102D02*
X013515Y007284D01*
X013650Y007340D02*
G03X013515Y007284I000000J-000190D01*
G01X013650Y007340D02*
X014687D01*
X015148Y010650D02*
G03Y009650I000002J-000500D01*
G01Y011650D02*
G03Y010650I000002J-000500D01*
G01X014687Y011960D02*
G03X015148Y011650I000463J000190D01*
G01X014687Y011960D02*
X012940D01*
Y010500*
X012884Y010365D02*
G03X012940Y010500I-000134J000135D01*
G01X012884Y010365D02*
X012641Y010123D01*
X012354Y009400D02*
G03X012641Y010123I-000204J000500D01*
G01X012625Y008644D02*
G03X012354Y009400I-000475J000256D01*
G01X012625Y008644D02*
X012765Y008784D01*
X012900Y008840D02*
G03X012765Y008784I000000J-000190D01*
G01X012900Y008840D02*
X014757D01*
X015148Y009650D02*
G03X014757Y008840I000002J-000500D01*
G01X015610Y013878D02*
Y013954D01*
X014675Y014306D02*
G03X015610Y013954I000475J-000156D01*
G01X014675Y014306D02*
X012542Y016438D01*
X012351Y016400D02*
G03X012542Y016438I-000001J000500D01*
G01X012352Y015400D02*
G03X012351Y016400I-000002J000500D01*
G01X012352Y015400D02*
X012460D01*
X012650Y015210D02*
G03X012460Y015400I-000190J000000D01*
G01X012650Y015210D02*
Y014668D01*
X012650D02*
X014478Y012840D01*
X014478D02*
X014757D01*
X015342Y013611D02*
G03X014757Y012840I-000192J-000461D01*
G01X015342Y013611D02*
X015610Y013878D01*
X018460Y006542D02*
Y006571D01*
X018342Y006688*
X018151Y006650D02*
G03X018342Y006688I-000001J000500D01*
G01X018460Y006542D02*
G03X018151Y006650I-000310J-000392D01*
G01X018710Y006858D02*
Y007321D01*
X018342Y007688*
X018151Y007650D02*
G03X018342Y007688I-000001J000500D01*
G01X018611Y006957D02*
G03X018151Y007650I-000461J000193D01*
G01X018611Y006957D02*
X018710Y006858D01*
X018960Y007608D02*
Y008071D01*
X018342Y008688*
X018151Y008650D02*
G03X018342Y008688I-000001J000500D01*
G01X018611Y007957D02*
G03X018151Y008650I-000461J000193D01*
G01X018611Y007957D02*
X018960Y007608D01*
X019210Y008358D02*
Y008821D01*
X018342Y009688*
X018151Y009650D02*
G03X018342Y009688I-000001J000500D01*
G01X018611Y008957D02*
G03X018151Y009650I-000461J000193D01*
G01X018611Y008957D02*
X019210Y008358D01*
X019460Y009108D02*
Y009571D01*
X018342Y010688*
X018151Y010650D02*
G03X018342Y010688I-000001J000500D01*
G01X018611Y009957D02*
G03X018151Y010650I-000461J000193D01*
G01X018611Y009957D02*
X019460Y009108D01*
X019710Y009858D02*
Y010321D01*
X018342Y011688*
X018151Y011650D02*
G03X018342Y011688I-000001J000500D01*
G01X018611Y010957D02*
G03X018151Y011650I-000461J000193D01*
G01X018611Y010957D02*
X019710Y009858D01*
X019960Y010608D02*
Y011071D01*
X018342Y012688*
X018151Y012650D02*
G03X018342Y012688I-000001J000500D01*
G01X018611Y011957D02*
G03X018151Y012650I-000461J000193D01*
G01X018611Y011957D02*
X019960Y010608D01*
X020210Y011358D02*
Y011821D01*
X018342Y013688*
X018151Y013650D02*
G03X018342Y013688I-000001J000500D01*
G01X018611Y012957D02*
G03X018151Y013650I-000461J000193D01*
G01X018611Y012957D02*
X020210Y011358D01*
X020460Y012108D02*
Y012571D01*
X018342Y014688*
X018151Y014650D02*
G03X018342Y014688I-000001J000500D01*
G01X018611Y013957D02*
G03X018151Y014650I-000461J000193D01*
G01X018611Y013957D02*
X020460Y012108D01*
X020710Y012858D02*
Y013321D01*
X018342Y015688*
X018151Y015650D02*
G03X018342Y015688I-000001J000500D01*
G01X018611Y014957D02*
G03X018151Y015650I-000461J000193D01*
G01X018611Y014957D02*
X020710Y012858D01*
X019648Y018150D02*
G03Y017150I000002J-000500D01*
G01X019187Y018460D02*
G03X019648Y018150I000463J000190D01*
G01X019187Y018460D02*
X018728D01*
X018728D02*
X018611Y018342D01*
X018147Y018650D02*
G03X018611Y018342I000003J-000500D01*
G01X017957Y018688D02*
G03X018147Y018650I000193J000462D01*
G01X017957Y018688D02*
X016890Y017621D01*
Y009700*
X016834Y009565D02*
G03X016890Y009700I-000134J000135D01*
G01X016834Y009565D02*
X015784Y008515D01*
X015650Y008460D02*
G03X015784Y008515I000000J000190D01*
G01X015650Y008460D02*
X015542D01*
X015151Y007650D02*
G03X015542Y008460I-000001J000500D01*
G01X015151Y006650D02*
G03Y007650I-000001J000500D01*
G01X015436Y005740D02*
G03X015151Y006650I-000286J000410D01*
G01X015436Y005740D02*
X017471D01*
X017688Y005957*
X018148Y006650D02*
G03X017688Y005957I000002J-000500D01*
G01X018148Y007650D02*
G03Y006650I000002J-000500D01*
G01Y008650D02*
G03Y007650I000002J-000500D01*
G01Y009650D02*
G03Y008650I000002J-000500D01*
G01Y010650D02*
G03Y009650I000002J-000500D01*
G01Y011650D02*
G03Y010650I000002J-000500D01*
G01Y012650D02*
G03Y011650I000002J-000500D01*
G01Y013650D02*
G03Y012650I000002J-000500D01*
G01Y014650D02*
G03Y013650I000002J-000500D01*
G01Y015650D02*
G03Y014650I000002J-000500D01*
G01Y016650D02*
G03Y015650I000002J-000500D01*
G01X018611Y016957D02*
G03X018148Y016650I-000461J000193D01*
G01X018611Y016957D02*
X018728Y016840D01*
X018728D02*
X019187D01*
X019648Y017150D02*
G03X019187Y016840I000002J-000500D01*
G01X009350Y021210D02*
Y020590D01*
X009160Y020400D02*
G03X009350Y020590I000000J000190D01*
G01X009160Y020400D02*
X008852D01*
X008851Y019400D02*
G03X008852Y020400I-000001J000500D01*
G01X008851Y018400D02*
G03Y019400I-000001J000500D01*
G01X008848Y018400D02*
G03X008851I000002J-000500D01*
G01X008848Y019400D02*
G03Y018400I000002J-000500D01*
G01Y020400D02*
G03Y019400I000002J-000500D01*
G01Y020400D02*
X008540D01*
X008350Y020590D02*
G03X008540Y020400I000190J000000D01*
G01X008350Y020590D02*
Y021210D01*
X008540Y021400D02*
G03X008350Y021210I000000J-000190D01*
G01X008540Y021400D02*
X009160D01*
X009350Y021210D02*
G03X009160Y021400I-000190J000000D01*
G01X007240Y016660D02*
G03X007240I-001090J0D01*
G01X005400Y018936D02*
G03Y019463I000500J000264D01*
G01X004400Y018936D02*
G03X005400I000500J000264D01*
G01X004400Y019463D02*
G03Y018936I-000500J-000263D01*
G01X005400Y019463D02*
G03X004400I-000500J-000263D01*
G01X005186Y021100D02*
G03X004613I-000286J000300D01*
X005186I000287J-000300*
G01X006150Y013370D02*
G03X006150I-000500J0D01*
G01X018649Y017161D02*
X019541D01*
X018649Y018169D02*
X019510D01*
X018647Y018097D02*
X019427D01*
X018646Y017089D02*
X019412D01*
X018642Y017233D02*
X019372D01*
X018641Y018241D02*
X019361D01*
X018634Y018025D02*
X019320D01*
X018632Y017017D02*
X019311D01*
X018625Y017305D02*
X019287D01*
X018622Y018313D02*
X019279D01*
X018609Y017953D02*
X019252D01*
X018622Y016945D02*
X019246D01*
X018595Y017377D02*
X019230D01*
X018654Y018385D02*
X019225D01*
X018572Y017881D02*
X019207D01*
X018694Y016873D02*
X019202D01*
X018550Y017449D02*
X019191D01*
X018726Y018457D02*
X019188D01*
X018516Y017809D02*
X019176D01*
X018484Y017521D02*
X019166D01*
X018433Y017737D02*
X019157D01*
X018380Y017593D02*
X019153D01*
X018274Y017665D02*
X019150D01*
X016890Y015649D02*
X018138D01*
X015161Y006649D02*
X018138D01*
X015238Y007657D02*
X018061D01*
X016890Y016657D02*
X018061D01*
X016890Y014641D02*
X018060D01*
X016934Y017665D02*
X018025D01*
X015934Y008665D02*
X018025D01*
X016890Y013633D02*
X018024D01*
X016888Y009673D02*
X017997D01*
X017942Y018673D02*
X017997D01*
X016890Y012625D02*
X017996D01*
X016890Y010681D02*
X017974D01*
X016890Y011617D02*
X017973D01*
X016890Y011689D02*
X017954D01*
X016890Y010609D02*
X017953D01*
X016890Y012697D02*
X017936D01*
X016862Y009601D02*
X017936D01*
X017870Y018601D02*
X017935D01*
X016890Y013705D02*
X017920D01*
X015862Y008593D02*
X017919D01*
X016890Y017593D02*
X017919D01*
X016890Y014713D02*
X017905D01*
X015395Y007585D02*
X017905D01*
X016890Y016585D02*
X017905D01*
X015408Y006721D02*
X017891D01*
X016890Y015721D02*
X017891D01*
X016890Y015577D02*
X017891D01*
X015408Y006577D02*
X017891D01*
X015421Y007729D02*
X017878D01*
X016890Y016729D02*
X017878D01*
X016890Y014569D02*
X017878D01*
X017006Y017737D02*
X017866D01*
X016006Y008737D02*
X017866D01*
X016890Y013561D02*
X017866D01*
X016890Y009745D02*
X017855D01*
X016890Y012553D02*
X017855D01*
X016890Y010753D02*
X017844D01*
X016890Y011545D02*
X017844D01*
X016890Y011761D02*
X017834D01*
X016890Y010537D02*
X017834D01*
X016890Y012769D02*
X017825D01*
X016798Y009529D02*
X017824D01*
X017798Y018529D02*
X017824D01*
X016890Y013777D02*
X017816D01*
X015790Y008521D02*
X017815D01*
X016890Y017521D02*
X017815D01*
X016890Y014785D02*
X017807D01*
X015492Y007513D02*
X017807D01*
X016890Y016513D02*
X017807D01*
X015501Y006793D02*
X017799D01*
X016890Y015793D02*
X017799D01*
X016890Y015505D02*
X017798D01*
X015501Y006505D02*
X017798D01*
X015508Y007801D02*
X017791D01*
X016890Y016801D02*
X017791D01*
X016890Y014497D02*
X017790D01*
X017078Y017809D02*
X017783D01*
X016078Y008809D02*
X017783D01*
X016890Y013489D02*
X017783D01*
X016890Y009817D02*
X017776D01*
X016890Y012481D02*
X017776D01*
X016890Y010825D02*
X017769D01*
X016890Y011473D02*
X017769D01*
X016890Y011833D02*
X017762D01*
X016890Y010465D02*
X017762D01*
X016890Y012841D02*
X017756D01*
X016726Y009457D02*
X017756D01*
X017726Y018457D02*
X017756D01*
X016890Y013849D02*
X017750D01*
X015550Y008449D02*
X017749D01*
X016890Y017449D02*
X017749D01*
X016890Y014857D02*
X017744D01*
X015556Y007441D02*
X017744D01*
X016890Y016441D02*
X017744D01*
X015561Y006865D02*
X017738D01*
X016890Y015865D02*
X017738D01*
X016890Y015433D02*
X017738D01*
X015561Y006433D02*
X017738D01*
X015566Y007873D02*
X017733D01*
X016890Y016873D02*
X017733D01*
X016890Y014425D02*
X017733D01*
X017150Y017881D02*
X017728D01*
X016150Y008881D02*
X017728D01*
X016890Y013417D02*
X017727D01*
X016890Y009889D02*
X017723D01*
X016890Y012409D02*
X017722D01*
X016890Y010897D02*
X017718D01*
X016890Y011401D02*
X017718D01*
X016890Y011905D02*
X017713D01*
X016890Y010393D02*
X017713D01*
X016890Y012913D02*
X017709D01*
X016654Y009385D02*
X017709D01*
X017654Y018385D02*
X017709D01*
X016890Y013921D02*
X017705D01*
X015595Y008377D02*
X017705D01*
X016890Y017377D02*
X017704D01*
X016890Y014929D02*
X017701D01*
X015599Y007369D02*
X017700D01*
X016890Y016369D02*
X017700D01*
X015602Y006937D02*
X017697D01*
X016890Y015937D02*
X017697D01*
X016890Y015361D02*
X017697D01*
X015602Y006361D02*
X017697D01*
X015606Y007945D02*
X017693D01*
X016890Y016945D02*
X017693D01*
X016890Y014353D02*
X017693D01*
X017222Y017953D02*
X017690D01*
X016222Y008953D02*
X017690D01*
X016890Y013345D02*
X017690D01*
X016890Y009961D02*
X017686D01*
X016890Y012337D02*
X017686D01*
X016890Y010969D02*
X017683D01*
X016890Y011329D02*
X017683D01*
X016890Y011977D02*
X017680D01*
X016890Y010321D02*
X017680D01*
X016890Y012985D02*
X017677D01*
X016582Y009313D02*
X017677D01*
X017582Y018313D02*
X017677D01*
X016890Y013993D02*
X017675D01*
X015625Y008305D02*
X017674D01*
X016890Y017305D02*
X017674D01*
X015627Y006001D02*
X017672D01*
X016890Y015001D02*
X017672D01*
X015627Y007297D02*
X017672D01*
X016890Y016297D02*
X017672D01*
X015630Y007009D02*
X017670D01*
X016890Y016009D02*
X017670D01*
X016890Y015289D02*
X017670D01*
X015630Y006289D02*
X017670D01*
X015632Y008017D02*
X017667D01*
X016890Y017017D02*
X017667D01*
X016890Y014281D02*
X017667D01*
X017294Y018025D02*
X017665D01*
X016294Y009025D02*
X017665D01*
X016890Y013273D02*
X017665D01*
X016890Y010033D02*
X017663D01*
X016890Y012265D02*
X017663D01*
X016890Y011041D02*
X017661D01*
X016890Y011257D02*
X017661D01*
X015598Y005929D02*
X017661D01*
X016890Y012049D02*
X017660D01*
X016890Y010249D02*
X017660D01*
X016890Y013057D02*
X017658D01*
X016510Y009241D02*
X017658D01*
X017510Y018241D02*
X017658D01*
X016890Y014065D02*
X017657D01*
X015642Y008233D02*
X017657D01*
X016890Y017233D02*
X017657D01*
X016890Y015073D02*
X017655D01*
X015644Y006073D02*
X017655D01*
X015644Y007225D02*
X017655D01*
X016890Y016225D02*
X017655D01*
X015645Y007081D02*
X017654D01*
X016890Y016081D02*
X017654D01*
X016890Y015217D02*
X017654D01*
X015645Y006217D02*
X017654D01*
X015646Y008089D02*
X017653D01*
X016890Y017089D02*
X017653D01*
X016890Y014209D02*
X017653D01*
X017366Y018097D02*
X017652D01*
X016366Y009097D02*
X017652D01*
X016890Y013201D02*
X017652D01*
X016890Y010105D02*
X017651D01*
X016890Y012193D02*
X017651D01*
X016890Y011113D02*
X017651D01*
X016890Y011185D02*
X017651D01*
X016890Y012121D02*
X017650D01*
X016890Y010177D02*
X017650D01*
X016890Y013129D02*
X017650D01*
X016438Y009169D02*
X017650D01*
X017438Y018169D02*
X017650D01*
X015649Y008161D02*
X017650D01*
X016890Y014137D02*
X017650D01*
X016890Y017161D02*
X017650D01*
X015650Y007153D02*
X017650D01*
X016890Y015145D02*
X017650D01*
X015650Y006145D02*
X017650D01*
X016890Y016153D02*
X017650D01*
X015555Y005857D02*
X017589D01*
X015492Y005785D02*
X017517D01*
X020294Y013273D02*
X020710D01*
X020366Y013201D02*
X020710D01*
X020438Y013129D02*
X020710D01*
X020510Y013057D02*
X020710D01*
X020582Y012985D02*
X020710D01*
X020654Y012913D02*
X020710D01*
X020222Y013345D02*
X020685D01*
X020150Y013417D02*
X020613D01*
X020078Y013489D02*
X020541D01*
X020006Y013561D02*
X020469D01*
X019934Y013633D02*
X020397D01*
X019862Y013705D02*
X020325D01*
X019790Y013777D02*
X020253D01*
X019718Y013849D02*
X020181D01*
X019646Y013921D02*
X020109D01*
X019574Y013993D02*
X020037D01*
X019502Y014065D02*
X019965D01*
X019430Y014137D02*
X019893D01*
X019358Y014209D02*
X019821D01*
X019286Y014281D02*
X019749D01*
X019214Y014353D02*
X019677D01*
X019142Y014425D02*
X019605D01*
X019070Y014497D02*
X019533D01*
X018998Y014569D02*
X019461D01*
X018926Y014641D02*
X019389D01*
X018854Y014713D02*
X019317D01*
X018782Y014785D02*
X019245D01*
X018710Y014857D02*
X019173D01*
X018638Y014929D02*
X019101D01*
X018627Y015001D02*
X019029D01*
X018644Y015073D02*
X018957D01*
X018650Y015145D02*
X018885D01*
X018645Y015217D02*
X018813D01*
X018630Y015289D02*
X018741D01*
X018602Y015361D02*
X018669D01*
X018561Y015433D02*
X018597D01*
X018501Y015505D02*
X018525D01*
X018408Y015577D02*
X018453D01*
X018161Y015649D02*
X018381D01*
X020014Y012553D02*
X020460D01*
X020086Y012481D02*
X020460D01*
X020158Y012409D02*
X020460D01*
X020230Y012337D02*
X020460D01*
X020302Y012265D02*
X020460D01*
X020374Y012193D02*
X020460D01*
X020446Y012121D02*
X020460D01*
X019942Y012625D02*
X020405D01*
X019870Y012697D02*
X020333D01*
X019798Y012769D02*
X020261D01*
X019726Y012841D02*
X020189D01*
X019654Y012913D02*
X020117D01*
X019582Y012985D02*
X020045D01*
X019510Y013057D02*
X019973D01*
X019438Y013129D02*
X019901D01*
X019366Y013201D02*
X019829D01*
X019294Y013273D02*
X019757D01*
X019222Y013345D02*
X019685D01*
X019150Y013417D02*
X019613D01*
X019078Y013489D02*
X019541D01*
X019006Y013561D02*
X019469D01*
X018934Y013633D02*
X019397D01*
X018862Y013705D02*
X019325D01*
X018790Y013777D02*
X019253D01*
X018718Y013849D02*
X019181D01*
X018646Y013921D02*
X019109D01*
X018625Y013993D02*
X019037D01*
X018642Y014065D02*
X018965D01*
X018649Y014137D02*
X018893D01*
X018646Y014209D02*
X018821D01*
X018632Y014281D02*
X018749D01*
X018606Y014353D02*
X018677D01*
X018567Y014425D02*
X018605D01*
X018509Y014497D02*
X018533D01*
X018421Y014569D02*
X018461D01*
X018239Y014641D02*
X018389D01*
X019806Y011761D02*
X020210D01*
X019878Y011689D02*
X020210D01*
X019950Y011617D02*
X020210D01*
X020022Y011545D02*
X020210D01*
X020094Y011473D02*
X020210D01*
X020166Y011401D02*
X020210D01*
X019734Y011833D02*
X020197D01*
X019662Y011905D02*
X020125D01*
X019590Y011977D02*
X020053D01*
X019518Y012049D02*
X019981D01*
X019446Y012121D02*
X019909D01*
X019374Y012193D02*
X019837D01*
X019302Y012265D02*
X019765D01*
X019230Y012337D02*
X019693D01*
X019158Y012409D02*
X019621D01*
X019086Y012481D02*
X019549D01*
X019014Y012553D02*
X019477D01*
X018942Y012625D02*
X019405D01*
X018870Y012697D02*
X019333D01*
X018798Y012769D02*
X019261D01*
X018726Y012841D02*
X019189D01*
X018654Y012913D02*
X019117D01*
X018622Y012985D02*
X019045D01*
X018641Y013057D02*
X018973D01*
X018649Y013129D02*
X018901D01*
X018647Y013201D02*
X018829D01*
X018634Y013273D02*
X018757D01*
X018610Y013345D02*
X018685D01*
X018572Y013417D02*
X018613D01*
X018516Y013489D02*
X018541D01*
X018433Y013561D02*
X018469D01*
X018276Y013633D02*
X018397D01*
X019526Y011041D02*
X019960D01*
X019598Y010969D02*
X019960D01*
X019670Y010897D02*
X019960D01*
X019742Y010825D02*
X019960D01*
X019814Y010753D02*
X019960D01*
X019886Y010681D02*
X019960D01*
X019958Y010609D02*
X019960D01*
X019454Y011113D02*
X019917D01*
X019382Y011185D02*
X019845D01*
X019310Y011257D02*
X019773D01*
X019238Y011329D02*
X019701D01*
X019166Y011401D02*
X019629D01*
X019094Y011473D02*
X019557D01*
X019022Y011545D02*
X019485D01*
X018950Y011617D02*
X019413D01*
X018878Y011689D02*
X019341D01*
X018806Y011761D02*
X019269D01*
X018734Y011833D02*
X019197D01*
X018662Y011905D02*
X019125D01*
X018619Y011977D02*
X019053D01*
X018639Y012049D02*
X018981D01*
X018649Y012121D02*
X018909D01*
X018648Y012193D02*
X018837D01*
X018636Y012265D02*
X018765D01*
X018613Y012337D02*
X018693D01*
X018577Y012409D02*
X018621D01*
X018524Y012481D02*
X018549D01*
X018444Y012553D02*
X018477D01*
X018303Y012625D02*
X018405D01*
X019318Y010249D02*
X019710D01*
X019390Y010177D02*
X019710D01*
X019462Y010105D02*
X019710D01*
X019534Y010033D02*
X019710D01*
X019606Y009961D02*
X019710D01*
X019678Y009889D02*
X019710D01*
X019246Y010321D02*
X019709D01*
X019174Y010393D02*
X019637D01*
X019102Y010465D02*
X019565D01*
X019030Y010537D02*
X019493D01*
X018958Y010609D02*
X019421D01*
X018886Y010681D02*
X019349D01*
X018814Y010753D02*
X019277D01*
X018742Y010825D02*
X019205D01*
X018670Y010897D02*
X019133D01*
X018616Y010969D02*
X019061D01*
X018638Y011041D02*
X018989D01*
X018648Y011113D02*
X018917D01*
X018648Y011185D02*
X018845D01*
X018638Y011257D02*
X018773D01*
X018616Y011329D02*
X018701D01*
X018581Y011401D02*
X018629D01*
X018530Y011473D02*
X018557D01*
X018455Y011545D02*
X018485D01*
X018326Y011617D02*
X018413D01*
X019038Y009529D02*
X019460D01*
X019110Y009457D02*
X019460D01*
X019182Y009385D02*
X019460D01*
X019254Y009313D02*
X019460D01*
X019326Y009241D02*
X019460D01*
X019398Y009169D02*
X019460D01*
X018966Y009601D02*
X019429D01*
X018894Y009673D02*
X019357D01*
X018822Y009745D02*
X019285D01*
X018750Y009817D02*
X019213D01*
X018678Y009889D02*
X019141D01*
X018613Y009961D02*
X019069D01*
X018636Y010033D02*
X018997D01*
X018648Y010105D02*
X018925D01*
X018649Y010177D02*
X018853D01*
X018639Y010249D02*
X018781D01*
X018619Y010321D02*
X018709D01*
X018586Y010393D02*
X018637D01*
X018537Y010465D02*
X018565D01*
X018465Y010537D02*
X018493D01*
X018346Y010609D02*
X018421D01*
X018325Y010681D02*
X018349D01*
X018758Y008809D02*
X019210D01*
X018830Y008737D02*
X019210D01*
X018902Y008665D02*
X019210D01*
X018974Y008593D02*
X019210D01*
X019046Y008521D02*
X019210D01*
X019118Y008449D02*
X019210D01*
X019190Y008377D02*
X019210D01*
X018686Y008881D02*
X019149D01*
X018614Y008953D02*
X019077D01*
X018634Y009025D02*
X019005D01*
X018647Y009097D02*
X018933D01*
X018649Y009169D02*
X018861D01*
X018641Y009241D02*
X018789D01*
X018622Y009313D02*
X018717D01*
X018590Y009385D02*
X018645D01*
X018544Y009457D02*
X018573D01*
X018475Y009529D02*
X018501D01*
X018364Y009601D02*
X018429D01*
X018302Y009673D02*
X018357D01*
X018632Y008017D02*
X018960D01*
X018622Y007945D02*
X018960D01*
X018694Y007873D02*
X018960D01*
X018766Y007801D02*
X018960D01*
X018838Y007729D02*
X018960D01*
X018910Y007657D02*
X018960D01*
X018646Y008089D02*
X018941D01*
X018649Y008161D02*
X018869D01*
X018642Y008233D02*
X018797D01*
X018625Y008305D02*
X018725D01*
X018595Y008377D02*
X018653D01*
X018550Y008449D02*
X018581D01*
X018484Y008521D02*
X018509D01*
X018380Y008593D02*
X018437D01*
X018275Y008665D02*
X018365D01*
X018627Y007297D02*
X018710D01*
X018644Y007225D02*
X018710D01*
X018650Y007153D02*
X018710D01*
X018645Y007081D02*
X018710D01*
X018630Y007009D02*
X018710D01*
X018630Y006937D02*
X018710D01*
X018702Y006865D02*
X018710D01*
X018599Y007369D02*
X018661D01*
X018556Y007441D02*
X018589D01*
X018492Y007513D02*
X018517D01*
X018395Y007585D02*
X018445D01*
X018238Y007657D02*
X018373D01*
X018408Y006577D02*
X018453D01*
X018161Y006649D02*
X018381D01*
X015594Y013921D02*
X015610D01*
X015549Y013849D02*
X015581D01*
X015483Y013777D02*
X015509D01*
X015379Y013705D02*
X015437D01*
X015276Y013633D02*
X015365D01*
X013684D02*
X015024D01*
X013612Y013705D02*
X014920D01*
X013756Y013561D02*
X014866D01*
X013540Y013777D02*
X014816D01*
X013828Y013489D02*
X014783D01*
X014476Y012841D02*
X014756D01*
X013468Y013849D02*
X014750D01*
X013900Y013417D02*
X014727D01*
X014404Y012913D02*
X014709D01*
X013396Y013921D02*
X014705D01*
X013972Y013345D02*
X014690D01*
X014332Y012985D02*
X014677D01*
X013324Y013993D02*
X014675D01*
X013036Y014281D02*
X014667D01*
X014044Y013273D02*
X014665D01*
X014260Y013057D02*
X014658D01*
X013252Y014065D02*
X014657D01*
X013108Y014209D02*
X014653D01*
X014116Y013201D02*
X014652D01*
X014188Y013129D02*
X014650D01*
X013180Y014137D02*
X014650D01*
X012964Y014353D02*
X014627D01*
X012892Y014425D02*
X014555D01*
X012820Y014497D02*
X014483D01*
X012748Y014569D02*
X014411D01*
X012676Y014641D02*
X014339D01*
X012650Y014713D02*
X014267D01*
X012650Y014785D02*
X014195D01*
X012650Y014857D02*
X014123D01*
X012650Y014929D02*
X014051D01*
X012650Y015001D02*
X013979D01*
X012650Y015073D02*
X013907D01*
X012650Y015145D02*
X013835D01*
X012649Y015217D02*
X013763D01*
X012632Y015289D02*
X013691D01*
X012574Y015361D02*
X013619D01*
X012530Y015433D02*
X013547D01*
X012657Y015505D02*
X013475D01*
X012732Y015577D02*
X013403D01*
X012782Y015649D02*
X013331D01*
X012817Y015721D02*
X013259D01*
X012838Y015793D02*
X013187D01*
X012848Y015865D02*
X013115D01*
X012848Y015937D02*
X013043D01*
X012837Y016009D02*
X012971D01*
X012815Y016081D02*
X012899D01*
X012780Y016153D02*
X012827D01*
X012729Y016225D02*
X012755D01*
X012652Y016297D02*
X012683D01*
X012521Y016369D02*
X012611D01*
X012640Y009673D02*
X014997D01*
X012940Y010681D02*
X014974D01*
X012940Y011617D02*
X014973D01*
X012940Y011689D02*
X014954D01*
X012940Y010609D02*
X014953D01*
X012600Y009601D02*
X014936D01*
X012667Y009745D02*
X014855D01*
X012940Y010753D02*
X014844D01*
X012940Y011545D02*
X014844D01*
X012940Y011761D02*
X014834D01*
X012940Y010537D02*
X014834D01*
X012543Y009529D02*
X014824D01*
X012683Y009817D02*
X014776D01*
X012940Y010825D02*
X014769D01*
X012940Y011473D02*
X014769D01*
X012940Y011833D02*
X014762D01*
X012936Y010465D02*
X014762D01*
X012460Y009457D02*
X014756D01*
X012689Y008881D02*
X014728D01*
X012689Y009889D02*
X014723D01*
X012940Y010897D02*
X014718D01*
X012940Y011401D02*
X014718D01*
X012940Y011905D02*
X014713D01*
X012907Y010393D02*
X014713D01*
X012385Y009385D02*
X014709D01*
X012687Y008953D02*
X014690D01*
X012686Y009961D02*
X014686D01*
X012940Y010969D02*
X014683D01*
X012940Y011329D02*
X014683D01*
X012840Y010321D02*
X014680D01*
X012496Y009313D02*
X014677D01*
X012675Y009025D02*
X014665D01*
X012673Y010033D02*
X014663D01*
X012940Y011041D02*
X014661D01*
X012940Y011257D02*
X014661D01*
X012768Y010249D02*
X014660D01*
X012568Y009241D02*
X014658D01*
X012652Y009097D02*
X014652D01*
X012649Y010105D02*
X014651D01*
X012940Y011113D02*
X014651D01*
X012940Y011185D02*
X014651D01*
X012696Y010177D02*
X014650D01*
X012617Y009169D02*
X014650D01*
X012682Y008809D02*
X012797D01*
X012665Y008737D02*
X012719D01*
X012636Y008665D02*
X012647D01*
X012632Y007657D02*
X015061D01*
X012589Y007585D02*
X014905D01*
X012662Y007729D02*
X014878D01*
X012527Y007513D02*
X014807D01*
X012681Y007801D02*
X014791D01*
X012968Y008449D02*
X014749D01*
X012435Y007441D02*
X014744D01*
X012689Y007873D02*
X014733D01*
X012896Y008377D02*
X014704D01*
X012340Y007369D02*
X014700D01*
X012688Y007945D02*
X014693D01*
X012824Y008305D02*
X014674D01*
X012677Y008017D02*
X014667D01*
X012752Y008233D02*
X014657D01*
X012655Y008089D02*
X014653D01*
X012680Y008161D02*
X014650D01*
X012340Y007297D02*
X013530D01*
X012340Y007225D02*
X013457D01*
X012340Y007153D02*
X013385D01*
X012340Y007081D02*
X013313D01*
X012340Y007009D02*
X013241D01*
X012340Y006937D02*
X013169D01*
X012340Y006865D02*
X013097D01*
X012340Y006793D02*
X013025D01*
X012340Y006721D02*
X012953D01*
X012340Y006649D02*
X012881D01*
X012340Y006577D02*
X012809D01*
X012340Y006505D02*
X012737D01*
X012340Y006433D02*
X012665D01*
X012340Y006361D02*
X012593D01*
X012340Y006289D02*
X012521D01*
X012340Y006217D02*
X012449D01*
X012340Y006145D02*
X012377D01*
X013418Y006649D02*
X015138D01*
X013490Y006721D02*
X014891D01*
X013346Y006577D02*
X014891D01*
X013562Y006793D02*
X014799D01*
X013274Y006505D02*
X014798D01*
X013634Y006865D02*
X014738D01*
X013202Y006433D02*
X014738D01*
X013706Y006937D02*
X014697D01*
X013130Y006361D02*
X014697D01*
X013058Y006289D02*
X013521D01*
X012986Y006217D02*
X013449D01*
X012914Y006145D02*
X013377D01*
X012842Y006073D02*
X013305D01*
X012770Y006001D02*
X013233D01*
X012698Y005929D02*
X013161D01*
X012626Y005857D02*
X013089D01*
X012554Y005785D02*
X013017D01*
X012482Y005713D02*
X012945D01*
X012410Y005641D02*
X012873D01*
X012338Y005569D02*
X012801D01*
X012266Y005497D02*
X012729D01*
X012194Y005425D02*
X012657D01*
X012122Y005353D02*
X012585D01*
X012050Y005281D02*
X012513D01*
X011978Y005209D02*
X012441D01*
X011906Y005137D02*
X012369D01*
X011834Y005065D02*
X012297D01*
X011762Y004993D02*
X012225D01*
X011690Y004921D02*
X012153D01*
X011618Y004849D02*
X012081D01*
X011546Y004777D02*
X012009D01*
X011474Y004705D02*
X011937D01*
X011402Y004633D02*
X011865D01*
X011330Y004561D02*
X011793D01*
X011258Y004489D02*
X011721D01*
X011186Y004417D02*
X011649D01*
X011114Y004345D02*
X011577D01*
X011042Y004273D02*
X011505D01*
X010970Y004201D02*
X011433D01*
X010898Y004129D02*
X011361D01*
X010826Y004057D02*
X011289D01*
X010754Y003985D02*
X011217D01*
X011066Y003913D02*
X011145D01*
X010682D02*
X010734D01*
X015586Y011905D02*
X015610D01*
X015537Y011833D02*
X015565D01*
X015465Y011761D02*
X015493D01*
X015345Y011689D02*
X015421D01*
X015326Y011617D02*
X015349D01*
X010902Y015433D02*
X012169D01*
X010974Y015505D02*
X012042D01*
X011046Y015577D02*
X011967D01*
X011118Y015649D02*
X011917D01*
X010830Y015361D02*
X011725D01*
X010758Y015289D02*
X011667D01*
X010389Y014569D02*
X011651D01*
X010686Y015217D02*
X011650D01*
X010614Y015145D02*
X011650D01*
X010542Y015073D02*
X011650D01*
X010470Y015001D02*
X011650D01*
X010482Y014929D02*
X011650D01*
X010489Y014857D02*
X011650D01*
X010485Y014785D02*
X011650D01*
X010468Y014713D02*
X011650D01*
X010437Y014641D02*
X011650D01*
X008608Y011401D02*
X011941D01*
X009987Y010393D02*
X011931D01*
X010782Y009385D02*
X011914D01*
X011316Y008377D02*
X011898D01*
X011316Y008449D02*
X011851D01*
X010710Y009457D02*
X011840D01*
X010264Y010465D02*
X011828D01*
X008726Y011329D02*
X011823D01*
X010278Y011473D02*
X011818D01*
X009989Y010321D02*
X011812D01*
X010854Y009313D02*
X011803D01*
X011316Y008305D02*
X011793D01*
X011316Y008521D02*
X011764D01*
X010638Y009529D02*
X011756D01*
X010360Y010537D02*
X011749D01*
X010215Y011257D02*
X011745D01*
X010368Y011545D02*
X011742D01*
X010233Y010249D02*
X011738D01*
X010926Y009241D02*
X011732D01*
X011316Y008233D02*
X011725D01*
X011316Y008593D02*
X011705D01*
X010566Y009601D02*
X011699D01*
X010324Y012193D02*
X011697D01*
X010418Y010609D02*
X011694D01*
X010334Y011185D02*
X011691D01*
X010423Y011617D02*
X011689D01*
X010343Y010177D02*
X011687D01*
X010998Y009169D02*
X011682D01*
X011316Y008161D02*
X011677D01*
X011316Y008665D02*
X011663D01*
X010494Y009673D02*
X011659D01*
X010396Y012121D02*
X011657D01*
X010456Y010681D02*
X011656D01*
X010402Y011113D02*
X011654D01*
X010459Y011689D02*
X011652D01*
X010408Y010105D02*
X011650D01*
X011070Y009097D02*
X011647D01*
X011316Y008089D02*
X011644D01*
X011316Y008737D02*
X011634D01*
X010477Y009745D02*
X011632D01*
X010442Y012049D02*
X011631D01*
X010479Y010753D02*
X011630D01*
X010446Y011041D02*
X011629D01*
X010481Y011761D02*
X011628D01*
X010449Y010033D02*
X011626D01*
X011142Y009025D02*
X011624D01*
X011316Y008017D02*
X011623D01*
X011313Y008809D02*
X011617D01*
X010488Y009817D02*
X011616D01*
X010471Y011977D02*
X011615D01*
X010489Y010825D02*
X011615D01*
X010473Y010969D02*
X011614D01*
X010489Y011833D02*
X011614D01*
X010475Y009961D02*
X011613D01*
X011214Y008953D02*
X011612D01*
X011282Y008881D02*
X011610D01*
X010488Y009889D02*
X011610D01*
X010486Y011905D02*
X011610D01*
X010487Y010897D02*
X011610D01*
X010193Y012265D02*
X011515D01*
X009789Y012337D02*
X011443D01*
X009785Y012409D02*
X011371D01*
X010291Y012481D02*
X011299D01*
X010375Y012553D02*
X011227D01*
X010428Y012625D02*
X011155D01*
X010343Y008665D02*
X010936D01*
X010474Y008593D02*
X010936D01*
X010546Y008521D02*
X010936D01*
X010592Y008449D02*
X010936D01*
X010621Y008377D02*
X010936D01*
X010636Y008305D02*
X010936D01*
X010639Y008233D02*
X010936D01*
X010631Y008161D02*
X010936D01*
X010609Y008089D02*
X010936D01*
X010573Y008017D02*
X010936D01*
X009939Y008737D02*
X010893D01*
X009935Y008809D02*
X010821D01*
X009919Y008881D02*
X010749D01*
X009889Y008953D02*
X010677D01*
X009842Y009025D02*
X010605D01*
X009769Y009097D02*
X010533D01*
X009631Y009169D02*
X010461D01*
X008818Y009241D02*
X010389D01*
X008746Y009313D02*
X010317D01*
X008635Y009385D02*
X010245D01*
X009931Y008665D02*
X010056D01*
X009911Y008593D02*
X009925D01*
X009781Y012265D02*
X009906D01*
X008804Y011257D02*
X009884D01*
X008710Y009457D02*
X009850D01*
X008731Y011473D02*
X009821D01*
X009769Y012481D02*
X009809D01*
X009761Y012193D02*
X009775D01*
X008858Y011185D02*
X009765D01*
X008793Y009529D02*
X009748D01*
X008807Y011545D02*
X009732D01*
X008895Y011113D02*
X009697D01*
X008850Y009601D02*
X009686D01*
X008860Y011617D02*
X009676D01*
X008921Y011041D02*
X009654D01*
X008890Y009673D02*
X009646D01*
X008897Y011689D02*
X009640D01*
X009584Y011977D02*
X009629D01*
X008935Y010969D02*
X009626D01*
X008917Y009745D02*
X009622D01*
X008922Y011761D02*
X009618D01*
X008940Y011905D02*
X009613D01*
X008940Y010897D02*
X009612D01*
X008939Y009889D02*
X009611D01*
X008933Y009817D02*
X009611D01*
X008934Y010825D02*
X009610D01*
X008935Y011833D02*
X009610D01*
X008919Y010753D02*
X009375D01*
X008867Y009169D02*
X009368D01*
X008936Y009961D02*
X009342D01*
X008894Y010681D02*
X009261D01*
X008923Y010033D02*
X009244D01*
X008902Y009097D02*
X009230D01*
X008855Y010609D02*
X009194D01*
X008899Y010105D02*
X009183D01*
X009118Y008449D02*
X009178D01*
X008925Y009025D02*
X009157D01*
X008800Y010537D02*
X009152D01*
X008863Y010177D02*
X009145D01*
X008721Y010465D02*
X009125D01*
X009046Y008521D02*
X009123D01*
X008811Y010249D02*
X009121D01*
X008934Y011977D02*
X009115D01*
X008618Y010393D02*
X009112D01*
X008737Y010321D02*
X009110D01*
X008937Y008953D02*
X009110D01*
X008974Y008593D02*
X009088D01*
X008939Y008881D02*
X009080D01*
X008902Y008665D02*
X009068D01*
X008932Y008809D02*
X009064D01*
X008915Y008737D02*
X009060D01*
X008918Y012049D02*
X009028D01*
X008892Y012121D02*
X008973D01*
X009721Y007369D02*
X011960D01*
X009270Y007297D02*
X011960D01*
X009342Y007225D02*
X011960D01*
X009414Y007153D02*
X011960D01*
X011152Y007081D02*
X011960D01*
X011247Y007009D02*
X011960D01*
X011308Y006937D02*
X011960D01*
X011351Y006865D02*
X011960D01*
X011378Y006793D02*
X011960D01*
X011394Y006721D02*
X011960D01*
X011400Y006649D02*
X011960D01*
X011394Y006577D02*
X011960D01*
X011378Y006505D02*
X011960D01*
X011350Y006433D02*
X011960D01*
X011308Y006361D02*
X011960D01*
X011246Y006289D02*
X011960D01*
X011151Y006217D02*
X011949D01*
X010964Y006145D02*
X011877D01*
X009814Y007441D02*
X011864D01*
X011165Y006073D02*
X011805D01*
X009871Y007513D02*
X011772D01*
X011255Y006001D02*
X011733D01*
X009908Y007585D02*
X011710D01*
X011314Y005929D02*
X011661D01*
X011354Y005857D02*
X011589D01*
X011381Y005785D02*
X011517D01*
X011395Y005713D02*
X011445D01*
X009902Y007081D02*
X010648D01*
X009997Y007009D02*
X010552D01*
X010058Y006937D02*
X010491D01*
X010101Y006865D02*
X010449D01*
X009198Y007369D02*
X009278D01*
X009126Y007441D02*
X009185D01*
X008927Y008017D02*
X009150D01*
X009054Y007513D02*
X009128D01*
X008938Y007945D02*
X009106D01*
X008982Y007585D02*
X009091D01*
X008939Y007873D02*
X009077D01*
X008910Y007657D02*
X009069D01*
X008931Y007801D02*
X009063D01*
X008912Y007729D02*
X009060D01*
X008905Y008089D02*
X008947D01*
X008872Y006145D02*
X009585D01*
X008800Y006217D02*
X009398D01*
X008944Y006073D02*
X009384D01*
X008728Y006289D02*
X009303D01*
X009016Y006001D02*
X009294D01*
X008656Y006361D02*
X009241D01*
X009088Y005929D02*
X009235D01*
X008584Y006433D02*
X009199D01*
X009160Y005857D02*
X009195D01*
X008512Y006505D02*
X009171D01*
X008224Y006793D02*
X009171D01*
X008152Y006865D02*
X009165D01*
X008440Y006577D02*
X009155D01*
X008296Y006721D02*
X009155D01*
X008368Y006649D02*
X009150D01*
X008080Y006937D02*
X009093D01*
X008008Y007009D02*
X009021D01*
X007936Y007081D02*
X008949D01*
X007864Y007153D02*
X008877D01*
X007792Y007225D02*
X008805D01*
X007720Y007297D02*
X008733D01*
X008502Y007369D02*
X008661D01*
X007648D02*
X008297D01*
X007718Y011401D02*
X008191D01*
X007085Y010393D02*
X008181D01*
X007840Y012409D02*
X008173D01*
X007150Y009385D02*
X008164D01*
X007840Y013417D02*
X008156D01*
X006640Y008377D02*
X008148D01*
X007576Y007441D02*
X008114D01*
X006568Y008449D02*
X008101D01*
X007840Y013345D02*
X008095D01*
X007150Y009457D02*
X008090D01*
X007840Y012337D02*
X008084D01*
X007118Y010465D02*
X008078D01*
X007643Y011329D02*
X008073D01*
X007792Y011473D02*
X008068D01*
X007035Y010321D02*
X008062D01*
X007840Y012481D02*
X008058D01*
X007150Y009313D02*
X008053D01*
X007840Y013489D02*
X008048D01*
X006712Y008305D02*
X008043D01*
X007504Y007513D02*
X008022D01*
X006496Y008521D02*
X008014D01*
X007840Y013273D02*
X008010D01*
X007150Y009529D02*
X008006D01*
X007840Y012265D02*
X008002D01*
X007139Y010537D02*
X007999D01*
X007568Y011257D02*
X007995D01*
X007832Y011545D02*
X007992D01*
X006962Y010249D02*
X007988D01*
X007840Y012553D02*
X007985D01*
X007150Y009241D02*
X007982D01*
X007840Y013561D02*
X007979D01*
X006784Y008233D02*
X007975D01*
X007432Y007585D02*
X007960D01*
X006424Y008593D02*
X007955D01*
X007840Y013201D02*
X007952D01*
X007150Y009601D02*
X007949D01*
X007840Y012193D02*
X007947D01*
X007149Y010609D02*
X007944D01*
X007493Y011185D02*
X007941D01*
X007840Y011617D02*
X007939D01*
X006840Y010177D02*
X007937D01*
X007840Y012625D02*
X007934D01*
X007136Y009169D02*
X007932D01*
X007840Y013633D02*
X007930D01*
X006856Y008161D02*
X007927D01*
X007360Y007657D02*
X007917D01*
X006352Y008665D02*
X007913D01*
X007840Y013129D02*
X007911D01*
X007150Y009673D02*
X007909D01*
X007840Y012121D02*
X007907D01*
X007148Y010681D02*
X007906D01*
X007418Y011113D02*
X007904D01*
X007840Y011689D02*
X007902D01*
X006340Y010105D02*
X007900D01*
X007840Y012697D02*
X007899D01*
X007086Y009097D02*
X007897D01*
X007840Y013705D02*
X007896D01*
X006928Y008089D02*
X007894D01*
X007288Y007729D02*
X007887D01*
X006340Y008737D02*
X007884D01*
X007840Y013057D02*
X007883D01*
X007150Y009745D02*
X007882D01*
X007840Y012049D02*
X007881D01*
X007136Y010753D02*
X007880D01*
X007343Y011041D02*
X007879D01*
X007840Y011761D02*
X007878D01*
X007036Y010033D02*
X007876D01*
X007840Y012769D02*
X007875D01*
X006340Y009025D02*
X007874D01*
X007840Y013777D02*
X007874D01*
X007000Y008017D02*
X007873D01*
X007216Y007801D02*
X007869D01*
X006340Y008809D02*
X007867D01*
X007840Y012985D02*
X007866D01*
X007150Y009817D02*
X007866D01*
X007840Y011977D02*
X007865D01*
X007118Y010825D02*
X007865D01*
X007268Y010969D02*
X007864D01*
X007840Y011833D02*
X007864D01*
X007120Y009961D02*
X007863D01*
X007840Y012841D02*
X007863D01*
X006340Y008953D02*
X007862D01*
X007840Y013849D02*
X007862D01*
X007072Y007945D02*
X007861D01*
X007144Y007873D02*
X007860D01*
X007855Y013921D02*
X007860D01*
X006340Y008881D02*
X007860D01*
X007840Y012913D02*
X007860D01*
X007147Y009889D02*
X007860D01*
X007840Y011905D02*
X007860D01*
X007193Y010897D02*
X007860D01*
X006340Y010177D02*
X006459D01*
X002690Y022057D02*
X022110D01*
X002690Y021985D02*
X022110D01*
X002690Y021913D02*
X022110D01*
X002690Y021841D02*
X022110D01*
X005088Y021769D02*
X022110D01*
X005189Y021697D02*
X022110D01*
X005248Y021625D02*
X022110D01*
X005285Y021553D02*
X022110D01*
X005306Y021481D02*
X022110D01*
X005314Y021409D02*
X022110D01*
X012091Y021337D02*
X022110D01*
X012190Y021265D02*
X022110D01*
X021715Y021193D02*
X022110D01*
X021765Y021121D02*
X022110D01*
X021771Y021049D02*
X022110D01*
X021771Y020977D02*
X022110D01*
X021771Y020905D02*
X022110D01*
X021771Y020833D02*
X022110D01*
X021771Y020761D02*
X022110D01*
X021771Y020689D02*
X022110D01*
X021771Y020617D02*
X022110D01*
X021771Y020545D02*
X022110D01*
X021771Y020473D02*
X022110D01*
X021771Y020401D02*
X022110D01*
X021771Y020329D02*
X022110D01*
X021771Y020257D02*
X022110D01*
X021771Y020185D02*
X022110D01*
X021771Y020113D02*
X022110D01*
X021771Y020041D02*
X022110D01*
X021771Y019969D02*
X022110D01*
X021744Y019897D02*
X022110D01*
X021618Y019825D02*
X022110D01*
X021639Y019753D02*
X022110D01*
X021649Y019681D02*
X022110D01*
X021648Y019609D02*
X022110D01*
X021637Y019537D02*
X022110D01*
X021614Y019465D02*
X022110D01*
X021579Y019393D02*
X022110D01*
X021527Y019321D02*
X022110D01*
X021449Y019249D02*
X022110D01*
X021314Y019177D02*
X022110D01*
X020874Y019105D02*
X022110D01*
X020802Y019033D02*
X022110D01*
X020730Y018961D02*
X022110D01*
X020658Y018889D02*
X022110D01*
X020586Y018817D02*
X022110D01*
X020514Y018745D02*
X022110D01*
X020442Y018673D02*
X022110D01*
X020370Y018601D02*
X022110D01*
X020298Y018529D02*
X022110D01*
X020111Y018457D02*
X022110D01*
X020074Y018385D02*
X022110D01*
X020020Y018313D02*
X022110D01*
X019938Y018241D02*
X022110D01*
X019789Y018169D02*
X022110D01*
X019872Y018097D02*
X022110D01*
X019979Y018025D02*
X022110D01*
X020047Y017953D02*
X022110D01*
X020093Y017881D02*
X022110D01*
X020123Y017809D02*
X022110D01*
X020142Y017737D02*
X022110D01*
X020149Y017665D02*
X022110D01*
X020146Y017593D02*
X022110D01*
X020133Y017521D02*
X022110D01*
X020108Y017449D02*
X022110D01*
X020069Y017377D02*
X022110D01*
X020012Y017305D02*
X022110D01*
X019927Y017233D02*
X022110D01*
X019758Y017161D02*
X022110D01*
X019887Y017089D02*
X022110D01*
X019988Y017017D02*
X022110D01*
X020053Y016945D02*
X022110D01*
X020097Y016873D02*
X022110D01*
X020264Y016801D02*
X022110D01*
X020338Y016729D02*
X022110D01*
X020410Y016657D02*
X022110D01*
X020482Y016585D02*
X022110D01*
X020554Y016513D02*
X022110D01*
X020626Y016441D02*
X022110D01*
X020698Y016369D02*
X022110D01*
X020770Y016297D02*
X022110D01*
X020842Y016225D02*
X022110D01*
X020914Y016153D02*
X022110D01*
X021402Y016081D02*
X022110D01*
X021497Y016009D02*
X022110D01*
X021558Y015937D02*
X022110D01*
X021601Y015865D02*
X022110D01*
X021628Y015793D02*
X022110D01*
X021644Y015721D02*
X022110D01*
X021650Y015649D02*
X022110D01*
X021644Y015577D02*
X022110D01*
X021628Y015505D02*
X022110D01*
X021600Y015433D02*
X022110D01*
X021558Y015361D02*
X022110D01*
X021496Y015289D02*
X022110D01*
X021401Y015217D02*
X022110D01*
X019422Y015145D02*
X022110D01*
X019494Y015073D02*
X022110D01*
X019566Y015001D02*
X022110D01*
X019638Y014929D02*
X022110D01*
X019710Y014857D02*
X022110D01*
X019782Y014785D02*
X022110D01*
X019854Y014713D02*
X022110D01*
X019926Y014641D02*
X022110D01*
X019998Y014569D02*
X022110D01*
X020070Y014497D02*
X022110D01*
X020142Y014425D02*
X022110D01*
X020214Y014353D02*
X022110D01*
X020286Y014281D02*
X022110D01*
X020358Y014209D02*
X022110D01*
X020430Y014137D02*
X022110D01*
X020502Y014065D02*
X022110D01*
X020574Y013993D02*
X022110D01*
X020646Y013921D02*
X022110D01*
X020718Y013849D02*
X022110D01*
X020790Y013777D02*
X022110D01*
X020862Y013705D02*
X022110D01*
X020934Y013633D02*
X022110D01*
X021006Y013561D02*
X022110D01*
X021067Y013489D02*
X022110D01*
X021089Y013417D02*
X022110D01*
X021090Y013345D02*
X022110D01*
X021090Y013273D02*
X022110D01*
X021090Y013201D02*
X022110D01*
X021090Y013129D02*
X022110D01*
X021090Y013057D02*
X022110D01*
X021090Y012985D02*
X022110D01*
X021090Y012913D02*
X022110D01*
X021090Y012841D02*
X022110D01*
X021090Y012769D02*
X022110D01*
X021090Y012697D02*
X022110D01*
X021090Y012625D02*
X022110D01*
X021090Y012553D02*
X022110D01*
X021090Y012481D02*
X022110D01*
X021090Y012409D02*
X022110D01*
X021090Y012337D02*
X022110D01*
X021090Y012265D02*
X022110D01*
X021090Y012193D02*
X022110D01*
X021090Y012121D02*
X022110D01*
X021090Y012049D02*
X022110D01*
X021090Y011977D02*
X022110D01*
X021090Y011905D02*
X022110D01*
X021090Y011833D02*
X022110D01*
X021090Y011761D02*
X022110D01*
X021090Y011689D02*
X022110D01*
X021090Y011617D02*
X022110D01*
X021090Y011545D02*
X022110D01*
X021090Y011473D02*
X022110D01*
X021090Y011401D02*
X022110D01*
X021090Y011329D02*
X022110D01*
X021090Y011257D02*
X022110D01*
X021090Y011185D02*
X022110D01*
X021090Y011113D02*
X022110D01*
X021090Y011041D02*
X022110D01*
X021090Y010969D02*
X022110D01*
X021090Y010897D02*
X022110D01*
X021090Y010825D02*
X022110D01*
X021090Y010753D02*
X022110D01*
X021090Y010681D02*
X022110D01*
X021090Y010609D02*
X022110D01*
X021090Y010537D02*
X022110D01*
X021090Y010465D02*
X022110D01*
X021090Y010393D02*
X022110D01*
X021090Y010321D02*
X022110D01*
X021090Y010249D02*
X022110D01*
X021090Y010177D02*
X022110D01*
X021090Y010105D02*
X022110D01*
X021090Y010033D02*
X022110D01*
X021090Y009961D02*
X022110D01*
X021090Y009889D02*
X022110D01*
X021090Y009817D02*
X022110D01*
X021090Y009745D02*
X022110D01*
X021090Y009673D02*
X022110D01*
X021090Y009601D02*
X022110D01*
X021090Y009529D02*
X022110D01*
X021090Y009457D02*
X022110D01*
X021090Y009385D02*
X022110D01*
X021090Y009313D02*
X022110D01*
X021090Y009241D02*
X022110D01*
X021090Y009169D02*
X022110D01*
X021090Y009097D02*
X022110D01*
X021090Y009025D02*
X022110D01*
X021090Y008953D02*
X022110D01*
X021090Y008881D02*
X022110D01*
X021090Y008809D02*
X022110D01*
X021090Y008737D02*
X022110D01*
X021090Y008665D02*
X022110D01*
X021090Y008593D02*
X022110D01*
X021090Y008521D02*
X022110D01*
X021090Y008449D02*
X022110D01*
X021090Y008377D02*
X022110D01*
X021090Y008305D02*
X022110D01*
X021090Y008233D02*
X022110D01*
X021090Y008161D02*
X022110D01*
X021090Y008089D02*
X022110D01*
X021090Y008017D02*
X022110D01*
X021090Y007945D02*
X022110D01*
X021090Y007873D02*
X022110D01*
X021090Y007801D02*
X022110D01*
X021090Y007729D02*
X022110D01*
X021090Y007657D02*
X022110D01*
X021090Y007585D02*
X022110D01*
X021090Y007513D02*
X022110D01*
X021090Y007441D02*
X022110D01*
X021090Y007369D02*
X022110D01*
X021090Y007297D02*
X022110D01*
X021090Y007225D02*
X022110D01*
X021090Y007153D02*
X022110D01*
X021090Y007081D02*
X022110D01*
X021090Y007009D02*
X022110D01*
X021090Y006937D02*
X022110D01*
X021090Y006865D02*
X022110D01*
X021090Y006793D02*
X022110D01*
X021090Y006721D02*
X022110D01*
X021090Y006649D02*
X022110D01*
X021090Y006577D02*
X022110D01*
X021090Y006505D02*
X022110D01*
X021090Y006433D02*
X022110D01*
X021090Y006361D02*
X022110D01*
X021090Y006289D02*
X022110D01*
X021090Y006217D02*
X022110D01*
X021090Y006145D02*
X022110D01*
X021090Y006073D02*
X022110D01*
X021090Y006001D02*
X022110D01*
X021090Y005929D02*
X022110D01*
X021090Y005857D02*
X022110D01*
X021090Y005785D02*
X022110D01*
X021090Y005713D02*
X022110D01*
X021090Y005641D02*
X022110D01*
X021090Y005569D02*
X022110D01*
X021090Y005497D02*
X022110D01*
X021090Y005425D02*
X022110D01*
X021090Y005353D02*
X022110D01*
X021090Y005281D02*
X022110D01*
X021090Y005209D02*
X022110D01*
X021090Y005137D02*
X022110D01*
X021090Y005065D02*
X022110D01*
X021090Y004993D02*
X022110D01*
X021090Y004921D02*
X022110D01*
X021090Y004849D02*
X022110D01*
X021090Y004777D02*
X022110D01*
X021090Y004705D02*
X022110D01*
X021090Y004633D02*
X022110D01*
X021090Y004561D02*
X022110D01*
X021090Y004489D02*
X022110D01*
X021150Y004417D02*
X022110D01*
X021222Y004345D02*
X022110D01*
X021294Y004273D02*
X022110D01*
X021366Y004201D02*
X022110D01*
X021438Y004129D02*
X022110D01*
X021510Y004057D02*
X022110D01*
X021582Y003985D02*
X022110D01*
X022066Y003913D02*
X022110D01*
X021654D02*
X021734D01*
X020946Y019177D02*
X020985D01*
X019350Y015217D02*
X020898D01*
X019278Y015289D02*
X020803D01*
X019206Y015361D02*
X020741D01*
X019134Y015433D02*
X020699D01*
X018537Y019465D02*
X020685D01*
X012344Y019825D02*
X020681D01*
X019062Y015505D02*
X020671D01*
X018774Y015793D02*
X020671D01*
X018702Y015865D02*
X020665D01*
X018465Y019537D02*
X020662D01*
X012328Y019753D02*
X020660D01*
X018990Y015577D02*
X020655D01*
X018846Y015721D02*
X020655D01*
X018346Y019609D02*
X020651D01*
X012299Y019681D02*
X020651D01*
X018918Y015649D02*
X020650D01*
X018586Y019393D02*
X020625D01*
X018630Y015937D02*
X020593D01*
X018619Y019321D02*
X020553D01*
X018630Y016009D02*
X020521D01*
X018639Y019249D02*
X020481D01*
X018645Y016081D02*
X020449D01*
X018649Y019177D02*
X020409D01*
X019712Y016153D02*
X020377D01*
X019855Y019105D02*
X020337D01*
X019914Y016225D02*
X020305D01*
X019970Y019033D02*
X020265D01*
X020005Y016297D02*
X020233D01*
X020040Y018961D02*
X020193D01*
X020064Y016369D02*
X020161D01*
X020088Y018889D02*
X020121D01*
X018650Y016153D02*
X019587D01*
X018648Y019105D02*
X019444D01*
X018644Y016225D02*
X019385D01*
X018636Y019033D02*
X019329D01*
X018627Y016297D02*
X019295D01*
X018613Y018961D02*
X019259D01*
X018599Y016369D02*
X019235D01*
X018577Y018889D02*
X019211D01*
X018556Y016441D02*
X019195D01*
X012254Y021193D02*
X019016D01*
X012350Y019897D02*
X018987D01*
X012298Y021121D02*
X018966D01*
X012345Y019969D02*
X018960D01*
X012327Y021049D02*
X018960D01*
X012343Y020977D02*
X018960D01*
X012350Y020905D02*
X018960D01*
X012345Y020833D02*
X018960D01*
X012330Y020761D02*
X018960D01*
X012303Y020689D02*
X018960D01*
X012262Y020617D02*
X018960D01*
X012203Y020545D02*
X018960D01*
X012111Y020473D02*
X018960D01*
X011893Y020401D02*
X018960D01*
X012105Y020329D02*
X018960D01*
X012199Y020257D02*
X018960D01*
X012260Y020185D02*
X018960D01*
X012302Y020113D02*
X018960D01*
X012329Y020041D02*
X018960D01*
X018523Y018817D02*
X018561D01*
X018492Y016513D02*
X018517D01*
X018444Y018745D02*
X018477D01*
X018395Y016585D02*
X018445D01*
X018302Y018673D02*
X018405D01*
X018238Y016657D02*
X018373D01*
X015576Y019609D02*
X017953D01*
X015633Y019537D02*
X017834D01*
X015649Y019465D02*
X017762D01*
X015650Y019393D02*
X017713D01*
X015650Y018961D02*
X017686D01*
X015650Y019321D02*
X017680D01*
X015650Y019033D02*
X017663D01*
X015650Y019249D02*
X017660D01*
X015650Y019105D02*
X017651D01*
X015650Y019177D02*
X017650D01*
X015650Y018889D02*
X017621D01*
X015648Y018817D02*
X017549D01*
X015625Y018745D02*
X017477D01*
X015552Y018673D02*
X017405D01*
X015364Y018601D02*
X017333D01*
X015475Y018529D02*
X017261D01*
X015544Y018457D02*
X017189D01*
X015590Y018385D02*
X017117D01*
X015622Y018313D02*
X017045D01*
X015641Y018241D02*
X016973D01*
X015649Y018169D02*
X016901D01*
X015647Y018097D02*
X016829D01*
X015634Y018025D02*
X016757D01*
X015609Y017953D02*
X016685D01*
X015572Y017881D02*
X016613D01*
X015516Y017809D02*
X016545D01*
X015433Y017737D02*
X016513D01*
X015275Y017665D02*
X016510D01*
X015380Y017593D02*
X016510D01*
X015484Y017521D02*
X016510D01*
X015550Y017449D02*
X016510D01*
X015595Y017377D02*
X016510D01*
X015625Y017305D02*
X016510D01*
X015642Y017233D02*
X016510D01*
X015649Y017161D02*
X016510D01*
X015646Y017089D02*
X016510D01*
X015632Y017017D02*
X016510D01*
X015606Y016945D02*
X016510D01*
X015566Y016873D02*
X016510D01*
X015508Y016801D02*
X016510D01*
X015421Y016729D02*
X016510D01*
X015238Y016657D02*
X016510D01*
X015395Y016585D02*
X016510D01*
X015492Y016513D02*
X016510D01*
X015556Y016441D02*
X016510D01*
X015599Y016369D02*
X016510D01*
X015627Y016297D02*
X016510D01*
X015644Y016225D02*
X016510D01*
X015650Y016153D02*
X016510D01*
X015645Y016081D02*
X016510D01*
X015630Y016009D02*
X016510D01*
X015602Y015937D02*
X016510D01*
X015561Y015865D02*
X016510D01*
X015574Y015793D02*
X016510D01*
X015646Y015721D02*
X016510D01*
X015718Y015649D02*
X016510D01*
X015790Y015577D02*
X016510D01*
X015862Y015505D02*
X016510D01*
X015934Y015433D02*
X016510D01*
X015979Y015361D02*
X016510D01*
X015990Y015289D02*
X016510D01*
X015990Y015217D02*
X016510D01*
X015990Y015145D02*
X016510D01*
X015990Y015073D02*
X016510D01*
X015990Y015001D02*
X016510D01*
X015990Y014929D02*
X016510D01*
X015990Y014857D02*
X016510D01*
X015990Y014785D02*
X016510D01*
X015990Y014713D02*
X016510D01*
X015990Y014641D02*
X016510D01*
X015990Y014569D02*
X016510D01*
X015990Y014497D02*
X016510D01*
X015990Y014425D02*
X016510D01*
X015990Y014353D02*
X016510D01*
X015990Y014281D02*
X016510D01*
X015990Y014209D02*
X016510D01*
X015990Y014137D02*
X016510D01*
X015990Y014065D02*
X016510D01*
X015990Y013993D02*
X016510D01*
X015990Y013921D02*
X016510D01*
X015990Y013849D02*
X016510D01*
X015988Y013777D02*
X016510D01*
X015965Y013705D02*
X016510D01*
X015902Y013633D02*
X016510D01*
X015830Y013561D02*
X016510D01*
X015758Y013489D02*
X016510D01*
X015686Y013417D02*
X016510D01*
X015614Y013345D02*
X016510D01*
X015634Y013273D02*
X016510D01*
X015647Y013201D02*
X016510D01*
X015649Y013129D02*
X016510D01*
X015641Y013057D02*
X016510D01*
X015622Y012985D02*
X016510D01*
X015590Y012913D02*
X016510D01*
X015543Y012841D02*
X016510D01*
X015648Y012769D02*
X016510D01*
X015720Y012697D02*
X016510D01*
X015792Y012625D02*
X016510D01*
X015864Y012553D02*
X016510D01*
X015936Y012481D02*
X016510D01*
X015980Y012409D02*
X016510D01*
X015990Y012337D02*
X016510D01*
X015990Y012265D02*
X016510D01*
X015990Y012193D02*
X016510D01*
X015990Y012121D02*
X016510D01*
X015990Y012049D02*
X016510D01*
X015990Y011977D02*
X016510D01*
X015990Y011905D02*
X016510D01*
X015990Y011833D02*
X016510D01*
X015986Y011761D02*
X016510D01*
X015954Y011689D02*
X016510D01*
X015886Y011617D02*
X016510D01*
X015814Y011545D02*
X016510D01*
X015742Y011473D02*
X016510D01*
X015670Y011401D02*
X016510D01*
X015616Y011329D02*
X016510D01*
X015638Y011257D02*
X016510D01*
X015648Y011185D02*
X016510D01*
X015648Y011113D02*
X016510D01*
X015638Y011041D02*
X016510D01*
X015616Y010969D02*
X016510D01*
X015581Y010897D02*
X016510D01*
X015530Y010825D02*
X016510D01*
X015455Y010753D02*
X016510D01*
X015325Y010681D02*
X016510D01*
X015346Y010609D02*
X016510D01*
X015465Y010537D02*
X016510D01*
X015537Y010465D02*
X016510D01*
X015586Y010393D02*
X016510D01*
X015619Y010321D02*
X016510D01*
X015639Y010249D02*
X016510D01*
X015649Y010177D02*
X016510D01*
X015648Y010105D02*
X016510D01*
X015636Y010033D02*
X016510D01*
X015613Y009961D02*
X016510D01*
X015577Y009889D02*
X016510D01*
X015523Y009817D02*
X016510D01*
X015444Y009745D02*
X016477D01*
X015302Y009673D02*
X016405D01*
X015364Y009601D02*
X016333D01*
X015475Y009529D02*
X016261D01*
X015544Y009457D02*
X016189D01*
X015590Y009385D02*
X016117D01*
X015622Y009313D02*
X016045D01*
X015641Y009241D02*
X015973D01*
X015649Y009169D02*
X015901D01*
X015647Y009097D02*
X015829D01*
X015634Y009025D02*
X015757D01*
X015609Y008953D02*
X015685D01*
X015572Y008881D02*
X015613D01*
X014160Y016657D02*
X015061D01*
X013152Y017665D02*
X015025D01*
X012251Y018601D02*
X014936D01*
X013224Y017593D02*
X014919D01*
X014232Y016585D02*
X014905D01*
X014088Y016729D02*
X014878D01*
X013080Y017737D02*
X014866D01*
X012288Y018529D02*
X014824D01*
X013296Y017521D02*
X014815D01*
X014304Y016513D02*
X014807D01*
X014016Y016801D02*
X014791D01*
X013008Y017809D02*
X014783D01*
X012360Y018457D02*
X014756D01*
X013368Y017449D02*
X014749D01*
X012295Y018673D02*
X014747D01*
X014376Y016441D02*
X014744D01*
X013944Y016873D02*
X014733D01*
X012936Y017881D02*
X014728D01*
X012257Y019609D02*
X014723D01*
X012432Y018385D02*
X014709D01*
X013440Y017377D02*
X014704D01*
X014448Y016369D02*
X014700D01*
X013872Y016945D02*
X014693D01*
X012864Y017953D02*
X014690D01*
X012504Y018313D02*
X014677D01*
X012325Y018745D02*
X014675D01*
X013512Y017305D02*
X014674D01*
X014520Y016297D02*
X014672D01*
X013800Y017017D02*
X014667D01*
X012194Y019537D02*
X014666D01*
X012792Y018025D02*
X014665D01*
X012576Y018241D02*
X014658D01*
X013584Y017233D02*
X014657D01*
X014592Y016225D02*
X014655D01*
X013728Y017089D02*
X014653D01*
X012720Y018097D02*
X014652D01*
X012343Y018817D02*
X014651D01*
X012648Y018169D02*
X014650D01*
X013656Y017161D02*
X014650D01*
X012098Y019465D02*
X014650D01*
X011928Y019393D02*
X014650D01*
X012118Y019321D02*
X014650D01*
X012207Y019249D02*
X014650D01*
X012265Y019177D02*
X014650D01*
X012305Y019105D02*
X014650D01*
X012331Y019033D02*
X014650D01*
X012346Y018961D02*
X014650D01*
X012349Y018889D02*
X014650D01*
X008521Y016369D02*
X012179D01*
X008550Y016441D02*
X012149D01*
X008652Y016297D02*
X012047D01*
X008667Y016513D02*
X012032D01*
X008729Y016225D02*
X011970D01*
X008739Y016585D02*
X011961D01*
X008780Y016153D02*
X011919D01*
X008787Y016657D02*
X011912D01*
X008812Y017089D02*
X011887D01*
X008820Y016729D02*
X011879D01*
X008835Y017017D02*
X011864D01*
X008840Y016801D02*
X011859D01*
X008847Y016945D02*
X011852D01*
X008849Y016873D02*
X011850D01*
X008775Y017161D02*
X011819D01*
X009186Y020401D02*
X011806D01*
X008928Y019393D02*
X011771D01*
X008722Y017233D02*
X011747D01*
X008968Y018385D02*
X011732D01*
X008642Y017305D02*
X011685D01*
X008497Y017377D02*
X011661D01*
X009067Y017449D02*
X011632D01*
X009083Y018457D02*
X011616D01*
X009300Y021337D02*
X011608D01*
X009098Y019465D02*
X011601D01*
X009105Y020329D02*
X011594D01*
X009310Y020473D02*
X011588D01*
X009118Y019321D02*
X011581D01*
X009130Y018313D02*
X011569D01*
X009177Y017521D02*
X011522D01*
X009186Y018529D02*
X011513D01*
X009341Y021265D02*
X011509D01*
X009194Y019537D02*
X011505D01*
X009199Y020257D02*
X011500D01*
X009344Y020545D02*
X011497D01*
X009207Y019249D02*
X011492D01*
X009214Y018241D02*
X011485D01*
X009245Y017593D02*
X011454D01*
X009251Y018601D02*
X011448D01*
X009350Y021193D02*
X011445D01*
X009257Y019609D02*
X011442D01*
X009260Y020185D02*
X011439D01*
X009350Y020617D02*
X011437D01*
X009265Y019177D02*
X011434D01*
X009270Y018169D02*
X011429D01*
X009291Y017665D02*
X011408D01*
X009295Y018673D02*
X011404D01*
X009350Y021121D02*
X011401D01*
X009299Y019681D02*
X011400D01*
X009302Y020113D02*
X011398D01*
X009350Y020689D02*
X011396D01*
X009305Y019105D02*
X011394D01*
X009309Y018097D02*
X011390D01*
X009323Y017737D02*
X011377D01*
X009325Y018745D02*
X011374D01*
X009350Y021049D02*
X011373D01*
X009328Y019753D02*
X011371D01*
X009329Y020041D02*
X011370D01*
X009350Y020761D02*
X011369D01*
X009331Y019033D02*
X011368D01*
X009333Y018025D02*
X011366D01*
X009341Y017809D02*
X011358D01*
X009343Y018817D02*
X011356D01*
X009350Y020977D02*
X011356D01*
X009344Y019825D02*
X011355D01*
X009345Y019969D02*
X011354D01*
X009350Y020833D02*
X011354D01*
X009346Y018961D02*
X011353D01*
X009347Y017953D02*
X011352D01*
X009349Y017881D02*
X011350D01*
X009349Y018889D02*
X011350D01*
X009350Y020905D02*
X011350D01*
X009350Y019897D02*
X011350D01*
X008815Y016081D02*
X011045D01*
X008837Y016009D02*
X010941D01*
X008848Y015937D02*
X010869D01*
X002690Y005137D02*
X010869D01*
X009714Y006145D02*
X010835D01*
X008848Y015865D02*
X010797D01*
X002690Y005065D02*
X010797D01*
X008838Y015793D02*
X010725D01*
X002690Y004993D02*
X010725D01*
X009887Y005209D02*
X010662D01*
X008817Y015721D02*
X010653D01*
X002690Y004921D02*
X010653D01*
X009901Y006217D02*
X010648D01*
X009915Y006073D02*
X010634D01*
X008782Y015649D02*
X010581D01*
X002690Y004849D02*
X010581D01*
X009988Y005281D02*
X010561D01*
X009996Y006289D02*
X010553D01*
X010005Y006001D02*
X010544D01*
X008732Y015577D02*
X010509D01*
X010052Y005353D02*
X010497D01*
X010058Y006361D02*
X010491D01*
X010064Y005929D02*
X010485D01*
X010097Y005425D02*
X010453D01*
X010100Y006433D02*
X010449D01*
X010104Y005857D02*
X010445D01*
X008657Y015505D02*
X010437D01*
X010126Y005497D02*
X010423D01*
X010131Y005785D02*
X010418D01*
X010143Y005569D02*
X010406D01*
X010145Y005713D02*
X010404D01*
X010149Y005641D02*
X010400D01*
X008590Y015433D02*
X010365D01*
X008824Y015361D02*
X010293D01*
X010060Y015289D02*
X010221D01*
X008882D02*
X010039D01*
X008899Y015217D02*
X009808D01*
X008900Y015145D02*
X009724D01*
X008900Y015073D02*
X009671D01*
X002690Y005209D02*
X009412D01*
X002690Y005281D02*
X009311D01*
X002690Y005353D02*
X009247D01*
X002690Y005425D02*
X009203D01*
X008900Y015001D02*
X009110D01*
X008900Y014929D02*
X009036D01*
X002690Y005497D02*
X008986D01*
X008900Y014857D02*
X008964D01*
X002690Y005569D02*
X008911D01*
X002690Y005641D02*
X008839D01*
X006430Y019393D02*
X008771D01*
X006241Y005713D02*
X008767D01*
X002690Y018385D02*
X008732D01*
X006549Y005785D02*
X008695D01*
X006901Y017449D02*
X008632D01*
X006698Y005857D02*
X008623D01*
X002690Y018457D02*
X008616D01*
X006398Y019465D02*
X008601D01*
X002690Y020329D02*
X008594D01*
X006451Y019321D02*
X008581D01*
X002690Y018313D02*
X008569D01*
X006806Y005929D02*
X008551D01*
X006817Y017521D02*
X008522D01*
X002690Y018529D02*
X008513D01*
X005017Y020401D02*
X008513D01*
X006352Y019537D02*
X008505D01*
X002690Y020257D02*
X008500D01*
X006462Y019249D02*
X008492D01*
X002690Y018241D02*
X008485D01*
X006892Y006001D02*
X008479D01*
X006712Y017593D02*
X008454D01*
X002690Y018601D02*
X008448D01*
X006288Y019609D02*
X008442D01*
X002690Y020185D02*
X008439D01*
X006464Y019177D02*
X008434D01*
X002690Y018169D02*
X008429D01*
X006569Y017665D02*
X008408D01*
X006962Y006073D02*
X008407D01*
X006105Y018673D02*
X008404D01*
X006195Y019681D02*
X008400D01*
X005310Y021337D02*
X008399D01*
X002690Y020113D02*
X008398D01*
X006457Y019105D02*
X008394D01*
X002690Y018097D02*
X008390D01*
X005156Y020473D02*
X008389D01*
X006312Y017737D02*
X008377D01*
X006236Y018745D02*
X008374D01*
X006011Y019753D02*
X008371D01*
X002690Y020041D02*
X008370D01*
X006440Y019033D02*
X008368D01*
X002690Y018025D02*
X008366D01*
X005292Y021265D02*
X008358D01*
X002690Y017809D02*
X008358D01*
X006316Y018817D02*
X008356D01*
X002690Y019825D02*
X008355D01*
X005228Y020545D02*
X008355D01*
X002690Y019969D02*
X008354D01*
X006412Y018961D02*
X008353D01*
X002690Y017953D02*
X008352D01*
X002690Y017881D02*
X008350D01*
X006372Y018889D02*
X008350D01*
X002690Y019897D02*
X008350D01*
X005260Y021193D02*
X008350D01*
X005208Y021121D02*
X008350D01*
X005231Y021049D02*
X008350D01*
X005275Y020977D02*
X008350D01*
X005301Y020905D02*
X008350D01*
X005313Y020833D02*
X008350D01*
X005313Y020761D02*
X008350D01*
X005300Y020689D02*
X008350D01*
X005272Y020617D02*
X008350D01*
X007021Y006145D02*
X008335D01*
X007071Y006217D02*
X008263D01*
X006970Y017377D02*
X008202D01*
X007113Y006289D02*
X008191D01*
X007200Y016369D02*
X008179D01*
X002690Y015433D02*
X008169D01*
X007218Y016441D02*
X008149D01*
X007148Y006361D02*
X008119D01*
X007028Y017305D02*
X008058D01*
X007176Y006433D02*
X008047D01*
X007178Y016297D02*
X008047D01*
X002690Y015505D02*
X008042D01*
X007230Y016513D02*
X008032D01*
X007076Y017233D02*
X007977D01*
X002690Y015361D02*
X007975D01*
X007199Y006505D02*
X007975D01*
X007149Y016225D02*
X007970D01*
X006280Y015577D02*
X007967D01*
X007237Y016585D02*
X007961D01*
X007117Y017161D02*
X007924D01*
X007115Y016153D02*
X007919D01*
X002690Y015289D02*
X007917D01*
X006559Y015649D02*
X007917D01*
X007240Y016657D02*
X007912D01*
X007217Y006577D02*
X007903D01*
X002690Y015217D02*
X007900D01*
X002690Y015145D02*
X007900D01*
X007151Y017089D02*
X007887D01*
X007074Y016081D02*
X007884D01*
X006705Y015721D02*
X007882D01*
X007237Y016729D02*
X007879D01*
X007179Y017017D02*
X007864D01*
X007024Y016009D02*
X007862D01*
X006811Y015793D02*
X007861D01*
X007230Y016801D02*
X007859D01*
X007201Y016945D02*
X007852D01*
X006966Y015937D02*
X007851D01*
X006896Y015865D02*
X007851D01*
X007218Y016873D02*
X007850D01*
X007229Y006649D02*
X007831D01*
X002690Y015073D02*
X007823D01*
X007237Y006721D02*
X007759D01*
X002690Y015001D02*
X007733D01*
X007240Y006793D02*
X007687D01*
X002690Y014929D02*
X007661D01*
X007238Y006865D02*
X007615D01*
X002690Y014857D02*
X007589D01*
X007231Y006937D02*
X007543D01*
X002690Y014785D02*
X007517D01*
X007219Y007009D02*
X007471D01*
X002690Y014713D02*
X007445D01*
X007202Y007081D02*
X007399D01*
X002690Y014641D02*
X007373D01*
X007181Y007153D02*
X007327D01*
X002690Y014569D02*
X007301D01*
X007153Y007225D02*
X007255D01*
X002690Y014497D02*
X007229D01*
X007119Y007297D02*
X007183D01*
X002690Y014425D02*
X007157D01*
X007079Y007369D02*
X007111D01*
X006880Y014353D02*
X007085D01*
X007031Y007441D02*
X007039D01*
X006984Y014281D02*
X007028D01*
X007008Y013561D02*
X007010D01*
X006921Y013489D02*
X007010D01*
X006738Y013417D02*
X007010D01*
X006149Y013345D02*
X007010D01*
X006859Y013273D02*
X007010D01*
X006972Y013201D02*
X007010D01*
X002690Y004777D02*
X007009D01*
X002690Y004705D02*
X006937D01*
X002690Y004633D02*
X006865D01*
X006822Y007657D02*
X006823D01*
X002690Y004561D02*
X006793D01*
X006718Y007729D02*
X006751D01*
X002690Y004489D02*
X006721D01*
X006579Y007801D02*
X006679D01*
X002690Y004417D02*
X006649D01*
X006336Y007873D02*
X006607D01*
X002690Y004345D02*
X006577D01*
X006147Y013417D02*
X006561D01*
X002690Y007945D02*
X006535D01*
X002690Y004273D02*
X006505D01*
X002690Y008017D02*
X006463D01*
X006140Y013273D02*
X006440D01*
X002690Y004201D02*
X006433D01*
X002690Y014353D02*
X006419D01*
X002690Y008089D02*
X006391D01*
X006135Y013489D02*
X006378D01*
X002690Y004129D02*
X006361D01*
X006120Y013201D02*
X006327D01*
X002690Y008161D02*
X006319D01*
X002690Y014281D02*
X006315D01*
X006111Y013561D02*
X006291D01*
X002690Y004057D02*
X006289D01*
X006088Y013129D02*
X006257D01*
X002690Y014209D02*
X006249D01*
X002690Y008233D02*
X006247D01*
X006074Y013633D02*
X006233D01*
X002690Y003985D02*
X006217D01*
X006040Y013057D02*
X006210D01*
X002690Y014137D02*
X006204D01*
X006020Y013705D02*
X006193D01*
X006011Y012625D02*
X006187D01*
X005970Y012985D02*
X006178D01*
X002690Y008305D02*
X006175D01*
X002690Y014065D02*
X006174D01*
X005939Y013777D02*
X006167D01*
X005924Y012697D02*
X006165D01*
X005854Y012913D02*
X006158D01*
X002690Y013993D02*
X006157D01*
X005790Y013849D02*
X006153D01*
X005750Y012769D02*
X006152D01*
X002690Y012841D02*
X006150D01*
X002690Y013921D02*
X006150D01*
X006066Y003913D02*
X006145D01*
X006068Y012553D02*
X006115D01*
X002690Y008377D02*
X006103D01*
X002690Y005713D02*
X006058D01*
X002690Y008449D02*
X006031D01*
X002690Y015577D02*
X006019D01*
X002690Y017737D02*
X005987D01*
X002690Y008521D02*
X005976D01*
X002690Y007873D02*
X005963D01*
X002690Y008593D02*
X005960D01*
X005875Y011833D02*
X005960D01*
X002690Y011761D02*
X005960D01*
X005661Y011689D02*
X005960D01*
X005908Y011617D02*
X005960D01*
X005911Y009673D02*
X005960D01*
X005693Y009601D02*
X005960D01*
X002690Y009529D02*
X005960D01*
X002690Y009457D02*
X005960D01*
X002690Y009385D02*
X005960D01*
X002690Y009313D02*
X005960D01*
X002690Y009241D02*
X005960D01*
X002690Y009169D02*
X005960D01*
X002690Y009097D02*
X005960D01*
X002690Y009025D02*
X005960D01*
X002690Y008953D02*
X005960D01*
X002690Y008881D02*
X005960D01*
X002690Y008809D02*
X005960D01*
X002690Y008737D02*
X005960D01*
X002690Y008665D02*
X005960D01*
X005011Y019753D02*
X005788D01*
X002690Y005785D02*
X005750D01*
X002690Y015649D02*
X005740D01*
X005066Y003913D02*
X005734D01*
X002690Y017665D02*
X005730D01*
X002690Y007801D02*
X005720D01*
X005105Y018673D02*
X005694D01*
X002690Y011689D02*
X005638D01*
X002690Y009601D02*
X005606D01*
X005195Y019681D02*
X005605D01*
X002690Y005857D02*
X005601D01*
X002690Y015721D02*
X005595D01*
X005210Y003841D02*
X005589D01*
X002690Y017593D02*
X005587D01*
X002690Y007729D02*
X005581D01*
X005236Y018745D02*
X005563D01*
X002690Y012769D02*
X005549D01*
X005288Y019609D02*
X005511D01*
X002690Y013849D02*
X005509D01*
X005293Y003769D02*
X005506D01*
X002690Y005929D02*
X005493D01*
X002690Y015793D02*
X005488D01*
X005316Y018817D02*
X005483D01*
X002690Y017521D02*
X005482D01*
X002690Y007657D02*
X005477D01*
X002690Y010681D02*
X005460D01*
X002690Y010609D02*
X005460D01*
X005350Y003697D02*
X005449D01*
X005352Y019537D02*
X005447D01*
X002690Y012913D02*
X005445D01*
X005372Y018889D02*
X005427D01*
X002690Y011833D02*
X005424D01*
X005390Y003625D02*
X005409D01*
X002690Y010537D02*
X005408D01*
X002690Y006001D02*
X005407D01*
X002690Y010753D02*
X005405D01*
X002690Y015865D02*
X005403D01*
X005398Y019465D02*
X005401D01*
X002690Y017449D02*
X005398D01*
X002690Y007585D02*
X005394D01*
X002690Y011617D02*
X005391D01*
X002690Y009673D02*
X005388D01*
X002690Y012697D02*
X005375D01*
X002690Y013777D02*
X005360D01*
X002690Y006073D02*
X005337D01*
X002690Y015937D02*
X005333D01*
X002690Y012985D02*
X005329D01*
X002690Y017377D02*
X005329D01*
X002690Y007513D02*
X005326D01*
X002690Y011905D02*
X005318D01*
X002690Y010465D02*
X005309D01*
X002690Y010825D02*
X005307D01*
X002690Y011545D02*
X005298D01*
X002690Y009745D02*
X005297D01*
X002690Y012625D02*
X005288D01*
X002690Y013705D02*
X005279D01*
X002690Y006145D02*
X005278D01*
X002690Y016009D02*
X005275D01*
X002690Y017305D02*
X005272D01*
X002690Y007441D02*
X005269D01*
X002690Y013057D02*
X005259D01*
X002690Y011977D02*
X005251D01*
X002690Y010393D02*
X005245D01*
X002690Y010897D02*
X005244D01*
X002690Y011473D02*
X005238D01*
X002690Y009817D02*
X005237D01*
X002690Y012553D02*
X005231D01*
X002690Y006217D02*
X005228D01*
X002690Y016081D02*
X005225D01*
X002690Y013633D02*
X005225D01*
X002690Y017233D02*
X005223D01*
X002690Y007369D02*
X005220D01*
X002690Y013129D02*
X005211D01*
X002690Y012049D02*
X005206D01*
X002690Y010321D02*
X005201D01*
X002690Y010969D02*
X005201D01*
X002690Y011401D02*
X005197D01*
X002690Y009889D02*
X005196D01*
X002690Y012481D02*
X005192D01*
X002690Y013561D02*
X005188D01*
X002690Y006289D02*
X005186D01*
X002690Y016153D02*
X005184D01*
X002690Y017161D02*
X005182D01*
X002690Y007297D02*
X005180D01*
X002690Y013201D02*
X005179D01*
X002690Y012121D02*
X005175D01*
X002690Y010249D02*
X005173D01*
X002690Y011041D02*
X005172D01*
X002690Y011329D02*
X005170D01*
X002690Y009961D02*
X005169D01*
X002690Y012409D02*
X005167D01*
X002690Y013489D02*
X005164D01*
X002690Y013273D02*
X005159D01*
X002690Y012193D02*
X005157D01*
X002690Y010177D02*
X005156D01*
X002690Y011113D02*
X005155D01*
X002690Y011257D02*
X005154D01*
X002690Y010033D02*
X005154D01*
X002690Y012337D02*
X005153D01*
X002690Y013417D02*
X005152D01*
X002690Y006361D02*
X005151D01*
X002690Y013345D02*
X005150D01*
X002690Y012265D02*
X005150D01*
X002690Y016225D02*
X005150D01*
X002690Y010105D02*
X005150D01*
X002690Y011185D02*
X005150D01*
X002690Y017089D02*
X005148D01*
X002690Y007225D02*
X005146D01*
X002690Y006433D02*
X005123D01*
X002690Y016297D02*
X005121D01*
X002690Y017017D02*
X005120D01*
X002690Y007153D02*
X005119D01*
X002690Y006505D02*
X005100D01*
X002690Y016369D02*
X005099D01*
X002690Y016945D02*
X005098D01*
X002690Y007081D02*
X005097D01*
X002690Y006577D02*
X005082D01*
X002690Y016441D02*
X005082D01*
X002690Y016873D02*
X005081D01*
X002690Y007009D02*
X005080D01*
X002690Y006649D02*
X005070D01*
X002690Y016513D02*
X005069D01*
X002690Y016801D02*
X005069D01*
X002690Y006937D02*
X005068D01*
X002690Y006721D02*
X005062D01*
X002690Y016585D02*
X005062D01*
X002690Y016729D02*
X005062D01*
X002690Y006865D02*
X005062D01*
X002690Y006793D02*
X005060D01*
X002690Y016657D02*
X005060D01*
X004011Y019753D02*
X004788D01*
X002690Y020401D02*
X004782D01*
X004066Y003913D02*
X004734D01*
X002690Y021769D02*
X004711D01*
X004105Y018673D02*
X004694D01*
X002690Y020473D02*
X004643D01*
X002690Y021697D02*
X004611D01*
X004195Y019681D02*
X004605D01*
X002690Y021121D02*
X004592D01*
X004210Y003841D02*
X004589D01*
X002690Y020545D02*
X004571D01*
X002690Y021049D02*
X004568D01*
X004236Y018745D02*
X004563D01*
X002690Y021625D02*
X004551D01*
X002690Y021193D02*
X004539D01*
X002690Y020617D02*
X004527D01*
X002690Y020977D02*
X004525D01*
X002690Y021553D02*
X004514D01*
X004288Y019609D02*
X004511D01*
X002690Y021265D02*
X004507D01*
X004293Y003769D02*
X004506D01*
X002690Y020689D02*
X004499D01*
X002690Y020905D02*
X004498D01*
X002690Y021481D02*
X004493D01*
X002690Y021337D02*
X004489D01*
X002690Y020761D02*
X004486D01*
X002690Y020833D02*
X004486D01*
X002690Y021409D02*
X004485D01*
X004316Y018817D02*
X004483D01*
X004350Y003697D02*
X004449D01*
X004352Y019537D02*
X004447D01*
X004372Y018889D02*
X004427D01*
X004390Y003625D02*
X004409D01*
X004398Y019465D02*
X004401D01*
X002690Y019753D02*
X003788D01*
X002690Y003913D02*
X003734D01*
X002690Y018673D02*
X003694D01*
X002690Y019681D02*
X003605D01*
X003346Y003841D02*
X003589D01*
X002690Y018745D02*
X003563D01*
X002690Y019609D02*
X003511D01*
X003390Y003769D02*
X003506D01*
X002690Y018817D02*
X003483D01*
X003400Y003697D02*
X003449D01*
X002690Y019537D02*
X003447D01*
X002690Y018889D02*
X003427D01*
X003400Y003625D02*
X003409D01*
X002690Y019465D02*
X003401D01*
X002690Y018961D02*
X003387D01*
X002690Y019393D02*
X003369D01*
X002690Y019033D02*
X003360D01*
X002690Y019321D02*
X003348D01*
X002690Y019105D02*
X003342D01*
X002690Y019249D02*
X003337D01*
X002690Y019177D02*
X003335D01*
X002690Y002833D02*
X022110D01*
X002690Y002761D02*
X022110D01*
X021117Y002905D02*
X021682D01*
X021236Y002977D02*
X021563D01*
X021311Y003049D02*
X021488D01*
X021362Y003121D02*
X021437D01*
X021399Y003193D02*
X021400D01*
X020117Y002905D02*
X020682D01*
X020236Y002977D02*
X020563D01*
X020311Y003049D02*
X020488D01*
X020362Y003121D02*
X020437D01*
X020399Y003193D02*
X020400D01*
X019117Y002905D02*
X019682D01*
X019236Y002977D02*
X019563D01*
X019311Y003049D02*
X019488D01*
X019362Y003121D02*
X019437D01*
X019399Y003193D02*
X019400D01*
X018117Y002905D02*
X018682D01*
X018236Y002977D02*
X018563D01*
X018311Y003049D02*
X018488D01*
X018362Y003121D02*
X018437D01*
X018399Y003193D02*
X018400D01*
X017117Y002905D02*
X017682D01*
X017236Y002977D02*
X017563D01*
X017311Y003049D02*
X017488D01*
X017362Y003121D02*
X017437D01*
X017399Y003193D02*
X017400D01*
X016117Y002905D02*
X016682D01*
X016236Y002977D02*
X016563D01*
X016311Y003049D02*
X016488D01*
X016362Y003121D02*
X016437D01*
X016399Y003193D02*
X016400D01*
X015117Y002905D02*
X015682D01*
X015236Y002977D02*
X015563D01*
X015311Y003049D02*
X015488D01*
X015362Y003121D02*
X015437D01*
X015399Y003193D02*
X015400D01*
X014117Y002905D02*
X014682D01*
X014236Y002977D02*
X014563D01*
X014311Y003049D02*
X014488D01*
X014362Y003121D02*
X014437D01*
X014399Y003193D02*
X014400D01*
X013117Y002905D02*
X013682D01*
X013236Y002977D02*
X013563D01*
X013311Y003049D02*
X013488D01*
X013362Y003121D02*
X013437D01*
X013399Y003193D02*
X013400D01*
X012117Y002905D02*
X012682D01*
X012236Y002977D02*
X012563D01*
X012311Y003049D02*
X012488D01*
X012362Y003121D02*
X012437D01*
X012399Y003193D02*
X012400D01*
X011117Y002905D02*
X011682D01*
X011236Y002977D02*
X011563D01*
X011311Y003049D02*
X011488D01*
X011362Y003121D02*
X011437D01*
X011399Y003193D02*
X011400D01*
X010117Y002905D02*
X010682D01*
X010236Y002977D02*
X010563D01*
X010311Y003049D02*
X010488D01*
X010362Y003121D02*
X010437D01*
X010399Y003193D02*
X010400D01*
X009117Y002905D02*
X009682D01*
X009236Y002977D02*
X009563D01*
X009311Y003049D02*
X009488D01*
X009362Y003121D02*
X009437D01*
X009399Y003193D02*
X009400D01*
X008117Y002905D02*
X008682D01*
X008236Y002977D02*
X008563D01*
X008311Y003049D02*
X008488D01*
X008362Y003121D02*
X008437D01*
X008399Y003193D02*
X008400D01*
X007117Y002905D02*
X007682D01*
X007236Y002977D02*
X007563D01*
X007311Y003049D02*
X007488D01*
X007362Y003121D02*
X007437D01*
X007399Y003193D02*
X007400D01*
X006117Y002905D02*
X006682D01*
X006236Y002977D02*
X006563D01*
X006311Y003049D02*
X006488D01*
X006362Y003121D02*
X006437D01*
X006399Y003193D02*
X006400D01*
X005117Y002905D02*
X005682D01*
X005236Y002977D02*
X005563D01*
X005311Y003049D02*
X005488D01*
X005362Y003121D02*
X005437D01*
X005399Y003193D02*
X005400D01*
X004117Y002905D02*
X004682D01*
X004236Y002977D02*
X004563D01*
X004311Y003049D02*
X004488D01*
X004362Y003121D02*
X004437D01*
X004399Y003193D02*
X004400D01*
X003256Y002905D02*
X003682D01*
X003363Y002977D02*
X003563D01*
X003395Y003049D02*
X003488D01*
X003400Y003121D02*
X003437D01*
X003400Y003193D02*
X003400D01*
G54D41*
X010900Y005650D03*
Y006650D03*
X009650D03*
Y005650D03*
X012350Y016900D03*
X008350D03*
X008850Y019900D03*
Y018900D03*
X011850Y017900D03*
Y018900D03*
Y019900D03*
Y020900D03*
X008850Y017900D03*
X006650Y010640D03*
Y011730D03*
Y012820D03*
Y013910D03*
X005650Y010100D03*
Y011190D03*
Y012280D03*
Y013370D03*
X019650Y018650D03*
Y016650D03*
Y017650D03*
X008350Y015900D03*
X012350D03*
X018150Y006150D03*
Y007150D03*
Y008150D03*
Y009150D03*
Y010150D03*
Y011150D03*
Y012150D03*
Y013150D03*
Y014150D03*
Y015150D03*
Y016150D03*
Y017150D03*
Y018150D03*
Y019150D03*
X015150Y006150D03*
Y007150D03*
Y008150D03*
Y009150D03*
Y010150D03*
Y011150D03*
Y012150D03*
Y013150D03*
Y014150D03*
Y015150D03*
Y016150D03*
Y017150D03*
Y018150D03*
X021150Y015650D03*
Y019650D03*
G54D42*
X005900Y019200D03*
X003900D03*
X004900D03*
G54D43*
X008850Y020900D03*
X006650Y009550D03*
X012150Y014900D03*
X008400D03*
X002900Y003400D03*
X015150Y019150D03*
G54D44*
X006150Y006800D03*
Y016660D03*
G54D45*
X010050Y012850D03*
X009350Y012350D03*
X010050Y011850D03*
Y014850D03*
X009350Y014350D03*
X010050Y013850D03*
X009500Y007750D03*
X010200Y008250D03*
X009500Y008750D03*
X010050Y010850D03*
X009550Y010350D03*
X010050Y009850D03*
G54D46*
X004900Y021400D03*
Y020800D03*
G54D47*
X008781Y010518D02*
X008647Y010652D01*
X008781Y011281D02*
X008647Y011147D01*
X008018Y011281D02*
X008152Y011147D01*
X008018Y010518D02*
X008152Y010652D01*
X010361Y010538D02*
X010226Y010673D01*
X010361Y011161D02*
X010226Y011026D01*
X009738Y011161D02*
X009873Y011026D01*
X008781Y011518D02*
X008647Y011652D01*
X008018Y012281D02*
X008152Y012147D01*
X008018Y011518D02*
X008152Y011652D01*
X010361Y011538D02*
X010226Y011673D01*
X010361Y012161D02*
X010226Y012026D01*
X009738Y011538D02*
X009873Y011673D01*
X014705Y018705D02*
X014930Y018930D01*
X014705Y019594D02*
X014930Y019369D01*
X015594Y019594D02*
X015369Y019369D01*
X015594Y018705D02*
X015369Y018930D01*
X020003Y017296D02*
X019869Y017430D01*
X020003Y018003D02*
X019869Y017869D01*
X019296Y018003D02*
X019430Y017869D01*
X019296Y017296D02*
X019430Y017430D01*
X005193Y020506D02*
X005059Y020640D01*
X005193Y021093D02*
X005059Y020959D01*
X004606Y021093D02*
X004740Y020959D01*
X004606Y020506D02*
X004740Y020640D01*
X009294Y021344D02*
X009069Y021119D01*
X009294Y020455D02*
X009069Y020680D01*
X008405Y020455D02*
X008630Y020680D01*
X008405Y021344D02*
X008630Y021119D01*
X009203Y018253D02*
X009069Y018119D01*
X008496Y018253D02*
X008630Y018119D01*
X008496Y017546D02*
X008630Y017680D01*
X009203Y017546D02*
X009069Y017680D01*
X012203Y020253D02*
X012069Y020119D01*
X011496Y020253D02*
X011630Y020119D01*
X011496Y019546D02*
X011630Y019680D01*
X012203Y019546D02*
X012069Y019680D01*
X011253Y006003D02*
X011119Y005869D01*
X010546Y006003D02*
X010680Y005869D01*
X010546Y005296D02*
X010680Y005430D01*
X004281Y003781D02*
X004147Y003647D01*
X003518Y003781D02*
X003652Y003647D01*
X003518Y003018D02*
X003652Y003152D01*
X004281Y003018D02*
X004147Y003152D01*
X004500Y018800D02*
X004634Y018934D01*
X005299Y018800D02*
X005165Y018934D01*
X005299Y019599D02*
X005165Y019465D01*
X004500Y019599D02*
X004634Y019465D01*
X009203Y019253D02*
X009069Y019119D01*
X008496Y019253D02*
X008630Y019119D01*
X008496Y018546D02*
X008630Y018680D01*
X009203Y018546D02*
X009069Y018680D01*
X009203Y020253D02*
X009069Y020119D01*
X008496Y020253D02*
X008630Y020119D01*
X008496Y019546D02*
X008630Y019680D01*
X009203Y019546D02*
X009069Y019680D01*
X015503Y016503D02*
X015369Y016369D01*
X014796Y016503D02*
X014930Y016369D01*
X009188Y009061D02*
X009323Y008926D01*
X009811Y009061D02*
X009676Y008926D01*
X006296Y014263D02*
X006430Y014129D01*
X006296Y013556D02*
X006430Y013690D01*
X007003Y014263D02*
X006869Y014129D01*
G74*
X000000Y000000D02*
M02*
