*
*
G04 PADS Layout (Build Number 2005.266.2) generated Gerber (RS-274-X) file*
G04 PC Version=2.1*
*
%IN "OemBS2sx_C1.pcb"*%
*
%MOIN*%
*
%FSLAX24Y24*%
*
*
*
*
G04 PC Standard Apertures*
*
*
G04 Thermal Relief Aperture macro.*
%AMTER*
1,1,$1,0,0*
1,0,$1-$2,0,0*
21,0,$3,$4,0,0,45*
21,0,$3,$4,0,0,135*
%
*
*
G04 Annular Aperture macro.*
%AMANN*
1,1,$1,0,0*
1,0,$2,0,0*
%
*
*
G04 Odd Aperture macro.*
%AMODD*
1,1,$1,0,0*
1,0,$1-0.005,0,0*
%
*
*
G04 PC Custom Aperture Macros*
*
*
*
*
*
*
G04 PC Aperture Table*
*
%ADD026C,0.005*%
%ADD050C,0.072*%
%ADD051C,0.085*%
%ADD052R,0.072X0.072*%
%ADD053C,0.19*%
%ADD054C,0.06*%
%ADD055C,0.08*%
%ADD056C,0.055*%
*
*
*
*
G04 PC Custom Flashes*
G04 Layer Name OemBS2sx_C1.pcb - flashes*
%LPD*%
*
*
G04 PC Circuitry*
G04 Layer Name OemBS2sx_C1.pcb - circuitry*
%LPD*%
*
G54D26*
G01X022400Y002400D02*
Y022400D01*
X002400*
Y002400*
X022400*
G54D50*
X010900Y005650D03*
Y006650D03*
X009650D03*
Y005650D03*
X012350Y016900D03*
X008350D03*
X008850Y019900D03*
Y018900D03*
X011850Y017900D03*
Y018900D03*
Y019900D03*
Y020900D03*
X008850Y017900D03*
X006650Y010640D03*
Y011730D03*
Y012820D03*
Y013910D03*
X005650Y010100D03*
Y011190D03*
Y012280D03*
Y013370D03*
X019650Y018650D03*
Y016650D03*
Y017650D03*
X008350Y015900D03*
X012350D03*
X018150Y006150D03*
Y007150D03*
Y008150D03*
Y009150D03*
Y010150D03*
Y011150D03*
Y012150D03*
Y013150D03*
Y014150D03*
Y015150D03*
Y016150D03*
Y017150D03*
Y018150D03*
Y019150D03*
X015150Y006150D03*
Y007150D03*
Y008150D03*
Y009150D03*
Y010150D03*
Y011150D03*
Y012150D03*
Y013150D03*
Y014150D03*
Y015150D03*
Y016150D03*
Y017150D03*
Y018150D03*
X021150Y015650D03*
Y019650D03*
G54D51*
X005900Y019200D03*
X003900D03*
X004900D03*
G54D52*
X008850Y020900D03*
X006650Y009550D03*
X012150Y014900D03*
X008400D03*
X002900Y003400D03*
X015150Y019150D03*
G54D53*
X006150Y006800D03*
Y016660D03*
G54D54*
X010050Y012850D03*
X009350Y012350D03*
X010050Y011850D03*
Y014850D03*
X009350Y014350D03*
X010050Y013850D03*
X009500Y007750D03*
X010200Y008250D03*
X009500Y008750D03*
X010050Y010850D03*
X009550Y010350D03*
X010050Y009850D03*
G54D55*
X012150Y013900D03*
Y012900D03*
Y009900D03*
Y007900D03*
Y010900D03*
Y011900D03*
Y008900D03*
X008400Y013900D03*
Y012900D03*
Y009900D03*
Y008900D03*
Y007900D03*
Y011900D03*
Y010900D03*
X020900Y003400D03*
X019900D03*
X018900D03*
X017900D03*
X016900D03*
X015900D03*
X014900D03*
X013900D03*
X012900D03*
X011900D03*
X010900D03*
X009900D03*
X008900D03*
X007900D03*
X006900D03*
X005900D03*
X004900D03*
X003900D03*
X021900D03*
G54D56*
X004900Y021400D03*
Y020800D03*
X000000Y000000D02*
M02*
