*
*
G04 PADS Layout (Build Number 2005.266.2) generated Gerber (RS-274-X) file*
G04 PC Version=2.1*
*
%IN "OemBS2sx_C1.pcb"*%
*
%MOIN*%
*
%FSLAX24Y24*%
*
*
*
*
G04 PC Standard Apertures*
*
*
G04 Thermal Relief Aperture macro.*
%AMTER*
1,1,$1,0,0*
1,0,$1-$2,0,0*
21,0,$3,$4,0,0,45*
21,0,$3,$4,0,0,135*
%
*
*
G04 Annular Aperture macro.*
%AMANN*
1,1,$1,0,0*
1,0,$2,0,0*
%
*
*
G04 Odd Aperture macro.*
%AMODD*
1,1,$1,0,0*
1,0,$1-0.005,0,0*
%
*
*
G04 PC Custom Aperture Macros*
*
*
*
*
*
*
G04 PC Aperture Table*
*
%ADD010C,0.01*%
%ADD019C,0.007*%
%ADD037C,0.008*%
%ADD057C,0.012*%
%ADD058C,0.009*%
*
*
*
*
G04 PC Custom Flashes*
G04 Layer Name OemBS2sx_C1.pcb - flashes*
%LPD*%
*
*
G04 PC Circuitry*
G04 Layer Name OemBS2sx_C1.pcb - circuitry*
%LPD*%
*
G54D10*
G01X002900Y017950D02*
X006900D01*
Y019950*
X002900*
Y017950*
Y018600D02*
X006900D01*
X010100Y021400D02*
G75*
G03X010600I000250J000000D01*
G01X011350*
Y017400*
X009350*
Y021400*
X010100*
X007400Y005550D02*
X002400D01*
Y017910*
X010450Y013249D02*
G03X010449Y011449I-000400J-000899D01*
G01X010450Y011450D02*
Y013250D01*
Y015249D02*
G03X010449Y013449I-000400J-000899D01*
G01X010450Y013450D02*
Y015250D01*
X009099Y007350D02*
G03X009101Y009150I000401J000900D01*
G01X009100D02*
Y007350D01*
X005750Y021100D02*
G03X005750I-000850J0D01*
G01X003800Y021650D02*
Y022150D01*
X003550Y021900D02*
X004050D01*
X016400Y019650D02*
G03X016900I000250J000000D01*
G01X017650*
Y005650*
X015650*
Y019650*
X016400*
X010450Y011249D02*
G03X010449Y009449I-000400J-000899D01*
G01X010450Y009450D02*
Y011250D01*
X009950Y020806D02*
Y020337D01*
X009950D02*
X009972Y020243D01*
X009972D02*
X010018Y020181D01*
X010086Y020150*
X010131*
X010131D02*
X010200Y020181D01*
X010245Y020243*
X010245D02*
X010268Y020337D01*
X010268D02*
Y020806D01*
X010495Y020650D02*
Y020681D01*
X010518Y020743*
X010518D02*
X010540Y020775D01*
X010540D02*
X010586Y020806D01*
X010677*
X010722Y020775*
X010722D02*
X010745Y020743D01*
X010745D02*
X010768Y020681D01*
Y020618*
X010768D02*
X010745Y020556D01*
X010700Y020462*
X010700D02*
X010472Y020150D01*
X010472D02*
X010790D01*
X003377Y012306D02*
Y011806D01*
X003354Y011712*
X003354D02*
X003331Y011681D01*
X003331D02*
X003286Y011650D01*
X003240*
X003240D02*
X003195Y011681D01*
X003172Y011712*
X003172D02*
X003150Y011806D01*
Y011868*
X003581Y012181D02*
X003627Y012212D01*
X003695Y012306*
Y011650*
X017493Y003950D02*
X018150D01*
X017493D02*
Y004154D01*
X017493D02*
X017525Y004222D01*
X017525D02*
X017556Y004245D01*
X017618Y004268*
X017618D02*
X017712D01*
X017712D02*
X017775Y004245D01*
X017806Y004222*
X017806D02*
X017837Y004154D01*
X017837D02*
Y003950D01*
X017618Y004472D02*
X017587Y004518D01*
X017587D02*
X017493Y004586D01*
X017493D02*
X018150D01*
X017618Y004790D02*
X017587Y004836D01*
X017587D02*
X017493Y004904D01*
X017493D02*
X018150D01*
X013543Y003950D02*
X014200D01*
X013543D02*
Y004154D01*
X013543D02*
X013575Y004222D01*
X013575D02*
X013606Y004245D01*
X013668Y004268*
X013668D02*
X013762D01*
X013762D02*
X013825Y004245D01*
X013856Y004222*
X013856D02*
X013887Y004154D01*
X013887D02*
Y003950D01*
X013543Y004790D02*
X014200Y004563D01*
X013543Y004472D02*
Y004790D01*
X006543Y003950D02*
X007200D01*
X006543D02*
Y004154D01*
X006543D02*
X006575Y004222D01*
X006575D02*
X006606Y004245D01*
X006668Y004268*
X006668D02*
X006762D01*
X006762D02*
X006825Y004245D01*
X006856Y004222*
X006856D02*
X006887Y004154D01*
X006887D02*
Y003950D01*
X006543Y004609D02*
X006575Y004540D01*
X006575D02*
X006668Y004495D01*
X006668D02*
X006825Y004472D01*
X006825D02*
X006918D01*
X006918D02*
X007075Y004495D01*
X007168Y004540*
X007168D02*
X007200Y004609D01*
Y004654*
X007200D02*
X007168Y004722D01*
X007168D02*
X007075Y004768D01*
X006918Y004790*
X006918D02*
X006825D01*
X006825D02*
X006668Y004768D01*
X006668D02*
X006575Y004722D01*
X006575D02*
X006543Y004654D01*
X006543D02*
Y004609D01*
X005543Y003950D02*
X006200D01*
X005543D02*
Y004154D01*
X005543D02*
X005575Y004222D01*
X005575D02*
X005606Y004245D01*
X005668Y004268*
X005668D02*
X005731D01*
X005793Y004245*
X005793D02*
X005825Y004222D01*
X005825D02*
X005856Y004154D01*
X005856D02*
Y003950D01*
Y004109D02*
X006200Y004268D01*
X005543Y004472D02*
X006200D01*
X005543D02*
Y004768D01*
X005856Y004472D02*
Y004654D01*
X006200Y004472D02*
Y004768D01*
X005637Y005290D02*
X005575Y005245D01*
X005543Y005177*
X005543D02*
Y005086D01*
X005543D02*
X005575Y005018D01*
X005637Y004972*
X005637D02*
X005700D01*
X005700D02*
X005762Y004995D01*
X005762D02*
X005793Y005018D01*
X005793D02*
X005825Y005063D01*
X005825D02*
X005887Y005200D01*
X005887D02*
X005918Y005245D01*
X005918D02*
X005950Y005268D01*
X006012Y005290*
X006012D02*
X006106D01*
X006106D02*
X006168Y005245D01*
X006168D02*
X006200Y005177D01*
Y005086*
X006168Y005018*
X006168D02*
X006106Y004972D01*
X004493Y003950D02*
X005150Y004131D01*
X004493Y004313D02*
X005150Y004131D01*
X004493Y004518D02*
X004525Y004540D01*
X004525D02*
X004493Y004563D01*
X004493D02*
X004462Y004540D01*
X004462D02*
X004493Y004518D01*
X004712Y004540D02*
X005150D01*
X004712Y004768D02*
X005150D01*
X004837D02*
X004743Y004836D01*
X004743D02*
X004712Y004881D01*
X004712D02*
Y004950D01*
X004712D02*
X004743Y004995D01*
X004743D02*
X004837Y005018D01*
X004837D02*
X005150D01*
X003493Y003950D02*
X004150Y004131D01*
X003493Y004313D02*
X004150Y004131D01*
X003806Y004768D02*
X003743Y004745D01*
X003743D02*
X003712Y004677D01*
X003712D02*
Y004609D01*
X003712D02*
X003743Y004540D01*
X003743D02*
X003806Y004518D01*
X003868Y004540*
X003868D02*
X003900Y004586D01*
X003931Y004700*
X003962Y004745*
X003962D02*
X004025Y004768D01*
X004056*
X004118Y004745*
X004118D02*
X004150Y004677D01*
Y004609*
X004118Y004540*
X004118D02*
X004056Y004518D01*
X003806Y005222D02*
X003743Y005200D01*
X003743D02*
X003712Y005131D01*
X003712D02*
Y005063D01*
X003712D02*
X003743Y004995D01*
X003743D02*
X003806Y004972D01*
X003806D02*
X003868Y004995D01*
X003868D02*
X003900Y005040D01*
X003900D02*
X003931Y005154D01*
X003931D02*
X003962Y005200D01*
X003962D02*
X004025Y005222D01*
X004025D02*
X004056D01*
X004056D02*
X004118Y005200D01*
X004118D02*
X004150Y005131D01*
X004150D02*
Y005063D01*
X004150D02*
X004118Y004995D01*
X004118D02*
X004056Y004972D01*
X002643Y003950D02*
X003300Y004131D01*
X002643Y004313D02*
X003300Y004131D01*
X002643Y004790D02*
X003300D01*
X002956D02*
X002893Y004745D01*
X002893D02*
X002862Y004700D01*
X002862D02*
Y004631D01*
X002862D02*
X002893Y004586D01*
X002893D02*
X002956Y004540D01*
X002956D02*
X003050Y004518D01*
X003112*
X003112D02*
X003206Y004540D01*
X003206D02*
X003268Y004586D01*
X003268D02*
X003300Y004631D01*
X003300D02*
Y004700D01*
X003268Y004745*
X003268D02*
X003206Y004790D01*
X002643Y005268D02*
X003300D01*
X002956D02*
X002893Y005222D01*
X002893D02*
X002862Y005177D01*
X002862D02*
Y005109D01*
X002862D02*
X002893Y005063D01*
X002893D02*
X002956Y005018D01*
X003050Y004995*
X003112*
X003112D02*
X003206Y005018D01*
X003268Y005063*
X003268D02*
X003300Y005109D01*
Y005177*
X003268Y005222*
X003268D02*
X003206Y005268D01*
X007552Y003941D02*
X008208D01*
X007552D02*
Y004145D01*
X007552D02*
X007583Y004213D01*
X007583D02*
X007615Y004236D01*
X007615D02*
X007677Y004259D01*
X007677D02*
X007771D01*
X007833Y004236*
X007833D02*
X007865Y004213D01*
X007865D02*
X007896Y004145D01*
X007896D02*
Y003941D01*
X007677Y004463D02*
X007646Y004509D01*
X007552Y004577*
X007552D02*
X008208D01*
X008543Y003950D02*
X009200D01*
X008543D02*
Y004154D01*
X008543D02*
X008575Y004222D01*
X008575D02*
X008606Y004245D01*
X008668Y004268*
X008668D02*
X008762D01*
X008762D02*
X008825Y004245D01*
X008856Y004222*
X008856D02*
X008887Y004154D01*
X008887D02*
Y003950D01*
X008700Y004495D02*
X008668D01*
X008668D02*
X008606Y004518D01*
X008575Y004540*
X008575D02*
X008543Y004586D01*
X008543D02*
Y004677D01*
X008543D02*
X008575Y004722D01*
X008575D02*
X008606Y004745D01*
X008668Y004768*
X008668D02*
X008731D01*
X008793Y004745*
X008793D02*
X008887Y004700D01*
X008887D02*
X009200Y004472D01*
X009200D02*
Y004790D01*
X009543Y003950D02*
X010200D01*
X009543D02*
Y004154D01*
X009543D02*
X009575Y004222D01*
X009575D02*
X009606Y004245D01*
X009668Y004268*
X009668D02*
X009762D01*
X009762D02*
X009825Y004245D01*
X009856Y004222*
X009856D02*
X009887Y004154D01*
X009887D02*
Y003950D01*
X009543Y004518D02*
Y004768D01*
X009543D02*
X009793Y004631D01*
X009793D02*
Y004700D01*
X009793D02*
X009825Y004745D01*
X009856Y004768*
X009950Y004790*
X009950D02*
X010012D01*
X010012D02*
X010106Y004768D01*
X010168Y004722*
X010168D02*
X010200Y004654D01*
X010200D02*
Y004586D01*
X010168Y004518*
X010168D02*
X010137Y004495D01*
X010137D02*
X010075Y004472D01*
X010543Y003950D02*
X011200D01*
X010543D02*
Y004154D01*
X010543D02*
X010575Y004222D01*
X010575D02*
X010606Y004245D01*
X010668Y004268*
X010668D02*
X010762D01*
X010762D02*
X010825Y004245D01*
X010856Y004222*
X010856D02*
X010887Y004154D01*
X010887D02*
Y003950D01*
X010543Y004700D02*
X010981Y004472D01*
X010981D02*
Y004813D01*
X010543Y004700D02*
X011200D01*
X011543Y003950D02*
X012200D01*
X011543D02*
Y004154D01*
X011543D02*
X011575Y004222D01*
X011575D02*
X011606Y004245D01*
X011668Y004268*
X011668D02*
X011762D01*
X011762D02*
X011825Y004245D01*
X011856Y004222*
X011856D02*
X011887Y004154D01*
X011887D02*
Y003950D01*
X011543Y004768D02*
Y004540D01*
X011543D02*
X011825Y004518D01*
X011793Y004540*
X011793D02*
X011762Y004609D01*
X011762D02*
Y004677D01*
X011762D02*
X011793Y004745D01*
X011793D02*
X011856Y004790D01*
X011856D02*
X011950Y004813D01*
X011950D02*
X012012Y004790D01*
X012012D02*
X012106Y004768D01*
X012168Y004722*
X012168D02*
X012200Y004654D01*
X012200D02*
Y004586D01*
X012168Y004518*
X012168D02*
X012137Y004495D01*
X012137D02*
X012075Y004472D01*
X012543Y003950D02*
X013200D01*
X012543D02*
Y004154D01*
X012543D02*
X012575Y004222D01*
X012575D02*
X012606Y004245D01*
X012668Y004268*
X012668D02*
X012762D01*
X012762D02*
X012825Y004245D01*
X012856Y004222*
X012856D02*
X012887Y004154D01*
X012887D02*
Y003950D01*
X012637Y004745D02*
X012575Y004722D01*
X012575D02*
X012543Y004654D01*
X012543D02*
Y004609D01*
X012543D02*
X012575Y004540D01*
X012575D02*
X012668Y004495D01*
X012668D02*
X012825Y004472D01*
X012825D02*
X012981D01*
X012981D02*
X013106Y004495D01*
X013168Y004540*
X013168D02*
X013200Y004609D01*
Y004631*
X013200D02*
X013168Y004700D01*
X013168D02*
X013106Y004745D01*
X013012Y004768*
X013012D02*
X012981D01*
X012887Y004745*
X012887D02*
X012825Y004700D01*
X012793Y004631*
X012793D02*
Y004609D01*
X012793D02*
X012825Y004540D01*
X012825D02*
X012887Y004495D01*
X012887D02*
X012981Y004472D01*
X014543Y003950D02*
X015200D01*
X014543D02*
Y004154D01*
X014543D02*
X014575Y004222D01*
X014575D02*
X014606Y004245D01*
X014668Y004268*
X014668D02*
X014762D01*
X014762D02*
X014825Y004245D01*
X014856Y004222*
X014856D02*
X014887Y004154D01*
X014887D02*
Y003950D01*
X014543Y004586D02*
X014575Y004518D01*
X014637Y004495*
X014637D02*
X014700D01*
X014762Y004518*
X014762D02*
X014793Y004563D01*
X014793D02*
X014825Y004654D01*
X014825D02*
X014856Y004722D01*
X014856D02*
X014918Y004768D01*
X014918D02*
X014981Y004790D01*
X014981D02*
X015075D01*
X015075D02*
X015137Y004768D01*
X015137D02*
X015168Y004745D01*
X015168D02*
X015200Y004677D01*
Y004586*
X015168Y004518*
X015168D02*
X015137Y004495D01*
X015137D02*
X015075Y004472D01*
X015075D02*
X014981D01*
X014981D02*
X014918Y004495D01*
X014918D02*
X014856Y004540D01*
X014856D02*
X014825Y004609D01*
X014793Y004700*
X014793D02*
X014762Y004745D01*
X014762D02*
X014700Y004768D01*
X014637*
X014637D02*
X014575Y004745D01*
X014543Y004677*
X014543D02*
Y004586D01*
X015543Y003950D02*
X016200D01*
X015543D02*
Y004154D01*
X015543D02*
X015575Y004222D01*
X015575D02*
X015606Y004245D01*
X015668Y004268*
X015668D02*
X015762D01*
X015762D02*
X015825Y004245D01*
X015856Y004222*
X015856D02*
X015887Y004154D01*
X015887D02*
Y003950D01*
X015762Y004768D02*
X015856Y004745D01*
X015918Y004700*
X015918D02*
X015950Y004631D01*
X015950D02*
Y004609D01*
X015918Y004540*
X015918D02*
X015856Y004495D01*
X015762Y004472*
X015762D02*
X015731D01*
X015731D02*
X015637Y004495D01*
X015637D02*
X015575Y004540D01*
X015575D02*
X015543Y004609D01*
X015543D02*
Y004631D01*
X015543D02*
X015575Y004700D01*
X015637Y004745*
X015637D02*
X015762Y004768D01*
X015762D02*
X015918D01*
X015918D02*
X016075Y004745D01*
X016168Y004700*
X016168D02*
X016200Y004631D01*
X016200D02*
Y004586D01*
X016168Y004518*
X016168D02*
X016106Y004495D01*
X016543Y003950D02*
X017200D01*
X016543D02*
Y004154D01*
X016543D02*
X016575Y004222D01*
X016575D02*
X016606Y004245D01*
X016668Y004268*
X016668D02*
X016762D01*
X016762D02*
X016825Y004245D01*
X016856Y004222*
X016856D02*
X016887Y004154D01*
X016887D02*
Y003950D01*
X016668Y004472D02*
X016637Y004518D01*
X016637D02*
X016543Y004586D01*
X016543D02*
X017200D01*
X016543Y004927D02*
X016575Y004859D01*
X016668Y004813*
X016668D02*
X016825Y004790D01*
X016825D02*
X016918D01*
X016918D02*
X017075Y004813D01*
X017075D02*
X017168Y004859D01*
X017168D02*
X017200Y004927D01*
Y004972*
X017200D02*
X017168Y005040D01*
X017168D02*
X017075Y005086D01*
X016918Y005109*
X016918D02*
X016825D01*
X016668Y005086*
X016668D02*
X016575Y005040D01*
X016575D02*
X016543Y004972D01*
X016543D02*
Y004927D01*
X018543Y003950D02*
X019200D01*
X018543D02*
Y004154D01*
X018543D02*
X018575Y004222D01*
X018575D02*
X018606Y004245D01*
X018668Y004268*
X018668D02*
X018762D01*
X018762D02*
X018825Y004245D01*
X018856Y004222*
X018856D02*
X018887Y004154D01*
X018887D02*
Y003950D01*
X018668Y004472D02*
X018637Y004518D01*
X018637D02*
X018543Y004586D01*
X018543D02*
X019200D01*
X018700Y004813D02*
X018668D01*
X018668D02*
X018606Y004836D01*
X018575Y004859*
X018543Y004904*
X018543D02*
Y004995D01*
X018543D02*
X018575Y005040D01*
X018575D02*
X018606Y005063D01*
X018606D02*
X018668Y005086D01*
X018668D02*
X018731D01*
X018793Y005063*
X018793D02*
X018887Y005018D01*
X018887D02*
X019200Y004790D01*
X019200D02*
Y005109D01*
X019543Y003950D02*
X020200D01*
X019543D02*
Y004154D01*
X019543D02*
X019575Y004222D01*
X019575D02*
X019606Y004245D01*
X019668Y004268*
X019668D02*
X019762D01*
X019762D02*
X019825Y004245D01*
X019856Y004222*
X019856D02*
X019887Y004154D01*
X019887D02*
Y003950D01*
X019668Y004472D02*
X019637Y004518D01*
X019637D02*
X019543Y004586D01*
X019543D02*
X020200D01*
X019543Y004836D02*
Y005086D01*
X019543D02*
X019793Y004950D01*
X019793D02*
Y005018D01*
X019793D02*
X019825Y005063D01*
X019825D02*
X019856Y005086D01*
X019950Y005109*
X020012*
X020012D02*
X020106Y005086D01*
X020168Y005040*
X020168D02*
X020200Y004972D01*
X020200D02*
Y004904D01*
X020200D02*
X020168Y004836D01*
X020168D02*
X020137Y004813D01*
X020137D02*
X020075Y004790D01*
X020543Y003950D02*
X021200D01*
X020543D02*
Y004154D01*
X020543D02*
X020575Y004222D01*
X020575D02*
X020606Y004245D01*
X020668Y004268*
X020668D02*
X020762D01*
X020762D02*
X020825Y004245D01*
X020856Y004222*
X020856D02*
X020887Y004154D01*
X020887D02*
Y003950D01*
X020668Y004472D02*
X020637Y004518D01*
X020637D02*
X020543Y004586D01*
X020543D02*
X021200D01*
X020543Y005018D02*
X020981Y004790D01*
X020981D02*
Y005131D01*
X020543Y005018D02*
X021200D01*
X021443Y003950D02*
X022100D01*
X021443D02*
Y004154D01*
X021443D02*
X021475Y004222D01*
X021475D02*
X021506Y004245D01*
X021568Y004268*
X021568D02*
X021662D01*
X021662D02*
X021725Y004245D01*
X021756Y004222*
X021756D02*
X021787Y004154D01*
X021787D02*
Y003950D01*
X021568Y004472D02*
X021537Y004518D01*
X021537D02*
X021443Y004586D01*
X021443D02*
X022100D01*
X021443Y005086D02*
Y004859D01*
X021443D02*
X021725Y004836D01*
X021693Y004859*
X021693D02*
X021662Y004927D01*
X021662D02*
Y004995D01*
X021662D02*
X021693Y005063D01*
X021693D02*
X021756Y005109D01*
X021850Y005131*
X021850D02*
X021912Y005109D01*
X021912D02*
X022006Y005086D01*
X022068Y005040*
X022068D02*
X022100Y004972D01*
X022100D02*
Y004904D01*
X022100D02*
X022068Y004836D01*
X022068D02*
X022037Y004813D01*
X022037D02*
X021975Y004790D01*
X012826Y022006D02*
X012780Y021975D01*
X012780D02*
X012735Y021912D01*
X012735D02*
X012712Y021850D01*
X012712D02*
X012690Y021756D01*
Y021600*
X012712Y021506*
X012712D02*
X012735Y021443D01*
X012735D02*
X012780Y021381D01*
X012780D02*
X012826Y021350D01*
X012917*
X012962Y021381*
X012962D02*
X013008Y021443D01*
X013008D02*
X013030Y021506D01*
X013030D02*
X013053Y021600D01*
X013053D02*
Y021756D01*
X013053D02*
X013030Y021850D01*
X013030D02*
X013008Y021912D01*
X013008D02*
X012962Y021975D01*
X012962D02*
X012917Y022006D01*
X012826*
X013258D02*
Y021350D01*
Y022006D02*
X013553D01*
X013258Y021693D02*
X013440D01*
X013258Y021350D02*
X013553D01*
X013758Y022006D02*
Y021350D01*
Y022006D02*
X013940Y021350D01*
X014121Y022006D02*
X013940Y021350D01*
X014121Y022006D02*
Y021350D01*
X014849Y022006D02*
Y021350D01*
Y022006D02*
X015053D01*
X015053D02*
X015121Y021975D01*
X015121D02*
X015144Y021943D01*
X015144D02*
X015167Y021881D01*
Y021818*
X015167D02*
X015144Y021756D01*
X015144D02*
X015121Y021725D01*
X015121D02*
X015053Y021693D01*
X014849D02*
X015053D01*
X015053D02*
X015121Y021662D01*
X015121D02*
X015144Y021631D01*
X015144D02*
X015167Y021568D01*
X015167D02*
Y021475D01*
X015144Y021412*
X015144D02*
X015121Y021381D01*
X015121D02*
X015053Y021350D01*
X015053D02*
X014849D01*
X015553Y022006D02*
X015371Y021350D01*
X015553Y022006D02*
X015735Y021350D01*
X015440Y021568D02*
X015667D01*
X016258Y021912D02*
X016212Y021975D01*
X016212D02*
X016144Y022006D01*
X016144D02*
X016053D01*
X016053D02*
X015985Y021975D01*
X015940Y021912*
X015940D02*
Y021850D01*
X015962Y021787*
X015962D02*
X015985Y021756D01*
X016030Y021725*
X016030D02*
X016167Y021662D01*
X016167D02*
X016212Y021631D01*
X016212D02*
X016235Y021600D01*
X016258Y021537*
X016258D02*
Y021443D01*
X016258D02*
X016212Y021381D01*
X016212D02*
X016144Y021350D01*
X016144D02*
X016053D01*
X016053D02*
X015985Y021381D01*
X015940Y021443*
X016462Y022006D02*
Y021350D01*
X017008Y021850D02*
X016985Y021912D01*
X016985D02*
X016940Y021975D01*
X016894Y022006*
X016894D02*
X016803D01*
X016803D02*
X016758Y021975D01*
X016712Y021912*
X016712D02*
X016690Y021850D01*
X016667Y021756*
Y021600*
X016690Y021506*
X016712Y021443*
X016712D02*
X016758Y021381D01*
X016803Y021350*
X016803D02*
X016894D01*
X016894D02*
X016940Y021381D01*
X016985Y021443*
X016985D02*
X017008Y021506D01*
X018053Y021912D02*
X018008Y021975D01*
X017940Y022006*
X017849*
X017780Y021975*
X017780D02*
X017735Y021912D01*
X017735D02*
Y021850D01*
X017758Y021787*
X017758D02*
X017780Y021756D01*
X017780D02*
X017826Y021725D01*
X017962Y021662*
X017962D02*
X018008Y021631D01*
X018030Y021600*
X018030D02*
X018053Y021537D01*
X018053D02*
Y021443D01*
X018053D02*
X018008Y021381D01*
X017940Y021350*
X017849*
X017780Y021381*
X017780D02*
X017735Y021443D01*
X018326Y022006D02*
Y021475D01*
X018349Y021381*
X018394Y021350*
X018394D02*
X018440D01*
X018258Y021787D02*
X018417D01*
X018917D02*
Y021350D01*
Y021693D02*
X018871Y021756D01*
X018871D02*
X018826Y021787D01*
X018826D02*
X018758D01*
X018758D02*
X018712Y021756D01*
X018712D02*
X018667Y021693D01*
X018667D02*
X018644Y021600D01*
X018644D02*
Y021537D01*
X018644D02*
X018667Y021443D01*
X018667D02*
X018712Y021381D01*
X018712D02*
X018758Y021350D01*
X018826*
X018871Y021381*
X018871D02*
X018917Y021443D01*
X019121Y021787D02*
Y021350D01*
Y021662D02*
X019190Y021756D01*
X019235Y021787*
X019235D02*
X019303D01*
X019303D02*
X019349Y021756D01*
X019371Y021662*
X019371D02*
Y021350D01*
Y021662D02*
X019440Y021756D01*
X019485Y021787*
X019485D02*
X019553D01*
X019553D02*
X019599Y021756D01*
X019621Y021662*
X019621D02*
Y021350D01*
X019826Y021787D02*
Y021131D01*
Y021693D02*
X019871Y021756D01*
X019871D02*
X019917Y021787D01*
X019917D02*
X019985D01*
X019985D02*
X020030Y021756D01*
X020030D02*
X020076Y021693D01*
X020076D02*
X020099Y021600D01*
Y021537*
X020099D02*
X020076Y021443D01*
X020076D02*
X020030Y021381D01*
X020030D02*
X019985Y021350D01*
X019917*
X019871Y021381*
X019871D02*
X019826Y021443D01*
X020849Y021850D02*
Y021881D01*
X020871Y021943*
X020871D02*
X020894Y021975D01*
X020894D02*
X020940Y022006D01*
X021030*
X021030D02*
X021076Y021975D01*
X021099Y021943*
X021099D02*
X021121Y021881D01*
X021121D02*
Y021818D01*
X021121D02*
X021099Y021756D01*
X021053Y021662*
X021053D02*
X020826Y021350D01*
X021144*
X021599Y021693D02*
X021576Y021756D01*
X021508Y021787*
X021508D02*
X021440D01*
X021440D02*
X021371Y021756D01*
X021371D02*
X021349Y021693D01*
X021349D02*
X021371Y021631D01*
X021371D02*
X021417Y021600D01*
X021530Y021568*
X021530D02*
X021576Y021537D01*
X021576D02*
X021599Y021475D01*
Y021443*
X021599D02*
X021576Y021381D01*
X021508Y021350*
X021440*
X021371Y021381*
X021371D02*
X021349Y021443D01*
X021803Y021787D02*
X022053Y021350D01*
Y021787D02*
X021803Y021350D01*
X016300Y019056D02*
Y018587D01*
X016300D02*
X016322Y018493D01*
X016322D02*
X016368Y018431D01*
X016436Y018400*
X016481*
X016481D02*
X016550Y018431D01*
X016595Y018493*
X016595D02*
X016618Y018587D01*
X016618D02*
Y019056D01*
X016822Y018931D02*
X016868Y018962D01*
X016868D02*
X016936Y019056D01*
Y018400*
X013272Y020733D02*
X013227Y020796D01*
X013181Y020827*
X013181D02*
X013113D01*
X013113D02*
X013068Y020796D01*
X013022Y020733*
X013022D02*
X013000Y020640D01*
Y020577*
X013000D02*
X013022Y020483D01*
X013022D02*
X013068Y020421D01*
X013113Y020390*
X013113D02*
X013181D01*
X013181D02*
X013227Y020421D01*
X013272Y020483*
X020650Y014400D02*
Y014700D01*
Y014550D02*
X021050D01*
Y014850D02*
X020650D01*
X020800Y015000*
X020650Y015150*
X021050*
X013590Y020600D02*
G03X013590I-000400J0D01*
G54D19*
G01X012150Y003092D02*
X012388Y002600D01*
Y003092D02*
X012150Y002600D01*
X012542Y002998D02*
X012576Y003021D01*
X012576D02*
X012627Y003092D01*
Y002600*
X013865Y020750D02*
Y020771D01*
X013865D02*
X013881Y020815D01*
X013881D02*
X013897Y020837D01*
X013897D02*
X013929Y020859D01*
X013929D02*
X013993D01*
X014025Y020837*
X014025D02*
X014040Y020815D01*
X014040D02*
X014056Y020771D01*
X014056D02*
Y020728D01*
X014056D02*
X014040Y020684D01*
X014040D02*
X014009Y020618D01*
X014009D02*
X013850Y020400D01*
X014072*
X014311Y020859D02*
X014263Y020837D01*
X014263D02*
X014231Y020771D01*
X014231D02*
X014215Y020662D01*
X014215D02*
Y020596D01*
X014215D02*
X014231Y020487D01*
X014231D02*
X014263Y020421D01*
X014263D02*
X014311Y020400D01*
X014343*
X014390Y020421*
X014390D02*
X014422Y020487D01*
X014422D02*
X014438Y020596D01*
X014438D02*
Y020662D01*
X014438D02*
X014422Y020771D01*
X014422D02*
X014390Y020837D01*
X014390D02*
X014343Y020859D01*
X014311*
X014677D02*
X014629Y020837D01*
X014629D02*
X014597Y020771D01*
X014597D02*
X014581Y020662D01*
X014581D02*
Y020596D01*
X014581D02*
X014597Y020487D01*
X014597D02*
X014629Y020421D01*
X014629D02*
X014677Y020400D01*
X014709*
X014756Y020421*
X014756D02*
X014788Y020487D01*
X014788D02*
X014804Y020596D01*
X014804D02*
Y020662D01*
X014804D02*
X014788Y020771D01*
X014788D02*
X014756Y020837D01*
X014756D02*
X014709Y020859D01*
X014677*
X015043D02*
X014995Y020837D01*
X014995D02*
X014963Y020771D01*
X014963D02*
X014947Y020662D01*
X014947D02*
Y020596D01*
X014947D02*
X014963Y020487D01*
X014963D02*
X014995Y020421D01*
X014995D02*
X015043Y020400D01*
X015075*
X015122Y020421*
X015122D02*
X015154Y020487D01*
X015154D02*
X015170Y020596D01*
X015170D02*
Y020662D01*
X015170D02*
X015154Y020771D01*
X015154D02*
X015122Y020837D01*
X015122D02*
X015075Y020859D01*
X015043*
X015313Y020596D02*
X015600D01*
X015759Y020750D02*
Y020771D01*
X015759D02*
X015775Y020815D01*
X015775D02*
X015790Y020837D01*
X015790D02*
X015822Y020859D01*
X015822D02*
X015886D01*
X015918Y020837*
X015918D02*
X015934Y020815D01*
X015934D02*
X015950Y020771D01*
X015950D02*
Y020728D01*
X015934Y020684*
X015902Y020618*
X015902D02*
X015743Y020400D01*
X015965*
X016204Y020859D02*
X016156Y020837D01*
X016156D02*
X016125Y020771D01*
X016125D02*
X016109Y020662D01*
X016109D02*
Y020596D01*
X016109D02*
X016125Y020487D01*
X016125D02*
X016156Y020421D01*
X016156D02*
X016204Y020400D01*
X016204D02*
X016236D01*
X016284Y020421*
X016284D02*
X016315Y020487D01*
X016315D02*
X016331Y020596D01*
X016331D02*
Y020662D01*
X016331D02*
X016315Y020771D01*
X016315D02*
X016284Y020837D01*
X016284D02*
X016236Y020859D01*
X016204*
X016570D02*
X016522Y020837D01*
X016522D02*
X016490Y020771D01*
X016490D02*
X016475Y020662D01*
X016475D02*
Y020596D01*
X016475D02*
X016490Y020487D01*
X016490D02*
X016522Y020421D01*
X016522D02*
X016570Y020400D01*
X016602*
X016650Y020421*
X016650D02*
X016681Y020487D01*
X016681D02*
X016697Y020596D01*
X016697D02*
Y020662D01*
X016697D02*
X016681Y020771D01*
X016681D02*
X016650Y020837D01*
X016650D02*
X016602Y020859D01*
X016570*
X017063D02*
X016904Y020400D01*
X016840Y020859D02*
X017063D01*
G54D37*
X010500Y007050D02*
X011300D01*
Y005250*
X010500*
Y007050*
X009250Y005250D02*
Y007050D01*
X010050*
Y005250*
X009250*
X002400Y017910D02*
X007400D01*
Y005550*
X019150Y019150D02*
X020150D01*
Y016150*
X019150*
Y019150*
X011650Y007400D02*
X012650D01*
Y015400*
X011650*
Y007400*
X007900D02*
X008900D01*
Y015400*
X007900*
Y007400*
X002733Y002400D02*
Y001066D01*
X002733D02*
X002900Y000900D01*
X003066Y001066*
X003066D02*
Y002400D01*
X003150Y002900D02*
X022400D01*
Y002400*
X002400*
Y002900*
X003150*
X022066Y002400D02*
Y001066D01*
X022066D02*
X021900Y000900D01*
X021733Y001066*
X021733D02*
Y002400D01*
X021066D02*
Y001066D01*
X021066D02*
X020900Y000900D01*
X020733Y001066*
X020733D02*
Y002400D01*
X020066D02*
Y001066D01*
X020066D02*
X019900Y000900D01*
X019733Y001066*
X019733D02*
Y002400D01*
X019066D02*
Y001066D01*
X019066D02*
X018900Y000900D01*
X018733Y001066*
X018733D02*
Y002400D01*
X018066D02*
Y001066D01*
X018066D02*
X017900Y000900D01*
X017733Y001066*
X017733D02*
Y002400D01*
X017066D02*
Y001066D01*
X017066D02*
X016900Y000900D01*
X016733Y001066*
X016733D02*
Y002400D01*
X016066D02*
Y001066D01*
X016066D02*
X015900Y000900D01*
X015733Y001066*
X015733D02*
Y002400D01*
X015066D02*
Y001066D01*
X015066D02*
X014900Y000900D01*
X014733Y001066*
X014733D02*
Y002400D01*
X014066D02*
Y001066D01*
X014066D02*
X013900Y000900D01*
X013733Y001066*
X013733D02*
Y002400D01*
X013066D02*
Y001066D01*
X013066D02*
X012900Y000900D01*
X012733Y001066*
X012733D02*
Y002400D01*
X012066D02*
Y001066D01*
X012066D02*
X011900Y000900D01*
X011733Y001066*
X011733D02*
Y002400D01*
X011066D02*
Y001066D01*
X011066D02*
X010900Y000900D01*
X010733Y001066*
X010733D02*
Y002400D01*
X010066D02*
Y001066D01*
X010066D02*
X009900Y000900D01*
X009733Y001066*
X009733D02*
Y002400D01*
X009066D02*
Y001066D01*
X009066D02*
X008900Y000900D01*
X008733Y001066*
X008733D02*
Y002400D01*
X008066D02*
Y001066D01*
X008066D02*
X007900Y000900D01*
X007733Y001066*
X007733D02*
Y002400D01*
X007066D02*
Y001066D01*
X007066D02*
X006900Y000900D01*
X006733Y001066*
X006733D02*
Y002400D01*
X006066D02*
Y001066D01*
X006066D02*
X005900Y000900D01*
X005733Y001066*
X005733D02*
Y002400D01*
X005066D02*
Y001066D01*
X005066D02*
X004900Y000900D01*
X004733Y001066*
X004733D02*
Y002400D01*
X004066D02*
Y001066D01*
X004066D02*
X003900Y000900D01*
X003733Y001066*
X003733D02*
Y002400D01*
X010150Y017109D02*
Y016650D01*
Y017109D02*
X010293D01*
X010340Y017087*
X010340D02*
X010356Y017065D01*
X010356D02*
X010372Y017021D01*
X010372D02*
Y016978D01*
X010372D02*
X010356Y016934D01*
X010356D02*
X010340Y016912D01*
X010340D02*
X010293Y016890D01*
X010293D02*
X010150D01*
X010261D02*
X010372Y016650D01*
X010531Y017000D02*
Y017021D01*
X010531D02*
X010547Y017065D01*
X010547D02*
X010563Y017087D01*
X010563D02*
X010595Y017109D01*
X010659*
X010690Y017087*
X010690D02*
X010706Y017065D01*
X010706D02*
X010722Y017021D01*
X010722D02*
Y016978D01*
X010722D02*
X010706Y016934D01*
X010706D02*
X010675Y016868D01*
X010675D02*
X010515Y016650D01*
X010515D02*
X010738D01*
X004400Y018506D02*
X004518Y018079D01*
X004636Y018506D02*
X004518Y018079D01*
X004769Y018506D02*
Y018079D01*
Y018506D02*
X004902D01*
X004946Y018486*
X004946D02*
X004961Y018465D01*
X004961D02*
X004976Y018425D01*
Y018384*
X004961Y018343*
X004961D02*
X004946Y018323D01*
X004946D02*
X004902Y018303D01*
X004769*
X004872D02*
X004976Y018079D01*
X005109Y018425D02*
X005138Y018445D01*
X005138D02*
X005183Y018506D01*
Y018079*
X018960Y019849D02*
X019182Y019389D01*
Y019849D02*
X018960Y019389D01*
X019437Y019849D02*
Y019389D01*
X019325Y019849D02*
X019548D01*
X019819D02*
X019691Y019389D01*
X019819Y019849D02*
X019946Y019389D01*
X019739Y019542D02*
X019898D01*
X020089Y019849D02*
Y019389D01*
X020089D02*
X020280D01*
X010150Y016109D02*
Y015650D01*
Y016109D02*
X010293D01*
X010340Y016087*
X010340D02*
X010356Y016065D01*
X010356D02*
X010372Y016021D01*
X010372D02*
Y015978D01*
X010372D02*
X010356Y015934D01*
X010356D02*
X010340Y015912D01*
X010340D02*
X010293Y015890D01*
X010293D02*
X010150D01*
X010261D02*
X010372Y015650D01*
X010515Y016021D02*
X010547Y016043D01*
X010547D02*
X010595Y016109D01*
Y015650*
X011660Y007249D02*
Y006789D01*
Y007249D02*
X011803D01*
X011850Y007227*
X011850D02*
X011866Y007205D01*
X011866D02*
X011882Y007161D01*
X011882D02*
Y007117D01*
X011882D02*
X011866Y007074D01*
X011866D02*
X011850Y007052D01*
X011850D02*
X011803Y007030D01*
X011660*
X011771D02*
X011882Y006789D01*
X012025Y007249D02*
Y006789D01*
Y007249D02*
X012248Y006789D01*
Y007249D02*
Y006789D01*
X012407Y007139D02*
Y007161D01*
X012407D02*
X012423Y007205D01*
X012423D02*
X012439Y007227D01*
X012439D02*
X012471Y007249D01*
X012535*
X012566Y007227*
X012566D02*
X012582Y007205D01*
X012582D02*
X012598Y007161D01*
X012598D02*
Y007117D01*
X012598D02*
X012582Y007074D01*
X012582D02*
X012550Y007008D01*
X012550D02*
X012391Y006789D01*
X012391D02*
X012614D01*
X008000Y007209D02*
Y006750D01*
Y007209D02*
X008143D01*
X008190Y007187*
X008190D02*
X008206Y007165D01*
X008206D02*
X008222Y007121D01*
X008222D02*
Y007078D01*
X008222D02*
X008206Y007034D01*
X008206D02*
X008190Y007012D01*
X008190D02*
X008143Y006990D01*
X008143D02*
X008000D01*
X008111D02*
X008222Y006750D01*
X008365Y007209D02*
Y006750D01*
Y007209D02*
X008588Y006750D01*
Y007209D02*
Y006750D01*
X008731Y007121D02*
X008763Y007143D01*
X008763D02*
X008811Y007209D01*
Y006750*
X003388Y021000D02*
X003372Y021043D01*
X003372D02*
X003340Y021087D01*
X003340D02*
X003309Y021109D01*
X003245*
X003213Y021087*
X003213D02*
X003181Y021043D01*
X003181D02*
X003165Y021000D01*
X003165D02*
X003150Y020934D01*
Y020825*
X003165Y020759*
X003165D02*
X003181Y020715D01*
X003181D02*
X003213Y020671D01*
X003213D02*
X003245Y020650D01*
X003309*
X003340Y020671*
X003340D02*
X003372Y020715D01*
X003372D02*
X003388Y020759D01*
X003531Y021021D02*
X003563Y021043D01*
X003563D02*
X003611Y021109D01*
Y020650*
X020940Y017400D02*
X021400D01*
X020940D02*
Y017543D01*
X020940D02*
X020962Y017590D01*
X020962D02*
X020984Y017606D01*
X020984D02*
X021028Y017622D01*
X021028D02*
X021071D01*
X021071D02*
X021115Y017606D01*
X021115D02*
X021137Y017590D01*
X021137D02*
X021159Y017543D01*
Y017400*
Y017511D02*
X021400Y017622D01*
X020940Y017797D02*
Y017972D01*
X020940D02*
X021115Y017877D01*
X021115D02*
Y017925D01*
X021115D02*
X021137Y017956D01*
X021137D02*
X021159Y017972D01*
X021159D02*
X021225Y017988D01*
X021225D02*
X021268D01*
X021268D02*
X021334Y017972D01*
X021334D02*
X021378Y017940D01*
X021378D02*
X021400Y017893D01*
Y017845*
X021378Y017797*
X021378D02*
X021356Y017781D01*
X021356D02*
X021312Y017765D01*
X011738Y005650D02*
X011722Y005693D01*
X011722D02*
X011690Y005737D01*
X011690D02*
X011659Y005759D01*
X011595*
X011563Y005737*
X011563D02*
X011531Y005693D01*
X011531D02*
X011515Y005650D01*
X011515D02*
X011500Y005584D01*
Y005475*
X011515Y005409*
X011515D02*
X011531Y005365D01*
X011531D02*
X011563Y005321D01*
X011563D02*
X011595Y005300D01*
X011659*
X011690Y005321*
X011690D02*
X011722Y005365D01*
X011722D02*
X011738Y005409D01*
X011913Y005759D02*
X012088D01*
X012088D02*
X011993Y005584D01*
X012040*
X012040D02*
X012072Y005562D01*
X012072D02*
X012088Y005540D01*
X012088D02*
X012104Y005475D01*
X012104D02*
Y005431D01*
X012104D02*
X012088Y005365D01*
X012088D02*
X012056Y005321D01*
X012056D02*
X012009Y005300D01*
X011961*
X011913Y005321*
X011913D02*
X011897Y005343D01*
X011897D02*
X011881Y005387D01*
X008688Y005650D02*
X008672Y005693D01*
X008672D02*
X008640Y005737D01*
X008640D02*
X008609Y005759D01*
X008545*
X008513Y005737*
X008513D02*
X008481Y005693D01*
X008481D02*
X008465Y005650D01*
X008465D02*
X008450Y005584D01*
Y005475*
X008465Y005409*
X008465D02*
X008481Y005365D01*
X008481D02*
X008513Y005321D01*
X008513D02*
X008545Y005300D01*
X008609*
X008640Y005321*
X008640D02*
X008672Y005365D01*
X008672D02*
X008688Y005409D01*
X008847Y005650D02*
Y005671D01*
X008847D02*
X008863Y005715D01*
X008863D02*
X008879Y005737D01*
X008879D02*
X008911Y005759D01*
X008975*
X009006Y005737*
X009006D02*
X009022Y005715D01*
X009022D02*
X009038Y005671D01*
X009038D02*
Y005628D01*
X009038D02*
X009022Y005584D01*
X009022D02*
X008990Y005518D01*
X008990D02*
X008831Y005300D01*
X008831D02*
X009054D01*
G54D57*
X008750Y016900D02*
X009150D01*
X011550D02*
X011950D01*
X009150Y017300D02*
X011550D01*
Y016500*
X009150*
Y017300*
X011550Y015900D02*
X011950D01*
X008750D02*
X009150D01*
Y015500D02*
X011550D01*
Y016300*
X009150*
Y015500*
X021150Y018850D02*
Y019250D01*
Y016050D02*
Y016450D01*
X021550D02*
Y018850D01*
X020750*
Y016450*
X021550*
X021150Y008900D02*
Y009400D01*
X020650Y013650D02*
Y014050D01*
X021350Y012700D02*
X021850Y013200D01*
X020650D02*
X021150Y012700D01*
X021350Y012500D02*
X021850Y012000D01*
X020650D02*
X021150Y012500D01*
Y011300D02*
Y011800D01*
X020650Y007800D02*
X021650D01*
Y006800D02*
X020650Y007800D01*
Y008600*
X020750Y008700*
X021050*
X021150Y008600*
Y007300D02*
Y007800D01*
Y008600*
X021250Y008700*
X021650*
Y006200D02*
X020650D01*
Y007000*
X020750Y007100*
X021050*
X021150Y007000*
Y006200*
X021650Y009400D02*
X020650D01*
X021650Y008400*
X020650Y009700D02*
X021650D01*
Y010600*
X020950Y010100D02*
X021950D01*
Y011000*
X021650Y010800D02*
X020650Y011800D01*
X021650*
X020950Y013650D02*
Y014050D01*
X021350Y013650*
Y014050*
X021850Y013650D02*
X021550D01*
Y014050*
X021850*
G54D58*
X010700Y010590D02*
Y010168D01*
X010700D02*
X010720Y010084D01*
X010761Y010028*
X010822Y010000*
X010822D02*
X010863D01*
X010863D02*
X010925Y010028D01*
X010965Y010084*
X010965D02*
X010986Y010168D01*
X010986D02*
Y010590D01*
X011211D02*
X011436D01*
X011436D02*
X011313Y010365D01*
X011313D02*
X011375D01*
X011375D02*
X011415Y010337D01*
X011415D02*
X011436Y010309D01*
X011456Y010225*
X011456D02*
Y010168D01*
X011456D02*
X011436Y010084D01*
X011395Y010028*
X011334Y010000*
X011272*
X011272D02*
X011211Y010028D01*
X011190Y010056*
X011190D02*
X011170Y010112D01*
X010772Y014540D02*
X010731Y014512D01*
X010731D02*
X010690Y014456D01*
X010690D02*
X010670Y014400D01*
X010650Y014315*
X010650D02*
Y014175D01*
X010670Y014090*
X010670D02*
X010690Y014034D01*
X010690D02*
X010731Y013978D01*
X010731D02*
X010772Y013950D01*
X010772D02*
X010854D01*
X010854D02*
X010895Y013978D01*
X010936Y014034*
X010956Y014090*
X010956D02*
X010977Y014175D01*
Y014315*
X010977D02*
X010956Y014400D01*
X010956D02*
X010936Y014456D01*
X010895Y014512*
X010895D02*
X010854Y014540D01*
X010854D02*
X010772D01*
X010834Y014062D02*
X010956Y013893D01*
X011202Y014540D02*
X011427D01*
X011427D02*
X011304Y014315D01*
X011304D02*
X011365D01*
X011365D02*
X011406Y014287D01*
X011406D02*
X011427Y014259D01*
X011447Y014175*
X011447D02*
Y014118D01*
X011447D02*
X011427Y014034D01*
X011386Y013978*
X011325Y013950*
X011263*
X011263D02*
X011202Y013978D01*
X011181Y014006*
X011181D02*
X011161Y014062D01*
X010822Y008590D02*
X010781Y008562D01*
X010781D02*
X010740Y008506D01*
X010740D02*
X010720Y008450D01*
X010700Y008365*
X010700D02*
Y008225D01*
X010720Y008140*
X010720D02*
X010740Y008084D01*
X010740D02*
X010781Y008028D01*
X010781D02*
X010822Y008000D01*
X010822D02*
X010904D01*
X010904D02*
X010945Y008028D01*
X010986Y008084*
X011006Y008140*
X011006D02*
X011027Y008225D01*
Y008365*
X011027D02*
X011006Y008450D01*
X011006D02*
X010986Y008506D01*
X010945Y008562*
X010945D02*
X010904Y008590D01*
X010904D02*
X010822D01*
X010884Y008112D02*
X011006Y007943D01*
X011231Y008450D02*
Y008478D01*
X011231D02*
X011252Y008534D01*
X011272Y008562*
X011272D02*
X011313Y008590D01*
X011313D02*
X011395D01*
X011395D02*
X011436Y008562D01*
X011436D02*
X011456Y008534D01*
X011456D02*
X011477Y008478D01*
Y008421*
X011477D02*
X011456Y008365D01*
X011456D02*
X011415Y008281D01*
X011415D02*
X011211Y008000D01*
X011497*
X010822Y012290D02*
X010781Y012262D01*
X010781D02*
X010740Y012206D01*
X010740D02*
X010720Y012150D01*
X010700Y012065*
X010700D02*
Y011925D01*
X010720Y011840*
X010720D02*
X010740Y011784D01*
X010740D02*
X010781Y011728D01*
X010781D02*
X010822Y011700D01*
X010822D02*
X010904D01*
X010904D02*
X010945Y011728D01*
X010986Y011784*
X011006Y011840*
X011006D02*
X011027Y011925D01*
Y012065*
X011027D02*
X011006Y012150D01*
X011006D02*
X010986Y012206D01*
X010945Y012262*
X010945D02*
X010904Y012290D01*
X010904D02*
X010822D01*
X010884Y011812D02*
X011006Y011643D01*
X011211Y012178D02*
X011252Y012206D01*
X011313Y012290*
X011313D02*
Y011700D01*
G74*
X000000Y000000D02*
M02*
