*%FSLAX24Y24*%
*%MOIN*%
G01*
%ADD11C,0.0050*%
%ADD12C,0.0060*%
%ADD13C,0.0072*%
%ADD14C,0.0073*%
%ADD15C,0.0080*%
%ADD16C,0.0100*%
%ADD17C,0.0120*%
%ADD18C,0.0200*%
%ADD19C,0.0260*%
%ADD20C,0.0300*%
%ADD21C,0.0350*%
%ADD22C,0.0380*%
%ADD23C,0.0450*%
%ADD24C,0.0500*%
%ADD25C,0.0530*%
%ADD26C,0.0550*%
%ADD27C,0.0580*%
%ADD28C,0.0620*%
%ADD29C,0.0660*%
%ADD30C,0.0700*%
%ADD31C,0.0750*%
%ADD32C,0.0780*%
%ADD33C,0.0830*%
%ADD34C,0.0950*%
%ADD35C,0.1400*%
%ADD36C,0.1800*%
%ADD37C,0.1880*%
%ADD38R,0.0620X0.0620*%
%ADD39R,0.0700X0.0700*%
%ADD40R,0.0780X0.0780*%
G54D12*
X89518Y73865D02*
X89556Y73903D01*
X89518Y73865D02*
X89461Y73827D01*
X89385Y73789D01*
X89289Y73770D01*
X89213D01*
X89118Y73789D01*
X89042Y73827D01*
X88985Y73865D01*
X88947Y73903D01*
X89442Y73827D02*
X89518Y73865D01*
X89442Y73827D02*
X89385Y73808D01*
X89289Y73789D01*
X89213D01*
X89118Y73808D01*
X89061Y73827D01*
X88985Y73865D01*
X89289Y74208D02*
X89347Y74227D01*
X89289Y74208D02*
X89251Y74170D01*
X89232Y74113D01*
Y74094D01*
X89251Y74037D01*
X89289Y73999D01*
X89347Y73979D01*
X89366D01*
X89423Y73999D01*
X89461Y74037D01*
X89480Y74094D01*
Y74113D01*
X89461Y74170D01*
X89423Y74208D01*
X89347Y74227D01*
X89251D01*
X89156Y74208D01*
X89099Y74170D01*
X89080Y74113D01*
Y74075D01*
X89099Y74018D01*
X89137Y73999D01*
X89404Y74336D02*
X89423Y74374D01*
X89480Y74431D01*
X89080D01*
X89423Y74857D02*
X89461Y74838D01*
X89480Y74781D01*
Y74743D01*
X89461Y74686D01*
X89404Y74648D01*
X89309Y74629D01*
X89213D01*
X89137Y74648D01*
X89099Y74686D01*
X89080Y74743D01*
Y74762D01*
X89099Y74819D01*
X89137Y74857D01*
X89194Y74876D01*
X89213D01*
X89270Y74857D01*
X89309Y74819D01*
X89328Y74762D01*
Y74743D01*
X89309Y74686D01*
X89270Y74648D01*
X89213Y74629D01*
X89556Y74964D02*
X89518Y75002D01*
X89461Y75040D01*
X89385Y75078D01*
X89289Y75097D01*
X89213D01*
X89118Y75078D01*
X89042Y75040D01*
X88985Y75002D01*
X88947Y74964D01*
X89442Y75040D02*
X89518Y75002D01*
X89442Y75040D02*
X89385Y75059D01*
X89289Y75078D01*
X89213D01*
X89118Y75059D01*
X89061Y75040D01*
X88985Y75002D01*
X89423Y75737D02*
X89461Y75718D01*
X89480Y75661D01*
Y75623D01*
X89461Y75566D01*
X89404Y75528D01*
X89309Y75509D01*
X89213D01*
X89137Y75528D01*
X89099Y75566D01*
X89080Y75623D01*
Y75642D01*
X89099Y75699D01*
X89137Y75737D01*
X89194Y75756D01*
X89213D01*
X89270Y75737D01*
X89309Y75699D01*
X89328Y75642D01*
Y75623D01*
X89309Y75566D01*
X89270Y75528D01*
X89213Y75509D01*
X89385Y75863D02*
X89404D01*
X89442Y75882D01*
X89461Y75901D01*
X89480Y75939D01*
Y76015D01*
X89461Y76053D01*
X89442Y76072D01*
X89404Y76091D01*
X89366D01*
X89328Y76072D01*
X89270Y76034D01*
X89080Y75844D01*
Y76110D01*
X89213Y76200D02*
X89480Y76390D01*
X89213Y76486D02*
Y76200D01*
X89080Y76390D02*
X89480D01*
X89251Y76556D02*
Y76899D01*
X89461Y77055D02*
X89480Y77112D01*
X89461Y77055D02*
X89423Y77036D01*
X89385D01*
X89347Y77055D01*
X89328Y77093D01*
X89309Y77169D01*
X89289Y77226D01*
X89251Y77264D01*
X89213Y77284D01*
X89156D01*
X89118Y77264D01*
X89099Y77245D01*
X89080Y77188D01*
Y77112D01*
X89099Y77055D01*
X89118Y77036D01*
X89156Y77017D01*
X89213D01*
X89251Y77036D01*
X89289Y77074D01*
X89309Y77131D01*
X89328Y77207D01*
X89347Y77245D01*
X89385Y77264D01*
X89423D01*
X89461Y77245D01*
X89480Y77188D01*
Y77112D01*
Y77411D02*
Y77621D01*
X89328Y77506D01*
Y77563D01*
X89309Y77602D01*
X89289Y77621D01*
X89232Y77640D01*
X89194D01*
X89137Y77621D01*
X89099Y77583D01*
X89080Y77525D01*
Y77468D01*
X89099Y77411D01*
X89118Y77392D01*
X89156Y77373D01*
X89480Y77767D02*
Y77977D01*
X89328Y77862D01*
Y77920D01*
X89309Y77958D01*
X89289Y77977D01*
X89232Y77996D01*
X89194D01*
X89137Y77977D01*
X89099Y77939D01*
X89080Y77881D01*
Y77824D01*
X89099Y77767D01*
X89118Y77748D01*
X89156Y77729D01*
X89480Y78123D02*
Y78333D01*
X89328Y78219D01*
Y78276D01*
X89309Y78314D01*
X89289Y78333D01*
X89232Y78352D01*
X89194D01*
X89137Y78333D01*
X89099Y78295D01*
X89080Y78238D01*
Y78180D01*
X89099Y78123D01*
X89118Y78104D01*
X89156Y78085D01*
X100630Y73946D02*
X100897Y73870D01*
Y74022D02*
X100630Y73946D01*
Y74099D02*
X100897Y74022D01*
Y74175D02*
X100630Y74099D01*
Y74344D02*
X100897Y74268D01*
Y74420D02*
X100630Y74344D01*
Y74497D02*
X100897Y74420D01*
Y74573D02*
X100630Y74497D01*
Y74742D02*
X100897Y74666D01*
Y74818D02*
X100630Y74742D01*
Y74895D02*
X100897Y74818D01*
Y74971D02*
X100630Y74895D01*
X100649Y75064D02*
X100668Y75083D01*
X100649Y75064D02*
X100630Y75083D01*
X100649Y75102D01*
X100668Y75083D01*
X100839Y75399D02*
X100878Y75380D01*
X100897Y75323D01*
Y75266D01*
X100878Y75209D01*
X100839Y75190D01*
X100801Y75209D01*
X100782Y75247D01*
X100763Y75342D01*
X100744Y75380D01*
X100706Y75399D01*
X100687D01*
X100649Y75380D01*
X100630Y75323D01*
Y75266D01*
X100649Y75209D01*
X100687Y75190D01*
X100897Y75483D02*
X100630Y75692D01*
Y75483D02*
X100897Y75692D01*
X101030Y75833D02*
X100706D01*
X100649Y75852D01*
X100630Y75891D01*
Y75929D01*
X100897Y75910D02*
Y75776D01*
X100782Y75986D02*
Y76214D01*
X100820D01*
X100859Y76195D01*
X100878Y76176D01*
X100897Y76138D01*
Y76081D01*
X100878Y76043D01*
X100839Y76005D01*
X100782Y75986D01*
X100744D01*
X100687Y76005D01*
X100649Y76043D01*
X100630Y76081D01*
Y76138D01*
X100649Y76176D01*
X100687Y76214D01*
X100878Y76490D02*
X100839Y76528D01*
X100878Y76490D02*
X100897Y76452D01*
Y76395D01*
X100878Y76357D01*
X100839Y76319D01*
X100782Y76300D01*
X100744D01*
X100687Y76319D01*
X100649Y76357D01*
X100630Y76395D01*
Y76452D01*
X100649Y76490D01*
X100687Y76528D01*
X100630Y76614D02*
X101030D01*
X100878Y76671D02*
X100820Y76614D01*
X100878Y76671D02*
X100897Y76709D01*
Y76767D01*
X100878Y76805D01*
X100820Y76824D01*
X100630D01*
X100649Y76928D02*
X100668Y76947D01*
X100649Y76928D02*
X100630Y76947D01*
X100649Y76966D01*
X100668Y76947D01*
X100878Y77245D02*
X100839Y77283D01*
X100878Y77245D02*
X100897Y77206D01*
Y77149D01*
X100878Y77111D01*
X100839Y77073D01*
X100782Y77054D01*
X100744D01*
X100687Y77073D01*
X100649Y77111D01*
X100630Y77149D01*
Y77206D01*
X100649Y77245D01*
X100687Y77283D01*
X100878Y77425D02*
X100897Y77464D01*
X100878Y77425D02*
X100839Y77387D01*
X100782Y77368D01*
X100744D01*
X100687Y77387D01*
X100649Y77425D01*
X100630Y77464D01*
Y77521D01*
X100649Y77559D01*
X100687Y77597D01*
X100744Y77616D01*
X100782D01*
X100839Y77597D01*
X100878Y77559D01*
X100897Y77521D01*
Y77464D01*
Y77703D02*
X100630D01*
X100820D02*
X100878Y77761D01*
X100897Y77799D01*
Y77856D01*
X100878Y77894D01*
X100820Y77913D01*
X100630D01*
X100820D02*
X100878Y77970D01*
X100897Y78008D01*
Y78065D01*
X100878Y78103D01*
X100820Y78122D01*
X100630D01*
X102685Y74116D02*
X102723Y74097D01*
X102761Y74059D01*
X102780Y74020D01*
Y73944D01*
X102761Y73906D01*
X102723Y73868D01*
X102685Y73849D01*
X102628Y73830D01*
X102532D01*
X102475Y73849D01*
X102437Y73868D01*
X102399Y73906D01*
X102380Y73944D01*
Y74020D01*
X102399Y74059D01*
X102437Y74097D01*
X102475Y74116D01*
X102380Y74228D02*
X102780D01*
X102628Y74285D02*
X102570Y74228D01*
X102628Y74285D02*
X102647Y74323D01*
Y74380D01*
X102628Y74418D01*
X102570Y74437D01*
X102380D01*
X102532Y74542D02*
Y74771D01*
X102570D01*
X102609Y74752D01*
X102628Y74733D01*
X102647Y74695D01*
Y74637D01*
X102628Y74599D01*
X102589Y74561D01*
X102532Y74542D01*
X102494D01*
X102437Y74561D01*
X102399Y74599D01*
X102380Y74637D01*
Y74695D01*
X102399Y74733D01*
X102437Y74771D01*
X102628Y75047D02*
X102589Y75085D01*
X102628Y75047D02*
X102647Y75009D01*
Y74952D01*
X102628Y74914D01*
X102589Y74875D01*
X102532Y74856D01*
X102494D01*
X102437Y74875D01*
X102399Y74914D01*
X102380Y74952D01*
Y75009D01*
X102399Y75047D01*
X102437Y75085D01*
X102380Y75171D02*
X102780D01*
X102647Y75361D02*
X102456Y75171D01*
X102532Y75247D02*
X102380Y75380D01*
X102628Y75814D02*
X102647Y75852D01*
X102628Y75814D02*
X102589Y75776D01*
X102532Y75757D01*
X102494D01*
X102437Y75776D01*
X102399Y75814D01*
X102380Y75852D01*
Y75910D01*
X102399Y75948D01*
X102437Y75986D01*
X102494Y76005D01*
X102532D01*
X102589Y75986D01*
X102628Y75948D01*
X102647Y75910D01*
Y75852D01*
Y76092D02*
X102456D01*
X102399Y76111D01*
X102380Y76149D01*
Y76207D01*
X102399Y76245D01*
X102456Y76302D01*
X102380D02*
X102647D01*
X102780Y76464D02*
X102456D01*
X102399Y76483D01*
X102380Y76521D01*
Y76559D01*
X102647Y76540D02*
Y76407D01*
X102628Y76987D02*
X102647Y77026D01*
X102628Y76987D02*
X102589Y76949D01*
X102532Y76930D01*
X102494D01*
X102437Y76949D01*
X102399Y76987D01*
X102380Y77026D01*
Y77083D01*
X102399Y77121D01*
X102437Y77159D01*
X102494Y77178D01*
X102532D01*
X102589Y77159D01*
X102628Y77121D01*
X102647Y77083D01*
Y77026D01*
Y77265D02*
X102456D01*
X102399Y77284D01*
X102380Y77323D01*
Y77380D01*
X102399Y77418D01*
X102456Y77475D01*
X102380D02*
X102647D01*
Y77580D02*
X102380D01*
X102532D02*
X102589Y77599D01*
X102628Y77637D01*
X102647Y77675D01*
Y77732D01*
X102532Y78082D02*
Y78311D01*
X102570D01*
X102609Y78292D01*
X102628Y78273D01*
X102647Y78235D01*
Y78178D01*
X102628Y78140D01*
X102589Y78101D01*
X102532Y78082D01*
X102494D01*
X102437Y78101D01*
X102399Y78140D01*
X102380Y78178D01*
Y78235D01*
X102399Y78273D01*
X102437Y78311D01*
X102380Y78625D02*
X102780D01*
X102628Y78587D02*
X102589Y78625D01*
X102628Y78587D02*
X102647Y78549D01*
Y78492D01*
X102628Y78454D01*
X102589Y78416D01*
X102532Y78397D01*
X102494D01*
X102437Y78416D01*
X102399Y78454D01*
X102380Y78492D01*
Y78549D01*
X102399Y78587D01*
X102437Y78625D01*
X102456Y78732D02*
X102647D01*
X102456D02*
X102399Y78751D01*
X102380Y78789D01*
Y78846D01*
X102399Y78884D01*
X102456Y78941D01*
X102380D02*
X102647D01*
X102628Y79236D02*
X102589Y79275D01*
X102628Y79236D02*
X102647Y79198D01*
Y79141D01*
X102628Y79103D01*
X102589Y79065D01*
X102532Y79046D01*
X102494D01*
X102437Y79065D01*
X102399Y79103D01*
X102380Y79141D01*
Y79198D01*
X102399Y79236D01*
X102437Y79275D01*
X102380Y79589D02*
X102647D01*
X102628Y79551D02*
X102589Y79589D01*
X102628Y79551D02*
X102647Y79513D01*
Y79455D01*
X102628Y79417D01*
X102589Y79379D01*
X102532Y79360D01*
X102494D01*
X102437Y79379D01*
X102399Y79417D01*
X102380Y79455D01*
Y79513D01*
X102399Y79551D01*
X102437Y79589D01*
X102456Y79753D02*
X102780D01*
X102456D02*
X102399Y79772D01*
X102380Y79810D01*
Y79848D01*
X102647Y79829D02*
Y79695D01*
X102780Y79943D02*
X102761Y79962D01*
X102780Y79981D01*
X102799Y79962D01*
X102780Y79943D01*
X102647Y79962D02*
X102380D01*
X102628Y80109D02*
X102647Y80147D01*
X102628Y80109D02*
X102589Y80071D01*
X102532Y80052D01*
X102494D01*
X102437Y80071D01*
X102399Y80109D01*
X102380Y80147D01*
Y80204D01*
X102399Y80242D01*
X102437Y80280D01*
X102494Y80299D01*
X102532D01*
X102589Y80280D01*
X102628Y80242D01*
X102647Y80204D01*
Y80147D01*
Y80387D02*
X102380D01*
X102570D02*
X102628Y80444D01*
X102647Y80482D01*
Y80539D01*
X102628Y80577D01*
X102570Y80596D01*
X102380D01*
Y80929D02*
X102647D01*
X102628Y80891D02*
X102589Y80929D01*
X102628Y80891D02*
X102647Y80853D01*
Y80796D01*
X102628Y80758D01*
X102589Y80720D01*
X102532Y80701D01*
X102494D01*
X102437Y80720D01*
X102399Y80758D01*
X102380Y80796D01*
Y80853D01*
X102399Y80891D01*
X102437Y80929D01*
X102380Y81036D02*
X102780D01*
X102647Y81434D02*
X102247D01*
X102589D02*
X102628Y81472D01*
X102647Y81510D01*
Y81567D01*
X102628Y81605D01*
X102589Y81644D01*
X102532Y81663D01*
X102494D01*
X102437Y81644D01*
X102399Y81605D01*
X102380Y81567D01*
Y81510D01*
X102399Y81472D01*
X102437Y81434D01*
X102380Y81748D02*
X102647D01*
X102589Y81767D02*
X102532Y81748D01*
X102589Y81767D02*
X102628Y81805D01*
X102647Y81844D01*
Y81901D01*
X102628Y81994D02*
X102647Y82032D01*
X102628Y81994D02*
X102589Y81956D01*
X102532Y81937D01*
X102494D01*
X102437Y81956D01*
X102399Y81994D01*
X102380Y82032D01*
Y82089D01*
X102399Y82127D01*
X102437Y82165D01*
X102494Y82184D01*
X102532D01*
X102589Y82165D01*
X102628Y82127D01*
X102647Y82089D01*
Y82032D01*
Y82501D02*
X102342D01*
X102285Y82481D01*
X102266Y82462D01*
X102247Y82424D01*
Y82367D01*
X102266Y82329D01*
X102589Y82501D02*
X102628Y82462D01*
X102647Y82424D01*
Y82367D01*
X102628Y82329D01*
X102589Y82291D01*
X102532Y82272D01*
X102494D01*
X102437Y82291D01*
X102399Y82329D01*
X102380Y82367D01*
Y82424D01*
X102399Y82462D01*
X102437Y82501D01*
X102380Y82607D02*
X102647D01*
X102589Y82626D02*
X102532Y82607D01*
X102589Y82626D02*
X102628Y82664D01*
X102647Y82702D01*
Y82760D01*
Y83024D02*
X102380D01*
X102589D02*
X102628Y82986D01*
X102647Y82948D01*
Y82891D01*
X102628Y82853D01*
X102589Y82815D01*
X102532Y82796D01*
X102494D01*
X102437Y82815D01*
X102399Y82853D01*
X102380Y82891D01*
Y82948D01*
X102399Y82986D01*
X102437Y83024D01*
X102380Y83131D02*
X102647D01*
X102628Y83188D02*
X102570Y83131D01*
X102628Y83188D02*
X102647Y83226D01*
Y83283D01*
X102628Y83321D01*
X102570Y83340D01*
X102380D01*
X102570D02*
X102628Y83397D01*
X102647Y83436D01*
Y83493D01*
X102628Y83531D01*
X102570Y83550D01*
X102380D01*
X102589Y83885D02*
X102628Y83866D01*
X102647Y83809D01*
Y83752D01*
X102628Y83695D01*
X102589Y83675D01*
X102551Y83695D01*
X102532Y83733D01*
X102513Y83828D01*
X102494Y83866D01*
X102456Y83885D01*
X102437D01*
X102399Y83866D01*
X102380Y83809D01*
Y83752D01*
X102399Y83695D01*
X102437Y83675D01*
X102628Y83969D02*
X102647Y83988D01*
X102628Y83969D02*
X102609Y83988D01*
X102628Y84007D01*
X102647Y83988D01*
X102418D02*
X102399Y83969D01*
X102380Y83988D01*
X102399Y84007D01*
X102418Y83988D01*
X90780Y73870D02*
X90380D01*
X90780D02*
Y74041D01*
X90761Y74099D01*
X90742Y74118D01*
X90704Y74137D01*
X90666D01*
X90628Y74118D01*
X90609Y74099D01*
X90589Y74041D01*
Y73870D01*
Y74003D02*
X90380Y74137D01*
X90628Y74283D02*
X90647Y74321D01*
X90628Y74283D02*
X90589Y74245D01*
X90532Y74226D01*
X90494D01*
X90437Y74245D01*
X90399Y74283D01*
X90380Y74321D01*
Y74378D01*
X90399Y74417D01*
X90437Y74455D01*
X90494Y74474D01*
X90532D01*
X90589Y74455D01*
X90628Y74417D01*
X90647Y74378D01*
Y74321D01*
X90628Y74752D02*
X90589Y74790D01*
X90628Y74752D02*
X90647Y74714D01*
Y74656D01*
X90628Y74618D01*
X90589Y74580D01*
X90532Y74561D01*
X90494D01*
X90437Y74580D01*
X90399Y74618D01*
X90380Y74656D01*
Y74714D01*
X90399Y74752D01*
X90437Y74790D01*
X90380Y74876D02*
X90780D01*
X90647Y75066D02*
X90456Y74876D01*
X90532Y74952D02*
X90380Y75085D01*
Y75148D02*
X90780D01*
Y75270D02*
X90761Y75289D01*
X90780Y75308D01*
X90799Y75289D01*
X90780Y75270D01*
X90647Y75289D02*
X90380D01*
Y75378D02*
X90647D01*
X90628Y75435D02*
X90570Y75378D01*
X90628Y75435D02*
X90647Y75473D01*
Y75531D01*
X90628Y75569D01*
X90570Y75588D01*
X90380D01*
Y75712D02*
X90399Y75731D01*
X90380Y75712D02*
X90399Y75692D01*
X90418Y75712D01*
X90399Y75731D01*
X90361D01*
X90323Y75712D01*
X90304Y75692D01*
X90685Y76418D02*
X90723Y76399D01*
X90761Y76361D01*
X90780Y76323D01*
Y76247D01*
X90761Y76209D01*
X90723Y76170D01*
X90685Y76151D01*
X90628Y76132D01*
X90532D01*
X90475Y76151D01*
X90437Y76170D01*
X90399Y76209D01*
X90380Y76247D01*
Y76323D01*
X90399Y76361D01*
X90437Y76399D01*
X90475Y76418D01*
X90780Y76683D02*
X90380Y76835D01*
Y76530D02*
X90780Y76683D01*
X90513Y76588D02*
Y76778D01*
X90551Y77243D02*
Y77585D01*
X90494Y78018D02*
X90780D01*
X90494D02*
X90437Y78037D01*
X90399Y78075D01*
X90380Y78132D01*
Y78170D01*
X90399Y78227D01*
X90437Y78265D01*
X90494Y78284D01*
X90780D01*
X90761Y78623D02*
X90723Y78661D01*
X90761Y78623D02*
X90780Y78566D01*
Y78490D01*
X90761Y78433D01*
X90723Y78395D01*
X90685D01*
X90647Y78414D01*
X90628Y78433D01*
X90609Y78471D01*
X90570Y78585D01*
X90551Y78623D01*
X90532Y78642D01*
X90494Y78661D01*
X90437D01*
X90399Y78623D01*
X90380Y78566D01*
Y78490D01*
X90399Y78433D01*
X90437Y78395D01*
X90780Y78903D02*
X90380Y79056D01*
Y78751D02*
X90780Y78903D01*
X90513Y78808D02*
Y78998D01*
X104610Y73830D02*
X105010D01*
X104610Y74097D01*
X105010D01*
X104762Y74207D02*
Y74436D01*
X104800D01*
X104839Y74417D01*
X104858Y74398D01*
X104877Y74359D01*
Y74302D01*
X104858Y74264D01*
X104819Y74226D01*
X104762Y74207D01*
X104724D01*
X104667Y74226D01*
X104629Y74264D01*
X104610Y74302D01*
Y74359D01*
X104629Y74398D01*
X104667Y74436D01*
X104762Y74521D02*
Y74750D01*
X104800D01*
X104839Y74731D01*
X104858Y74712D01*
X104877Y74674D01*
Y74616D01*
X104858Y74578D01*
X104819Y74540D01*
X104762Y74521D01*
X104724D01*
X104667Y74540D01*
X104629Y74578D01*
X104610Y74616D01*
Y74674D01*
X104629Y74712D01*
X104667Y74750D01*
X104610Y75064D02*
X105010D01*
X104858Y75026D02*
X104819Y75064D01*
X104858Y75026D02*
X104877Y74988D01*
Y74931D01*
X104858Y74893D01*
X104819Y74855D01*
X104762Y74836D01*
X104724D01*
X104667Y74855D01*
X104629Y74893D01*
X104610Y74931D01*
Y74988D01*
X104629Y75026D01*
X104667Y75064D01*
X104610Y75618D02*
X105010D01*
Y75485D02*
Y75751D01*
X104762Y75799D02*
Y76028D01*
X104800D01*
X104839Y76009D01*
X104858Y75990D01*
X104877Y75951D01*
Y75894D01*
X104858Y75856D01*
X104819Y75818D01*
X104762Y75799D01*
X104724D01*
X104667Y75818D01*
X104629Y75856D01*
X104610Y75894D01*
Y75951D01*
X104629Y75990D01*
X104667Y76028D01*
X104858Y76304D02*
X104819Y76342D01*
X104858Y76304D02*
X104877Y76266D01*
Y76209D01*
X104858Y76170D01*
X104819Y76132D01*
X104762Y76113D01*
X104724D01*
X104667Y76132D01*
X104629Y76170D01*
X104610Y76209D01*
Y76266D01*
X104629Y76304D01*
X104667Y76342D01*
X104610Y76428D02*
X105010D01*
X104858Y76485D02*
X104800Y76428D01*
X104858Y76485D02*
X104877Y76523D01*
Y76580D01*
X104858Y76618D01*
X104800Y76637D01*
X104610D01*
X104991Y77284D02*
X104953Y77323D01*
X104991Y77284D02*
X105010Y77227D01*
Y77151D01*
X104991Y77094D01*
X104953Y77056D01*
X104915D01*
X104877Y77075D01*
X104858Y77094D01*
X104839Y77132D01*
X104800Y77246D01*
X104781Y77284D01*
X104762Y77304D01*
X104724Y77323D01*
X104667D01*
X104629Y77284D01*
X104610Y77227D01*
Y77151D01*
X104629Y77094D01*
X104667Y77056D01*
X104686Y77412D02*
X104877D01*
X104686D02*
X104629Y77431D01*
X104610Y77469D01*
Y77526D01*
X104629Y77564D01*
X104686Y77622D01*
X104610D02*
X104877D01*
Y77726D02*
X104477D01*
X104819D02*
X104858Y77764D01*
X104877Y77802D01*
Y77860D01*
X104858Y77898D01*
X104819Y77936D01*
X104762Y77955D01*
X104724D01*
X104667Y77936D01*
X104629Y77898D01*
X104610Y77860D01*
Y77802D01*
X104629Y77764D01*
X104667Y77726D01*
X104477Y78041D02*
X104877D01*
X104858Y78079D02*
X104819Y78041D01*
X104858Y78079D02*
X104877Y78117D01*
Y78174D01*
X104858Y78212D01*
X104819Y78250D01*
X104762Y78269D01*
X104724D01*
X104667Y78250D01*
X104629Y78212D01*
X104610Y78174D01*
Y78117D01*
X104629Y78079D01*
X104667Y78041D01*
X104858Y78412D02*
X104877Y78450D01*
X104858Y78412D02*
X104819Y78374D01*
X104762Y78355D01*
X104724D01*
X104667Y78374D01*
X104629Y78412D01*
X104610Y78450D01*
Y78507D01*
X104629Y78545D01*
X104667Y78583D01*
X104724Y78602D01*
X104762D01*
X104819Y78583D01*
X104858Y78545D01*
X104877Y78507D01*
Y78450D01*
Y78690D02*
X104610D01*
X104762D02*
X104819Y78709D01*
X104858Y78747D01*
X104877Y78785D01*
Y78842D01*
X105010Y78936D02*
X104686D01*
X104629Y78955D01*
X104610Y78993D01*
Y79031D01*
X104877Y79012D02*
Y78878D01*
X104915Y79088D02*
X104934D01*
X104972Y79107D01*
X104991Y79126D01*
X105010Y79164D01*
Y79240D01*
X104991Y79278D01*
X104972Y79297D01*
X104934Y79316D01*
X104896D01*
X104858Y79297D01*
X104839Y79278D01*
X104800Y79202D01*
X104743D01*
X104648D02*
X104629Y79183D01*
X104610Y79202D01*
X104629Y79221D01*
X104648Y79202D01*
X103932Y74069D02*
Y73840D01*
Y74069D02*
X103970D01*
X104009Y74049D01*
X104028Y74030D01*
X104047Y73992D01*
Y73935D01*
X104028Y73897D01*
X103989Y73859D01*
X103932Y73840D01*
X103894D01*
X103837Y73859D01*
X103799Y73897D01*
X103780Y73935D01*
Y73992D01*
X103799Y74030D01*
X103837Y74069D01*
X103780Y74154D02*
X104047D01*
X104028Y74211D02*
X103970Y74154D01*
X104028Y74211D02*
X104047Y74249D01*
Y74307D01*
X104028Y74345D01*
X103970Y74364D01*
X103780D01*
X103970D02*
X104028Y74421D01*
X104047Y74459D01*
Y74516D01*
X104028Y74554D01*
X103970Y74573D01*
X103780D01*
Y74927D02*
X104047D01*
X104028Y74889D02*
X103989Y74927D01*
X104028Y74889D02*
X104047Y74851D01*
Y74794D01*
X104028Y74756D01*
X103989Y74718D01*
X103932Y74699D01*
X103894D01*
X103837Y74718D01*
X103799Y74756D01*
X103780Y74794D01*
Y74851D01*
X103799Y74889D01*
X103837Y74927D01*
X104161Y75091D02*
X104180Y75072D01*
X104161Y75091D02*
X104180Y75110D01*
X104199Y75091D01*
X104180Y75072D01*
X104047Y75091D02*
X103780D01*
Y75181D02*
X104180D01*
X104047Y75284D02*
X104028Y75264D01*
X104009Y75284D01*
X104028Y75303D01*
X104047Y75284D01*
X103818D02*
X103799Y75264D01*
X103780Y75284D01*
X103799Y75303D01*
X103818Y75284D01*
X104028Y75895D02*
X103989Y75914D01*
X104028Y75895D02*
X104047Y75838D01*
Y75781D01*
X104028Y75723D01*
X103989Y75704D01*
X103951Y75723D01*
X103932Y75761D01*
X103913Y75857D01*
X103894Y75895D01*
X103856Y75914D01*
X103837D01*
X103799Y75895D01*
X103780Y75838D01*
Y75781D01*
X103799Y75723D01*
X103837Y75704D01*
X103856Y76055D02*
X104180D01*
X103856D02*
X103799Y76074D01*
X103780Y76112D01*
Y76150D01*
X104047Y76131D02*
Y75998D01*
Y76436D02*
X103780D01*
X103989D02*
X104028Y76398D01*
X104047Y76359D01*
Y76302D01*
X104028Y76264D01*
X103989Y76226D01*
X103932Y76207D01*
X103894D01*
X103837Y76226D01*
X103799Y76264D01*
X103780Y76302D01*
Y76359D01*
X103799Y76398D01*
X103837Y76436D01*
X103780Y76542D02*
X104047D01*
X104028Y76599D02*
X103970Y76542D01*
X104028Y76599D02*
X104047Y76637D01*
Y76695D01*
X104028Y76733D01*
X103970Y76752D01*
X103780D01*
X103970D02*
X104028Y76809D01*
X104047Y76847D01*
Y76904D01*
X104028Y76942D01*
X103970Y76961D01*
X103780D01*
X103647Y77087D02*
X104047D01*
X104028Y77125D02*
X103989Y77087D01*
X104028Y77125D02*
X104047Y77163D01*
Y77220D01*
X104028Y77258D01*
X103989Y77296D01*
X103932Y77315D01*
X103894D01*
X103837Y77296D01*
X103799Y77258D01*
X103780Y77220D01*
Y77163D01*
X103799Y77125D01*
X103837Y77087D01*
X103856Y77458D02*
X104180D01*
X103856D02*
X103799Y77477D01*
X103780Y77515D01*
Y77553D01*
X104047Y77534D02*
Y77401D01*
X103932Y77611D02*
Y77839D01*
X103970D01*
X104009Y77820D01*
X104028Y77801D01*
X104047Y77763D01*
Y77706D01*
X104028Y77668D01*
X103989Y77630D01*
X103932Y77611D01*
X103894D01*
X103837Y77630D01*
X103799Y77668D01*
X103780Y77706D01*
Y77763D01*
X103799Y77801D01*
X103837Y77839D01*
X104028Y78115D02*
X103989Y78153D01*
X104028Y78115D02*
X104047Y78077D01*
Y78020D01*
X104028Y77982D01*
X103989Y77944D01*
X103932Y77925D01*
X103894D01*
X103837Y77944D01*
X103799Y77982D01*
X103780Y78020D01*
Y78077D01*
X103799Y78115D01*
X103837Y78153D01*
X103780Y78239D02*
X104180D01*
X104028Y78296D02*
X103970Y78239D01*
X104028Y78296D02*
X104047Y78334D01*
Y78391D01*
X104028Y78429D01*
X103970Y78449D01*
X103780D01*
X104028Y78839D02*
X104066Y78820D01*
X104085Y78782D01*
Y78725D01*
X104066Y78687D01*
X104047Y78668D01*
X103989Y78648D01*
X103932D01*
X103894Y78668D01*
X103875Y78706D01*
Y78763D01*
X103894Y78801D01*
X103932Y78820D01*
X104047Y78687D02*
X104085Y78725D01*
X104047Y78687D02*
X103989Y78668D01*
X103932D01*
X103894Y78687D01*
X103875Y78706D01*
X103932Y78820D02*
X104085Y78839D01*
X103932Y78820D02*
X103894D01*
X103875Y78858D01*
Y78896D01*
X103913Y78934D01*
X103970Y78953D01*
X104009D01*
X104066Y78934D01*
X104104Y78915D01*
X104142Y78877D01*
X104161Y78839D01*
X104180Y78782D01*
Y78725D01*
X104161Y78668D01*
X104142Y78629D01*
X104104Y78591D01*
X104066Y78572D01*
X104009Y78553D01*
X103951D01*
X103894Y78572D01*
X103856Y78591D01*
X103818Y78629D01*
X103799Y78668D01*
X103780Y78725D01*
Y78782D01*
X103799Y78839D01*
X103818Y78877D01*
X103837Y78896D01*
X103932Y78839D02*
X104085Y78858D01*
X103932Y78839D02*
X103894D01*
X103875Y78858D01*
X104047Y79056D02*
X103647D01*
X103989D02*
X104028Y79094D01*
X104047Y79132D01*
Y79189D01*
X104028Y79227D01*
X103989Y79266D01*
X103932Y79285D01*
X103894D01*
X103837Y79266D01*
X103799Y79227D01*
X103780Y79189D01*
Y79132D01*
X103799Y79094D01*
X103837Y79056D01*
X103780Y79599D02*
X104047D01*
X104028Y79561D02*
X103989Y79599D01*
X104028Y79561D02*
X104047Y79523D01*
Y79465D01*
X104028Y79427D01*
X103989Y79389D01*
X103932Y79370D01*
X103894D01*
X103837Y79389D01*
X103799Y79427D01*
X103780Y79465D01*
Y79523D01*
X103799Y79561D01*
X103837Y79599D01*
X103780Y79705D02*
X104047D01*
X103989Y79724D02*
X103932Y79705D01*
X103989Y79724D02*
X104028Y79763D01*
X104047Y79801D01*
Y79858D01*
Y80122D02*
X103780D01*
X103989D02*
X104028Y80084D01*
X104047Y80046D01*
Y79989D01*
X104028Y79951D01*
X103989Y79913D01*
X103932Y79894D01*
X103894D01*
X103837Y79913D01*
X103799Y79951D01*
X103780Y79989D01*
Y80046D01*
X103799Y80084D01*
X103837Y80122D01*
X103780Y80229D02*
X104180D01*
Y80313D02*
X103780D01*
Y80625D02*
X104047D01*
X104028Y80587D02*
X103989Y80625D01*
X104028Y80587D02*
X104047Y80549D01*
Y80492D01*
X104028Y80454D01*
X103989Y80416D01*
X103932Y80397D01*
X103894D01*
X103837Y80416D01*
X103799Y80454D01*
X103780Y80492D01*
Y80549D01*
X103799Y80587D01*
X103837Y80625D01*
X104047Y80732D02*
X103780Y80941D01*
Y80732D02*
X104047Y80941D01*
X104180Y81063D02*
X104161Y81082D01*
X104180Y81101D01*
X104199Y81082D01*
X104180Y81063D01*
X104047Y81082D02*
X103780D01*
Y81172D02*
X104047D01*
X104028Y81229D02*
X103970Y81172D01*
X104028Y81229D02*
X104047Y81267D01*
Y81324D01*
X104028Y81362D01*
X103970Y81381D01*
X103780D01*
X104028Y81676D02*
X103989Y81714D01*
X104028Y81676D02*
X104047Y81638D01*
Y81581D01*
X104028Y81543D01*
X103989Y81505D01*
X103932Y81486D01*
X103894D01*
X103837Y81505D01*
X103799Y81543D01*
X103780Y81581D01*
Y81638D01*
X103799Y81676D01*
X103837Y81714D01*
X103799Y81800D02*
X103818Y81819D01*
X103799Y81800D02*
X103780Y81819D01*
X103799Y81838D01*
X103818Y81819D01*
X104028Y82116D02*
X103989Y82154D01*
X104028Y82116D02*
X104047Y82078D01*
Y82021D01*
X104028Y81983D01*
X103989Y81945D01*
X103932Y81926D01*
X103894D01*
X103837Y81945D01*
X103799Y81983D01*
X103780Y82021D01*
Y82078D01*
X103799Y82116D01*
X103837Y82154D01*
X104028Y82297D02*
X104047Y82335D01*
X104028Y82297D02*
X103989Y82259D01*
X103932Y82240D01*
X103894D01*
X103837Y82259D01*
X103799Y82297D01*
X103780Y82335D01*
Y82392D01*
X103799Y82431D01*
X103837Y82469D01*
X103894Y82488D01*
X103932D01*
X103989Y82469D01*
X104028Y82431D01*
X104047Y82392D01*
Y82335D01*
Y82575D02*
X103780D01*
X103970D02*
X104028Y82632D01*
X104047Y82670D01*
Y82728D01*
X104028Y82766D01*
X103970Y82785D01*
X103780D01*
X103970D02*
X104028Y82842D01*
X104047Y82880D01*
Y82937D01*
X104028Y82975D01*
X103970Y82994D01*
X103780D01*
G54D13*
X101432Y73914D02*
X101752Y73822D01*
Y74005D02*
X101432Y73914D01*
Y74097D02*
X101752Y74005D01*
Y74188D02*
X101432Y74097D01*
Y74391D02*
X101752Y74300D01*
Y74483D02*
X101432Y74391D01*
Y74574D02*
X101752Y74483D01*
Y74666D02*
X101432Y74574D01*
Y74869D02*
X101752Y74778D01*
Y74960D02*
X101432Y74869D01*
Y75052D02*
X101752Y74960D01*
Y75143D02*
X101432Y75052D01*
X101455Y75255D02*
X101478Y75278D01*
X101455Y75255D02*
X101432Y75278D01*
X101455Y75301D01*
X101478Y75278D01*
X101684Y75657D02*
X101729Y75635D01*
X101752Y75566D01*
Y75497D01*
X101729Y75429D01*
X101684Y75406D01*
X101638Y75429D01*
X101615Y75475D01*
X101592Y75589D01*
X101569Y75635D01*
X101524Y75657D01*
X101501D01*
X101455Y75635D01*
X101432Y75566D01*
Y75497D01*
X101455Y75429D01*
X101501Y75406D01*
X101524Y75826D02*
X101912D01*
X101524D02*
X101455Y75849D01*
X101432Y75895D01*
Y75941D01*
X101752Y75918D02*
Y75758D01*
Y76284D02*
X101432D01*
X101684D02*
X101729Y76238D01*
X101752Y76192D01*
Y76124D01*
X101729Y76078D01*
X101684Y76032D01*
X101615Y76009D01*
X101569D01*
X101501Y76032D01*
X101455Y76078D01*
X101432Y76124D01*
Y76192D01*
X101455Y76238D01*
X101501Y76284D01*
X101432Y76412D02*
X101752D01*
X101729Y76480D02*
X101661Y76412D01*
X101729Y76480D02*
X101752Y76526D01*
Y76594D01*
X101729Y76640D01*
X101661Y76663D01*
X101432D01*
X101661D02*
X101729Y76731D01*
X101752Y76777D01*
Y76846D01*
X101729Y76891D01*
X101661Y76914D01*
X101432D01*
X101272Y77065D02*
X101752D01*
X101729Y77111D02*
X101684Y77065D01*
X101729Y77111D02*
X101752Y77156D01*
Y77225D01*
X101729Y77271D01*
X101684Y77316D01*
X101615Y77339D01*
X101569D01*
X101501Y77316D01*
X101455Y77271D01*
X101432Y77225D01*
Y77156D01*
X101455Y77111D01*
X101501Y77065D01*
X101729Y77671D02*
X101684Y77694D01*
X101729Y77671D02*
X101752Y77602D01*
Y77534D01*
X101729Y77465D01*
X101684Y77442D01*
X101638Y77465D01*
X101615Y77511D01*
X101592Y77625D01*
X101569Y77671D01*
X101524Y77694D01*
X101501D01*
X101455Y77671D01*
X101432Y77602D01*
Y77534D01*
X101455Y77465D01*
X101501Y77442D01*
X101912Y77840D02*
X101889Y77863D01*
X101912Y77885D01*
X101935Y77863D01*
X101912Y77840D01*
X101752Y77863D02*
X101432D01*
Y77970D02*
X101752D01*
X101729Y78039D02*
X101661Y77970D01*
X101729Y78039D02*
X101752Y78084D01*
Y78153D01*
X101729Y78199D01*
X101661Y78221D01*
X101432D01*
X101729Y78576D02*
X101684Y78621D01*
X101729Y78576D02*
X101752Y78530D01*
Y78461D01*
X101729Y78416D01*
X101684Y78370D01*
X101615Y78347D01*
X101569D01*
X101501Y78370D01*
X101455Y78416D01*
X101432Y78461D01*
Y78530D01*
X101455Y78576D01*
X101501Y78621D01*
X101432Y78724D02*
X101912D01*
X101752Y79099D02*
X101432D01*
X101684D02*
X101729Y79053D01*
X101752Y79008D01*
Y78939D01*
X101729Y78893D01*
X101684Y78848D01*
X101615Y78825D01*
X101569D01*
X101501Y78848D01*
X101455Y78893D01*
X101432Y78939D01*
Y79008D01*
X101455Y79053D01*
X101501Y79099D01*
X101684Y79478D02*
X101729Y79455D01*
X101752Y79387D01*
Y79318D01*
X101729Y79250D01*
X101684Y79227D01*
X101638Y79250D01*
X101615Y79295D01*
X101592Y79410D01*
X101569Y79455D01*
X101524Y79478D01*
X101501D01*
X101455Y79455D01*
X101432Y79387D01*
Y79318D01*
X101455Y79250D01*
X101501Y79227D01*
X101729Y79807D02*
X101684Y79830D01*
X101729Y79807D02*
X101752Y79739D01*
Y79670D01*
X101729Y79602D01*
X101684Y79579D01*
X101638Y79602D01*
X101615Y79647D01*
X101592Y79762D01*
X101569Y79807D01*
X101524Y79830D01*
X101501D01*
X101455Y79807D01*
X101432Y79739D01*
Y79670D01*
X101455Y79602D01*
X101501Y79579D01*
X101455Y79931D02*
X101478Y79954D01*
X101455Y79931D02*
X101432Y79954D01*
X101455Y79976D01*
X101478Y79954D01*
X101729Y80310D02*
X101684Y80356D01*
X101729Y80310D02*
X101752Y80264D01*
Y80196D01*
X101729Y80150D01*
X101684Y80104D01*
X101615Y80082D01*
X101569D01*
X101501Y80104D01*
X101455Y80150D01*
X101432Y80196D01*
Y80264D01*
X101455Y80310D01*
X101501Y80356D01*
X101729Y80527D02*
X101752Y80573D01*
X101729Y80527D02*
X101684Y80481D01*
X101615Y80459D01*
X101569D01*
X101501Y80481D01*
X101455Y80527D01*
X101432Y80573D01*
Y80641D01*
X101455Y80687D01*
X101501Y80733D01*
X101569Y80756D01*
X101615D01*
X101684Y80733D01*
X101729Y80687D01*
X101752Y80641D01*
Y80573D01*
Y80861D02*
X101432D01*
X101661D02*
X101729Y80929D01*
X101752Y80975D01*
Y81044D01*
X101729Y81089D01*
X101661Y81112D01*
X101432D01*
X101661D02*
X101729Y81181D01*
X101752Y81226D01*
Y81295D01*
X101729Y81341D01*
X101661Y81364D01*
X101432D01*
D02*
M02*
