*%FSLAX24Y24*%
*%MOIN*%
G01*
%ADD11C,0.0050*%
%ADD12C,0.0060*%
%ADD13C,0.0072*%
%ADD14C,0.0073*%
%ADD15C,0.0080*%
%ADD16C,0.0100*%
%ADD17C,0.0120*%
%ADD18C,0.0200*%
%ADD19C,0.0260*%
%ADD20C,0.0300*%
%ADD21C,0.0350*%
%ADD22C,0.0380*%
%ADD23C,0.0450*%
%ADD24C,0.0500*%
%ADD25C,0.0530*%
%ADD26C,0.0550*%
%ADD27C,0.0580*%
%ADD28C,0.0620*%
%ADD29C,0.0660*%
%ADD30C,0.0700*%
%ADD31C,0.0750*%
%ADD32C,0.0780*%
%ADD33C,0.0830*%
%ADD34C,0.0950*%
%ADD35C,0.1400*%
%ADD36C,0.1800*%
%ADD37C,0.1880*%
%ADD38R,0.0620X0.0620*%
%ADD39R,0.0700X0.0700*%
%ADD40R,0.0780X0.0780*%
G54D16*
X93080Y71320D02*
X94330Y72570D01*
X96330D01*
X98580Y74820D01*
X95830Y72070D02*
X95080Y71320D01*
X95830Y72070D02*
X96830D01*
X99080Y74320D01*
X94080Y82770D02*
Y83820D01*
X99830Y84070D02*
X102180D01*
X103680Y85570D01*
X107830D01*
X99830Y78070D02*
X98580Y76820D01*
X105830Y77070D02*
X106580Y76320D01*
X107080Y77820D02*
X105830Y79070D01*
X107580Y79320D02*
X105830Y81070D01*
Y83070D02*
X108080Y80820D01*
X99830Y76070D02*
X99080Y75320D01*
X107080Y71320D02*
X108080Y72320D01*
Y80820D01*
X107580Y79320D02*
Y73070D01*
X106830Y72320D01*
X106080D01*
X105080Y71320D01*
X107080Y73320D02*
Y77820D01*
Y73320D02*
X106580Y72820D01*
X104580D01*
X103080Y71320D01*
X106580Y73570D02*
Y76320D01*
Y73570D02*
X106330Y73320D01*
X103080D01*
X101080Y71320D01*
X99080D02*
X102830Y75070D01*
X105830D01*
X99830Y74070D02*
X97080Y71320D01*
X98580Y74820D02*
Y76820D01*
X99080Y75320D02*
Y74320D01*
X91830Y78020D02*
Y79110D01*
G54D18*
X95130Y78270D02*
X96830D01*
G54D20*
Y79270D01*
Y81770D02*
Y84320D01*
X96330Y84820D02*
X94080D01*
X97330Y76770D02*
X97880D01*
X96832Y77320D02*
Y78268D01*
X90080Y73570D02*
Y87120D01*
Y73570D02*
X89080Y72570D01*
Y71320D01*
X91080Y73170D02*
Y87120D01*
Y73170D02*
X95930D01*
X91080D02*
X90080Y72170D01*
Y71320D01*
X95930Y73170D02*
X96580Y73820D01*
X90080Y87120D02*
Y89570D01*
X90580Y90070D02*
X97580D01*
X100580D01*
X101080Y89570D02*
Y86570D01*
X100580Y86070D02*
X99830D01*
X98880Y87320D02*
Y84570D01*
X99380Y84070D02*
X99830D01*
X98380Y87820D02*
X97580D01*
Y88820D02*
Y90070D01*
X98880Y87070D02*
X99830D01*
X96830Y81770D02*
Y79270D01*
Y81770D02*
X95630D01*
X96830Y79270D02*
X97880D01*
Y78770D02*
Y79770D01*
X91080Y89320D02*
Y90070D01*
Y87820D02*
X94580D01*
Y88820D02*
Y85820D01*
Y87820D02*
X97580D01*
X91080Y87120D02*
Y88720D01*
Y82320D02*
X92340D01*
X94660Y78190D02*
Y77240D01*
X95130Y76770D01*
X94660Y78190D02*
X94080Y78770D01*
Y79770D01*
X95630D02*
Y78770D01*
Y79270D02*
X94080D01*
X93430Y81230D02*
X92830Y81830D01*
X93430Y81230D02*
Y80420D01*
X94080Y79770D01*
X92830Y81830D02*
X92340Y82320D01*
X96832Y77320D02*
X96830Y77285D01*
X96830Y77250D01*
X96833Y77216D01*
X96838Y77181D01*
X96845Y77147D01*
X96855Y77114D01*
X96867Y77081D01*
X96881Y77049D01*
X96898Y77019D01*
X96916Y76989D01*
X96937Y76961D01*
X96959Y76934D01*
X96984Y76910D01*
X97009Y76886D01*
X97037Y76865D01*
X97066Y76846D01*
X97096Y76828D01*
X97127Y76813D01*
X97159Y76800D01*
X97193Y76789D01*
X97226Y76781D01*
X97261Y76775D01*
X97295Y76771D01*
X97330Y76770D01*
X96830Y84320D02*
X96829Y84353D01*
X96826Y84385D01*
X96820Y84418D01*
X96813Y84449D01*
X96803Y84481D01*
X96792Y84511D01*
X96778Y84541D01*
X96763Y84570D01*
X96746Y84598D01*
X96727Y84624D01*
X96706Y84650D01*
X96684Y84674D01*
X96660Y84696D01*
X96634Y84717D01*
X96608Y84736D01*
X96580Y84753D01*
X96551Y84768D01*
X96521Y84782D01*
X96491Y84793D01*
X96459Y84803D01*
X96428Y84810D01*
X96395Y84816D01*
X96363Y84819D01*
X96330Y84820D01*
X90580Y90070D02*
X90547Y90069D01*
X90515Y90066D01*
X90482Y90060D01*
X90451Y90053D01*
X90419Y90043D01*
X90389Y90032D01*
X90359Y90018D01*
X90330Y90003D01*
X90302Y89986D01*
X90276Y89967D01*
X90250Y89946D01*
X90226Y89924D01*
X90204Y89900D01*
X90183Y89874D01*
X90164Y89848D01*
X90147Y89820D01*
X90132Y89791D01*
X90118Y89761D01*
X90107Y89731D01*
X90097Y89699D01*
X90090Y89668D01*
X90084Y89635D01*
X90081Y89603D01*
X90080Y89570D01*
X100580Y90070D02*
X100613Y90069D01*
X100645Y90066D01*
X100678Y90060D01*
X100709Y90053D01*
X100741Y90043D01*
X100771Y90032D01*
X100801Y90018D01*
X100830Y90003D01*
X100858Y89986D01*
X100884Y89967D01*
X100910Y89946D01*
X100934Y89924D01*
X100956Y89900D01*
X100977Y89874D01*
X100996Y89848D01*
X101013Y89820D01*
X101028Y89791D01*
X101042Y89761D01*
X101053Y89731D01*
X101063Y89699D01*
X101070Y89668D01*
X101076Y89635D01*
X101079Y89603D01*
X101080Y89570D01*
Y86570D02*
X101079Y86537D01*
X101076Y86505D01*
X101070Y86472D01*
X101063Y86441D01*
X101053Y86409D01*
X101042Y86379D01*
X101028Y86349D01*
X101013Y86320D01*
X100996Y86292D01*
X100977Y86266D01*
X100956Y86240D01*
X100934Y86216D01*
X100910Y86194D01*
X100884Y86173D01*
X100858Y86154D01*
X100830Y86137D01*
X100801Y86122D01*
X100771Y86108D01*
X100741Y86097D01*
X100709Y86087D01*
X100678Y86080D01*
X100645Y86074D01*
X100613Y86071D01*
X100580Y86070D01*
X98880Y84570D02*
X98881Y84537D01*
X98884Y84505D01*
X98890Y84472D01*
X98897Y84441D01*
X98907Y84409D01*
X98918Y84379D01*
X98932Y84349D01*
X98947Y84320D01*
X98964Y84292D01*
X98983Y84266D01*
X99004Y84240D01*
X99026Y84216D01*
X99050Y84194D01*
X99076Y84173D01*
X99102Y84154D01*
X99130Y84137D01*
X99159Y84122D01*
X99189Y84108D01*
X99219Y84097D01*
X99251Y84087D01*
X99282Y84080D01*
X99315Y84074D01*
X99347Y84071D01*
X99380Y84070D01*
X98880Y87320D02*
X98879Y87353D01*
X98876Y87385D01*
X98870Y87418D01*
X98863Y87449D01*
X98853Y87481D01*
X98842Y87511D01*
X98828Y87541D01*
X98813Y87570D01*
X98796Y87598D01*
X98777Y87624D01*
X98756Y87650D01*
X98734Y87674D01*
X98710Y87696D01*
X98684Y87717D01*
X98658Y87736D01*
X98630Y87753D01*
X98601Y87768D01*
X98571Y87782D01*
X98541Y87793D01*
X98509Y87803D01*
X98478Y87810D01*
X98445Y87816D01*
X98413Y87819D01*
X98380Y87820D01*
G54D23*
X91080Y89320D02*
D03*
Y88720D02*
D03*
G54D24*
X95630Y78770D02*
D03*
Y77770D02*
D03*
X95130Y78270D02*
D03*
Y75770D02*
D03*
Y76770D02*
D03*
X95630Y76270D02*
D03*
Y82770D02*
D03*
Y81770D02*
D03*
X95130Y82270D02*
D03*
X95630Y80770D02*
D03*
Y79770D02*
D03*
X95130Y80270D02*
D03*
G54D28*
X95580Y74620D02*
D03*
Y73820D02*
D03*
X96580Y74620D02*
D03*
Y73820D02*
D03*
X94080Y83820D02*
D03*
X98080D02*
D03*
X107830Y85570D02*
D03*
Y84570D02*
D03*
X91830Y81290D02*
D03*
Y80200D02*
D03*
Y79110D02*
D03*
Y78020D02*
D03*
X92830Y81830D02*
D03*
Y80740D02*
D03*
Y79650D02*
D03*
Y78560D02*
D03*
X98080Y84820D02*
D03*
X94080D02*
D03*
X94580Y87820D02*
D03*
Y86820D02*
D03*
Y85820D02*
D03*
X97580D02*
D03*
Y86820D02*
D03*
Y87820D02*
D03*
Y88820D02*
D03*
G54D30*
X90080Y71320D02*
D03*
X91080D02*
D03*
X92080D02*
D03*
X93080D02*
D03*
X94080D02*
D03*
X95080D02*
D03*
X96080D02*
D03*
X97080D02*
D03*
X98080D02*
D03*
X99080D02*
D03*
X100080D02*
D03*
X101080D02*
D03*
X102080D02*
D03*
X103080D02*
D03*
X104080D02*
D03*
X105080D02*
D03*
X106080D02*
D03*
X107080D02*
D03*
X108080D02*
D03*
X94080Y75770D02*
D03*
Y76770D02*
D03*
Y77770D02*
D03*
Y78770D02*
D03*
Y79770D02*
D03*
Y80770D02*
D03*
Y81770D02*
D03*
X97880Y75770D02*
D03*
Y76770D02*
D03*
Y77770D02*
D03*
Y78770D02*
D03*
Y79770D02*
D03*
Y80770D02*
D03*
Y81770D02*
D03*
X99830Y86070D02*
D03*
Y85070D02*
D03*
Y84070D02*
D03*
Y83070D02*
D03*
Y82070D02*
D03*
Y81070D02*
D03*
Y80070D02*
D03*
Y79070D02*
D03*
Y78070D02*
D03*
Y77070D02*
D03*
Y76070D02*
D03*
Y75070D02*
D03*
Y74070D02*
D03*
X105830D02*
D03*
Y75070D02*
D03*
Y76070D02*
D03*
Y77070D02*
D03*
Y78070D02*
D03*
Y79070D02*
D03*
Y80070D02*
D03*
Y81070D02*
D03*
Y82070D02*
D03*
Y83070D02*
D03*
Y84070D02*
D03*
Y85070D02*
D03*
Y86070D02*
D03*
Y87070D02*
D03*
G54D31*
X90080Y87120D02*
D03*
X91080D02*
D03*
X92080D02*
D03*
G54D36*
X92330Y84580D02*
D03*
Y74720D02*
D03*
G54D38*
X107830Y86570D02*
D03*
X92830Y77470D02*
D03*
X94580Y88820D02*
D03*
G54D39*
X89080Y71320D02*
D03*
X94080Y82770D02*
D03*
X97880D02*
D03*
X99830Y87070D02*
D03*
M02*
