*%FSLAX24Y24*%
*%MOIN*%
G01*
%ADD11C,0.0050*%
%ADD12C,0.0060*%
%ADD13C,0.0072*%
%ADD14C,0.0073*%
%ADD15C,0.0080*%
%ADD16C,0.0100*%
%ADD17C,0.0120*%
%ADD18C,0.0200*%
%ADD19C,0.0260*%
%ADD20C,0.0300*%
%ADD21C,0.0350*%
%ADD22C,0.0380*%
%ADD23C,0.0450*%
%ADD24C,0.0500*%
%ADD25C,0.0530*%
%ADD26C,0.0550*%
%ADD27C,0.0580*%
%ADD28C,0.0620*%
%ADD29C,0.0660*%
%ADD30C,0.0700*%
%ADD31C,0.0750*%
%ADD32C,0.0780*%
%ADD33C,0.0830*%
%ADD34C,0.0950*%
%ADD35C,0.1400*%
%ADD36C,0.1800*%
%ADD37C,0.1880*%
%ADD38R,0.0620X0.0620*%
%ADD39R,0.0700X0.0700*%
%ADD40R,0.0780X0.0780*%
G54D11*
X88880Y71120D02*
Y71520D01*
X89280D01*
Y71120D01*
X88880D01*
X89880D02*
Y71520D01*
X90280D01*
Y71120D01*
X89880D01*
X90880D02*
Y71520D01*
X91280D01*
Y71120D01*
X90880D01*
X91880D02*
Y71520D01*
X92280D01*
Y71120D01*
X91880D01*
X92880D02*
Y71520D01*
X93280D01*
Y71120D01*
X92880D01*
X93880D02*
Y71520D01*
X94280D01*
Y71120D01*
X93880D01*
X94880D02*
Y71520D01*
X95280D01*
Y71120D01*
X94880D01*
X95880D02*
Y71520D01*
X96280D01*
Y71120D01*
X95880D01*
X96880D02*
Y71520D01*
X97280D01*
Y71120D01*
X96880D01*
X97880D02*
Y71520D01*
X98280D01*
Y71120D01*
X97880D01*
X98880D02*
Y71520D01*
X99280D01*
Y71120D01*
X98880D01*
X99880D02*
Y71520D01*
X100280D01*
Y71120D01*
X99880D01*
X100880D02*
Y71520D01*
X101280D01*
Y71120D01*
X100880D01*
X101880D02*
Y71520D01*
X102280D01*
Y71120D01*
X101880D01*
X102880D02*
Y71520D01*
X103280D01*
Y71120D01*
X102880D01*
X103880D02*
Y71520D01*
X104280D01*
Y71120D01*
X103880D01*
X104880D02*
Y71520D01*
X105280D01*
Y71120D01*
X104880D01*
X105880D02*
Y71520D01*
X106280D01*
Y71120D01*
X105880D01*
X106880D02*
Y71520D01*
X107280D01*
Y71120D01*
X106880D01*
X107880D02*
Y71520D01*
X108280D01*
Y71120D01*
X107880D01*
X91280Y89320D02*
X91277Y89288D01*
X91270Y89257D01*
X91257Y89227D01*
X91240Y89200D01*
X91219Y89176D01*
X91194Y89155D01*
X91166Y89139D01*
X91136Y89128D01*
X91104Y89121D01*
X91072Y89120D01*
X91040Y89124D01*
X91009Y89133D01*
X90980Y89147D01*
X90954Y89165D01*
X90930Y89187D01*
X90911Y89213D01*
X90896Y89242D01*
X90886Y89272D01*
X90881Y89304D01*
Y89336D01*
X90886Y89368D01*
X90896Y89398D01*
X90911Y89427D01*
X90930Y89453D01*
X90954Y89475D01*
X90980Y89493D01*
X91009Y89507D01*
X91040Y89516D01*
X91072Y89520D01*
X91104Y89519D01*
X91136Y89512D01*
X91166Y89501D01*
X91194Y89485D01*
X91219Y89464D01*
X91240Y89440D01*
X91257Y89413D01*
X91270Y89383D01*
X91277Y89352D01*
X91280Y89320D01*
Y88720D02*
X91277Y88688D01*
X91270Y88657D01*
X91257Y88627D01*
X91240Y88600D01*
X91219Y88576D01*
X91194Y88555D01*
X91166Y88539D01*
X91136Y88528D01*
X91104Y88521D01*
X91072Y88520D01*
X91040Y88524D01*
X91009Y88533D01*
X90980Y88547D01*
X90954Y88565D01*
X90930Y88587D01*
X90911Y88613D01*
X90896Y88642D01*
X90886Y88672D01*
X90881Y88704D01*
Y88736D01*
X90886Y88768D01*
X90896Y88798D01*
X90911Y88827D01*
X90930Y88853D01*
X90954Y88875D01*
X90980Y88893D01*
X91009Y88907D01*
X91040Y88916D01*
X91072Y88920D01*
X91104Y88919D01*
X91136Y88912D01*
X91166Y88901D01*
X91194Y88885D01*
X91219Y88864D01*
X91240Y88840D01*
X91257Y88813D01*
X91270Y88783D01*
X91277Y88752D01*
X91280Y88720D01*
X95380Y74820D02*
Y74420D01*
Y74820D02*
X95780D01*
Y74420D01*
X95380D01*
Y74020D02*
Y73620D01*
Y74020D02*
X95780D01*
Y73620D01*
X95380D01*
X96380Y74420D02*
Y74820D01*
X96780D01*
Y74420D01*
X96380D01*
Y74020D02*
Y73620D01*
Y74020D02*
X96780D01*
Y73620D01*
X96380D01*
X93880Y75570D02*
Y75970D01*
X94280D01*
Y75570D01*
X93880D01*
Y76570D02*
Y76970D01*
X94280D01*
Y76570D01*
X93880D01*
Y77570D02*
Y77970D01*
X94280D01*
Y77570D01*
X93880D01*
Y78570D02*
Y78970D01*
X94280D01*
Y78570D01*
X93880D01*
Y79570D02*
Y79970D01*
X94280D01*
Y79570D01*
X93880D01*
Y80570D02*
Y80970D01*
X94280D01*
Y80570D01*
X93880D01*
Y81570D02*
Y81970D01*
X94280D01*
Y81570D01*
X93880D01*
Y82570D02*
Y82970D01*
X94280D01*
Y82570D01*
X93880D01*
X97680Y75970D02*
Y75570D01*
Y75970D02*
X98080D01*
Y75570D01*
X97680D01*
Y76570D02*
Y76970D01*
X98080D01*
Y76570D01*
X97680D01*
Y77570D02*
Y77970D01*
X98080D01*
Y77570D01*
X97680D01*
Y78570D02*
Y78970D01*
X98080D01*
Y78570D01*
X97680D01*
Y79570D02*
Y79970D01*
X98080D01*
Y79570D01*
X97680D01*
Y80570D02*
Y80970D01*
X98080D01*
Y80570D01*
X97680D01*
Y81570D02*
Y81970D01*
X98080D01*
Y81570D01*
X97680D01*
Y82570D02*
Y82970D01*
X98080D01*
Y82570D01*
X97680D01*
X95830Y78770D02*
X95827Y78738D01*
X95820Y78707D01*
X95807Y78677D01*
X95790Y78650D01*
X95769Y78626D01*
X95744Y78605D01*
X95716Y78589D01*
X95686Y78578D01*
X95654Y78571D01*
X95622Y78570D01*
X95590Y78574D01*
X95559Y78583D01*
X95530Y78597D01*
X95504Y78615D01*
X95480Y78637D01*
X95461Y78663D01*
X95446Y78692D01*
X95436Y78722D01*
X95431Y78754D01*
Y78786D01*
X95436Y78818D01*
X95446Y78848D01*
X95461Y78877D01*
X95480Y78903D01*
X95504Y78925D01*
X95530Y78943D01*
X95559Y78957D01*
X95590Y78966D01*
X95622Y78970D01*
X95654Y78969D01*
X95686Y78962D01*
X95716Y78951D01*
X95744Y78935D01*
X95769Y78914D01*
X95790Y78890D01*
X95807Y78863D01*
X95820Y78833D01*
X95827Y78802D01*
X95830Y78770D01*
Y77770D02*
X95827Y77738D01*
X95820Y77707D01*
X95807Y77677D01*
X95790Y77650D01*
X95769Y77626D01*
X95744Y77605D01*
X95716Y77589D01*
X95686Y77578D01*
X95654Y77571D01*
X95622Y77570D01*
X95590Y77574D01*
X95559Y77583D01*
X95530Y77597D01*
X95504Y77615D01*
X95480Y77637D01*
X95461Y77663D01*
X95446Y77692D01*
X95436Y77722D01*
X95431Y77754D01*
Y77786D01*
X95436Y77818D01*
X95446Y77848D01*
X95461Y77877D01*
X95480Y77903D01*
X95504Y77925D01*
X95530Y77943D01*
X95559Y77957D01*
X95590Y77966D01*
X95622Y77970D01*
X95654Y77969D01*
X95686Y77962D01*
X95716Y77951D01*
X95744Y77935D01*
X95769Y77914D01*
X95790Y77890D01*
X95807Y77863D01*
X95820Y77833D01*
X95827Y77802D01*
X95830Y77770D01*
X95330Y78270D02*
X95327Y78238D01*
X95320Y78207D01*
X95307Y78177D01*
X95290Y78150D01*
X95269Y78126D01*
X95244Y78105D01*
X95216Y78089D01*
X95186Y78078D01*
X95154Y78071D01*
X95122Y78070D01*
X95090Y78074D01*
X95059Y78083D01*
X95030Y78097D01*
X95004Y78115D01*
X94980Y78137D01*
X94961Y78163D01*
X94946Y78192D01*
X94936Y78222D01*
X94931Y78254D01*
Y78286D01*
X94936Y78318D01*
X94946Y78348D01*
X94961Y78377D01*
X94980Y78403D01*
X95004Y78425D01*
X95030Y78443D01*
X95059Y78457D01*
X95090Y78466D01*
X95122Y78470D01*
X95154Y78469D01*
X95186Y78462D01*
X95216Y78451D01*
X95244Y78435D01*
X95269Y78414D01*
X95290Y78390D01*
X95307Y78363D01*
X95320Y78333D01*
X95327Y78302D01*
X95330Y78270D01*
Y75770D02*
X95327Y75738D01*
X95320Y75707D01*
X95307Y75677D01*
X95290Y75650D01*
X95269Y75626D01*
X95244Y75605D01*
X95216Y75589D01*
X95186Y75578D01*
X95154Y75571D01*
X95122Y75570D01*
X95090Y75574D01*
X95059Y75583D01*
X95030Y75597D01*
X95004Y75615D01*
X94980Y75637D01*
X94961Y75663D01*
X94946Y75692D01*
X94936Y75722D01*
X94931Y75754D01*
Y75786D01*
X94936Y75818D01*
X94946Y75848D01*
X94961Y75877D01*
X94980Y75903D01*
X95004Y75925D01*
X95030Y75943D01*
X95059Y75957D01*
X95090Y75966D01*
X95122Y75970D01*
X95154Y75969D01*
X95186Y75962D01*
X95216Y75951D01*
X95244Y75935D01*
X95269Y75914D01*
X95290Y75890D01*
X95307Y75863D01*
X95320Y75833D01*
X95327Y75802D01*
X95330Y75770D01*
Y76770D02*
X95327Y76738D01*
X95320Y76707D01*
X95307Y76677D01*
X95290Y76650D01*
X95269Y76626D01*
X95244Y76605D01*
X95216Y76589D01*
X95186Y76578D01*
X95154Y76571D01*
X95122Y76570D01*
X95090Y76574D01*
X95059Y76583D01*
X95030Y76597D01*
X95004Y76615D01*
X94980Y76637D01*
X94961Y76663D01*
X94946Y76692D01*
X94936Y76722D01*
X94931Y76754D01*
Y76786D01*
X94936Y76818D01*
X94946Y76848D01*
X94961Y76877D01*
X94980Y76903D01*
X95004Y76925D01*
X95030Y76943D01*
X95059Y76957D01*
X95090Y76966D01*
X95122Y76970D01*
X95154Y76969D01*
X95186Y76962D01*
X95216Y76951D01*
X95244Y76935D01*
X95269Y76914D01*
X95290Y76890D01*
X95307Y76863D01*
X95320Y76833D01*
X95327Y76802D01*
X95330Y76770D01*
X95830Y76270D02*
X95827Y76238D01*
X95820Y76207D01*
X95807Y76177D01*
X95790Y76150D01*
X95769Y76126D01*
X95744Y76105D01*
X95716Y76089D01*
X95686Y76078D01*
X95654Y76071D01*
X95622Y76070D01*
X95590Y76074D01*
X95559Y76083D01*
X95530Y76097D01*
X95504Y76115D01*
X95480Y76137D01*
X95461Y76163D01*
X95446Y76192D01*
X95436Y76222D01*
X95431Y76254D01*
Y76286D01*
X95436Y76318D01*
X95446Y76348D01*
X95461Y76377D01*
X95480Y76403D01*
X95504Y76425D01*
X95530Y76443D01*
X95559Y76457D01*
X95590Y76466D01*
X95622Y76470D01*
X95654Y76469D01*
X95686Y76462D01*
X95716Y76451D01*
X95744Y76435D01*
X95769Y76414D01*
X95790Y76390D01*
X95807Y76363D01*
X95820Y76333D01*
X95827Y76302D01*
X95830Y76270D01*
Y82770D02*
X95827Y82738D01*
X95820Y82707D01*
X95807Y82677D01*
X95790Y82650D01*
X95769Y82626D01*
X95744Y82605D01*
X95716Y82589D01*
X95686Y82578D01*
X95654Y82571D01*
X95622Y82570D01*
X95590Y82574D01*
X95559Y82583D01*
X95530Y82597D01*
X95504Y82615D01*
X95480Y82637D01*
X95461Y82663D01*
X95446Y82692D01*
X95436Y82722D01*
X95431Y82754D01*
Y82786D01*
X95436Y82818D01*
X95446Y82848D01*
X95461Y82877D01*
X95480Y82903D01*
X95504Y82925D01*
X95530Y82943D01*
X95559Y82957D01*
X95590Y82966D01*
X95622Y82970D01*
X95654Y82969D01*
X95686Y82962D01*
X95716Y82951D01*
X95744Y82935D01*
X95769Y82914D01*
X95790Y82890D01*
X95807Y82863D01*
X95820Y82833D01*
X95827Y82802D01*
X95830Y82770D01*
Y81770D02*
X95827Y81738D01*
X95820Y81707D01*
X95807Y81677D01*
X95790Y81650D01*
X95769Y81626D01*
X95744Y81605D01*
X95716Y81589D01*
X95686Y81578D01*
X95654Y81571D01*
X95622Y81570D01*
X95590Y81574D01*
X95559Y81583D01*
X95530Y81597D01*
X95504Y81615D01*
X95480Y81637D01*
X95461Y81663D01*
X95446Y81692D01*
X95436Y81722D01*
X95431Y81754D01*
Y81786D01*
X95436Y81818D01*
X95446Y81848D01*
X95461Y81877D01*
X95480Y81903D01*
X95504Y81925D01*
X95530Y81943D01*
X95559Y81957D01*
X95590Y81966D01*
X95622Y81970D01*
X95654Y81969D01*
X95686Y81962D01*
X95716Y81951D01*
X95744Y81935D01*
X95769Y81914D01*
X95790Y81890D01*
X95807Y81863D01*
X95820Y81833D01*
X95827Y81802D01*
X95830Y81770D01*
X95330Y82270D02*
X95327Y82238D01*
X95320Y82207D01*
X95307Y82177D01*
X95290Y82150D01*
X95269Y82126D01*
X95244Y82105D01*
X95216Y82089D01*
X95186Y82078D01*
X95154Y82071D01*
X95122Y82070D01*
X95090Y82074D01*
X95059Y82083D01*
X95030Y82097D01*
X95004Y82115D01*
X94980Y82137D01*
X94961Y82163D01*
X94946Y82192D01*
X94936Y82222D01*
X94931Y82254D01*
Y82286D01*
X94936Y82318D01*
X94946Y82348D01*
X94961Y82377D01*
X94980Y82403D01*
X95004Y82425D01*
X95030Y82443D01*
X95059Y82457D01*
X95090Y82466D01*
X95122Y82470D01*
X95154Y82469D01*
X95186Y82462D01*
X95216Y82451D01*
X95244Y82435D01*
X95269Y82414D01*
X95290Y82390D01*
X95307Y82363D01*
X95320Y82333D01*
X95327Y82302D01*
X95330Y82270D01*
X95830Y80770D02*
X95827Y80738D01*
X95820Y80707D01*
X95807Y80677D01*
X95790Y80650D01*
X95769Y80626D01*
X95744Y80605D01*
X95716Y80589D01*
X95686Y80578D01*
X95654Y80571D01*
X95622Y80570D01*
X95590Y80574D01*
X95559Y80583D01*
X95530Y80597D01*
X95504Y80615D01*
X95480Y80637D01*
X95461Y80663D01*
X95446Y80692D01*
X95436Y80722D01*
X95431Y80754D01*
Y80786D01*
X95436Y80818D01*
X95446Y80848D01*
X95461Y80877D01*
X95480Y80903D01*
X95504Y80925D01*
X95530Y80943D01*
X95559Y80957D01*
X95590Y80966D01*
X95622Y80970D01*
X95654Y80969D01*
X95686Y80962D01*
X95716Y80951D01*
X95744Y80935D01*
X95769Y80914D01*
X95790Y80890D01*
X95807Y80863D01*
X95820Y80833D01*
X95827Y80802D01*
X95830Y80770D01*
Y79770D02*
X95827Y79738D01*
X95820Y79707D01*
X95807Y79677D01*
X95790Y79650D01*
X95769Y79626D01*
X95744Y79605D01*
X95716Y79589D01*
X95686Y79578D01*
X95654Y79571D01*
X95622Y79570D01*
X95590Y79574D01*
X95559Y79583D01*
X95530Y79597D01*
X95504Y79615D01*
X95480Y79637D01*
X95461Y79663D01*
X95446Y79692D01*
X95436Y79722D01*
X95431Y79754D01*
Y79786D01*
X95436Y79818D01*
X95446Y79848D01*
X95461Y79877D01*
X95480Y79903D01*
X95504Y79925D01*
X95530Y79943D01*
X95559Y79957D01*
X95590Y79966D01*
X95622Y79970D01*
X95654Y79969D01*
X95686Y79962D01*
X95716Y79951D01*
X95744Y79935D01*
X95769Y79914D01*
X95790Y79890D01*
X95807Y79863D01*
X95820Y79833D01*
X95827Y79802D01*
X95830Y79770D01*
X95330Y80270D02*
X95327Y80238D01*
X95320Y80207D01*
X95307Y80177D01*
X95290Y80150D01*
X95269Y80126D01*
X95244Y80105D01*
X95216Y80089D01*
X95186Y80078D01*
X95154Y80071D01*
X95122Y80070D01*
X95090Y80074D01*
X95059Y80083D01*
X95030Y80097D01*
X95004Y80115D01*
X94980Y80137D01*
X94961Y80163D01*
X94946Y80192D01*
X94936Y80222D01*
X94931Y80254D01*
Y80286D01*
X94936Y80318D01*
X94946Y80348D01*
X94961Y80377D01*
X94980Y80403D01*
X95004Y80425D01*
X95030Y80443D01*
X95059Y80457D01*
X95090Y80466D01*
X95122Y80470D01*
X95154Y80469D01*
X95186Y80462D01*
X95216Y80451D01*
X95244Y80435D01*
X95269Y80414D01*
X95290Y80390D01*
X95307Y80363D01*
X95320Y80333D01*
X95327Y80302D01*
X95330Y80270D01*
X94080Y83620D02*
X93880Y84020D01*
X94280D01*
X94080Y83620D01*
X97880Y84020D02*
X98080Y83620D01*
X97880Y84020D02*
X98280D01*
X98080Y83620D01*
X107630Y86770D02*
X107830Y86370D01*
X107630Y86770D02*
X108030D01*
X107830Y86370D01*
X107630Y85770D02*
X107830Y85370D01*
X107630Y85770D02*
X108030D01*
X107830Y85370D01*
X107630Y84770D02*
X107830Y84370D01*
X107630Y84770D02*
X108030D01*
X107830Y84370D01*
X92430Y84480D02*
X92330Y84380D01*
X92430Y84480D02*
X92530D01*
X92430Y84580D01*
X92530Y84680D01*
X92430D01*
X92330Y84780D01*
X92230Y84680D01*
X92130D01*
X92230Y84580D01*
X92130Y84480D01*
X92230D01*
X92330Y84380D01*
X92430Y74620D02*
X92330Y74520D01*
X92430Y74620D02*
X92530D01*
X92430Y74720D01*
X92530Y74820D01*
X92430D01*
X92330Y74920D01*
X92230Y74820D01*
X92130D01*
X92230Y74720D01*
X92130Y74620D01*
X92230D01*
X92330Y74520D01*
X91630Y81090D02*
Y81490D01*
X92030D01*
Y81090D01*
X91630D01*
Y80400D02*
Y80000D01*
Y80400D02*
X92030D01*
Y80000D01*
X91630D01*
Y79310D02*
Y78910D01*
Y79310D02*
X92030D01*
Y78910D01*
X91630D01*
Y78220D02*
Y77820D01*
Y78220D02*
X92030D01*
Y77820D01*
X91630D01*
X92630Y81630D02*
Y82030D01*
X93030D01*
Y81630D01*
X92630D01*
Y80940D02*
Y80540D01*
Y80940D02*
X93030D01*
Y80540D01*
X92630D01*
Y79850D02*
Y79450D01*
Y79850D02*
X93030D01*
Y79450D01*
X92630D01*
Y78760D02*
Y78360D01*
Y78760D02*
X93030D01*
Y78360D01*
X92630D01*
Y77670D02*
Y77270D01*
Y77670D02*
X93030D01*
Y77270D01*
X92630D01*
X99630Y86870D02*
Y87270D01*
X100030D01*
Y86870D01*
X99630D01*
Y86270D02*
Y85870D01*
Y86270D02*
X100030D01*
Y85870D01*
X99630D01*
Y85270D02*
Y84870D01*
Y85270D02*
X100030D01*
Y84870D01*
X99630D01*
Y84270D02*
Y83870D01*
Y84270D02*
X100030D01*
Y83870D01*
X99630D01*
Y83270D02*
Y82870D01*
Y83270D02*
X100030D01*
Y82870D01*
X99630D01*
Y82270D02*
Y81870D01*
Y82270D02*
X100030D01*
Y81870D01*
X99630D01*
Y81270D02*
Y80870D01*
Y81270D02*
X100030D01*
Y80870D01*
X99630D01*
Y80270D02*
Y79870D01*
Y80270D02*
X100030D01*
Y79870D01*
X99630D01*
Y79270D02*
Y78870D01*
Y79270D02*
X100030D01*
Y78870D01*
X99630D01*
Y78270D02*
Y77870D01*
Y78270D02*
X100030D01*
Y77870D01*
X99630D01*
Y77270D02*
Y76870D01*
Y77270D02*
X100030D01*
Y76870D01*
X99630D01*
Y76270D02*
Y75870D01*
Y76270D02*
X100030D01*
Y75870D01*
X99630D01*
Y75270D02*
Y74870D01*
Y75270D02*
X100030D01*
Y74870D01*
X99630D01*
Y74270D02*
Y73870D01*
Y74270D02*
X100030D01*
Y73870D01*
X99630D01*
X105630D02*
Y74270D01*
X106030D01*
Y73870D01*
X105630D01*
Y74870D02*
Y75270D01*
X106030D01*
Y74870D01*
X105630D01*
Y75870D02*
Y76270D01*
X106030D01*
Y75870D01*
X105630D01*
Y76870D02*
Y77270D01*
X106030D01*
Y76870D01*
X105630D01*
Y77870D02*
Y78270D01*
X106030D01*
Y77870D01*
X105630D01*
Y78870D02*
Y79270D01*
X106030D01*
Y78870D01*
X105630D01*
Y79870D02*
Y80270D01*
X106030D01*
Y79870D01*
X105630D01*
Y80870D02*
Y81270D01*
X106030D01*
Y80870D01*
X105630D01*
Y81870D02*
Y82270D01*
X106030D01*
Y81870D01*
X105630D01*
Y82870D02*
Y83270D01*
X106030D01*
Y82870D01*
X105630D01*
Y83870D02*
Y84270D01*
X106030D01*
Y83870D01*
X105630D01*
Y84870D02*
Y85270D01*
X106030D01*
Y84870D01*
X105630D01*
Y85870D02*
Y86270D01*
X106030D01*
Y85870D01*
X105630D01*
Y86870D02*
Y87270D01*
X106030D01*
Y86870D01*
X105630D01*
X89980Y87120D02*
X89880Y86920D01*
X89980Y87120D02*
X89880Y87320D01*
X90080Y87220D01*
X90280Y87320D01*
X90180Y87120D01*
X90280Y86920D01*
X90080Y87020D01*
X89880Y86920D01*
X90880D02*
X90980Y87120D01*
X90880Y87320D01*
X91080Y87220D01*
X91280Y87320D01*
X91180Y87120D01*
X91280Y86920D01*
X91080Y87020D01*
X90880Y86920D01*
X91880D02*
X91980Y87120D01*
X91880Y87320D01*
X92080Y87220D01*
X92280Y87320D01*
X92180Y87120D01*
X92280Y86920D01*
X92080Y87020D01*
X91880Y86920D01*
X97880Y85020D02*
X98080Y84620D01*
X97880Y85020D02*
X98280D01*
X98080Y84620D01*
X94080D02*
X93880Y85020D01*
X94280D01*
X94080Y84620D01*
X94580Y88620D02*
X94380Y89020D01*
X94780D01*
X94580Y88620D01*
X94380Y88020D02*
X94580Y87620D01*
X94380Y88020D02*
X94780D01*
X94580Y87620D01*
X94380Y87020D02*
X94580Y86620D01*
X94380Y87020D02*
X94780D01*
X94580Y86620D01*
X94380Y86020D02*
X94580Y85620D01*
X94380Y86020D02*
X94780D01*
X94580Y85620D01*
X97380Y86020D02*
X97580Y85620D01*
X97380Y86020D02*
X97780D01*
X97580Y85620D01*
Y86620D02*
X97380Y87020D01*
X97780D01*
X97580Y86620D01*
Y87620D02*
X97380Y88020D01*
X97780D01*
X97580Y87620D01*
Y88620D02*
X97380Y89020D01*
X97780D01*
X97580Y88620D01*
D02*
M02*
