*%FSLAX24Y24*%
*%MOIN*%
G01*
%ADD11C,0.0050*%
%ADD12C,0.0060*%
%ADD13C,0.0072*%
%ADD14C,0.0073*%
%ADD15C,0.0080*%
%ADD16C,0.0100*%
%ADD17C,0.0120*%
%ADD18C,0.0200*%
%ADD19C,0.0260*%
%ADD20C,0.0300*%
%ADD21C,0.0350*%
%ADD22C,0.0380*%
%ADD23C,0.0450*%
%ADD24C,0.0500*%
%ADD25C,0.0530*%
%ADD26C,0.0550*%
%ADD27C,0.0580*%
%ADD28C,0.0620*%
%ADD29C,0.0660*%
%ADD30C,0.0700*%
%ADD31C,0.0750*%
%ADD32C,0.0780*%
%ADD33C,0.0830*%
%ADD34C,0.0950*%
%ADD35C,0.1400*%
%ADD36C,0.1800*%
%ADD37C,0.1880*%
%ADD38R,0.0620X0.0620*%
%ADD39R,0.0700X0.0700*%
%ADD40R,0.0780X0.0780*%
G54D16*
X92080Y71320D02*
X93580Y72820D01*
X96380D01*
X97880Y74320D01*
X95080Y72320D02*
X94080Y71320D01*
X95080Y72320D02*
X96480D01*
X98580Y74420D01*
Y75820D01*
X99830Y75070D02*
X96080Y71320D01*
X97880Y74320D02*
Y75770D01*
X99330Y77570D02*
X101580D01*
X102580Y78570D01*
Y83820D01*
X105830Y87070D01*
X96480Y83320D02*
X92630D01*
X96480D02*
X96980Y83820D01*
X98080D01*
X96480Y82270D02*
X95130D01*
X96480D02*
X96980Y81770D01*
X97880D01*
X99280Y78570D02*
X100130D01*
X99280D02*
X98480Y77770D01*
X97880D01*
X96830Y78020D02*
Y80520D01*
X96580Y80770D01*
X95630D01*
X96830Y78020D02*
X97080Y77770D01*
X97880D01*
X93480Y80090D02*
Y75420D01*
X95080Y73820D01*
X95580D01*
X99830Y79070D02*
X99080Y79820D01*
X98680Y85720D02*
X97580Y86820D01*
X98680Y85720D02*
Y82620D01*
X99080Y82220D01*
Y81820D01*
X97580Y85820D02*
X97080D01*
Y85370D02*
Y87070D01*
Y85370D02*
X97630Y84820D01*
X98080D01*
X99080Y82820D02*
X99830Y82070D01*
X99080Y82820D02*
Y86220D01*
X97980Y87320D01*
X97330D01*
X97080Y87070D01*
X99080Y81820D02*
X99830Y81070D01*
X92530Y82770D02*
X91280Y81520D01*
Y79920D01*
X91550Y79650D01*
X90980Y81670D02*
X92630Y83320D01*
X90980Y81670D02*
Y79020D01*
X91440Y78560D01*
X92830D01*
X98580Y80320D02*
X99830Y79070D01*
X98580Y80320D02*
Y82070D01*
X97880Y82770D01*
X95630D02*
Y83320D01*
X94080Y77770D02*
Y76770D01*
Y80770D02*
Y81770D01*
X97880D02*
Y80770D01*
X94580Y80270D02*
X94080Y80770D01*
X94580Y80270D02*
X95330D01*
X95830Y76270D02*
X94580D01*
X94080Y76770D01*
X95130Y75770D02*
X96380D01*
X97880D01*
X96130Y77270D02*
X95630Y77770D01*
X96130Y77270D02*
Y75770D01*
X93480Y80090D02*
X92830Y80740D01*
Y79650D02*
X91550D01*
X95230Y74620D02*
X95580D01*
X95230D02*
X94080Y75770D01*
X95580Y74620D02*
X96580D01*
X105830Y86070D02*
X106580D01*
X107080Y86570D01*
X107830D01*
Y84570D02*
X107080D01*
X106580Y85070D01*
X105830D01*
X108080Y81820D02*
Y71320D01*
Y81820D02*
X105830Y84070D01*
Y80070D02*
X107330Y78570D01*
X107730Y80170D02*
X105830Y82070D01*
X107730Y80170D02*
Y72970D01*
X106080Y71320D01*
X106930Y76970D02*
X105830Y78070D01*
Y76070D02*
X106530Y75370D01*
X105830Y74070D02*
X100830D01*
X98080Y71320D01*
X106530Y73820D02*
Y75370D01*
Y73820D02*
X106030Y73320D01*
X102080D01*
X100080Y71320D01*
X106930Y73570D02*
Y76970D01*
Y73570D02*
X106180Y72820D01*
X103580D01*
X102080Y71320D01*
X107330Y73320D02*
Y78570D01*
Y73320D02*
X106330Y72320D01*
X105080D01*
X104080Y71320D01*
X98580Y75820D02*
X99830Y77070D01*
X99081Y76971D02*
X97880Y75770D01*
X99081Y76971D02*
Y77321D01*
X99330Y77570D01*
X100430Y79470D02*
X99830Y80070D01*
X100430Y79470D02*
Y78870D01*
X100130Y78570D01*
X94080Y82770D02*
X92530D01*
X105260Y88260D02*
Y88860D01*
X105517D01*
X105603Y88831D01*
X105631Y88803D01*
X105660Y88746D01*
Y88688D01*
X105631Y88631D01*
X105603Y88603D01*
X105517Y88574D01*
X105260D01*
X105460D02*
X105660Y88260D01*
X105794Y88489D02*
X106137D01*
Y88546D01*
X106108Y88603D01*
X106080Y88631D01*
X106023Y88660D01*
X105937D01*
X105880Y88631D01*
X105823Y88574D01*
X105794Y88489D01*
Y88431D01*
X105823Y88346D01*
X105880Y88289D01*
X105937Y88260D01*
X106023D01*
X106080Y88289D01*
X106137Y88346D01*
X106437Y88260D02*
X106265Y88660D01*
X106608D02*
X106437Y88260D01*
X107405Y88860D02*
X107634Y88260D01*
X107177D02*
X107405Y88860D01*
X107262Y88460D02*
X107548D01*
G54D20*
X97580Y88820D02*
X96580D01*
X96080Y88320D02*
Y85320D01*
X95580Y84820D02*
X94080D01*
X92080Y86320D02*
X90580Y84820D01*
Y73670D01*
X91080Y73170D01*
Y71320D01*
X92080Y86320D02*
Y87120D01*
X95580Y84820D02*
X95613Y84821D01*
X95645Y84824D01*
X95678Y84830D01*
X95709Y84837D01*
X95741Y84847D01*
X95771Y84858D01*
X95801Y84872D01*
X95830Y84887D01*
X95858Y84904D01*
X95884Y84923D01*
X95910Y84944D01*
X95934Y84966D01*
X95956Y84990D01*
X95977Y85016D01*
X95996Y85042D01*
X96013Y85070D01*
X96028Y85099D01*
X96042Y85129D01*
X96053Y85159D01*
X96063Y85191D01*
X96070Y85222D01*
X96076Y85255D01*
X96079Y85287D01*
X96080Y85320D01*
Y88320D02*
X96081Y88353D01*
X96084Y88385D01*
X96090Y88418D01*
X96097Y88449D01*
X96107Y88481D01*
X96118Y88511D01*
X96132Y88541D01*
X96147Y88570D01*
X96164Y88598D01*
X96183Y88624D01*
X96204Y88650D01*
X96226Y88674D01*
X96250Y88696D01*
X96276Y88717D01*
X96302Y88736D01*
X96330Y88753D01*
X96359Y88768D01*
X96389Y88782D01*
X96419Y88793D01*
X96451Y88803D01*
X96482Y88810D01*
X96515Y88816D01*
X96547Y88819D01*
X96580Y88820D01*
G54D23*
X91080Y89320D02*
D03*
Y88720D02*
D03*
G54D24*
X95630Y78770D02*
D03*
Y77770D02*
D03*
X95130Y78270D02*
D03*
Y75770D02*
D03*
Y76770D02*
D03*
X95630Y76270D02*
D03*
Y82770D02*
D03*
Y81770D02*
D03*
X95130Y82270D02*
D03*
X95630Y80770D02*
D03*
Y79770D02*
D03*
X95130Y80270D02*
D03*
G54D28*
X95580Y74620D02*
D03*
Y73820D02*
D03*
X96580Y74620D02*
D03*
Y73820D02*
D03*
X94080Y83820D02*
D03*
X98080D02*
D03*
X107830Y85570D02*
D03*
Y84570D02*
D03*
X91830Y81290D02*
D03*
Y80200D02*
D03*
Y79110D02*
D03*
Y78020D02*
D03*
X92830Y81830D02*
D03*
Y80740D02*
D03*
Y79650D02*
D03*
Y78560D02*
D03*
X98080Y84820D02*
D03*
X94080D02*
D03*
X94580Y87820D02*
D03*
Y86820D02*
D03*
Y85820D02*
D03*
X97580D02*
D03*
Y86820D02*
D03*
Y87820D02*
D03*
Y88820D02*
D03*
G54D30*
X90080Y71320D02*
D03*
X91080D02*
D03*
X92080D02*
D03*
X93080D02*
D03*
X94080D02*
D03*
X95080D02*
D03*
X96080D02*
D03*
X97080D02*
D03*
X98080D02*
D03*
X99080D02*
D03*
X100080D02*
D03*
X101080D02*
D03*
X102080D02*
D03*
X103080D02*
D03*
X104080D02*
D03*
X105080D02*
D03*
X106080D02*
D03*
X107080D02*
D03*
X108080D02*
D03*
X94080Y75770D02*
D03*
Y76770D02*
D03*
Y77770D02*
D03*
Y78770D02*
D03*
Y79770D02*
D03*
Y80770D02*
D03*
Y81770D02*
D03*
X97880Y75770D02*
D03*
Y76770D02*
D03*
Y77770D02*
D03*
Y78770D02*
D03*
Y79770D02*
D03*
Y80770D02*
D03*
Y81770D02*
D03*
X99830Y86070D02*
D03*
Y85070D02*
D03*
Y84070D02*
D03*
Y83070D02*
D03*
Y82070D02*
D03*
Y81070D02*
D03*
Y80070D02*
D03*
Y79070D02*
D03*
Y78070D02*
D03*
Y77070D02*
D03*
Y76070D02*
D03*
Y75070D02*
D03*
Y74070D02*
D03*
X105830D02*
D03*
Y75070D02*
D03*
Y76070D02*
D03*
Y77070D02*
D03*
Y78070D02*
D03*
Y79070D02*
D03*
Y80070D02*
D03*
Y81070D02*
D03*
Y82070D02*
D03*
Y83070D02*
D03*
Y84070D02*
D03*
Y85070D02*
D03*
Y86070D02*
D03*
Y87070D02*
D03*
G54D31*
X90080Y87120D02*
D03*
X91080D02*
D03*
X92080D02*
D03*
G54D36*
X92330Y84580D02*
D03*
Y74720D02*
D03*
G54D38*
X107830Y86570D02*
D03*
X92830Y77470D02*
D03*
X94580Y88820D02*
D03*
G54D39*
X89080Y71320D02*
D03*
X94080Y82770D02*
D03*
X97880D02*
D03*
X99830Y87070D02*
D03*
M02*
