*%FSLAX24Y24*%
*%MOIN*%
G01*
%ADD11C,0.0020*%
%ADD12C,0.0060*%
%ADD13C,0.0073*%
%ADD14C,0.0080*%
%ADD15C,0.0090*%
%ADD16C,0.0100*%
%ADD17C,0.0120*%
%ADD18C,0.0200*%
%ADD19C,0.0260*%
%ADD20C,0.0380*%
%ADD21C,0.0450*%
%ADD22C,0.0500*%
%ADD23C,0.0530*%
%ADD24C,0.0550*%
%ADD25C,0.0580*%
%ADD26C,0.0660*%
%ADD27C,0.0700*%
%ADD28C,0.0750*%
%ADD29C,0.0780*%
%ADD30C,0.0830*%
%ADD31C,0.0950*%
%ADD32R,0.0700X0.0700*%
%ADD33R,0.0780X0.0780*%
G54D11*
X98350Y84290D02*
X98650D01*
X98500Y84140D02*
Y84440D01*
X98350Y83290D02*
X98650D01*
X98500Y83140D02*
Y83440D01*
X98350Y82290D02*
X98650D01*
X98500Y82140D02*
Y82440D01*
X98350Y81290D02*
X98650D01*
X98500Y81140D02*
Y81440D01*
X95650Y81290D02*
X95350D01*
X95500Y81140D02*
Y81440D01*
X95350Y82290D02*
X95650D01*
X95500Y82140D02*
Y82440D01*
X95350Y83290D02*
X95650D01*
X95500Y83140D02*
Y83440D01*
X95350Y84290D02*
X95650D01*
X95500Y84140D02*
Y84440D01*
X92900Y77240D02*
X92600D01*
X92750Y77090D02*
Y77390D01*
X93600Y77240D02*
X93900D01*
X93750Y77090D02*
Y77390D01*
X94600Y77240D02*
X94900D01*
X94750Y77090D02*
Y77390D01*
X103850Y85790D02*
X104150D01*
X104000Y85640D02*
Y85940D01*
X103150Y85790D02*
X102850D01*
X103000Y85640D02*
Y85940D01*
X102150Y85790D02*
X101850D01*
X102000Y85640D02*
Y85940D01*
X97900Y77220D02*
X97600D01*
X97750Y77070D02*
Y77370D01*
X98100Y77720D02*
X98400D01*
X98250Y77570D02*
Y77870D01*
X97400Y77720D02*
X97100D01*
X97250Y77570D02*
Y77870D01*
X99850Y84290D02*
X100150D01*
X100000Y84140D02*
Y84440D01*
X99850Y83290D02*
X100150D01*
X100000Y83140D02*
Y83440D01*
X99850Y82290D02*
X100150D01*
X100000Y82140D02*
Y82440D01*
X99850Y81290D02*
X100150D01*
X100000Y81140D02*
Y81440D01*
X99850Y80290D02*
X100150D01*
X100000Y80140D02*
Y80440D01*
X99850Y79290D02*
X100150D01*
X100000Y79140D02*
Y79440D01*
X99850Y78290D02*
X100150D01*
X100000Y78140D02*
Y78440D01*
X99850Y77290D02*
X100150D01*
X100000Y77140D02*
Y77440D01*
X93600Y79540D02*
X93300D01*
X93450Y79390D02*
Y79690D01*
X93900Y79540D02*
X94200D01*
X94050Y79390D02*
Y79690D01*
X94100Y82290D02*
X94400D01*
X94250Y82140D02*
Y82440D01*
X94100Y83290D02*
X94400D01*
X94250Y83140D02*
Y83440D01*
X94100Y84290D02*
X94400D01*
X94250Y84140D02*
Y84440D01*
X92400Y74040D02*
X92100D01*
X92250Y73890D02*
Y74190D01*
X93100Y74040D02*
X93400D01*
X93250Y73890D02*
Y74190D01*
X94100Y74040D02*
X94400D01*
X94250Y73890D02*
Y74190D01*
X95100Y74040D02*
X95400D01*
X95250Y73890D02*
Y74190D01*
X96100Y74040D02*
X96400D01*
X96250Y73890D02*
Y74190D01*
X97100Y74040D02*
X97400D01*
X97250Y73890D02*
Y74190D01*
X98100Y74040D02*
X98400D01*
X98250Y73890D02*
Y74190D01*
X99100Y74040D02*
X99400D01*
X99250Y73890D02*
Y74190D01*
X100100Y74040D02*
X100400D01*
X100250Y73890D02*
Y74190D01*
X101100Y74040D02*
X101400D01*
X101250Y73890D02*
Y74190D01*
X102100Y74040D02*
X102400D01*
X102250Y73890D02*
Y74190D01*
X103100Y74040D02*
X103400D01*
X103250Y73890D02*
Y74190D01*
X104100Y74040D02*
X104400D01*
X104250Y73890D02*
Y74190D01*
X105100Y74040D02*
X105400D01*
X105250Y73890D02*
Y74190D01*
X104650Y84290D02*
X104350D01*
X104500Y84140D02*
Y84440D01*
X104350Y83290D02*
X104650D01*
X104500Y83140D02*
Y83440D01*
X104350Y82290D02*
X104650D01*
X104500Y82140D02*
Y82440D01*
X104350Y81290D02*
X104650D01*
X104500Y81140D02*
Y81440D01*
X104350Y80290D02*
X104650D01*
X104500Y80140D02*
Y80440D01*
X104350Y79290D02*
X104650D01*
X104500Y79140D02*
Y79440D01*
X104350Y78290D02*
X104650D01*
X104500Y78140D02*
Y78440D01*
X104350Y77290D02*
X104650D01*
X104500Y77140D02*
Y77440D01*
X104350Y76290D02*
X104650D01*
X104500Y76140D02*
Y76440D01*
X101650Y76290D02*
X101350D01*
X101500Y76140D02*
Y76440D01*
X101350Y77290D02*
X101650D01*
X101500Y77140D02*
Y77440D01*
X101350Y78290D02*
X101650D01*
X101500Y78140D02*
Y78440D01*
X101350Y79290D02*
X101650D01*
X101500Y79140D02*
Y79440D01*
X101350Y80290D02*
X101650D01*
X101500Y80140D02*
Y80440D01*
X101350Y81290D02*
X101650D01*
X101500Y81140D02*
Y81440D01*
X101350Y82290D02*
X101650D01*
X101500Y82140D02*
Y82440D01*
X101350Y83290D02*
X101650D01*
X101500Y83140D02*
Y83440D01*
X101350Y84290D02*
X101650D01*
X101500Y84140D02*
Y84440D01*
D02*
M02*
