*%FSLAX24Y24*%
*%MOIN*%
G01*
%ADD11C,0.0020*%
%ADD12C,0.0060*%
%ADD13C,0.0073*%
%ADD14C,0.0080*%
%ADD15C,0.0090*%
%ADD16C,0.0100*%
%ADD17C,0.0120*%
%ADD18C,0.0200*%
%ADD19C,0.0260*%
%ADD20C,0.0380*%
%ADD21C,0.0450*%
%ADD22C,0.0500*%
%ADD23C,0.0530*%
%ADD24C,0.0550*%
%ADD25C,0.0580*%
%ADD26C,0.0660*%
%ADD27C,0.0700*%
%ADD28C,0.0750*%
%ADD29C,0.0780*%
%ADD30C,0.0830*%
%ADD31C,0.0950*%
%ADD32R,0.0700X0.0700*%
%ADD33R,0.0780X0.0780*%
G54D14*
X104030Y86430D02*
Y86830D01*
X104201D01*
X104259Y86811D01*
X104278Y86792D01*
X104297Y86754D01*
Y86716D01*
X104278Y86678D01*
X104259Y86659D01*
X104201Y86639D01*
X104030D01*
X104163D02*
X104297Y86430D01*
X104386Y86582D02*
X104615D01*
Y86620D01*
X104596Y86659D01*
X104577Y86678D01*
X104538Y86697D01*
X104481D01*
X104443Y86678D01*
X104405Y86639D01*
X104386Y86582D01*
Y86544D01*
X104405Y86487D01*
X104443Y86449D01*
X104481Y86430D01*
X104538D01*
X104577Y86449D01*
X104615Y86487D01*
X104815Y86430D02*
X104700Y86697D01*
X104929D02*
X104815Y86430D01*
X105460Y86830D02*
X105613Y86430D01*
X105308D02*
X105460Y86830D01*
X105365Y86563D02*
X105555D01*
G54D16*
X101500Y81290D02*
X101000D01*
X100750Y81040D01*
Y77540D01*
X100500Y77290D02*
X100000D01*
X100500D02*
X100750Y77540D01*
X99500Y82290D02*
X99250Y82540D01*
X99500Y82290D02*
X100000D01*
X99250Y82540D02*
Y84790D01*
X94250D02*
Y84290D01*
Y84790D02*
X94500Y85040D01*
X100000Y82290D02*
X101500D01*
X99250Y84790D02*
X99000Y85040D01*
X94500D01*
G54D18*
X97250Y78690D02*
Y77720D01*
X98850Y80290D02*
X100000D01*
X98850D02*
X97250Y78690D01*
X93750D01*
X93450Y78990D02*
Y79540D01*
Y78990D02*
X93750Y78690D01*
Y77240D01*
X99250Y76040D02*
X99650Y75640D01*
X102600D01*
X103000Y76040D01*
Y79540D01*
Y81040D02*
Y85790D01*
Y81040D02*
X102250Y80290D01*
X101500D01*
X103000Y79540D02*
Y76090D01*
Y79540D02*
X103750Y80290D01*
X104500D01*
X100000Y78290D02*
X99500D01*
X99250Y78040D01*
Y76040D01*
Y77240D02*
X94750D01*
G54D21*
X93450Y79540D02*
D03*
X94050D02*
D03*
G54D22*
X97750Y77220D02*
D03*
X98250Y77720D02*
D03*
X97250D02*
D03*
G54D27*
X98500Y84290D02*
D03*
Y83290D02*
D03*
Y82290D02*
D03*
Y81290D02*
D03*
X95500D02*
D03*
Y82290D02*
D03*
Y83290D02*
D03*
X104000Y85790D02*
D03*
X103000D02*
D03*
X100000Y83290D02*
D03*
Y82290D02*
D03*
Y81290D02*
D03*
Y80290D02*
D03*
Y79290D02*
D03*
Y78290D02*
D03*
Y77290D02*
D03*
X94250Y83290D02*
D03*
Y84290D02*
D03*
X93250Y74040D02*
D03*
X94250D02*
D03*
X95250D02*
D03*
X96250D02*
D03*
X97250D02*
D03*
X98250D02*
D03*
X99250D02*
D03*
X100250D02*
D03*
X101250D02*
D03*
X102250D02*
D03*
X103250D02*
D03*
X104250D02*
D03*
X105250D02*
D03*
X104500Y84290D02*
D03*
Y83290D02*
D03*
Y82290D02*
D03*
Y81290D02*
D03*
Y80290D02*
D03*
Y79290D02*
D03*
Y78290D02*
D03*
Y77290D02*
D03*
Y76290D02*
D03*
X101500D02*
D03*
Y77290D02*
D03*
Y78290D02*
D03*
Y79290D02*
D03*
Y80290D02*
D03*
Y81290D02*
D03*
Y82290D02*
D03*
Y83290D02*
D03*
G54D28*
X92750Y77240D02*
D03*
X93750D02*
D03*
X94750D02*
D03*
G54D32*
X95500Y84290D02*
D03*
X102000Y85790D02*
D03*
X100000Y84290D02*
D03*
X94250Y82290D02*
D03*
X92250Y74040D02*
D03*
X101500Y84290D02*
D03*
M02*
