*%FSLAX24Y24*%
*%MOIN*%
G01*
%ADD11C,0.0020*%
%ADD12C,0.0060*%
%ADD13C,0.0073*%
%ADD14C,0.0080*%
%ADD15C,0.0090*%
%ADD16C,0.0100*%
%ADD17C,0.0120*%
%ADD18C,0.0200*%
%ADD19C,0.0260*%
%ADD20C,0.0380*%
%ADD21C,0.0450*%
%ADD22C,0.0500*%
%ADD23C,0.0530*%
%ADD24C,0.0550*%
%ADD25C,0.0580*%
%ADD26C,0.0660*%
%ADD27C,0.0700*%
%ADD28C,0.0750*%
%ADD29C,0.0780*%
%ADD30C,0.0830*%
%ADD31C,0.0950*%
%ADD32R,0.0700X0.0700*%
%ADD33R,0.0780X0.0780*%
G54D12*
X101121Y74922D02*
X101350D01*
X101121D02*
Y74960D01*
X101141Y74999D01*
X101160Y75018D01*
X101198Y75037D01*
X101255D01*
X101293Y75018D01*
X101331Y74979D01*
X101350Y74922D01*
Y74884D01*
X101331Y74827D01*
X101293Y74789D01*
X101255Y74770D01*
X101198D01*
X101160Y74789D01*
X101121Y74827D01*
X101036Y74770D02*
Y75037D01*
X100979Y75018D02*
X101036Y74960D01*
X100979Y75018D02*
X100941Y75037D01*
X100883D01*
X100845Y75018D01*
X100826Y74960D01*
Y74770D01*
Y74960D02*
X100769Y75018D01*
X100731Y75037D01*
X100674D01*
X100636Y75018D01*
X100617Y74960D01*
Y74770D01*
X100263D02*
Y75037D01*
X100301Y75018D02*
X100263Y74979D01*
X100301Y75018D02*
X100339Y75037D01*
X100396D01*
X100434Y75018D01*
X100472Y74979D01*
X100491Y74922D01*
Y74884D01*
X100472Y74827D01*
X100434Y74789D01*
X100396Y74770D01*
X100339D01*
X100301Y74789D01*
X100263Y74827D01*
X100099Y75151D02*
X100118Y75170D01*
X100099Y75151D02*
X100080Y75170D01*
X100099Y75189D01*
X100118Y75170D01*
X100099Y75037D02*
Y74770D01*
X100009D02*
Y75170D01*
X99906Y75037D02*
X99926Y75018D01*
X99906Y74999D01*
X99887Y75018D01*
X99906Y75037D01*
Y74808D02*
X99926Y74789D01*
X99906Y74770D01*
X99887Y74789D01*
X99906Y74808D01*
X99295Y75018D02*
X99276Y74979D01*
X99295Y75018D02*
X99352Y75037D01*
X99409D01*
X99467Y75018D01*
X99486Y74979D01*
X99467Y74941D01*
X99429Y74922D01*
X99333Y74903D01*
X99295Y74884D01*
X99276Y74846D01*
Y74827D01*
X99295Y74789D01*
X99352Y74770D01*
X99409D01*
X99467Y74789D01*
X99486Y74827D01*
X99135Y74846D02*
Y75170D01*
Y74846D02*
X99116Y74789D01*
X99078Y74770D01*
X99040D01*
X99059Y75037D02*
X99192D01*
X98754D02*
Y74770D01*
Y74979D02*
X98792Y75018D01*
X98831Y75037D01*
X98888D01*
X98926Y75018D01*
X98964Y74979D01*
X98983Y74922D01*
Y74884D01*
X98964Y74827D01*
X98926Y74789D01*
X98888Y74770D01*
X98831D01*
X98792Y74789D01*
X98754Y74827D01*
X98648Y74770D02*
Y75037D01*
X98591Y75018D02*
X98648Y74960D01*
X98591Y75018D02*
X98553Y75037D01*
X98495D01*
X98457Y75018D01*
X98438Y74960D01*
Y74770D01*
Y74960D02*
X98381Y75018D01*
X98343Y75037D01*
X98286D01*
X98248Y75018D01*
X98229Y74960D01*
Y74770D01*
X98103Y74637D02*
Y75037D01*
X98065Y75018D02*
X98103Y74979D01*
X98065Y75018D02*
X98027Y75037D01*
X97970D01*
X97932Y75018D01*
X97894Y74979D01*
X97875Y74922D01*
Y74884D01*
X97894Y74827D01*
X97932Y74789D01*
X97970Y74770D01*
X98027D01*
X98065Y74789D01*
X98103Y74827D01*
X97732Y74846D02*
Y75170D01*
Y74846D02*
X97713Y74789D01*
X97675Y74770D01*
X97637D01*
X97656Y75037D02*
X97789D01*
X97579Y74922D02*
X97351D01*
Y74960D01*
X97370Y74999D01*
X97389Y75018D01*
X97427Y75037D01*
X97484D01*
X97522Y75018D01*
X97560Y74979D01*
X97579Y74922D01*
Y74884D01*
X97560Y74827D01*
X97522Y74789D01*
X97484Y74770D01*
X97427D01*
X97389Y74789D01*
X97351Y74827D01*
X97075Y75018D02*
X97037Y74979D01*
X97075Y75018D02*
X97113Y75037D01*
X97170D01*
X97208Y75018D01*
X97246Y74979D01*
X97265Y74922D01*
Y74884D01*
X97246Y74827D01*
X97208Y74789D01*
X97170Y74770D01*
X97113D01*
X97075Y74789D01*
X97037Y74827D01*
X96951Y74770D02*
Y75170D01*
X96894Y75018D02*
X96951Y74960D01*
X96894Y75018D02*
X96856Y75037D01*
X96799D01*
X96761Y75018D01*
X96741Y74960D01*
Y74770D01*
X96351Y75018D02*
X96370Y75056D01*
X96408Y75075D01*
X96465D01*
X96503Y75056D01*
X96522Y75037D01*
X96542Y74979D01*
Y74922D01*
X96522Y74884D01*
X96484Y74865D01*
X96427D01*
X96389Y74884D01*
X96370Y74922D01*
X96503Y75037D02*
X96465Y75075D01*
X96503Y75037D02*
X96522Y74979D01*
Y74922D01*
X96503Y74884D01*
X96484Y74865D01*
X96370Y74922D02*
X96351Y75075D01*
X96370Y74922D02*
Y74884D01*
X96332Y74865D01*
X96294D01*
X96256Y74903D01*
X96237Y74960D01*
Y74999D01*
X96256Y75056D01*
X96275Y75094D01*
X96313Y75132D01*
X96351Y75151D01*
X96408Y75170D01*
X96465D01*
X96522Y75151D01*
X96561Y75132D01*
X96599Y75094D01*
X96618Y75056D01*
X96637Y74999D01*
Y74941D01*
X96618Y74884D01*
X96599Y74846D01*
X96561Y74808D01*
X96522Y74789D01*
X96465Y74770D01*
X96408D01*
X96351Y74789D01*
X96313Y74808D01*
X96294Y74827D01*
X96351Y74922D02*
X96332Y75075D01*
X96351Y74922D02*
Y74884D01*
X96332Y74865D01*
X96134Y75037D02*
Y74637D01*
Y74979D02*
X96096Y75018D01*
X96058Y75037D01*
X96001D01*
X95963Y75018D01*
X95925Y74979D01*
X95905Y74922D01*
Y74884D01*
X95925Y74827D01*
X95963Y74789D01*
X96001Y74770D01*
X96058D01*
X96096Y74789D01*
X96134Y74827D01*
X95591Y74770D02*
Y75037D01*
X95629Y75018D02*
X95591Y74979D01*
X95629Y75018D02*
X95667Y75037D01*
X95725D01*
X95763Y75018D01*
X95801Y74979D01*
X95820Y74922D01*
Y74884D01*
X95801Y74827D01*
X95763Y74789D01*
X95725Y74770D01*
X95667D01*
X95629Y74789D01*
X95591Y74827D01*
X95485Y74770D02*
Y75037D01*
X95466Y74979D02*
X95485Y74922D01*
X95466Y74979D02*
X95427Y75018D01*
X95389Y75037D01*
X95332D01*
X95068D02*
Y74770D01*
Y74979D02*
X95106Y75018D01*
X95144Y75037D01*
X95201D01*
X95239Y75018D01*
X95277Y74979D01*
X95296Y74922D01*
Y74884D01*
X95277Y74827D01*
X95239Y74789D01*
X95201Y74770D01*
X95144D01*
X95106Y74789D01*
X95068Y74827D01*
X94961Y74770D02*
Y75170D01*
X94877D02*
Y74770D01*
X94565D02*
Y75037D01*
X94603Y75018D02*
X94565Y74979D01*
X94603Y75018D02*
X94641Y75037D01*
X94698D01*
X94736Y75018D01*
X94774Y74979D01*
X94793Y74922D01*
Y74884D01*
X94774Y74827D01*
X94736Y74789D01*
X94698Y74770D01*
X94641D01*
X94603Y74789D01*
X94565Y74827D01*
X94458Y75037D02*
X94249Y74770D01*
X94458D02*
X94249Y75037D01*
X94127Y75170D02*
X94108Y75151D01*
X94089Y75170D01*
X94108Y75189D01*
X94127Y75170D01*
X94108Y75037D02*
Y74770D01*
X94018D02*
Y75037D01*
X93961Y75018D02*
X94018Y74960D01*
X93961Y75018D02*
X93923Y75037D01*
X93866D01*
X93828Y75018D01*
X93809Y74960D01*
Y74770D01*
X93514Y75018D02*
X93475Y74979D01*
X93514Y75018D02*
X93552Y75037D01*
X93609D01*
X93647Y75018D01*
X93685Y74979D01*
X93704Y74922D01*
Y74884D01*
X93685Y74827D01*
X93647Y74789D01*
X93609Y74770D01*
X93552D01*
X93514Y74789D01*
X93475Y74827D01*
X93390Y74789D02*
X93371Y74808D01*
X93390Y74789D02*
X93371Y74770D01*
X93352Y74789D01*
X93371Y74808D01*
X93074Y75018D02*
X93036Y74979D01*
X93074Y75018D02*
X93112Y75037D01*
X93169D01*
X93207Y75018D01*
X93245Y74979D01*
X93264Y74922D01*
Y74884D01*
X93245Y74827D01*
X93207Y74789D01*
X93169Y74770D01*
X93112D01*
X93074Y74789D01*
X93036Y74827D01*
X92893Y75018D02*
X92855Y75037D01*
X92893Y75018D02*
X92931Y74979D01*
X92950Y74922D01*
Y74884D01*
X92931Y74827D01*
X92893Y74789D01*
X92855Y74770D01*
X92798D01*
X92759Y74789D01*
X92721Y74827D01*
X92702Y74884D01*
Y74922D01*
X92721Y74979D01*
X92759Y75018D01*
X92798Y75037D01*
X92855D01*
X92615D02*
Y74770D01*
Y74960D02*
X92558Y75018D01*
X92520Y75037D01*
X92462D01*
X92424Y75018D01*
X92405Y74960D01*
Y74770D01*
Y74960D02*
X92348Y75018D01*
X92310Y75037D01*
X92253D01*
X92215Y75018D01*
X92196Y74960D01*
Y74770D01*
X101260Y75400D02*
Y75800D01*
X100993Y75400D01*
Y75800D01*
X100883Y75552D02*
X100654D01*
Y75590D01*
X100673Y75629D01*
X100692Y75648D01*
X100731Y75667D01*
X100788D01*
X100826Y75648D01*
X100864Y75609D01*
X100883Y75552D01*
Y75514D01*
X100864Y75457D01*
X100826Y75419D01*
X100788Y75400D01*
X100731D01*
X100692Y75419D01*
X100654Y75457D01*
X100569Y75552D02*
X100340D01*
Y75590D01*
X100359Y75629D01*
X100378Y75648D01*
X100416Y75667D01*
X100474D01*
X100512Y75648D01*
X100550Y75609D01*
X100569Y75552D01*
Y75514D01*
X100550Y75457D01*
X100512Y75419D01*
X100474Y75400D01*
X100416D01*
X100378Y75419D01*
X100340Y75457D01*
X100026Y75400D02*
Y75800D01*
X100064Y75648D02*
X100026Y75609D01*
X100064Y75648D02*
X100102Y75667D01*
X100159D01*
X100197Y75648D01*
X100235Y75609D01*
X100255Y75552D01*
Y75514D01*
X100235Y75457D01*
X100197Y75419D01*
X100159Y75400D01*
X100102D01*
X100064Y75419D01*
X100026Y75457D01*
X99472Y75400D02*
Y75800D01*
X99605D02*
X99339D01*
X99291Y75552D02*
X99062D01*
Y75590D01*
X99081Y75629D01*
X99100Y75648D01*
X99139Y75667D01*
X99196D01*
X99234Y75648D01*
X99272Y75609D01*
X99291Y75552D01*
Y75514D01*
X99272Y75457D01*
X99234Y75419D01*
X99196Y75400D01*
X99139D01*
X99100Y75419D01*
X99062Y75457D01*
X98786Y75648D02*
X98748Y75609D01*
X98786Y75648D02*
X98824Y75667D01*
X98881D01*
X98920Y75648D01*
X98958Y75609D01*
X98977Y75552D01*
Y75514D01*
X98958Y75457D01*
X98920Y75419D01*
X98881Y75400D01*
X98824D01*
X98786Y75419D01*
X98748Y75457D01*
X98662Y75400D02*
Y75800D01*
X98605Y75648D02*
X98662Y75590D01*
X98605Y75648D02*
X98567Y75667D01*
X98510D01*
X98472Y75648D01*
X98453Y75590D01*
Y75400D01*
X97806Y75781D02*
X97767Y75743D01*
X97806Y75781D02*
X97863Y75800D01*
X97939D01*
X97996Y75781D01*
X98034Y75743D01*
Y75705D01*
X98015Y75667D01*
X97996Y75648D01*
X97958Y75629D01*
X97844Y75590D01*
X97806Y75571D01*
X97786Y75552D01*
X97767Y75514D01*
Y75457D01*
X97806Y75419D01*
X97863Y75400D01*
X97939D01*
X97996Y75419D01*
X98034Y75457D01*
X97678Y75476D02*
Y75667D01*
Y75476D02*
X97659Y75419D01*
X97621Y75400D01*
X97564D01*
X97526Y75419D01*
X97468Y75476D01*
Y75400D02*
Y75667D01*
X97364D02*
Y75267D01*
Y75609D02*
X97326Y75648D01*
X97288Y75667D01*
X97230D01*
X97192Y75648D01*
X97154Y75609D01*
X97135Y75552D01*
Y75514D01*
X97154Y75457D01*
X97192Y75419D01*
X97230Y75400D01*
X97288D01*
X97326Y75419D01*
X97364Y75457D01*
X97049Y75267D02*
Y75667D01*
X97011Y75648D02*
X97049Y75609D01*
X97011Y75648D02*
X96973Y75667D01*
X96916D01*
X96878Y75648D01*
X96840Y75609D01*
X96821Y75552D01*
Y75514D01*
X96840Y75457D01*
X96878Y75419D01*
X96916Y75400D01*
X96973D01*
X97011Y75419D01*
X97049Y75457D01*
X96678Y75648D02*
X96640Y75667D01*
X96678Y75648D02*
X96716Y75609D01*
X96735Y75552D01*
Y75514D01*
X96716Y75457D01*
X96678Y75419D01*
X96640Y75400D01*
X96583D01*
X96545Y75419D01*
X96507Y75457D01*
X96488Y75514D01*
Y75552D01*
X96507Y75609D01*
X96545Y75648D01*
X96583Y75667D01*
X96640D01*
X96400D02*
Y75400D01*
Y75552D02*
X96381Y75609D01*
X96343Y75648D01*
X96305Y75667D01*
X96248D01*
X96154Y75800D02*
Y75476D01*
X96135Y75419D01*
X96097Y75400D01*
X96059D01*
X96078Y75667D02*
X96212D01*
X96002Y75705D02*
Y75724D01*
X95983Y75762D01*
X95964Y75781D01*
X95926Y75800D01*
X95850D01*
X95812Y75781D01*
X95793Y75762D01*
X95774Y75724D01*
Y75686D01*
X95793Y75648D01*
X95812Y75629D01*
X95888Y75590D01*
Y75533D01*
Y75438D02*
X95907Y75419D01*
X95888Y75400D01*
X95869Y75419D01*
X95888Y75438D01*
X99420Y80120D02*
Y80520D01*
X99249D01*
X99191Y80501D01*
X99172Y80482D01*
X99153Y80444D01*
Y80406D01*
X99172Y80368D01*
X99191Y80349D01*
X99249Y80329D01*
X99420D01*
X99287D02*
X99153Y80120D01*
X99007Y80368D02*
X98969Y80387D01*
X99007Y80368D02*
X99045Y80329D01*
X99064Y80272D01*
Y80234D01*
X99045Y80177D01*
X99007Y80139D01*
X98969Y80120D01*
X98912D01*
X98873Y80139D01*
X98835Y80177D01*
X98816Y80234D01*
Y80272D01*
X98835Y80329D01*
X98873Y80368D01*
X98912Y80387D01*
X98969D01*
X98538Y80368D02*
X98500Y80329D01*
X98538Y80368D02*
X98576Y80387D01*
X98634D01*
X98672Y80368D01*
X98710Y80329D01*
X98729Y80272D01*
Y80234D01*
X98710Y80177D01*
X98672Y80139D01*
X98634Y80120D01*
X98576D01*
X98538Y80139D01*
X98500Y80177D01*
X98415Y80120D02*
Y80520D01*
X98224Y80387D02*
X98415Y80196D01*
X98338Y80272D02*
X98205Y80120D01*
X98142D02*
Y80520D01*
X98020D02*
X98001Y80501D01*
X97982Y80520D01*
X98001Y80539D01*
X98020Y80520D01*
X98001Y80387D02*
Y80120D01*
X97912D02*
Y80387D01*
X97855Y80368D02*
X97912Y80310D01*
X97855Y80368D02*
X97817Y80387D01*
X97759D01*
X97721Y80368D01*
X97702Y80310D01*
Y80120D01*
X97578D02*
X97559Y80139D01*
X97578Y80120D02*
X97598Y80139D01*
X97578Y80158D01*
X97559Y80139D01*
Y80101D01*
X97578Y80063D01*
X97598Y80044D01*
X96872Y80425D02*
X96891Y80463D01*
X96929Y80501D01*
X96967Y80520D01*
X97043D01*
X97081Y80501D01*
X97120Y80463D01*
X97139Y80425D01*
X97158Y80368D01*
Y80272D01*
X97139Y80215D01*
X97120Y80177D01*
X97081Y80139D01*
X97043Y80120D01*
X96967D01*
X96929Y80139D01*
X96891Y80177D01*
X96872Y80215D01*
X96607Y80520D02*
X96455Y80120D01*
X96760D02*
X96607Y80520D01*
X96702Y80253D02*
X96512D01*
X96047Y80291D02*
X95705D01*
X95272Y80234D02*
Y80520D01*
Y80234D02*
X95253Y80177D01*
X95215Y80139D01*
X95158Y80120D01*
X95120D01*
X95063Y80139D01*
X95025Y80177D01*
X95006Y80234D01*
Y80520D01*
X94667Y80501D02*
X94629Y80463D01*
X94667Y80501D02*
X94724Y80520D01*
X94800D01*
X94857Y80501D01*
X94895Y80463D01*
Y80425D01*
X94876Y80387D01*
X94857Y80368D01*
X94819Y80349D01*
X94705Y80310D01*
X94667Y80291D01*
X94648Y80272D01*
X94629Y80234D01*
Y80177D01*
X94667Y80139D01*
X94724Y80120D01*
X94800D01*
X94857Y80139D01*
X94895Y80177D01*
X94387Y80520D02*
X94234Y80120D01*
X94539D02*
X94387Y80520D01*
X94482Y80253D02*
X94292D01*
X102882Y76149D02*
X103149Y76072D01*
Y76225D02*
X102882Y76149D01*
Y76301D02*
X103149Y76225D01*
Y76377D02*
X102882Y76301D01*
Y76547D02*
X103149Y76470D01*
Y76623D02*
X102882Y76547D01*
Y76699D02*
X103149Y76623D01*
Y76775D02*
X102882Y76699D01*
Y76945D02*
X103149Y76868D01*
Y77021D02*
X102882Y76945D01*
Y77097D02*
X103149Y77021D01*
Y77173D02*
X102882Y77097D01*
X102901Y77266D02*
X102920Y77285D01*
X102901Y77266D02*
X102882Y77285D01*
X102901Y77304D01*
X102920Y77285D01*
X103092Y77602D02*
X103130Y77582D01*
X103149Y77525D01*
Y77468D01*
X103130Y77411D01*
X103092Y77392D01*
X103054Y77411D01*
X103035Y77449D01*
X103016Y77544D01*
X102997Y77582D01*
X102959Y77602D01*
X102939D01*
X102901Y77582D01*
X102882Y77525D01*
Y77468D01*
X102901Y77411D01*
X102939Y77392D01*
X102959Y77742D02*
X103282D01*
X102959D02*
X102901Y77762D01*
X102882Y77800D01*
Y77838D01*
X103149Y77819D02*
Y77685D01*
Y78123D02*
X102882D01*
X103092D02*
X103130Y78085D01*
X103149Y78047D01*
Y77990D01*
X103130Y77952D01*
X103092Y77914D01*
X103035Y77895D01*
X102997D01*
X102939Y77914D01*
X102901Y77952D01*
X102882Y77990D01*
Y78047D01*
X102901Y78085D01*
X102939Y78123D01*
X102882Y78230D02*
X103149D01*
X103130Y78287D02*
X103073Y78230D01*
X103130Y78287D02*
X103149Y78325D01*
Y78382D01*
X103130Y78420D01*
X103073Y78439D01*
X102882D01*
X103073D02*
X103130Y78497D01*
X103149Y78535D01*
Y78592D01*
X103130Y78630D01*
X103073Y78649D01*
X102882D01*
X102749Y78775D02*
X103149D01*
X103130Y78813D02*
X103092Y78775D01*
X103130Y78813D02*
X103149Y78851D01*
Y78908D01*
X103130Y78946D01*
X103092Y78984D01*
X103035Y79003D01*
X102997D01*
X102939Y78984D01*
X102901Y78946D01*
X102882Y78908D01*
Y78851D01*
X102901Y78813D01*
X102939Y78775D01*
X103130Y79279D02*
X103092Y79298D01*
X103130Y79279D02*
X103149Y79222D01*
Y79165D01*
X103130Y79108D01*
X103092Y79089D01*
X103054Y79108D01*
X103035Y79146D01*
X103016Y79241D01*
X102997Y79279D01*
X102959Y79298D01*
X102939D01*
X102901Y79279D01*
X102882Y79222D01*
Y79165D01*
X102901Y79108D01*
X102939Y79089D01*
X103282Y79420D02*
X103263Y79439D01*
X103282Y79458D01*
X103301Y79439D01*
X103282Y79420D01*
X103149Y79439D02*
X102882D01*
Y79529D02*
X103149D01*
X103130Y79586D02*
X103073Y79529D01*
X103130Y79586D02*
X103149Y79624D01*
Y79681D01*
X103130Y79719D01*
X103073Y79738D01*
X102882D01*
X103130Y80033D02*
X103092Y80071D01*
X103130Y80033D02*
X103149Y79995D01*
Y79938D01*
X103130Y79900D01*
X103092Y79862D01*
X103035Y79843D01*
X102997D01*
X102939Y79862D01*
X102901Y79900D01*
X102882Y79938D01*
Y79995D01*
X102901Y80033D01*
X102939Y80071D01*
X102882Y80157D02*
X103282D01*
X103149Y80469D02*
X102882D01*
X103092D02*
X103130Y80431D01*
X103149Y80393D01*
Y80336D01*
X103130Y80298D01*
X103092Y80260D01*
X103035Y80241D01*
X102997D01*
X102939Y80260D01*
X102901Y80298D01*
X102882Y80336D01*
Y80393D01*
X102901Y80431D01*
X102939Y80469D01*
X103092Y80786D02*
X103130Y80767D01*
X103149Y80709D01*
Y80652D01*
X103130Y80595D01*
X103092Y80576D01*
X103054Y80595D01*
X103035Y80633D01*
X103016Y80728D01*
X102997Y80767D01*
X102959Y80786D01*
X102939D01*
X102901Y80767D01*
X102882Y80709D01*
Y80652D01*
X102901Y80595D01*
X102939Y80576D01*
X103130Y81060D02*
X103092Y81079D01*
X103130Y81060D02*
X103149Y81003D01*
Y80946D01*
X103130Y80888D01*
X103092Y80869D01*
X103054Y80888D01*
X103035Y80927D01*
X103016Y81022D01*
X102997Y81060D01*
X102959Y81079D01*
X102939D01*
X102901Y81060D01*
X102882Y81003D01*
Y80946D01*
X102901Y80888D01*
X102939Y80869D01*
X102901Y81163D02*
X102920Y81182D01*
X102901Y81163D02*
X102882Y81182D01*
X102901Y81201D01*
X102920Y81182D01*
X103130Y81479D02*
X103092Y81517D01*
X103130Y81479D02*
X103149Y81441D01*
Y81384D01*
X103130Y81346D01*
X103092Y81307D01*
X103035Y81288D01*
X102997D01*
X102939Y81307D01*
X102901Y81346D01*
X102882Y81384D01*
Y81441D01*
X102901Y81479D01*
X102939Y81517D01*
X103130Y81660D02*
X103149Y81698D01*
X103130Y81660D02*
X103092Y81622D01*
X103035Y81603D01*
X102997D01*
X102939Y81622D01*
X102901Y81660D01*
X102882Y81698D01*
Y81755D01*
X102901Y81793D01*
X102939Y81831D01*
X102997Y81850D01*
X103035D01*
X103092Y81831D01*
X103130Y81793D01*
X103149Y81755D01*
Y81698D01*
Y81938D02*
X102882D01*
X103073D02*
X103130Y81995D01*
X103149Y82033D01*
Y82090D01*
X103130Y82128D01*
X103073Y82147D01*
X102882D01*
X103073D02*
X103130Y82204D01*
X103149Y82242D01*
Y82300D01*
X103130Y82338D01*
X103073Y82357D01*
X102882D01*
X103785Y75316D02*
X103823Y75297D01*
X103861Y75259D01*
X103880Y75220D01*
Y75144D01*
X103861Y75106D01*
X103823Y75068D01*
X103785Y75049D01*
X103728Y75030D01*
X103632D01*
X103575Y75049D01*
X103537Y75068D01*
X103499Y75106D01*
X103480Y75144D01*
Y75220D01*
X103499Y75259D01*
X103537Y75297D01*
X103575Y75316D01*
X103480Y75428D02*
X103880D01*
X103728Y75485D02*
X103670Y75428D01*
X103728Y75485D02*
X103747Y75523D01*
Y75580D01*
X103728Y75618D01*
X103670Y75637D01*
X103480D01*
X103632Y75742D02*
Y75971D01*
X103670D01*
X103709Y75952D01*
X103728Y75933D01*
X103747Y75895D01*
Y75837D01*
X103728Y75799D01*
X103689Y75761D01*
X103632Y75742D01*
X103594D01*
X103537Y75761D01*
X103499Y75799D01*
X103480Y75837D01*
Y75895D01*
X103499Y75933D01*
X103537Y75971D01*
X103728Y76247D02*
X103689Y76285D01*
X103728Y76247D02*
X103747Y76209D01*
Y76152D01*
X103728Y76114D01*
X103689Y76075D01*
X103632Y76056D01*
X103594D01*
X103537Y76075D01*
X103499Y76114D01*
X103480Y76152D01*
Y76209D01*
X103499Y76247D01*
X103537Y76285D01*
X103480Y76371D02*
X103880D01*
X103747Y76561D02*
X103556Y76371D01*
X103632Y76447D02*
X103480Y76580D01*
X103728Y77014D02*
X103747Y77052D01*
X103728Y77014D02*
X103689Y76976D01*
X103632Y76957D01*
X103594D01*
X103537Y76976D01*
X103499Y77014D01*
X103480Y77052D01*
Y77110D01*
X103499Y77148D01*
X103537Y77186D01*
X103594Y77205D01*
X103632D01*
X103689Y77186D01*
X103728Y77148D01*
X103747Y77110D01*
Y77052D01*
Y77292D02*
X103556D01*
X103499Y77311D01*
X103480Y77349D01*
Y77407D01*
X103499Y77445D01*
X103556Y77502D01*
X103480D02*
X103747D01*
X103880Y77664D02*
X103556D01*
X103499Y77683D01*
X103480Y77721D01*
Y77759D01*
X103747Y77740D02*
Y77607D01*
X103728Y78187D02*
X103747Y78226D01*
X103728Y78187D02*
X103689Y78149D01*
X103632Y78130D01*
X103594D01*
X103537Y78149D01*
X103499Y78187D01*
X103480Y78226D01*
Y78283D01*
X103499Y78321D01*
X103537Y78359D01*
X103594Y78378D01*
X103632D01*
X103689Y78359D01*
X103728Y78321D01*
X103747Y78283D01*
Y78226D01*
Y78465D02*
X103556D01*
X103499Y78484D01*
X103480Y78523D01*
Y78580D01*
X103499Y78618D01*
X103556Y78675D01*
X103480D02*
X103747D01*
Y78780D02*
X103480D01*
X103632D02*
X103689Y78799D01*
X103728Y78837D01*
X103747Y78875D01*
Y78932D01*
X103632Y79282D02*
Y79511D01*
X103670D01*
X103709Y79492D01*
X103728Y79473D01*
X103747Y79435D01*
Y79378D01*
X103728Y79340D01*
X103689Y79301D01*
X103632Y79282D01*
X103594D01*
X103537Y79301D01*
X103499Y79340D01*
X103480Y79378D01*
Y79435D01*
X103499Y79473D01*
X103537Y79511D01*
X103480Y79825D02*
X103880D01*
X103728Y79787D02*
X103689Y79825D01*
X103728Y79787D02*
X103747Y79749D01*
Y79692D01*
X103728Y79654D01*
X103689Y79616D01*
X103632Y79597D01*
X103594D01*
X103537Y79616D01*
X103499Y79654D01*
X103480Y79692D01*
Y79749D01*
X103499Y79787D01*
X103537Y79825D01*
X103556Y79932D02*
X103747D01*
X103556D02*
X103499Y79951D01*
X103480Y79989D01*
Y80046D01*
X103499Y80084D01*
X103556Y80141D01*
X103480D02*
X103747D01*
X103728Y80436D02*
X103689Y80475D01*
X103728Y80436D02*
X103747Y80398D01*
Y80341D01*
X103728Y80303D01*
X103689Y80265D01*
X103632Y80246D01*
X103594D01*
X103537Y80265D01*
X103499Y80303D01*
X103480Y80341D01*
Y80398D01*
X103499Y80436D01*
X103537Y80475D01*
X103480Y80789D02*
X103747D01*
X103728Y80751D02*
X103689Y80789D01*
X103728Y80751D02*
X103747Y80713D01*
Y80655D01*
X103728Y80617D01*
X103689Y80579D01*
X103632Y80560D01*
X103594D01*
X103537Y80579D01*
X103499Y80617D01*
X103480Y80655D01*
Y80713D01*
X103499Y80751D01*
X103537Y80789D01*
X103556Y80953D02*
X103880D01*
X103556D02*
X103499Y80972D01*
X103480Y81010D01*
Y81048D01*
X103747Y81029D02*
Y80895D01*
X103880Y81143D02*
X103861Y81162D01*
X103880Y81181D01*
X103899Y81162D01*
X103880Y81143D01*
X103747Y81162D02*
X103480D01*
X103728Y81309D02*
X103747Y81347D01*
X103728Y81309D02*
X103689Y81271D01*
X103632Y81252D01*
X103594D01*
X103537Y81271D01*
X103499Y81309D01*
X103480Y81347D01*
Y81404D01*
X103499Y81442D01*
X103537Y81480D01*
X103594Y81499D01*
X103632D01*
X103689Y81480D01*
X103728Y81442D01*
X103747Y81404D01*
Y81347D01*
Y81587D02*
X103480D01*
X103670D02*
X103728Y81644D01*
X103747Y81682D01*
Y81739D01*
X103728Y81777D01*
X103670Y81796D01*
X103480D01*
Y82129D02*
X103747D01*
X103728Y82091D02*
X103689Y82129D01*
X103728Y82091D02*
X103747Y82053D01*
Y81996D01*
X103728Y81958D01*
X103689Y81920D01*
X103632Y81901D01*
X103594D01*
X103537Y81920D01*
X103499Y81958D01*
X103480Y81996D01*
Y82053D01*
X103499Y82091D01*
X103537Y82129D01*
X103480Y82236D02*
X103880D01*
X103747Y82634D02*
X103347D01*
X103689D02*
X103728Y82672D01*
X103747Y82710D01*
Y82767D01*
X103728Y82805D01*
X103689Y82844D01*
X103632Y82863D01*
X103594D01*
X103537Y82844D01*
X103499Y82805D01*
X103480Y82767D01*
Y82710D01*
X103499Y82672D01*
X103537Y82634D01*
X103480Y82948D02*
X103747D01*
X103689Y82967D02*
X103632Y82948D01*
X103689Y82967D02*
X103728Y83005D01*
X103747Y83044D01*
Y83101D01*
X103728Y83194D02*
X103747Y83232D01*
X103728Y83194D02*
X103689Y83156D01*
X103632Y83137D01*
X103594D01*
X103537Y83156D01*
X103499Y83194D01*
X103480Y83232D01*
Y83289D01*
X103499Y83327D01*
X103537Y83365D01*
X103594Y83384D01*
X103632D01*
X103689Y83365D01*
X103728Y83327D01*
X103747Y83289D01*
Y83232D01*
Y83701D02*
X103442D01*
X103385Y83681D01*
X103366Y83662D01*
X103347Y83624D01*
Y83567D01*
X103366Y83529D01*
X103689Y83701D02*
X103728Y83662D01*
X103747Y83624D01*
Y83567D01*
X103728Y83529D01*
X103689Y83491D01*
X103632Y83472D01*
X103594D01*
X103537Y83491D01*
X103499Y83529D01*
X103480Y83567D01*
Y83624D01*
X103499Y83662D01*
X103537Y83701D01*
X103480Y83807D02*
X103747D01*
X103689Y83826D02*
X103632Y83807D01*
X103689Y83826D02*
X103728Y83864D01*
X103747Y83902D01*
Y83960D01*
Y84224D02*
X103480D01*
X103689D02*
X103728Y84186D01*
X103747Y84148D01*
Y84091D01*
X103728Y84053D01*
X103689Y84015D01*
X103632Y83996D01*
X103594D01*
X103537Y84015D01*
X103499Y84053D01*
X103480Y84091D01*
Y84148D01*
X103499Y84186D01*
X103537Y84224D01*
X103480Y84331D02*
X103747D01*
X103728Y84388D02*
X103670Y84331D01*
X103728Y84388D02*
X103747Y84426D01*
Y84483D01*
X103728Y84521D01*
X103670Y84540D01*
X103480D01*
X103670D02*
X103728Y84597D01*
X103747Y84636D01*
Y84693D01*
X103728Y84731D01*
X103670Y84750D01*
X103480D01*
X103689Y85085D02*
X103728Y85066D01*
X103747Y85009D01*
Y84952D01*
X103728Y84895D01*
X103689Y84875D01*
X103651Y84895D01*
X103632Y84933D01*
X103613Y85028D01*
X103594Y85066D01*
X103556Y85085D01*
X103537D01*
X103499Y85066D01*
X103480Y85009D01*
Y84952D01*
X103499Y84895D01*
X103537Y84875D01*
X103728Y85169D02*
X103747Y85188D01*
X103728Y85169D02*
X103709Y85188D01*
X103728Y85207D01*
X103747Y85188D01*
X103518D02*
X103499Y85169D01*
X103480Y85188D01*
X103499Y85207D01*
X103518Y85188D01*
X102230Y76146D02*
X102497Y76070D01*
Y76222D02*
X102230Y76146D01*
Y76299D02*
X102497Y76222D01*
Y76375D02*
X102230Y76299D01*
Y76544D02*
X102497Y76468D01*
Y76620D02*
X102230Y76544D01*
Y76697D02*
X102497Y76620D01*
Y76773D02*
X102230Y76697D01*
Y76942D02*
X102497Y76866D01*
Y77018D02*
X102230Y76942D01*
Y77095D02*
X102497Y77018D01*
Y77171D02*
X102230Y77095D01*
X102249Y77264D02*
X102268Y77283D01*
X102249Y77264D02*
X102230Y77283D01*
X102249Y77302D01*
X102268Y77283D01*
X102439Y77599D02*
X102478Y77580D01*
X102497Y77523D01*
Y77466D01*
X102478Y77409D01*
X102439Y77390D01*
X102401Y77409D01*
X102382Y77447D01*
X102363Y77542D01*
X102344Y77580D01*
X102306Y77599D01*
X102287D01*
X102249Y77580D01*
X102230Y77523D01*
Y77466D01*
X102249Y77409D01*
X102287Y77390D01*
X102497Y77683D02*
X102230Y77892D01*
Y77683D02*
X102497Y77892D01*
X102630Y78033D02*
X102306D01*
X102249Y78052D01*
X102230Y78091D01*
Y78129D01*
X102497Y78110D02*
Y77976D01*
X102382Y78186D02*
Y78414D01*
X102420D01*
X102459Y78395D01*
X102478Y78376D01*
X102497Y78338D01*
Y78281D01*
X102478Y78243D01*
X102439Y78205D01*
X102382Y78186D01*
X102344D01*
X102287Y78205D01*
X102249Y78243D01*
X102230Y78281D01*
Y78338D01*
X102249Y78376D01*
X102287Y78414D01*
X102478Y78690D02*
X102439Y78728D01*
X102478Y78690D02*
X102497Y78652D01*
Y78595D01*
X102478Y78557D01*
X102439Y78519D01*
X102382Y78500D01*
X102344D01*
X102287Y78519D01*
X102249Y78557D01*
X102230Y78595D01*
Y78652D01*
X102249Y78690D01*
X102287Y78728D01*
X102230Y78814D02*
X102630D01*
X102478Y78871D02*
X102420Y78814D01*
X102478Y78871D02*
X102497Y78909D01*
Y78967D01*
X102478Y79005D01*
X102420Y79024D01*
X102230D01*
X102249Y79128D02*
X102268Y79147D01*
X102249Y79128D02*
X102230Y79147D01*
X102249Y79166D01*
X102268Y79147D01*
X102478Y79445D02*
X102439Y79483D01*
X102478Y79445D02*
X102497Y79406D01*
Y79349D01*
X102478Y79311D01*
X102439Y79273D01*
X102382Y79254D01*
X102344D01*
X102287Y79273D01*
X102249Y79311D01*
X102230Y79349D01*
Y79406D01*
X102249Y79445D01*
X102287Y79483D01*
X102478Y79625D02*
X102497Y79664D01*
X102478Y79625D02*
X102439Y79587D01*
X102382Y79568D01*
X102344D01*
X102287Y79587D01*
X102249Y79625D01*
X102230Y79664D01*
Y79721D01*
X102249Y79759D01*
X102287Y79797D01*
X102344Y79816D01*
X102382D01*
X102439Y79797D01*
X102478Y79759D01*
X102497Y79721D01*
Y79664D01*
Y79903D02*
X102230D01*
X102420D02*
X102478Y79961D01*
X102497Y79999D01*
Y80056D01*
X102478Y80094D01*
X102420Y80113D01*
X102230D01*
X102420D02*
X102478Y80170D01*
X102497Y80208D01*
Y80265D01*
X102478Y80303D01*
X102420Y80322D01*
X102230D01*
X99325Y79808D02*
X99287Y79846D01*
X99325Y79808D02*
X99363Y79751D01*
X99401Y79675D01*
X99420Y79579D01*
Y79503D01*
X99401Y79408D01*
X99363Y79332D01*
X99325Y79275D01*
X99287Y79237D01*
X99363Y79732D02*
X99325Y79808D01*
X99363Y79732D02*
X99382Y79675D01*
X99401Y79579D01*
Y79503D01*
X99382Y79408D01*
X99363Y79351D01*
X99325Y79275D01*
X98982Y79579D02*
X98963Y79637D01*
X98982Y79579D02*
X99020Y79541D01*
X99077Y79522D01*
X99096D01*
X99153Y79541D01*
X99191Y79579D01*
X99211Y79637D01*
Y79656D01*
X99191Y79713D01*
X99153Y79751D01*
X99096Y79770D01*
X99077D01*
X99020Y79751D01*
X98982Y79713D01*
X98963Y79637D01*
Y79541D01*
X98982Y79446D01*
X99020Y79389D01*
X99077Y79370D01*
X99115D01*
X99172Y79389D01*
X99191Y79427D01*
X98854Y79694D02*
X98816Y79713D01*
X98759Y79770D01*
Y79370D01*
X98333Y79713D02*
X98352Y79751D01*
X98409Y79770D01*
X98447D01*
X98504Y79751D01*
X98542Y79694D01*
X98561Y79599D01*
Y79503D01*
X98542Y79427D01*
X98504Y79389D01*
X98447Y79370D01*
X98428D01*
X98371Y79389D01*
X98333Y79427D01*
X98314Y79484D01*
Y79503D01*
X98333Y79560D01*
X98371Y79599D01*
X98428Y79618D01*
X98447D01*
X98504Y79599D01*
X98542Y79560D01*
X98561Y79503D01*
X98226Y79846D02*
X98188Y79808D01*
X98150Y79751D01*
X98112Y79675D01*
X98093Y79579D01*
Y79503D01*
X98112Y79408D01*
X98150Y79332D01*
X98188Y79275D01*
X98226Y79237D01*
X98150Y79732D02*
X98188Y79808D01*
X98150Y79732D02*
X98131Y79675D01*
X98112Y79579D01*
Y79503D01*
X98131Y79408D01*
X98150Y79351D01*
X98188Y79275D01*
X97453Y79713D02*
X97472Y79751D01*
X97529Y79770D01*
X97567D01*
X97624Y79751D01*
X97662Y79694D01*
X97681Y79599D01*
Y79503D01*
X97662Y79427D01*
X97624Y79389D01*
X97567Y79370D01*
X97548D01*
X97491Y79389D01*
X97453Y79427D01*
X97434Y79484D01*
Y79503D01*
X97453Y79560D01*
X97491Y79599D01*
X97548Y79618D01*
X97567D01*
X97624Y79599D01*
X97662Y79560D01*
X97681Y79503D01*
X97327Y79675D02*
Y79694D01*
X97308Y79732D01*
X97289Y79751D01*
X97251Y79770D01*
X97175D01*
X97137Y79751D01*
X97118Y79732D01*
X97099Y79694D01*
Y79656D01*
X97118Y79618D01*
X97156Y79560D01*
X97346Y79370D01*
X97080D01*
X96990Y79503D02*
X96800Y79770D01*
X96704Y79503D02*
X96990D01*
X96800Y79370D02*
Y79770D01*
X96634Y79541D02*
X96291D01*
X96135Y79751D02*
X96078Y79770D01*
X96135Y79751D02*
X96154Y79713D01*
Y79675D01*
X96135Y79637D01*
X96097Y79618D01*
X96021Y79599D01*
X95964Y79579D01*
X95926Y79541D01*
X95906Y79503D01*
Y79446D01*
X95926Y79408D01*
X95945Y79389D01*
X96002Y79370D01*
X96078D01*
X96135Y79389D01*
X96154Y79408D01*
X96173Y79446D01*
Y79503D01*
X96154Y79541D01*
X96116Y79579D01*
X96059Y79599D01*
X95983Y79618D01*
X95945Y79637D01*
X95926Y79675D01*
Y79713D01*
X95945Y79751D01*
X96002Y79770D01*
X96078D01*
X95779D02*
X95569D01*
X95684Y79618D01*
X95627D01*
X95588Y79599D01*
X95569Y79579D01*
X95550Y79522D01*
Y79484D01*
X95569Y79427D01*
X95607Y79389D01*
X95665Y79370D01*
X95722D01*
X95779Y79389D01*
X95798Y79408D01*
X95817Y79446D01*
X95423Y79770D02*
X95213D01*
X95328Y79618D01*
X95270D01*
X95232Y79599D01*
X95213Y79579D01*
X95194Y79522D01*
Y79484D01*
X95213Y79427D01*
X95251Y79389D01*
X95309Y79370D01*
X95366D01*
X95423Y79389D01*
X95442Y79408D01*
X95461Y79446D01*
X95067Y79770D02*
X94857D01*
X94971Y79618D01*
X94914D01*
X94876Y79599D01*
X94857Y79579D01*
X94838Y79522D01*
Y79484D01*
X94857Y79427D01*
X94895Y79389D01*
X94952Y79370D01*
X95010D01*
X95067Y79389D01*
X95086Y79408D01*
X95105Y79446D01*
G54D16*
X92020Y86080D02*
Y86480D01*
X92170Y86330D01*
X92320Y86480D01*
Y86080D01*
X92470Y86480D02*
X92770D01*
X92620D02*
Y86080D01*
G54D17*
X100520Y86480D02*
X101320D01*
Y85980D02*
X100520D01*
X100420Y86080D01*
Y86380D01*
X100520Y86480D01*
X99720D02*
X100720Y85480D01*
X99720D02*
Y86480D01*
Y85980D02*
X100220D01*
X99720Y86480D02*
X98920D01*
X98820Y86380D01*
Y86080D01*
X98920Y85980D01*
X99720D01*
X98920D02*
X98820Y85880D01*
Y85480D01*
X99120D02*
X98120Y86480D01*
Y85480D01*
Y85980D02*
X98620D01*
X97820Y85480D02*
Y86480D01*
Y85480D02*
X96920D01*
X97420Y85180D02*
Y86180D01*
Y85180D02*
X96520D01*
X96720Y85480D02*
X95720Y86480D01*
Y85480D01*
Y85980D02*
X96220D01*
X95520Y86480D02*
X95020Y85980D01*
Y85780D02*
X95520Y85280D01*
X94820Y85980D02*
X94320Y86480D01*
X94820Y85780D02*
X94320Y85280D01*
X93520Y86480D02*
X93120D01*
Y86180D02*
X93520D01*
X93120D02*
X93520Y85780D01*
X93120D01*
Y85580D02*
X93520D01*
X93120D02*
Y85280D01*
X101320Y85480D02*
Y86480D01*
X93520Y85580D02*
Y85280D01*
D02*
M02*
