*%FSLAX24Y24*%
*%MOIN*%
G01*
%ADD11C,0.0020*%
%ADD12C,0.0060*%
%ADD13C,0.0073*%
%ADD14C,0.0080*%
%ADD15C,0.0090*%
%ADD16C,0.0100*%
%ADD17C,0.0120*%
%ADD18C,0.0200*%
%ADD19C,0.0260*%
%ADD20C,0.0380*%
%ADD21C,0.0450*%
%ADD22C,0.0500*%
%ADD23C,0.0530*%
%ADD24C,0.0550*%
%ADD25C,0.0580*%
%ADD26C,0.0660*%
%ADD27C,0.0700*%
%ADD28C,0.0750*%
%ADD29C,0.0780*%
%ADD30C,0.0830*%
%ADD31C,0.0950*%
%ADD32R,0.0700X0.0700*%
%ADD33R,0.0780X0.0780*%
G54D16*
X101250Y74040D02*
Y76040D01*
X101500Y76290D01*
X95250Y77040D02*
Y74040D01*
Y77040D02*
X99250Y81040D01*
Y81540D01*
X96250Y85040D02*
X95500Y84290D01*
X96250Y85040D02*
X100750D01*
X101500Y84290D01*
X95500Y83290D02*
X94850Y83940D01*
Y84890D01*
X95500Y85540D01*
X101250D01*
X102500Y84290D01*
X94250Y83290D02*
Y82790D01*
X98500Y83790D02*
Y84290D01*
X104500Y76290D02*
X102250Y74040D01*
X102500Y84290D02*
X104500D01*
X100000Y83290D02*
X99500Y82790D01*
X104500Y82290D02*
X105100Y82890D01*
Y84590D01*
X104750Y84940D01*
X102850D01*
X102000Y85790D01*
X104000D02*
X104800D01*
X105400Y85190D01*
Y82190D01*
X104500Y81290D01*
X95500D02*
Y82290D01*
X97250Y75540D02*
Y74040D01*
X98260Y77290D02*
X100000D01*
Y84290D02*
X100550D01*
X101050Y83790D01*
X100950Y83290D02*
X101500D01*
X100950D02*
X100450Y83790D01*
X104500Y77290D02*
X105060Y76730D01*
Y75850D01*
X103250Y74040D01*
X105320Y77470D02*
X104500Y78290D01*
X105320Y77470D02*
Y75110D01*
X104250Y74040D01*
X105580Y78210D02*
X104500Y79290D01*
X105580Y78210D02*
Y74370D01*
X105250Y74040D01*
X101500Y77290D02*
X100940Y76730D01*
Y74730D01*
X100250Y74040D01*
X99250D02*
X100690Y75480D01*
X100440Y76230D02*
X98250Y74040D01*
X100690Y75480D02*
Y76820D01*
X100940Y77070D01*
Y77730D01*
X101500Y78290D01*
X100440Y76920D02*
Y76230D01*
Y76920D02*
X100690Y77170D01*
Y78480D01*
X101500Y79290D01*
X99250Y81540D02*
X100000Y82290D01*
X94250Y77790D02*
Y74040D01*
Y77790D02*
X93000Y79040D01*
Y82290D02*
X93500Y82790D01*
X93000Y82290D02*
Y79040D01*
X97250Y83790D02*
X100450D01*
X97250D02*
X96250Y82790D01*
X93500D01*
X97250D02*
X99500D01*
X97250D02*
X96750Y82290D01*
X95500D01*
X101050Y83790D02*
X102000D01*
X102500Y83290D01*
X104500D01*
X98250Y77720D02*
Y76540D01*
X97250Y75540D01*
G54D18*
X96250Y75720D02*
X97750Y77220D01*
X96250Y75720D02*
Y74040D01*
X99250Y79040D02*
Y80540D01*
Y79040D02*
X100000Y78290D01*
X92250Y76740D02*
Y74040D01*
Y76740D02*
X92750Y77240D01*
X93250Y76740D02*
Y74040D01*
Y76740D02*
X93750Y77240D01*
X100000Y80290D02*
X101500D01*
X94750Y78040D02*
Y77240D01*
Y78040D02*
X94050Y78740D01*
Y79540D01*
X99250Y80540D02*
X100000Y81290D01*
X98500D02*
Y82290D01*
Y81290D02*
X97750Y80540D01*
X94250D02*
Y82290D01*
X93750Y80540D02*
X97750D01*
X93750D02*
X93450Y80240D01*
Y79540D01*
G54D21*
D03*
X94050D02*
D03*
G54D22*
X97750Y77220D02*
D03*
X98250Y77720D02*
D03*
X97250D02*
D03*
G54D27*
X98500Y84290D02*
D03*
Y83290D02*
D03*
Y82290D02*
D03*
Y81290D02*
D03*
X95500D02*
D03*
Y82290D02*
D03*
Y83290D02*
D03*
X104000Y85790D02*
D03*
X103000D02*
D03*
X100000Y83290D02*
D03*
Y82290D02*
D03*
Y81290D02*
D03*
Y80290D02*
D03*
Y79290D02*
D03*
Y78290D02*
D03*
Y77290D02*
D03*
X94250Y83290D02*
D03*
Y84290D02*
D03*
X93250Y74040D02*
D03*
X94250D02*
D03*
X95250D02*
D03*
X96250D02*
D03*
X97250D02*
D03*
X98250D02*
D03*
X99250D02*
D03*
X100250D02*
D03*
X101250D02*
D03*
X102250D02*
D03*
X103250D02*
D03*
X104250D02*
D03*
X105250D02*
D03*
X104500Y84290D02*
D03*
Y83290D02*
D03*
Y82290D02*
D03*
Y81290D02*
D03*
Y80290D02*
D03*
Y79290D02*
D03*
Y78290D02*
D03*
Y77290D02*
D03*
Y76290D02*
D03*
X101500D02*
D03*
Y77290D02*
D03*
Y78290D02*
D03*
Y79290D02*
D03*
Y80290D02*
D03*
Y81290D02*
D03*
Y82290D02*
D03*
Y83290D02*
D03*
G54D28*
X92750Y77240D02*
D03*
X93750D02*
D03*
X94750D02*
D03*
G54D32*
X95500Y84290D02*
D03*
X102000Y85790D02*
D03*
X100000Y84290D02*
D03*
X94250Y82290D02*
D03*
X92250Y74040D02*
D03*
X101500Y84290D02*
D03*
M02*
