M72
M48
T1F00S00C0.026
T2F00S00C0.038
T3F00S00C0.055
%
T01
X0155Y01468
X016Y01418
X0165Y01468
X0123Y0165
X0117
T02
X0105Y011
X0115
X0125
X0135
X0145
X0155
X0165
X0175
X0185
X0195
X0205
X0215
X0225
X0235
X02275Y01325
Y01425
Y01525
X01975
Y01425
Y01325
X01825Y01425
Y01525
Y01625
Y01725
Y01825
Y01925
Y02025
Y02125
X01675
Y02025
Y01925
Y01825
X01975
Y01725
Y01625
X02275
Y01725
Y01825
Y01925
Y02025
Y02125
X02225Y02275
X02125
X02025
X01975Y02125
Y02025
Y01925
X01375
Y01825
Y02025
Y02125
X0125
Y02025
Y01925
T03
X011Y0142
X012
X013
M30
