*%FSLAX24Y24*%
*%MOIN*%
G01*
%ADD11C,0.0020*%
%ADD12C,0.0060*%
%ADD13C,0.0073*%
%ADD14C,0.0080*%
%ADD15C,0.0090*%
%ADD16C,0.0100*%
%ADD17C,0.0120*%
%ADD18C,0.0200*%
%ADD19C,0.0260*%
%ADD20C,0.0380*%
%ADD21C,0.0450*%
%ADD22C,0.0500*%
%ADD23C,0.0530*%
%ADD24C,0.0550*%
%ADD25C,0.0580*%
%ADD26C,0.0660*%
%ADD27C,0.0700*%
%ADD28C,0.0750*%
%ADD29C,0.0780*%
%ADD30C,0.0830*%
%ADD31C,0.0950*%
%ADD32R,0.0700X0.0700*%
%ADD33R,0.0780X0.0780*%
G54D11*
X98250Y84040D02*
Y84373D01*
X98417Y84540D01*
X98583Y84373D01*
Y84040D01*
Y84290D01*
X98250D01*
Y83373D02*
Y83040D01*
Y83373D02*
X98417Y83540D01*
X98583Y83373D01*
Y83040D01*
Y83290D01*
X98250D01*
Y82373D02*
Y82040D01*
Y82373D02*
X98417Y82540D01*
X98583Y82373D01*
Y82040D01*
Y82290D01*
X98250D01*
Y81373D02*
Y81040D01*
Y81373D02*
X98417Y81540D01*
X98583Y81373D01*
Y81040D01*
Y81290D01*
X98250D01*
X95250Y81373D02*
Y81040D01*
Y81373D02*
X95417Y81540D01*
X95583Y81373D01*
Y81040D01*
Y81290D01*
X95250D01*
Y82040D02*
Y82373D01*
X95417Y82540D01*
X95583Y82373D01*
Y82040D01*
Y82290D01*
X95250D01*
Y83040D02*
Y83373D01*
X95417Y83540D01*
X95583Y83373D01*
Y83040D01*
Y83290D01*
X95250D01*
Y84040D02*
Y84373D01*
X95417Y84540D01*
X95583Y84373D01*
Y84040D01*
Y84290D01*
X95250D01*
X92500Y77490D02*
Y76990D01*
X92750D01*
X92833Y77073D01*
Y77157D01*
X92750Y77240D01*
X92500D01*
X92501D01*
X92500D02*
X92501D01*
X92500D02*
X92501D01*
X92500D02*
X92750D01*
X92833Y77323D01*
Y77407D01*
X92750Y77490D01*
X92500D01*
X93500D02*
Y76990D01*
X93750D01*
X93833Y77073D01*
Y77157D01*
X93750Y77240D01*
X93500D01*
X93501D01*
X93500D02*
X93501D01*
X93500D02*
X93501D01*
X93500D02*
X93750D01*
X93833Y77323D01*
Y77407D01*
X93750Y77490D01*
X93500D01*
X94500D02*
Y76990D01*
X94750D01*
X94833Y77073D01*
Y77157D01*
X94750Y77240D01*
X94500D01*
X94501D01*
X94500D02*
X94501D01*
X94500D02*
X94501D01*
X94500D02*
X94750D01*
X94833Y77323D01*
Y77407D01*
X94750Y77490D01*
X94500D01*
X103750Y85540D02*
Y85873D01*
X103917Y86040D01*
X104083Y85873D01*
Y85540D01*
Y85790D01*
X103750D01*
X102750Y85873D02*
Y85540D01*
Y85873D02*
X102917Y86040D01*
X103083Y85873D01*
Y85540D01*
Y85790D01*
X102750D01*
X101750Y85873D02*
Y85540D01*
Y85873D02*
X101917Y86040D01*
X102083Y85873D01*
Y85540D01*
Y85790D01*
X101750D01*
X97750Y77470D02*
X97833Y77387D01*
X97750Y77470D02*
X97583D01*
X97500Y77387D01*
Y77053D01*
X97583Y76970D01*
X97750D01*
X97833Y77053D01*
X98333Y77887D02*
X98250Y77970D01*
X98083D01*
X98000Y77887D01*
Y77553D01*
X98083Y77470D01*
X98250D01*
X98333Y77553D01*
X97333Y77887D02*
X97250Y77970D01*
X97083D01*
X97000Y77887D01*
Y77553D01*
X97083Y77470D01*
X97250D01*
X97333Y77553D01*
X99750Y84040D02*
Y84373D01*
X99917Y84540D01*
X100083Y84373D01*
Y84040D01*
Y84290D01*
X99750D01*
Y83373D02*
Y83040D01*
Y83373D02*
X99917Y83540D01*
X100083Y83373D01*
Y83040D01*
Y83290D01*
X99750D01*
Y82373D02*
Y82040D01*
Y82373D02*
X99917Y82540D01*
X100083Y82373D01*
Y82040D01*
Y82290D01*
X99750D01*
Y81373D02*
Y81040D01*
Y81373D02*
X99917Y81540D01*
X100083Y81373D01*
Y81040D01*
Y81290D01*
X99750D01*
Y80373D02*
Y80040D01*
Y80373D02*
X99917Y80540D01*
X100083Y80373D01*
Y80040D01*
Y80290D01*
X99750D01*
Y79373D02*
Y79040D01*
Y79373D02*
X99917Y79540D01*
X100083Y79373D01*
Y79040D01*
Y79290D01*
X99750D01*
Y78373D02*
Y78040D01*
Y78373D02*
X99917Y78540D01*
X100083Y78373D01*
Y78040D01*
Y78290D01*
X99750D01*
Y77373D02*
Y77040D01*
Y77373D02*
X99917Y77540D01*
X100083Y77373D01*
Y77040D01*
Y77290D01*
X99750D01*
X93533Y79707D02*
X93450Y79790D01*
X93283D01*
X93200Y79707D01*
Y79373D01*
X93283Y79290D01*
X93450D01*
X93533Y79373D01*
X94050Y79790D02*
X94133Y79707D01*
X94050Y79790D02*
X93883D01*
X93800Y79707D01*
Y79373D01*
X93883Y79290D01*
X94050D01*
X94133Y79373D01*
X94000Y82040D02*
Y82373D01*
X94167Y82540D01*
X94333Y82373D01*
Y82040D01*
Y82290D01*
X94000D01*
Y83040D02*
Y83373D01*
X94167Y83540D01*
X94333Y83373D01*
Y83040D01*
Y83290D01*
X94000D01*
Y84040D02*
Y84373D01*
X94167Y84540D01*
X94333Y84373D01*
Y84040D01*
Y84290D01*
X94000D01*
X92000Y74123D02*
Y73790D01*
Y74123D02*
X92167Y74290D01*
X92333Y74123D01*
Y73790D01*
Y74040D01*
X92000D01*
X93000Y74123D02*
Y73790D01*
Y74123D02*
X93167Y74290D01*
X93333Y74123D01*
Y73790D01*
Y74040D01*
X93000D01*
X94000Y74123D02*
Y73790D01*
Y74123D02*
X94167Y74290D01*
X94333Y74123D01*
Y73790D01*
Y74040D01*
X94000D01*
X95000Y74123D02*
Y73790D01*
Y74123D02*
X95167Y74290D01*
X95333Y74123D01*
Y73790D01*
Y74040D01*
X95000D01*
X96000Y74123D02*
Y73790D01*
Y74123D02*
X96167Y74290D01*
X96333Y74123D01*
Y73790D01*
Y74040D01*
X96000D01*
X97000Y74123D02*
Y73790D01*
Y74123D02*
X97167Y74290D01*
X97333Y74123D01*
Y73790D01*
Y74040D01*
X97000D01*
X98000Y74123D02*
Y73790D01*
Y74123D02*
X98167Y74290D01*
X98333Y74123D01*
Y73790D01*
Y74040D01*
X98000D01*
X99000Y74123D02*
Y73790D01*
Y74123D02*
X99167Y74290D01*
X99333Y74123D01*
Y73790D01*
Y74040D01*
X99000D01*
X100000Y74123D02*
Y73790D01*
Y74123D02*
X100167Y74290D01*
X100333Y74123D01*
Y73790D01*
Y74040D01*
X100000D01*
X101000Y74123D02*
Y73790D01*
Y74123D02*
X101167Y74290D01*
X101333Y74123D01*
Y73790D01*
Y74040D01*
X101000D01*
X102000Y74123D02*
Y73790D01*
Y74123D02*
X102167Y74290D01*
X102333Y74123D01*
Y73790D01*
Y74040D01*
X102000D01*
X103000Y74123D02*
Y73790D01*
Y74123D02*
X103167Y74290D01*
X103333Y74123D01*
Y73790D01*
Y74040D01*
X103000D01*
X104000Y74123D02*
Y73790D01*
Y74123D02*
X104167Y74290D01*
X104333Y74123D01*
Y73790D01*
Y74040D01*
X104000D01*
X105000Y74123D02*
Y73790D01*
Y74123D02*
X105167Y74290D01*
X105333Y74123D01*
Y73790D01*
Y74040D01*
X105000D01*
X104250Y84040D02*
Y84373D01*
X104417Y84540D01*
X104583Y84373D01*
Y84040D01*
Y84290D01*
X104250D01*
Y83373D02*
Y83040D01*
Y83373D02*
X104417Y83540D01*
X104583Y83373D01*
Y83040D01*
Y83290D01*
X104250D01*
Y82373D02*
Y82040D01*
Y82373D02*
X104417Y82540D01*
X104583Y82373D01*
Y82040D01*
Y82290D01*
X104250D01*
Y81373D02*
Y81040D01*
Y81373D02*
X104417Y81540D01*
X104583Y81373D01*
Y81040D01*
Y81290D01*
X104250D01*
Y80373D02*
Y80040D01*
Y80373D02*
X104417Y80540D01*
X104583Y80373D01*
Y80040D01*
Y80290D01*
X104250D01*
Y79373D02*
Y79040D01*
Y79373D02*
X104417Y79540D01*
X104583Y79373D01*
Y79040D01*
Y79290D01*
X104250D01*
Y78373D02*
Y78040D01*
Y78373D02*
X104417Y78540D01*
X104583Y78373D01*
Y78040D01*
Y78290D01*
X104250D01*
Y77373D02*
Y77040D01*
Y77373D02*
X104417Y77540D01*
X104583Y77373D01*
Y77040D01*
Y77290D01*
X104250D01*
Y76373D02*
Y76040D01*
Y76373D02*
X104417Y76540D01*
X104583Y76373D01*
Y76040D01*
Y76290D01*
X104250D01*
X101250Y76373D02*
Y76040D01*
Y76373D02*
X101417Y76540D01*
X101583Y76373D01*
Y76040D01*
Y76290D01*
X101250D01*
Y77040D02*
Y77373D01*
X101417Y77540D01*
X101583Y77373D01*
Y77040D01*
Y77290D01*
X101250D01*
Y78040D02*
Y78373D01*
X101417Y78540D01*
X101583Y78373D01*
Y78040D01*
Y78290D01*
X101250D01*
Y79040D02*
Y79373D01*
X101417Y79540D01*
X101583Y79373D01*
Y79040D01*
Y79290D01*
X101250D01*
Y80040D02*
Y80373D01*
X101417Y80540D01*
X101583Y80373D01*
Y80040D01*
Y80290D01*
X101250D01*
Y81040D02*
Y81373D01*
X101417Y81540D01*
X101583Y81373D01*
Y81040D01*
Y81290D01*
X101250D01*
Y82040D02*
Y82373D01*
X101417Y82540D01*
X101583Y82373D01*
Y82040D01*
Y82290D01*
X101250D01*
Y83040D02*
Y83373D01*
X101417Y83540D01*
X101583Y83373D01*
Y83040D01*
Y83290D01*
X101250D01*
Y84040D02*
Y84373D01*
X101417Y84540D01*
X101583Y84373D01*
Y84040D01*
Y84290D01*
X101250D01*
D02*
M02*
