*%FSLAX24Y24*%
*%MOIN*%
G01*
%ADD11C,0.0020*%
%ADD12C,0.0060*%
%ADD13C,0.0073*%
%ADD14C,0.0080*%
%ADD15C,0.0090*%
%ADD16C,0.0100*%
%ADD17C,0.0120*%
%ADD18C,0.0200*%
%ADD19C,0.0260*%
%ADD20C,0.0380*%
%ADD21C,0.0450*%
%ADD22C,0.0500*%
%ADD23C,0.0530*%
%ADD24C,0.0550*%
%ADD25C,0.0580*%
%ADD26C,0.0660*%
%ADD27C,0.0700*%
%ADD28C,0.0750*%
%ADD29C,0.0780*%
%ADD30C,0.0830*%
%ADD31C,0.0950*%
%ADD32R,0.0700X0.0700*%
%ADD33R,0.0780X0.0780*%
G54D12*
X94170Y81704D02*
X94208Y81723D01*
X94265Y81780D01*
Y81380D01*
X91968Y76193D02*
X91930Y76174D01*
X91968Y76193D02*
X92025Y76250D01*
Y75850D01*
X99400Y85264D02*
X99438Y85283D01*
X99495Y85340D01*
Y84940D01*
X101180Y85094D02*
X101218Y85113D01*
X101275Y85170D01*
Y84770D01*
X95428Y85133D02*
X95390Y85114D01*
X95428Y85133D02*
X95485Y85190D01*
Y84790D01*
X92333Y85766D02*
X92295Y85728D01*
X92257Y85671D01*
X92219Y85595D01*
X92200Y85499D01*
Y85423D01*
X92219Y85328D01*
X92257Y85252D01*
X92295Y85195D01*
X92333Y85157D01*
X92257Y85652D02*
X92295Y85728D01*
X92257Y85652D02*
X92238Y85595D01*
X92219Y85499D01*
Y85423D01*
X92238Y85328D01*
X92257Y85271D01*
X92295Y85195D01*
X92638Y85499D02*
X92600Y85538D01*
X92562Y85557D01*
X92505D01*
X92467Y85538D01*
X92429Y85499D01*
X92409Y85442D01*
Y85404D01*
X92429Y85347D01*
X92467Y85309D01*
X92505Y85290D01*
X92562D01*
X92600Y85309D01*
X92638Y85347D01*
X92762Y85728D02*
X92724Y85766D01*
X92762Y85728D02*
X92800Y85671D01*
X92838Y85595D01*
X92857Y85499D01*
Y85423D01*
X92838Y85328D01*
X92800Y85252D01*
X92762Y85195D01*
X92724Y85157D01*
X92800Y85652D02*
X92762Y85728D01*
X92800Y85652D02*
X92819Y85595D01*
X92838Y85499D01*
Y85423D01*
X92819Y85328D01*
X92800Y85271D01*
X92762Y85195D01*
X93268Y85614D02*
X93306Y85633D01*
X93364Y85690D01*
Y85290D01*
X93790Y85499D02*
X93809Y85557D01*
X93790Y85499D02*
X93752Y85461D01*
X93695Y85442D01*
X93676D01*
X93619Y85461D01*
X93581Y85499D01*
X93562Y85557D01*
Y85576D01*
X93581Y85633D01*
X93619Y85671D01*
X93676Y85690D01*
X93695D01*
X93752Y85671D01*
X93790Y85633D01*
X93809Y85557D01*
Y85461D01*
X93790Y85366D01*
X93752Y85309D01*
X93695Y85290D01*
X93657D01*
X93600Y85309D01*
X93581Y85347D01*
X94146Y85499D02*
X94165Y85557D01*
X94146Y85499D02*
X94108Y85461D01*
X94051Y85442D01*
X94032D01*
X93975Y85461D01*
X93937Y85499D01*
X93918Y85557D01*
Y85576D01*
X93937Y85633D01*
X93975Y85671D01*
X94032Y85690D01*
X94051D01*
X94108Y85671D01*
X94146Y85633D01*
X94165Y85557D01*
Y85461D01*
X94146Y85366D01*
X94108Y85309D01*
X94051Y85290D01*
X94013D01*
X93956Y85309D01*
X93937Y85347D01*
X94502Y85499D02*
X94521Y85557D01*
X94502Y85499D02*
X94464Y85461D01*
X94407Y85442D01*
X94388D01*
X94331Y85461D01*
X94293Y85499D01*
X94274Y85557D01*
Y85576D01*
X94293Y85633D01*
X94331Y85671D01*
X94388Y85690D01*
X94407D01*
X94464Y85671D01*
X94502Y85633D01*
X94521Y85557D01*
Y85461D01*
X94502Y85366D01*
X94464Y85309D01*
X94407Y85290D01*
X94369D01*
X94312Y85309D01*
X94293Y85347D01*
G54D14*
X101500Y85290D02*
Y86290D01*
X104500D01*
Y85290D02*
X101500D01*
X104500D02*
Y86290D01*
X100500Y76790D02*
X99500D01*
Y84790D01*
X100500D01*
Y76790D01*
X93250Y82123D02*
X91917D01*
X91750Y82290D01*
X91917Y82457D01*
X93250D01*
Y83123D02*
X91917D01*
X91750Y83290D01*
X91917Y83457D01*
X93250D01*
Y84123D02*
X91917D01*
X91750Y84290D01*
X91917Y84457D01*
X93250D01*
X93750Y84790D02*
Y81790D01*
Y84790D02*
X93250D01*
Y81790D02*
X93750D01*
X93250D02*
Y84790D01*
X91750Y73540D02*
Y73040D01*
X105750D01*
Y73540D01*
X92083Y73040D02*
Y71707D01*
X92250Y71540D01*
X92417Y71707D01*
Y73040D01*
X93083D02*
Y71707D01*
X93250Y71540D01*
X93417Y71707D01*
Y73040D01*
X94083D02*
Y71707D01*
X94250Y71540D01*
X94417Y71707D01*
Y73040D01*
X95083D02*
Y71707D01*
X95250Y71540D01*
X95417Y71707D01*
Y73040D01*
X96083D02*
Y71707D01*
X96250Y71540D01*
X96417Y71707D01*
Y73040D01*
X97083D02*
Y71707D01*
X97250Y71540D01*
X97417Y71707D01*
Y73040D01*
X98083D02*
Y71707D01*
X98250Y71540D01*
X98417Y71707D01*
Y73040D01*
X99083D02*
Y71707D01*
X99250Y71540D01*
X99417Y71707D01*
Y73040D01*
X100083D02*
Y71707D01*
X100250Y71540D01*
X100417Y71707D01*
Y73040D01*
X101083D02*
Y71707D01*
X101250Y71540D01*
X101417Y71707D01*
Y73040D01*
X102083D02*
Y71707D01*
X102250Y71540D01*
X102417Y71707D01*
Y73040D01*
X103083D02*
Y71707D01*
X103250Y71540D01*
X103417Y71707D01*
Y73040D01*
X104083D02*
Y71707D01*
X104250Y71540D01*
X104417Y71707D01*
Y73040D01*
X105083D02*
Y71707D01*
X105250Y71540D01*
X105417Y71707D01*
Y73040D01*
X92500Y73540D02*
X91750D01*
Y73290D02*
X92000Y73540D01*
X92500D02*
X105750D01*
X93502Y77970D02*
X93350Y78370D01*
X93655D02*
X93502Y77970D01*
X93706D02*
Y78370D01*
X93878D01*
X93935Y78351D01*
X93954Y78332D01*
X93973Y78294D01*
Y78255D01*
X93954Y78217D01*
X93935Y78198D01*
X93878Y78179D01*
X93706D01*
X93839D02*
X93973Y77970D01*
X94062Y78294D02*
X94100Y78313D01*
X94157Y78370D01*
Y77970D01*
X96650Y81404D02*
Y81690D01*
Y81404D02*
X96669Y81347D01*
X96707Y81309D01*
X96764Y81290D01*
X96802D01*
X96859Y81309D01*
X96898Y81347D01*
X96917Y81404D01*
Y81690D01*
X97046Y81614D02*
Y81595D01*
Y81614D02*
X97065Y81652D01*
X97084Y81671D01*
X97122Y81690D01*
X97198D01*
X97237Y81671D01*
X97256Y81652D01*
X97275Y81614D01*
Y81575D01*
X97256Y81537D01*
X97218Y81480D01*
X97027Y81290D01*
X97294D01*
X102627Y86480D02*
X102360Y86880D01*
X102627D02*
X102360Y86480D01*
X102849D02*
Y86880D01*
X102716D02*
X102983D01*
X103183D02*
X103335Y86480D01*
X103030D02*
X103183Y86880D01*
X103087Y86613D02*
X103278D01*
X103428Y86480D02*
Y86880D01*
Y86480D02*
X103657D01*
X97435Y78665D02*
Y78379D01*
X97454Y78322D01*
X97492Y78284D01*
X97549Y78265D01*
X97587D01*
X97645Y78284D01*
X97683Y78322D01*
X97702Y78379D01*
Y78665D01*
X97850D02*
X98060D01*
X97945Y78512D01*
X98003D01*
X98041Y78493D01*
X98060Y78474D01*
X98079Y78417D01*
Y78379D01*
X98060Y78322D01*
X98022Y78284D01*
X97965Y78265D01*
X97907D01*
X97850Y78284D01*
X97831Y78303D01*
X97812Y78341D01*
X99610Y76580D02*
Y76180D01*
Y76580D02*
X99781D01*
X99839Y76561D01*
X99858Y76542D01*
X99877Y76504D01*
Y76465D01*
X99858Y76427D01*
X99839Y76408D01*
X99781Y76389D01*
X99610D01*
X99743D02*
X99877Y76180D01*
X99966D02*
Y76580D01*
X100233Y76180D01*
Y76580D01*
X100343Y76504D02*
X100381Y76523D01*
X100438Y76580D01*
Y76180D01*
X92526Y79195D02*
X92507Y79233D01*
X92469Y79271D01*
X92430Y79290D01*
X92354D01*
X92316Y79271D01*
X92278Y79233D01*
X92259Y79195D01*
X92240Y79137D01*
Y79042D01*
X92259Y78985D01*
X92278Y78947D01*
X92316Y78909D01*
X92354Y78890D01*
X92430D01*
X92469Y78909D01*
X92507Y78947D01*
X92526Y78985D01*
X92638Y79214D02*
X92676Y79233D01*
X92733Y79290D01*
Y78890D01*
X102750Y80204D02*
Y80490D01*
Y80204D02*
X102769Y80147D01*
X102807Y80109D01*
X102864Y80090D01*
X102902D01*
X102959Y80109D01*
X102998Y80147D01*
X103017Y80204D01*
Y80490D01*
X103127Y80414D02*
X103165Y80433D01*
X103222Y80490D01*
Y80090D01*
G54D15*
X97580Y74590D02*
X97080D01*
Y74804D01*
X97104Y74876D01*
X97128Y74899D01*
X97175Y74923D01*
X97223D01*
X97271Y74899D01*
X97294Y74876D01*
X97318Y74804D01*
Y74590D01*
Y74757D02*
X97580Y74923D01*
X97080Y75035D02*
Y75345D01*
Y75035D02*
X97580D01*
Y75345D01*
X97318Y75226D02*
Y75035D01*
X97104Y75714D02*
X97152Y75761D01*
X97104Y75714D02*
X97080Y75642D01*
Y75547D01*
X97104Y75476D01*
X97152Y75428D01*
X97199D01*
X97247Y75452D01*
X97271Y75476D01*
X97294Y75523D01*
X97342Y75666D01*
X97366Y75714D01*
X97390Y75737D01*
X97437Y75761D01*
X97509D01*
X97556Y75714D01*
X97580Y75642D01*
Y75547D01*
X97556Y75476D01*
X97509Y75428D01*
G54D16*
X96900Y75780D02*
Y74580D01*
X96000Y80790D02*
Y84790D01*
Y80790D02*
X98000D01*
Y84790D01*
X97250D01*
X96750D02*
X96000D01*
X95750Y78490D02*
Y76490D01*
X91750D01*
Y77840D02*
X95750D01*
X91750Y78490D02*
Y76490D01*
Y78490D02*
X95750D01*
X96850Y78120D02*
X98650D01*
X105750Y87540D02*
Y88540D01*
X106250Y87040D02*
X107250D01*
X95200Y79090D02*
X94700D01*
X94950Y78840D02*
Y79340D01*
X106250Y73040D02*
X107250D01*
X105750Y72540D02*
Y71540D01*
X91250Y73040D02*
X90250D01*
X91750Y72540D02*
Y71540D01*
Y87540D02*
Y88540D01*
X91250Y87040D02*
X90250D01*
X91750D02*
Y73040D01*
Y87040D02*
X105750D01*
Y73040D01*
X91750D01*
X93250Y81340D02*
X93500Y81590D01*
X93750Y81340D01*
X93500Y81290D02*
X93250Y81040D01*
X93500Y81290D02*
X93750Y81040D01*
X102000Y84790D02*
Y75790D01*
X104000D01*
Y84790D01*
X103250D01*
X102750D02*
X102000D01*
X105264Y74797D02*
Y74540D01*
Y74797D02*
X105236Y74883D01*
X105207Y74911D01*
X105150Y74940D01*
X105064D01*
X105007Y74911D01*
X104979Y74883D01*
X104950Y74797D01*
Y74540D01*
X105550D01*
Y75188D02*
X104950Y75474D01*
Y75074D01*
X98264Y74797D02*
Y74540D01*
Y74797D02*
X98236Y74883D01*
X98207Y74911D01*
X98150Y74940D01*
X98064D01*
X98007Y74911D01*
X97979Y74883D01*
X97950Y74797D01*
Y74540D01*
X98550D01*
X97979Y75160D02*
X97950Y75246D01*
X97979Y75160D02*
X98064Y75103D01*
X98207Y75074D01*
X98293D01*
X98436Y75103D01*
X98521Y75160D01*
X98550Y75246D01*
Y75303D01*
X98521Y75388D01*
X98436Y75446D01*
X98293Y75474D01*
X98207D01*
X98064Y75446D01*
X97979Y75388D01*
X97950Y75303D01*
Y75246D01*
X106678Y87997D02*
X106650Y88054D01*
X106593Y88111D01*
X106536Y88140D01*
X106421D01*
X106364Y88111D01*
X106307Y88054D01*
X106279Y87997D01*
X106250Y87911D01*
Y87769D01*
X106279Y87683D01*
X106307Y87626D01*
X106364Y87569D01*
X106421Y87540D01*
X106536D01*
X106593Y87569D01*
X106650Y87626D01*
X106678Y87683D01*
X106847Y87654D02*
Y87940D01*
Y87654D02*
X106876Y87569D01*
X106933Y87540D01*
X107018D01*
X107076Y87569D01*
X107161Y87654D01*
Y87540D02*
Y87940D01*
X107404Y88140D02*
Y87654D01*
X107433Y87569D01*
X107490Y87540D01*
X107547D01*
X107518Y87940D02*
X107318D01*
X108104Y88140D02*
Y87540D01*
X108447D01*
X108598Y88111D02*
X108570Y88140D01*
X108598Y88111D02*
X108627Y88140D01*
X108598Y88168D01*
X108570Y88140D01*
X108598Y87940D02*
Y87540D01*
X108732D02*
Y87940D01*
X108818Y87911D02*
X108732Y87826D01*
X108818Y87911D02*
X108875Y87940D01*
X108961D01*
X109018Y87911D01*
X109047Y87826D01*
Y87540D01*
X109204Y87769D02*
X109546D01*
Y87826D01*
X109518Y87883D01*
X109489Y87911D01*
X109432Y87940D01*
X109346D01*
X109289Y87911D01*
X109232Y87854D01*
X109204Y87769D01*
Y87711D01*
X109232Y87626D01*
X109289Y87569D01*
X109346Y87540D01*
X109432D01*
X109489Y87569D01*
X109546Y87626D01*
X109989Y87854D02*
X109961Y87911D01*
X109875Y87940D01*
X109789D01*
X109704Y87911D01*
X109675Y87854D01*
X109704Y87797D01*
X109761Y87769D01*
X109904Y87740D01*
X109961Y87711D01*
X109989Y87654D01*
Y87626D01*
X109961Y87569D01*
X109875Y87540D01*
X109789D01*
X109704Y87569D01*
X109675Y87626D01*
X95264Y74847D02*
Y74590D01*
Y74847D02*
X95236Y74933D01*
X95207Y74961D01*
X95150Y74990D01*
X95064D01*
X95007Y74961D01*
X94979Y74933D01*
X94950Y74847D01*
Y74590D01*
X95550D01*
X95093Y75553D02*
X95036Y75524D01*
X94979Y75467D01*
X94950Y75410D01*
Y75296D01*
X94979Y75238D01*
X95036Y75181D01*
X95093Y75153D01*
X95179Y75124D01*
X95321D01*
X95407Y75153D01*
X95464Y75181D01*
X95521Y75238D01*
X95550Y75296D01*
Y75410D01*
X95521Y75467D01*
X95464Y75524D01*
X95407Y75553D01*
X95550Y75721D02*
X94950D01*
X94214Y74847D02*
Y74590D01*
Y74847D02*
X94186Y74933D01*
X94157Y74961D01*
X94100Y74990D01*
X94014D01*
X93957Y74961D01*
X93929Y74933D01*
X93900Y74847D01*
Y74590D01*
X94500D01*
X94043Y75553D02*
X93986Y75524D01*
X93929Y75467D01*
X93900Y75410D01*
Y75296D01*
X93929Y75238D01*
X93986Y75181D01*
X94043Y75153D01*
X94129Y75124D01*
X94271D01*
X94357Y75153D01*
X94414Y75181D01*
X94471Y75238D01*
X94500Y75296D01*
Y75410D01*
X94471Y75467D01*
X94414Y75524D01*
X94357Y75553D01*
X93929Y75835D02*
X93900Y75893D01*
X93929Y75835D02*
X93986Y75778D01*
X94043Y75750D01*
X94129Y75721D01*
X94271D01*
X94357Y75750D01*
X94414Y75778D01*
X94471Y75835D01*
X94500Y75893D01*
Y76007D01*
X94471Y76064D01*
X94414Y76121D01*
X94357Y76150D01*
X94271Y76178D01*
X94129D01*
X94043Y76150D01*
X93986Y76121D01*
X93929Y76064D01*
X93900Y76007D01*
Y75893D01*
X93500Y74819D02*
X92900Y74590D01*
Y75047D02*
X93500Y74819D01*
X93186Y75438D02*
X93129Y75410D01*
X93100Y75324D01*
Y75238D01*
X93129Y75153D01*
X93186Y75124D01*
X93243Y75153D01*
X93271Y75210D01*
X93300Y75353D01*
X93329Y75410D01*
X93386Y75438D01*
X93414D01*
X93471Y75410D01*
X93500Y75324D01*
Y75238D01*
X93471Y75153D01*
X93414Y75124D01*
X93129Y75850D02*
X93186Y75878D01*
X93129Y75850D02*
X93100Y75764D01*
Y75678D01*
X93129Y75593D01*
X93186Y75564D01*
X93243Y75593D01*
X93271Y75650D01*
X93300Y75793D01*
X93329Y75850D01*
X93386Y75878D01*
X93414D01*
X93471Y75850D01*
X93500Y75764D01*
Y75678D01*
X93471Y75593D01*
X93414Y75564D01*
X92500Y74819D02*
X91900Y74590D01*
Y75047D02*
X92500Y74819D01*
X91929Y75210D02*
X91900Y75181D01*
X91929Y75210D02*
X91900Y75238D01*
X91872Y75210D01*
X91900Y75181D01*
X92100Y75210D02*
X92500D01*
Y75344D02*
X92100D01*
X92129Y75430D02*
X92214Y75344D01*
X92129Y75430D02*
X92100Y75487D01*
Y75573D01*
X92129Y75630D01*
X92214Y75658D01*
X92500D01*
X99273Y74788D02*
Y74531D01*
Y74788D02*
X99245Y74874D01*
X99216Y74903D01*
X99159Y74931D01*
X99073D01*
X99016Y74903D01*
X98987Y74874D01*
X98959Y74788D01*
Y74531D01*
X99559D01*
X99073Y75065D02*
X99045Y75123D01*
X98959Y75208D01*
X99559D01*
X100264Y74797D02*
Y74540D01*
Y74797D02*
X100236Y74883D01*
X100207Y74911D01*
X100150Y74940D01*
X100064D01*
X100007Y74911D01*
X99979Y74883D01*
X99950Y74797D01*
Y74540D01*
X100550D01*
X100093Y75103D02*
X100064D01*
X100007Y75131D01*
X99979Y75160D01*
X99950Y75217D01*
Y75331D01*
X99979Y75388D01*
X100007Y75417D01*
X100064Y75446D01*
X100122D01*
X100179Y75417D01*
X100264Y75360D01*
X100550Y75074D01*
Y75474D01*
X101264Y74797D02*
Y74540D01*
Y74797D02*
X101236Y74883D01*
X101207Y74911D01*
X101150Y74940D01*
X101064D01*
X101007Y74911D01*
X100979Y74883D01*
X100950Y74797D01*
Y74540D01*
X101550D01*
X100950Y75131D02*
Y75446D01*
X101179Y75274D01*
Y75360D01*
X101207Y75417D01*
X101236Y75446D01*
X101321Y75474D01*
X101379D01*
X101464Y75446D01*
X101521Y75388D01*
X101550Y75303D01*
Y75217D01*
X101521Y75131D01*
X101493Y75103D01*
X101436Y75074D01*
X102264Y74797D02*
Y74540D01*
Y74797D02*
X102236Y74883D01*
X102207Y74911D01*
X102150Y74940D01*
X102064D01*
X102007Y74911D01*
X101979Y74883D01*
X101950Y74797D01*
Y74540D01*
X102550D01*
X102350Y75074D02*
X101950Y75360D01*
X102350Y75503D02*
Y75074D01*
X102550Y75360D02*
X101950D01*
X103264Y74797D02*
Y74540D01*
Y74797D02*
X103236Y74883D01*
X103207Y74911D01*
X103150Y74940D01*
X103064D01*
X103007Y74911D01*
X102979Y74883D01*
X102950Y74797D01*
Y74540D01*
X103550D01*
X102950Y75131D02*
Y75417D01*
Y75131D02*
X103207Y75103D01*
X103179Y75131D01*
X103150Y75217D01*
Y75303D01*
X103179Y75388D01*
X103236Y75446D01*
X103321Y75474D01*
X103379D01*
X103464Y75446D01*
X103521Y75388D01*
X103550Y75303D01*
Y75217D01*
X103521Y75131D01*
X103493Y75103D01*
X103436Y75074D01*
X104264Y74797D02*
Y74540D01*
Y74797D02*
X104236Y74883D01*
X104207Y74911D01*
X104150Y74940D01*
X104064D01*
X104007Y74911D01*
X103979Y74883D01*
X103950Y74797D01*
Y74540D01*
X104550D01*
X104036Y75417D02*
X103979Y75388D01*
X103950Y75303D01*
Y75246D01*
X103979Y75160D01*
X104064Y75103D01*
X104207Y75074D01*
X104350D01*
X104464Y75103D01*
X104521Y75160D01*
X104550Y75246D01*
Y75274D01*
X104521Y75360D01*
X104464Y75417D01*
X104379Y75446D01*
X104350D01*
X104264Y75417D01*
X104207Y75360D01*
X104179Y75274D01*
Y75246D01*
X104207Y75160D01*
X104264Y75103D01*
X104350Y75074D01*
X92471Y86590D02*
X92414Y86561D01*
X92357Y86504D01*
X92329Y86447D01*
X92300Y86361D01*
Y86219D01*
X92329Y86133D01*
X92357Y86076D01*
X92414Y86019D01*
X92471Y85990D01*
X92586D01*
X92643Y86019D01*
X92700Y86076D01*
X92728Y86133D01*
X92757Y86219D01*
Y86361D01*
X92728Y86447D01*
X92700Y86504D01*
X92643Y86561D01*
X92586Y86590D01*
X92471D01*
X92897D02*
X93268D01*
X92897D02*
Y85990D01*
X93268D01*
X93126Y86304D02*
X92897D01*
X93368Y86590D02*
Y85990D01*
X93597D02*
X93368Y86590D01*
X93825D02*
X93597Y85990D01*
X93825D02*
Y86590D01*
X94468D02*
Y85990D01*
Y86590D02*
X94725D01*
X94811Y86561D01*
X94839Y86533D01*
X94868Y86476D01*
Y86418D01*
X94839Y86361D01*
X94811Y86333D01*
X94725Y86304D01*
X94468D01*
X94725D02*
X94811Y86276D01*
X94839Y86247D01*
X94868Y86190D01*
Y86104D01*
X94839Y86047D01*
X94811Y86019D01*
X94725Y85990D01*
X94468D01*
X95231Y86590D02*
X95459Y85990D01*
X95002D02*
X95231Y86590D01*
X95088Y86190D02*
X95374D01*
X95942Y86561D02*
X95999Y86504D01*
X95942Y86561D02*
X95856Y86590D01*
X95742D01*
X95656Y86561D01*
X95599Y86504D01*
Y86447D01*
X95628Y86390D01*
X95656Y86361D01*
X95714Y86333D01*
X95885Y86276D01*
X95942Y86247D01*
X95971Y86219D01*
X95999Y86161D01*
Y86076D01*
X95942Y86019D01*
X95856Y85990D01*
X95742D01*
X95656Y86019D01*
X95599Y86076D01*
X96133Y85990D02*
Y86590D01*
X96659Y86504D02*
X96688Y86447D01*
X96659Y86504D02*
X96602Y86561D01*
X96545Y86590D01*
X96431D01*
X96373Y86561D01*
X96316Y86504D01*
X96288Y86447D01*
X96259Y86361D01*
Y86219D01*
X96288Y86133D01*
X96316Y86076D01*
X96373Y86019D01*
X96431Y85990D01*
X96545D01*
X96602Y86019D01*
X96659Y86076D01*
X96688Y86133D01*
X97670Y86561D02*
X97727Y86504D01*
X97670Y86561D02*
X97585Y86590D01*
X97470D01*
X97385Y86561D01*
X97327Y86504D01*
Y86447D01*
X97356Y86390D01*
X97385Y86361D01*
X97442Y86333D01*
X97613Y86276D01*
X97670Y86247D01*
X97699Y86219D01*
X97727Y86161D01*
Y86076D01*
X97670Y86019D01*
X97585Y85990D01*
X97470D01*
X97385Y86019D01*
X97327Y86076D01*
X97947Y86104D02*
Y86590D01*
Y86104D02*
X97976Y86019D01*
X98033Y85990D01*
X98090D01*
X98062Y86390D02*
X97862D01*
X98519D02*
Y85990D01*
Y86304D02*
X98462Y86361D01*
X98404Y86390D01*
X98319D01*
X98262Y86361D01*
X98204Y86304D01*
X98176Y86219D01*
Y86161D01*
X98204Y86076D01*
X98262Y86019D01*
X98319Y85990D01*
X98404D01*
X98462Y86019D01*
X98519Y86076D01*
X98679Y85990D02*
Y86390D01*
X98764Y86361D02*
X98679Y86276D01*
X98764Y86361D02*
X98821Y86390D01*
X98907D01*
X98964Y86361D01*
X98993Y86276D01*
Y85990D01*
Y86276D02*
X99079Y86361D01*
X99136Y86390D01*
X99221D01*
X99279Y86361D01*
X99307Y86276D01*
Y85990D01*
X99496Y85790D02*
Y86390D01*
X99553Y86361D02*
X99496Y86304D01*
X99553Y86361D02*
X99610Y86390D01*
X99696D01*
X99753Y86361D01*
X99810Y86304D01*
X99838Y86219D01*
Y86161D01*
X99810Y86076D01*
X99753Y86019D01*
X99696Y85990D01*
X99610D01*
X99553Y86019D01*
X99496Y86076D01*
X100438Y86476D02*
X100495Y86504D01*
X100581Y86590D01*
Y85990D01*
X96500Y74819D02*
X95900Y74590D01*
Y75047D02*
X96500Y74819D01*
Y75467D02*
X95900D01*
X96129Y75410D02*
X96186Y75467D01*
X96129Y75410D02*
X96100Y75353D01*
Y75267D01*
X96129Y75210D01*
X96186Y75153D01*
X96271Y75124D01*
X96329D01*
X96414Y75153D01*
X96471Y75210D01*
X96500Y75267D01*
Y75353D01*
X96471Y75410D01*
X96414Y75467D01*
X96500Y75970D02*
X95900D01*
X96129Y75913D02*
X96186Y75970D01*
X96129Y75913D02*
X96100Y75855D01*
Y75770D01*
X96129Y75713D01*
X96186Y75655D01*
X96271Y75627D01*
X96329D01*
X96414Y75655D01*
X96471Y75713D01*
X96500Y75770D01*
Y75855D01*
X96471Y75913D01*
X96414Y75970D01*
X96750Y84790D02*
X96752Y84757D01*
X96759Y84725D01*
X96769Y84694D01*
X96783Y84665D01*
X96802Y84638D01*
X96823Y84613D01*
X96848Y84592D01*
X96875Y84573D01*
X96904Y84559D01*
X96935Y84549D01*
X96967Y84542D01*
X97000Y84540D01*
X97033Y84542D01*
X97065Y84549D01*
X97096Y84559D01*
X97125Y84573D01*
X97152Y84592D01*
X97177Y84613D01*
X97198Y84638D01*
X97217Y84665D01*
X97231Y84694D01*
X97241Y84725D01*
X97248Y84757D01*
X97250Y84790D01*
X96850Y78120D02*
X96837Y78089D01*
X96825Y78058D01*
X96814Y78026D01*
X96804Y77994D01*
X96795Y77962D01*
X96788Y77929D01*
X96781Y77897D01*
X96776Y77863D01*
X96771Y77830D01*
X96768Y77797D01*
X96766Y77764D01*
X96765Y77730D01*
X96765Y77697D01*
X96767Y77663D01*
X96769Y77630D01*
X96773Y77596D01*
X96778Y77563D01*
X96784Y77530D01*
X96791Y77498D01*
X96799Y77465D01*
X96808Y77433D01*
X96818Y77401D01*
X96830Y77370D01*
X96842Y77338D01*
X96855Y77308D01*
X96870Y77278D01*
X96886Y77248D01*
X96902Y77219D01*
X96920Y77190D01*
X96938Y77162D01*
X96958Y77135D01*
X96978Y77109D01*
X96999Y77083D01*
X97021Y77058D01*
X97044Y77033D01*
X97068Y77010D01*
X97092Y76987D01*
X97118Y76965D01*
X97144Y76944D01*
X97171Y76924D01*
X97198Y76904D01*
X97226Y76886D01*
X97255Y76869D01*
X97284Y76852D01*
X97314Y76837D01*
X97344Y76823D01*
X97375Y76809D01*
X97406Y76797D01*
X97437Y76786D01*
X97469Y76776D01*
X97502Y76767D01*
X97534Y76759D01*
X97567Y76752D01*
X97600Y76747D01*
X97633Y76742D01*
X97666Y76739D01*
X97700Y76736D01*
X97733Y76735D01*
X97767D01*
X97800Y76736D01*
X97834Y76739D01*
X97867Y76742D01*
X97900Y76747D01*
X97933Y76752D01*
X97966Y76759D01*
X97998Y76767D01*
X98031Y76776D01*
X98063Y76786D01*
X98094Y76797D01*
X98125Y76809D01*
X98156Y76823D01*
X98186Y76837D01*
X98216Y76852D01*
X98245Y76869D01*
X98274Y76886D01*
X98302Y76904D01*
X98329Y76924D01*
X98356Y76944D01*
X98382Y76965D01*
X98408Y76987D01*
X98432Y77010D01*
X98456Y77033D01*
X98479Y77058D01*
X98501Y77083D01*
X98522Y77109D01*
X98542Y77135D01*
X98562Y77162D01*
X98580Y77190D01*
X98598Y77219D01*
X98614Y77248D01*
X98630Y77278D01*
X98645Y77308D01*
X98658Y77338D01*
X98670Y77370D01*
X98682Y77401D01*
X98692Y77433D01*
X98701Y77465D01*
X98709Y77498D01*
X98716Y77530D01*
X98722Y77563D01*
X98727Y77596D01*
X98731Y77630D01*
X98733Y77663D01*
X98735Y77697D01*
X98735Y77730D01*
X98734Y77764D01*
X98732Y77797D01*
X98729Y77830D01*
X98724Y77863D01*
X98719Y77897D01*
X98712Y77929D01*
X98705Y77962D01*
X98696Y77994D01*
X98686Y78026D01*
X98675Y78058D01*
X98663Y78089D01*
X98650Y78120D01*
X94600Y79540D02*
X94599Y79506D01*
X94597Y79473D01*
X94594Y79439D01*
X94589Y79406D01*
X94583Y79373D01*
X94576Y79340D01*
X94568Y79308D01*
X94558Y79276D01*
X94547Y79244D01*
X94534Y79213D01*
X94521Y79182D01*
X94506Y79152D01*
X94490Y79122D01*
X94473Y79093D01*
X94455Y79065D01*
X94436Y79038D01*
X94415Y79011D01*
X94394Y78985D01*
X94371Y78960D01*
X94348Y78936D01*
X94324Y78913D01*
X94299Y78891D01*
X94272Y78869D01*
X94246Y78849D01*
X94218Y78830D01*
X94189Y78812D01*
X94160Y78796D01*
X94131Y78780D01*
X94100Y78766D01*
X94069Y78752D01*
X94038Y78740D01*
X94006Y78730D01*
X93974Y78720D01*
X93941Y78712D01*
X93909Y78705D01*
X93875Y78699D01*
X93842Y78695D01*
X93809Y78692D01*
X93775Y78690D01*
X93742Y78690D01*
X93708Y78691D01*
X93675Y78693D01*
X93641Y78697D01*
X93608Y78702D01*
X93575Y78708D01*
X93542Y78716D01*
X93510Y78725D01*
X93478Y78735D01*
X93446Y78746D01*
X93415Y78759D01*
X93384Y78773D01*
X93354Y78788D01*
X93325Y78804D01*
X93296Y78821D01*
X93268Y78840D01*
X93241Y78859D01*
X93214Y78880D01*
X93189Y78902D01*
X93164Y78924D01*
X93140Y78948D01*
X93117Y78972D01*
X93095Y78998D01*
X93074Y79024D01*
X93055Y79051D01*
X93036Y79079D01*
X93018Y79108D01*
X93002Y79137D01*
X92986Y79167D01*
X92972Y79197D01*
X92959Y79228D01*
X92948Y79260D01*
X92937Y79292D01*
X92928Y79324D01*
X92920Y79357D01*
X92913Y79390D01*
X92908Y79423D01*
X92904Y79456D01*
X92901Y79490D01*
X92900Y79523D01*
Y79557D01*
X92901Y79590D01*
X92904Y79624D01*
X92908Y79657D01*
X92913Y79690D01*
X92920Y79723D01*
X92928Y79756D01*
X92937Y79788D01*
X92948Y79820D01*
X92959Y79852D01*
X92972Y79883D01*
X92986Y79913D01*
X93002Y79943D01*
X93018Y79972D01*
X93036Y80001D01*
X93055Y80029D01*
X93074Y80056D01*
X93095Y80082D01*
X93117Y80108D01*
X93140Y80132D01*
X93164Y80156D01*
X93189Y80178D01*
X93214Y80200D01*
X93241Y80221D01*
X93268Y80240D01*
X93296Y80259D01*
X93325Y80276D01*
X93354Y80292D01*
X93384Y80307D01*
X93415Y80321D01*
X93446Y80334D01*
X93478Y80345D01*
X93510Y80355D01*
X93542Y80364D01*
X93575Y80372D01*
X93608Y80378D01*
X93641Y80383D01*
X93675Y80387D01*
X93708Y80389D01*
X93742Y80390D01*
X93775Y80390D01*
X93809Y80388D01*
X93842Y80385D01*
X93875Y80381D01*
X93909Y80375D01*
X93941Y80368D01*
X93974Y80360D01*
X94006Y80350D01*
X94038Y80340D01*
X94069Y80328D01*
X94100Y80314D01*
X94131Y80300D01*
X94160Y80284D01*
X94189Y80268D01*
X94218Y80250D01*
X94246Y80231D01*
X94272Y80211D01*
X94299Y80189D01*
X94324Y80167D01*
X94348Y80144D01*
X94371Y80120D01*
X94394Y80095D01*
X94415Y80069D01*
X94436Y80042D01*
X94455Y80015D01*
X94473Y79987D01*
X94490Y79958D01*
X94506Y79928D01*
X94521Y79898D01*
X94534Y79867D01*
X94547Y79836D01*
X94558Y79804D01*
X94568Y79772D01*
X94576Y79740D01*
X94583Y79707D01*
X94589Y79674D01*
X94594Y79641D01*
X94597Y79607D01*
X94599Y79574D01*
X94600Y79540D01*
X102750Y84790D02*
X102752Y84757D01*
X102759Y84725D01*
X102769Y84694D01*
X102783Y84665D01*
X102802Y84638D01*
X102823Y84613D01*
X102848Y84592D01*
X102875Y84573D01*
X102904Y84559D01*
X102935Y84549D01*
X102967Y84542D01*
X103000Y84540D01*
X103033Y84542D01*
X103065Y84549D01*
X103096Y84559D01*
X103125Y84573D01*
X103152Y84592D01*
X103177Y84613D01*
X103198Y84638D01*
X103217Y84665D01*
X103231Y84694D01*
X103241Y84725D01*
X103248Y84757D01*
X103250Y84790D01*
D02*
M02*
