*%FSLAX24Y24*%
*%MOIN*%
G01*
%ADD11C,0.0010*%
%ADD12C,0.0050*%
%ADD13C,0.0060*%
%ADD14C,0.0072*%
%ADD15C,0.0073*%
%ADD16C,0.0080*%
%ADD17C,0.0100*%
%ADD18C,0.0120*%
%ADD19C,0.0260*%
%ADD20C,0.0300*%
%ADD21C,0.0350*%
%ADD22C,0.0380*%
%ADD23C,0.0450*%
%ADD24C,0.0500*%
%ADD25C,0.0530*%
%ADD26C,0.0550*%
%ADD27C,0.0580*%
%ADD28C,0.0620*%
%ADD29C,0.0660*%
%ADD30C,0.0700*%
%ADD31C,0.0750*%
%ADD32C,0.0780*%
%ADD33C,0.0830*%
%ADD34C,0.0950*%
%ADD35C,0.1400*%
%ADD36C,0.1800*%
%ADD37C,0.1880*%
%ADD38R,0.0620X0.0620*%
%ADD39R,0.0700X0.0700*%
G54D23*
X91080Y88720D02*
D03*
Y89320D02*
D03*
G54D24*
X95130Y80270D02*
D03*
X95830Y80770D02*
D03*
X95130Y82270D02*
D03*
X95830Y81770D02*
D03*
Y82770D02*
D03*
Y76270D02*
D03*
X95130Y75770D02*
D03*
Y78270D02*
D03*
X95830Y77770D02*
D03*
Y78770D02*
D03*
X95130Y76770D02*
D03*
X95830Y79770D02*
D03*
G54D28*
X94080Y84820D02*
D03*
X98080D02*
D03*
X92830Y78560D02*
D03*
Y79650D02*
D03*
Y80740D02*
D03*
Y81830D02*
D03*
X91830Y78020D02*
D03*
Y79110D02*
D03*
Y80200D02*
D03*
Y81290D02*
D03*
X107830Y84570D02*
D03*
X98080Y83820D02*
D03*
X94080D02*
D03*
X96580Y74720D02*
D03*
X95580Y73720D02*
D03*
Y74720D02*
D03*
X96580Y73720D02*
D03*
X107830Y85570D02*
D03*
X94580Y87820D02*
D03*
Y86820D02*
D03*
Y85820D02*
D03*
X97580D02*
D03*
Y86820D02*
D03*
Y87820D02*
D03*
Y88820D02*
D03*
G54D30*
X105830Y87070D02*
D03*
Y86070D02*
D03*
Y85070D02*
D03*
Y84070D02*
D03*
Y83070D02*
D03*
Y82070D02*
D03*
Y81070D02*
D03*
Y80070D02*
D03*
Y79070D02*
D03*
Y78070D02*
D03*
Y77070D02*
D03*
Y76070D02*
D03*
Y75070D02*
D03*
Y74070D02*
D03*
X99830D02*
D03*
Y75070D02*
D03*
Y76070D02*
D03*
Y77070D02*
D03*
Y78070D02*
D03*
Y79070D02*
D03*
Y80070D02*
D03*
Y81070D02*
D03*
Y82070D02*
D03*
Y83070D02*
D03*
Y85070D02*
D03*
Y86070D02*
D03*
X97880Y81770D02*
D03*
Y80770D02*
D03*
Y79770D02*
D03*
Y78770D02*
D03*
Y77770D02*
D03*
Y76770D02*
D03*
Y75770D02*
D03*
X94080Y81770D02*
D03*
Y80770D02*
D03*
Y77770D02*
D03*
Y76770D02*
D03*
Y75770D02*
D03*
Y78770D02*
D03*
Y79770D02*
D03*
X99830Y84070D02*
D03*
X90080Y71320D02*
D03*
X91080D02*
D03*
X92080D02*
D03*
X93080D02*
D03*
X94080D02*
D03*
X95080D02*
D03*
X96080D02*
D03*
X97080D02*
D03*
X98080D02*
D03*
X99080D02*
D03*
X100080D02*
D03*
X101080D02*
D03*
X102080D02*
D03*
X103080D02*
D03*
X104080D02*
D03*
X105080D02*
D03*
X106080D02*
D03*
X107080D02*
D03*
X108080D02*
D03*
G54D31*
X92080Y87120D02*
D03*
X90080D02*
D03*
X91080D02*
D03*
G54D36*
X92330Y74720D02*
D03*
Y84580D02*
D03*
G54D38*
X99830Y87070D02*
D03*
X92830Y77470D02*
D03*
X107830Y86570D02*
D03*
X97880Y82770D02*
D03*
X94080D02*
D03*
X94580Y88820D02*
D03*
X89080Y71320D02*
D03*
M02*
