*%FSLAX24Y24*%
*%MOIN*%
G01*
%ADD11C,0.0010*%
%ADD12C,0.0050*%
%ADD13C,0.0060*%
%ADD14C,0.0072*%
%ADD15C,0.0073*%
%ADD16C,0.0080*%
%ADD17C,0.0100*%
%ADD18C,0.0120*%
%ADD19C,0.0260*%
%ADD20C,0.0300*%
%ADD21C,0.0350*%
%ADD22C,0.0380*%
%ADD23C,0.0450*%
%ADD24C,0.0500*%
%ADD25C,0.0530*%
%ADD26C,0.0550*%
%ADD27C,0.0580*%
%ADD28C,0.0620*%
%ADD29C,0.0660*%
%ADD30C,0.0700*%
%ADD31C,0.0750*%
%ADD32C,0.0780*%
%ADD33C,0.0830*%
%ADD34C,0.0950*%
%ADD35C,0.1400*%
%ADD36C,0.1800*%
%ADD37C,0.1880*%
%ADD38R,0.0620X0.0620*%
%ADD39R,0.0700X0.0700*%
G54D11*
X93880Y84620D02*
Y85020D01*
X94280D01*
Y84620D01*
X93880D01*
X97880D02*
Y85020D01*
X98280D01*
Y84620D01*
X97880D01*
X92280Y87120D02*
X92263Y87039D01*
X92214Y86971D01*
X92142Y86930D01*
X92059Y86921D01*
X91980Y86947D01*
X91918Y87002D01*
X91884Y87078D01*
Y87162D01*
X91918Y87238D01*
X91980Y87293D01*
X92059Y87319D01*
X92142Y87310D01*
X92214Y87269D01*
X92263Y87201D01*
X92280Y87120D01*
X90280D02*
X90263Y87039D01*
X90214Y86971D01*
X90142Y86930D01*
X90059Y86921D01*
X89980Y86947D01*
X89918Y87002D01*
X89884Y87078D01*
Y87162D01*
X89918Y87238D01*
X89980Y87293D01*
X90059Y87319D01*
X90142Y87310D01*
X90214Y87269D01*
X90263Y87201D01*
X90280Y87120D01*
X105630Y87270D02*
X105830Y86870D01*
X105630Y87270D02*
X106030D01*
X105830Y86870D01*
X105630Y86270D02*
X105830Y85870D01*
X105630Y86270D02*
X106030D01*
X105830Y85870D01*
X105630Y85270D02*
X105830Y84870D01*
X105630Y85270D02*
X106030D01*
X105830Y84870D01*
X105630Y84270D02*
X105830Y83870D01*
X105630Y84270D02*
X106030D01*
X105830Y83870D01*
X105630Y83270D02*
X105830Y82870D01*
X105630Y83270D02*
X106030D01*
X105830Y82870D01*
X105630Y82270D02*
X105830Y81870D01*
X105630Y82270D02*
X106030D01*
X105830Y81870D01*
X105630Y81270D02*
X105830Y80870D01*
X105630Y81270D02*
X106030D01*
X105830Y80870D01*
X105630Y80270D02*
X105830Y79870D01*
X105630Y80270D02*
X106030D01*
X105830Y79870D01*
X105630Y79270D02*
X105830Y78870D01*
X105630Y79270D02*
X106030D01*
X105830Y78870D01*
X105630Y78270D02*
X105830Y77870D01*
X105630Y78270D02*
X106030D01*
X105830Y77870D01*
X105630Y77270D02*
X105830Y76870D01*
X105630Y77270D02*
X106030D01*
X105830Y76870D01*
X105630Y76270D02*
X105830Y75870D01*
X105630Y76270D02*
X106030D01*
X105830Y75870D01*
X105630Y75270D02*
X105830Y74870D01*
X105630Y75270D02*
X106030D01*
X105830Y74870D01*
X105630Y74270D02*
X105830Y73870D01*
X105630Y74270D02*
X106030D01*
X105830Y73870D01*
X99830D02*
X99630Y74270D01*
X100030D01*
X99830Y73870D01*
Y74870D02*
X99630Y75270D01*
X100030D01*
X99830Y74870D01*
Y75870D02*
X99630Y76270D01*
X100030D01*
X99830Y75870D01*
Y76870D02*
X99630Y77270D01*
X100030D01*
X99830Y76870D01*
Y77870D02*
X99630Y78270D01*
X100030D01*
X99830Y77870D01*
Y78870D02*
X99630Y79270D01*
X100030D01*
X99830Y78870D01*
Y79870D02*
X99630Y80270D01*
X100030D01*
X99830Y79870D01*
Y80870D02*
X99630Y81270D01*
X100030D01*
X99830Y80870D01*
Y81870D02*
X99630Y82270D01*
X100030D01*
X99830Y81870D01*
Y82870D02*
X99630Y83270D01*
X100030D01*
X99830Y82870D01*
Y84870D02*
X99630Y85270D01*
X100030D01*
X99830Y84870D01*
Y85870D02*
X99630Y86270D01*
X100030D01*
X99830Y85870D01*
Y86870D02*
X99630Y87270D01*
X100030D01*
X99830Y86870D01*
X92630Y77670D02*
X92830Y77270D01*
X92630Y77670D02*
X93030D01*
X92830Y77270D01*
Y78360D02*
X92630Y78760D01*
X93030D01*
X92830Y78360D01*
Y79450D02*
X92630Y79850D01*
X93030D01*
X92830Y79450D01*
Y80540D02*
X92630Y80940D01*
X93030D01*
X92830Y80540D01*
Y81630D02*
X92630Y82030D01*
X93030D01*
X92830Y81630D01*
X91630Y78220D02*
X91830Y77820D01*
X91630Y78220D02*
X92030D01*
X91830Y77820D01*
Y78910D02*
X91630Y79310D01*
X92030D01*
X91830Y78910D01*
Y80000D02*
X91630Y80400D01*
X92030D01*
X91830Y80000D01*
Y81090D02*
X91630Y81490D01*
X92030D01*
X91830Y81090D01*
X92430Y74620D02*
X92330Y74520D01*
X92430Y74620D02*
X92530D01*
X92430Y74720D01*
X92530Y74820D01*
X92430D01*
X92330Y74920D01*
X92230Y74820D01*
X92130D01*
X92230Y74720D01*
X92130Y74620D01*
X92230D01*
X92330Y74520D01*
Y84380D02*
X92430Y84480D01*
X92530D01*
X92430Y84580D01*
X92530Y84680D01*
X92430D01*
X92330Y84780D01*
X92230Y84680D01*
X92130D01*
X92230Y84580D01*
X92130Y84480D01*
X92230D01*
X92330Y84380D01*
X107630Y84370D02*
Y84770D01*
X108030D01*
Y84370D01*
X107630D01*
Y86370D02*
Y86770D01*
X108030D01*
Y86370D01*
X107630D01*
X97880Y84020D02*
Y83620D01*
Y84020D02*
X98280D01*
Y83620D01*
X97880D01*
X93880D02*
Y84020D01*
X94280D01*
Y83620D01*
X93880D01*
X95030Y80270D02*
X94930Y80070D01*
X95030Y80270D02*
X94930Y80470D01*
X95130Y80370D01*
X95330Y80470D01*
X95230Y80270D01*
X95330Y80070D01*
X95130Y80170D01*
X94930Y80070D01*
X95630Y80570D02*
X95730Y80770D01*
X95630Y80970D01*
X95830Y80870D01*
X96030Y80970D01*
X95930Y80770D01*
X96030Y80570D01*
X95830Y80670D01*
X95630Y80570D01*
X94930Y82070D02*
X95030Y82270D01*
X94930Y82470D01*
X95130Y82370D01*
X95330Y82470D01*
X95230Y82270D01*
X95330Y82070D01*
X95130Y82170D01*
X94930Y82070D01*
X95730Y81770D02*
X95630Y81570D01*
X95730Y81770D02*
X95630Y81970D01*
X95830Y81870D01*
X96030Y81970D01*
X95930Y81770D01*
X96030Y81570D01*
X95830Y81670D01*
X95630Y81570D01*
Y82570D02*
X95730Y82770D01*
X95630Y82970D01*
X95830Y82870D01*
X96030Y82970D01*
X95930Y82770D01*
X96030Y82570D01*
X95830Y82670D01*
X95630Y82570D01*
X95730Y76270D02*
X95630Y76070D01*
X95730Y76270D02*
X95630Y76470D01*
X95830Y76370D01*
X96030Y76470D01*
X95930Y76270D01*
X96030Y76070D01*
X95830Y76170D01*
X95630Y76070D01*
X95030Y75770D02*
X94930Y75570D01*
X95030Y75770D02*
X94930Y75970D01*
X95130Y75870D01*
X95330Y75970D01*
X95230Y75770D01*
X95330Y75570D01*
X95130Y75670D01*
X94930Y75570D01*
Y78070D02*
X95030Y78270D01*
X94930Y78470D01*
X95130Y78370D01*
X95330Y78470D01*
X95230Y78270D01*
X95330Y78070D01*
X95130Y78170D01*
X94930Y78070D01*
X95730Y77770D02*
X95630Y77570D01*
X95730Y77770D02*
X95630Y77970D01*
X95830Y77870D01*
X96030Y77970D01*
X95930Y77770D01*
X96030Y77570D01*
X95830Y77670D01*
X95630Y77570D01*
X97880Y82570D02*
X97680Y82970D01*
X98080D01*
X97880Y82570D01*
X97680Y81970D02*
X97880Y81570D01*
X97680Y81970D02*
X98080D01*
X97880Y81570D01*
X97680Y80970D02*
X97880Y80570D01*
X97680Y80970D02*
X98080D01*
X97880Y80570D01*
X97680Y79970D02*
X97880Y79570D01*
X97680Y79970D02*
X98080D01*
X97880Y79570D01*
X97680Y78970D02*
X97880Y78570D01*
X97680Y78970D02*
X98080D01*
X97880Y78570D01*
X97680Y77970D02*
X97880Y77570D01*
X97680Y77970D02*
X98080D01*
X97880Y77570D01*
X97680Y76970D02*
X97880Y76570D01*
X97680Y76970D02*
X98080D01*
X97880Y76570D01*
X97680Y75970D02*
X97880Y75570D01*
X97680Y75970D02*
X98080D01*
X97880Y75570D01*
X94080Y82570D02*
X93880Y82970D01*
X94280D01*
X94080Y82570D01*
X93880Y81970D02*
X94080Y81570D01*
X93880Y81970D02*
X94280D01*
X94080Y81570D01*
X93880Y80970D02*
X94080Y80570D01*
X93880Y80970D02*
X94280D01*
X94080Y80570D01*
X93880Y77970D02*
X94080Y77570D01*
X93880Y77970D02*
X94280D01*
X94080Y77570D01*
X93880Y76970D02*
X94080Y76570D01*
X93880Y76970D02*
X94280D01*
X94080Y76570D01*
X93880Y75970D02*
X94080Y75570D01*
X93880Y75970D02*
X94280D01*
X94080Y75570D01*
X96380Y74920D02*
X96580Y74520D01*
X96380Y74920D02*
X96780D01*
X96580Y74520D01*
X95380Y73920D02*
X95580Y73520D01*
X95380Y73920D02*
X95780D01*
X95580Y73520D01*
Y74520D02*
X95380Y74920D01*
X95780D01*
X95580Y74520D01*
X90880Y88520D02*
X90980Y88720D01*
X90880Y88920D01*
X91080Y88820D01*
X91280Y88920D01*
X91180Y88720D01*
X91280Y88520D01*
X91080Y88620D01*
X90880Y88520D01*
Y89120D02*
X90980Y89320D01*
X90880Y89520D01*
X91080Y89420D01*
X91280Y89520D01*
X91180Y89320D01*
X91280Y89120D01*
X91080Y89220D01*
X90880Y89120D01*
X93880Y78970D02*
X94080Y78570D01*
X93880Y78970D02*
X94280D01*
X94080Y78570D01*
Y79570D02*
X93880Y79970D01*
X94280D01*
X94080Y79570D01*
X99830Y83870D02*
X99630Y84270D01*
X100030D01*
X99830Y83870D01*
X95730Y78770D02*
X95630Y78570D01*
X95730Y78770D02*
X95630Y78970D01*
X95830Y78870D01*
X96030Y78970D01*
X95930Y78770D01*
X96030Y78570D01*
X95830Y78670D01*
X95630Y78570D01*
X95030Y76770D02*
X94930Y76570D01*
X95030Y76770D02*
X94930Y76970D01*
X95130Y76870D01*
X95330Y76970D01*
X95230Y76770D01*
X95330Y76570D01*
X95130Y76670D01*
X94930Y76570D01*
X95630Y79570D02*
X95730Y79770D01*
X95630Y79970D01*
X95830Y79870D01*
X96030Y79970D01*
X95930Y79770D01*
X96030Y79570D01*
X95830Y79670D01*
X95630Y79570D01*
X96380Y73920D02*
X96580Y73520D01*
X96380Y73920D02*
X96780D01*
X96580Y73520D01*
X91280Y87120D02*
X91263Y87039D01*
X91214Y86971D01*
X91142Y86930D01*
X91059Y86921D01*
X90980Y86947D01*
X90918Y87002D01*
X90884Y87078D01*
Y87162D01*
X90918Y87238D01*
X90980Y87293D01*
X91059Y87319D01*
X91142Y87310D01*
X91214Y87269D01*
X91263Y87201D01*
X91280Y87120D01*
X107630Y85770D02*
Y85370D01*
Y85770D02*
X108030D01*
Y85370D01*
X107630D01*
X94380Y88620D02*
Y89020D01*
X94780D01*
Y88620D01*
X94380D01*
Y88020D02*
Y87620D01*
Y88020D02*
X94780D01*
Y87620D01*
X94380D01*
Y87020D02*
Y86620D01*
Y87020D02*
X94780D01*
Y86620D01*
X94380D01*
Y86020D02*
Y85620D01*
Y86020D02*
X94780D01*
Y85620D01*
X94380D01*
X97380D02*
Y86020D01*
X97780D01*
Y85620D01*
X97380D01*
Y86620D02*
Y87020D01*
X97780D01*
Y86620D01*
X97380D01*
Y87620D02*
Y88020D01*
X97780D01*
Y87620D01*
X97380D01*
Y88620D02*
Y89020D01*
X97780D01*
Y88620D01*
X97380D01*
X88880Y71520D02*
X89080Y71120D01*
X88880Y71520D02*
X89280D01*
X89080Y71120D01*
X89880Y71520D02*
X90080Y71120D01*
X89880Y71520D02*
X90280D01*
X90080Y71120D01*
X90880Y71520D02*
X91080Y71120D01*
X90880Y71520D02*
X91280D01*
X91080Y71120D01*
X91880Y71520D02*
X92080Y71120D01*
X91880Y71520D02*
X92280D01*
X92080Y71120D01*
X92880Y71520D02*
X93080Y71120D01*
X92880Y71520D02*
X93280D01*
X93080Y71120D01*
X93880Y71520D02*
X94080Y71120D01*
X93880Y71520D02*
X94280D01*
X94080Y71120D01*
X94880Y71520D02*
X95080Y71120D01*
X94880Y71520D02*
X95280D01*
X95080Y71120D01*
X95880Y71520D02*
X96080Y71120D01*
X95880Y71520D02*
X96280D01*
X96080Y71120D01*
X96880Y71520D02*
X97080Y71120D01*
X96880Y71520D02*
X97280D01*
X97080Y71120D01*
X97880Y71520D02*
X98080Y71120D01*
X97880Y71520D02*
X98280D01*
X98080Y71120D01*
X98880Y71520D02*
X99080Y71120D01*
X98880Y71520D02*
X99280D01*
X99080Y71120D01*
X99880Y71520D02*
X100080Y71120D01*
X99880Y71520D02*
X100280D01*
X100080Y71120D01*
X100880Y71520D02*
X101080Y71120D01*
X100880Y71520D02*
X101280D01*
X101080Y71120D01*
X101880Y71520D02*
X102080Y71120D01*
X101880Y71520D02*
X102280D01*
X102080Y71120D01*
X102880Y71520D02*
X103080Y71120D01*
X102880Y71520D02*
X103280D01*
X103080Y71120D01*
X103880Y71520D02*
X104080Y71120D01*
X103880Y71520D02*
X104280D01*
X104080Y71120D01*
X104880Y71520D02*
X105080Y71120D01*
X104880Y71520D02*
X105280D01*
X105080Y71120D01*
X105880Y71520D02*
X106080Y71120D01*
X105880Y71520D02*
X106280D01*
X106080Y71120D01*
X106880Y71520D02*
X107080Y71120D01*
X106880Y71520D02*
X107280D01*
X107080Y71120D01*
X107880Y71520D02*
X108080Y71120D01*
X107880Y71520D02*
X108280D01*
X108080Y71120D01*
D02*
M02*
