M72
M48
T1F00S00C0.026
T2F00S00C0.035
T3F00S00C0.038
T4F00S00C0.055
T5F00S00C0.140
%
T01
X01655Y01545
Y01645
X01725Y01595
Y01745
Y01845
Y01945
Y02045
Y02145
Y02245
X01655Y02195
Y01995
Y01795
X0125Y0284
Y029
T02
X016Y0255
Y0265
Y0275
Y0285
X019
Y0275
Y0265
Y0255
X0195Y0245
Y0235
X02925Y02425
Y02525
Y02625
X0155Y0245
Y0235
T03
X0105Y011
X0115
X0125
X0135
X0145
X0155
Y01545
X017Y0144
Y0134
X018
Y0144
X0193Y01545
X02125Y01475
Y01375
X0215Y011
X0225
X0235
X0245
X0255
X0265
X0275
X0285
X0295
X02725Y01375
Y01475
X0205Y011
X0195
X0185
X0175
X0165
X0193Y01645
Y01745
Y01845
Y01945
Y02045
Y02145
Y02245
X02125Y02275
Y02375
Y02475
Y02575
Y02675
Y02175
Y02075
Y01975
Y01875
Y01775
Y01675
Y01575
X02725
Y01675
Y01775
Y01875
Y01975
Y02075
Y02175
Y02275
Y02375
Y02475
Y02575
Y02675
X0155Y02245
Y02145
Y02045
Y01945
Y01845
Y01745
Y01645
X01425Y01715
Y01824
Y01933
Y02042
Y02151
X01325Y02097
Y01988
Y01879
Y0177
T04
X0115Y0268
X0125
X0135
T05
X01375Y0144
Y02426
M30
